<?xml version="1.0" standalone="no"?>
<!DOCTYPE svg PUBLIC "-//W3C//DTD SVG 20010904//EN"
 "http://www.w3.org/TR/2001/REC-SVG-20010904/DTD/svg10.dtd">
<svg version="1.0" xmlns="http://www.w3.org/2000/svg"
 width="1600.000000pt" height="717.000000pt" viewBox="0 0 1600.000000 717.000000"
 preserveAspectRatio="xMidYMid meet">

<g transform="translate(0.000000,717.000000) scale(0.100000,-0.100000)"
fill="#000000" stroke="none">
<path d="M0 3585 l0 -3585 8000 0 8000 0 0 3585 0 3585 -810 0 -810 0 0 -980
0 -980 -6380 0 -6380 0 0 980 0 980 -810 0 -810 0 0 -3585z m2568 493 c15 -15
16 -171 2 -199 -10 -17 -22 -19 -114 -19 -99 0 -104 1 -110 23 -11 41 -7 182
6 195 16 16 200 16 216 0z m5660 0 c8 -8 12 -47 12 -109 0 -79 -3 -98 -16
-103 -20 -8 -188 -8 -208 0 -13 5 -16 24 -16 108 0 57 3 106 7 109 12 13 208
8 221 -5z m-5058 -34 c0 -8 -7 -14 -15 -14 -15 0 -21 21 -9 33 10 9 24 -2 24
-19z m540 2 c-14 -14 -92 -16 -87 -2 2 6 18 11 35 12 17 0 35 3 38 7 4 3 11 4
16 1 6 -4 5 -11 -2 -18z m4945 -71 c0 -73 -3 -90 -15 -90 -12 0 -16 18 -18 93
-3 85 -1 93 15 90 16 -3 18 -15 18 -93z m330 74 c0 -7 -8 -15 -17 -17 -18 -3
-25 18 -11 32 10 10 28 1 28 -15z m520 0 c0 -10 -13 -14 -43 -15 -45 -1 -62 9
-38 23 24 13 81 8 81 -8z m-6799 3 c7 -4 17 -27 24 -52 18 -68 21 -68 44 -4
18 51 25 59 46 59 25 0 25 -1 25 -85 0 -69 -3 -85 -15 -85 -11 0 -16 15 -20
55 l-6 55 -12 -40 c-14 -50 -36 -80 -50 -71 -6 3 -16 23 -22 44 -18 53 -26 58
-22 11 4 -40 -10 -65 -30 -53 -10 6 -11 158 -1 167 8 9 25 9 39 -1z m5631 -4
c6 -7 16 -34 23 -60 7 -26 16 -45 20 -43 5 3 13 27 20 54 10 44 33 71 48 56
10 -9 -48 -175 -61 -175 -7 0 -17 4 -23 8 -14 9 -64 158 -56 166 9 9 19 7 29
-6z m1463 -24 c0 -34 1 -35 33 -32 28 3 32 7 35 36 3 25 8 32 20 30 14 -3 17
-17 17 -88 0 -69 -3 -85 -15 -85 -10 0 -17 13 -20 35 -4 31 -8 35 -35 35 -27
0 -31 -4 -35 -35 -3 -22 -10 -35 -20 -35 -12 0 -16 16 -18 74 -3 83 1 101 23
101 11 0 15 -10 15 -36z m-6716 2 c31 -28 32 -32 6 -39 -29 -7 -28 -67 0 -74
25 -7 21 -27 -6 -31 -30 -4 -43 11 -45 53 -1 22 -7 46 -13 53 -6 9 -6 16 0 20
6 4 13 15 17 25 8 22 11 22 41 -7z m-106 -22 c19 -13 22 -24 20 -57 -2 -33 -9
-44 -30 -57 -25 -13 -31 -13 -55 0 -22 13 -29 24 -31 57 -2 33 1 44 20 57 12
9 29 16 38 16 9 0 26 -7 38 -16z m190 -49 c-4 -87 -22 -88 -26 -2 -2 56 0 67
13 67 13 0 15 -11 13 -65z m73 25 c7 -22 15 -40 19 -40 4 0 12 18 19 40 14 49
47 58 38 11 -10 -48 -41 -106 -57 -106 -16 0 -47 58 -57 106 -9 47 24 38 38
-11z m200 24 c7 -9 13 -39 14 -66 l0 -50 -47 -3 c-52 -5 -72 9 -66 47 2 17 13
25 43 34 31 9 36 13 23 19 -10 4 -25 5 -33 2 -19 -8 -31 13 -14 24 23 14 65
10 80 -7z m139 -4 c0 -14 -6 -19 -21 -17 -28 3 -48 -27 -33 -50 6 -10 20 -18
30 -19 35 -2 37 -4 20 -23 -9 -10 -16 -22 -15 -27 4 -24 -3 -34 -26 -34 -14 0
-25 5 -25 10 0 6 5 10 10 10 17 0 11 16 -16 45 -21 23 -25 35 -20 64 6 42 28
61 68 61 21 0 28 -5 28 -20z m121 10 c15 -9 19 -22 19 -65 0 -51 -11 -77 -25
-55 -4 7 -13 7 -26 -1 -24 -12 -55 -4 -63 17 -9 24 11 52 44 59 39 9 39 25 0
25 -47 0 -35 27 13 29 10 1 27 -4 38 -9z m162 -22 c48 -65 -36 -145 -93 -88
-43 43 -10 125 47 118 14 -2 35 -15 46 -30z m4706 18 c7 -8 11 -37 9 -67 -3
-51 -3 -52 -38 -55 -57 -5 -72 3 -68 39 2 26 9 33 36 41 40 11 42 26 2 26 -16
0 -30 4 -30 9 0 23 72 28 89 7z m221 -6 c41 -41 12 -120 -44 -120 -27 0 -66
42 -66 70 0 28 39 70 66 70 13 0 33 -9 44 -20z m75 10 c5 -8 11 -7 21 1 15 12
44 6 44 -11 0 -6 -11 -15 -24 -20 -20 -7 -25 -17 -28 -52 -2 -30 -7 -43 -18
-43 -12 0 -16 15 -18 68 -3 62 6 84 23 57z m120 -60 c0 -51 -3 -65 -15 -65
-12 0 -16 16 -18 68 -3 62 -1 68 15 65 15 -3 18 -14 18 -68z m125 53 c0 -9
-11 -31 -25 -49 -32 -41 -31 -44 5 -44 17 0 30 -4 30 -9 0 -24 -97 -30 -106
-6 -3 7 6 29 20 48 32 42 32 47 1 47 -24 0 -32 10 -18 23 3 4 26 7 50 7 33 0
43 -4 43 -17z m125 1 c11 -12 15 -31 13 -66 l-3 -50 -47 -4 c-52 -4 -72 10
-66 48 2 16 13 25 41 33 40 11 40 25 0 25 -22 0 -30 10 -16 23 12 13 62 7 78
-9z m140 -4 c0 -10 -8 -14 -22 -12 -29 4 -48 -30 -33 -59 9 -16 18 -19 36 -15
17 5 24 2 24 -8 0 -8 -6 -16 -12 -18 -7 -3 -13 -15 -13 -29 0 -19 -6 -25 -30
-27 -27 -2 -28 -1 -12 11 16 13 15 16 -10 42 -34 33 -37 97 -7 120 24 19 79
15 79 -5z m125 10 c10 -6 15 -27 15 -66 l0 -58 -40 -2 c-64 -4 -77 3 -73 39 3
27 8 33 42 42 25 7 35 14 28 19 -7 4 -21 5 -31 1 -19 -6 -36 8 -27 23 7 12 69
13 86 2z m148 -6 c46 -32 16 -124 -40 -124 -40 1 -63 26 -63 71 0 63 52 89
103 53z m332 -33 c0 -34 5 -51 15 -55 19 -7 35 23 35 69 0 29 3 36 18 33 14
-3 17 -14 17 -67 l0 -65 -47 -2 c-61 -4 -78 12 -78 75 0 50 5 61 27 61 9 0 13
-15 13 -49z m310 34 c17 -20 9 -120 -10 -120 -10 0 -16 12 -18 40 -1 22 -5 46
-7 54 -10 26 -34 -9 -37 -52 -2 -29 -8 -42 -18 -42 -11 0 -16 14 -20 50 -4 36
-9 50 -20 50 -11 0 -16 -14 -20 -50 -4 -36 -9 -50 -20 -50 -11 0 -16 15 -18
65 l-3 65 90 2 c64 1 93 -3 101 -12z m145 -9 c10 -15 15 -40 13 -67 -3 -43 -3
-43 -43 -45 -64 -4 -77 3 -73 39 3 27 8 33 43 43 31 9 36 13 23 19 -10 4 -25
5 -33 2 -19 -8 -31 13 -14 24 27 17 68 10 84 -15z m152 12 c8 -6 13 -34 13
-70 0 -51 -2 -59 -17 -56 -14 2 -19 15 -21 56 -2 37 -7 52 -17 52 -15 0 -22
-21 -27 -75 -2 -19 -9 -30 -18 -30 -11 0 -16 15 -18 65 l-3 65 48 2 c26 1 53
-3 60 -9z m147 -4 c19 -19 22 -109 4 -120 -6 -4 -13 -3 -15 3 -3 8 -12 8 -33
0 -36 -14 -62 5 -58 42 2 20 11 28 41 36 42 12 39 25 -5 25 -15 0 -28 4 -28 9
0 24 72 27 94 5z m-8166 -586 c13 -13 17 -154 6 -195 -6 -22 -11 -23 -114 -23
-89 0 -109 3 -114 16 -11 29 -7 189 6 202 16 16 200 16 216 0z m5661 -2 c8 -9
11 -48 9 -112 l-3 -99 -115 0 -115 0 -3 99 c-2 64 1 103 9 112 8 10 38 14 109
14 71 0 101 -4 109 -14z m609 -103 l3 -91 -53 2 c-47 1 -54 4 -66 29 -26 54
10 117 58 102 16 -5 20 -2 20 18 0 27 9 39 24 34 7 -2 12 -42 14 -94z m142 66
c0 -28 2 -31 25 -25 34 9 65 -24 65 -67 0 -47 -26 -68 -81 -64 l-44 3 -3 79
c-3 88 0 105 23 105 10 0 15 -10 15 -31z m154 0 c-8 -14 -34 -11 -34 4 0 8 3
17 7 20 9 9 34 -13 27 -24z m71 -65 c0 -77 -2 -89 -17 -92 -16 -3 -18 6 -18
86 0 49 3 92 7 96 20 19 28 -7 28 -90z m75 70 c0 -8 -9 -14 -20 -14 -22 0 -28
26 -7 33 16 6 27 -1 27 -19z m150 -67 l0 -94 -45 -1 c-56 0 -75 17 -75 68 0
30 5 43 24 55 13 8 31 13 40 9 12 -5 16 0 16 18 0 28 7 38 27 38 10 0 13 -22
13 -93z m295 -3 l0 -89 -50 0 c-44 0 -51 3 -63 28 -10 21 -11 35 -2 61 12 37
32 50 61 41 15 -5 19 -1 19 18 0 27 9 39 24 34 7 -2 11 -39 11 -93z m-6967 80
c36 -10 27 -34 -13 -34 -28 0 -38 -5 -47 -26 -18 -40 8 -80 51 -77 25 1 31 -3
29 -15 -5 -25 -69 -28 -98 -4 -18 15 -23 29 -23 65 0 48 14 74 48 87 25 11 26
11 53 4z m1362 -9 c0 -8 -9 -15 -20 -15 -11 0 -20 7 -20 15 0 8 9 15 20 15 11
0 20 -7 20 -15z m4304 9 c31 -12 18 -34 -19 -34 -28 0 -38 -5 -47 -26 -18 -40
8 -80 51 -77 25 1 31 -3 29 -15 -5 -25 -69 -28 -98 -4 -18 14 -23 29 -24 66
-1 41 3 51 27 72 28 24 52 29 81 18z m486 -10 c0 -9 -7 -14 -17 -12 -25 5 -28
28 -4 28 12 0 21 -6 21 -16z m-4886 -19 c3 -8 12 -15 21 -15 22 0 18 -17 -5
-23 -15 -4 -20 -14 -20 -41 0 -30 4 -36 21 -36 28 0 19 -24 -10 -28 -13 -2
-28 1 -34 7 -16 16 -26 113 -13 133 13 22 32 23 40 3z m710 0 c3 -8 12 -15 21
-15 22 0 18 -17 -5 -23 -15 -4 -20 -14 -20 -41 0 -30 4 -36 21 -36 29 0 18
-24 -13 -28 -13 -2 -29 3 -35 10 -13 16 -19 107 -9 131 10 21 32 22 40 2z
m-1816 -33 c6 -9 12 -29 12 -46 0 -81 -106 -91 -126 -11 -16 64 73 109 114 57z
m179 19 c47 18 67 -12 61 -87 -2 -27 -8 -40 -20 -42 -15 -3 -18 4 -18 47 0 44
-3 51 -19 51 -17 0 -20 -8 -23 -47 -2 -36 -7 -49 -20 -51 -15 -3 -18 4 -18 47
0 44 -3 51 -19 51 -17 0 -20 -8 -23 -47 -2 -36 -7 -49 -20 -51 -16 -3 -18 5
-18 62 l0 65 38 3 c20 2 46 0 57 -3 11 -4 30 -3 42 2z m193 -1 c11 -6 22 -26
26 -45 9 -48 -16 -85 -56 -85 -24 0 -29 -5 -32 -27 -2 -17 -9 -28 -18 -28 -12
0 -16 18 -18 92 l-3 92 38 4 c21 2 39 4 41 5 2 1 12 -3 22 -8z m140 -8 c0 -9
-10 -22 -22 -27 -18 -8 -24 -20 -26 -53 -3 -34 -7 -43 -20 -40 -13 2 -17 15
-18 48 -2 63 4 83 26 77 10 -2 24 -1 31 4 21 13 29 11 29 -9z m128 -4 c17 -15
15 -83 -4 -102 -21 -22 -67 -20 -88 3 -26 29 -18 92 14 108 25 13 54 9 78 -9z
m177 12 c11 4 30 4 43 -1 19 -7 22 -15 22 -69 0 -53 -2 -61 -17 -58 -14 2 -19
15 -21 51 -3 39 -6 48 -20 45 -13 -2 -18 -16 -20 -51 -3 -39 -6 -48 -20 -45
-13 2 -18 16 -20 51 -3 38 -7 47 -22 47 -15 0 -19 -9 -22 -47 -2 -36 -7 -49
-20 -51 -16 -3 -18 5 -18 62 l0 65 38 3 c20 2 46 0 57 -3 11 -4 29 -3 40 1z
m203 -12 c6 -6 12 -21 12 -34 0 -21 -5 -24 -41 -24 -49 0 -50 -23 0 -28 41 -4
36 -26 -8 -30 -43 -4 -71 21 -71 63 0 64 58 92 108 53z m337 9 c6 0 18 4 27 8
10 4 24 -1 38 -15 27 -27 26 -113 -2 -118 -15 -3 -18 4 -18 43 0 33 -5 47 -16
52 -21 8 -34 -14 -34 -59 0 -27 -4 -38 -15 -38 -11 0 -15 11 -15 43 0 24 -5
48 -12 55 -20 20 -38 -6 -38 -54 0 -32 -4 -44 -15 -44 -18 0 -27 34 -23 86 3
36 6 39 38 45 19 3 44 4 55 1 11 -3 25 -5 30 -5z m203 -3 c12 -8 22 -26 22
-39 0 -20 -6 -24 -37 -27 -48 -4 -46 -22 2 -26 47 -4 41 -26 -8 -30 -40 -4
-77 24 -77 58 0 29 21 69 39 73 29 8 36 7 59 -9z m153 6 c15 -9 19 -22 19 -70
0 -47 -3 -60 -15 -60 -10 0 -15 10 -15 34 0 47 -9 66 -31 66 -14 0 -18 -9 -21
-47 -2 -36 -7 -49 -20 -51 -16 -3 -18 5 -18 62 l0 65 33 4 c17 2 36 5 40 5 5
1 17 -3 28 -8z m267 -12 c17 -15 15 -78 -5 -100 -16 -18 -58 -24 -80 -10 -6 4
-16 20 -22 35 -26 68 49 121 107 75z m3662 -3 c0 -7 -10 -15 -22 -17 -20 -3
-23 -10 -26 -50 -3 -40 -6 -48 -23 -48 -17 0 -19 7 -19 64 l0 65 30 -1 c17 -1
33 2 37 5 9 9 23 -2 23 -18z m108 9 c12 -8 22 -26 22 -39 0 -20 -6 -24 -37
-27 -48 -4 -46 -22 2 -26 47 -4 41 -26 -8 -30 -44 -4 -77 25 -77 66 1 58 53
88 98 56z m890 0 c20 -14 23 -23 20 -67 l-3 -52 -49 0 c-35 0 -52 5 -60 18
-15 24 3 51 40 57 29 5 33 27 4 23 -8 -1 -22 0 -30 3 -12 5 -12 8 4 20 26 18
46 18 74 -2z m302 -4 c11 -11 20 -29 20 -40 0 -17 -7 -20 -40 -20 -29 0 -40
-4 -40 -15 0 -11 11 -15 36 -15 40 0 44 -23 5 -28 -40 -6 -68 7 -80 36 -29 70
48 133 99 82z m-5740 -56 c0 -57 -2 -65 -17 -62 -15 3 -19 16 -21 66 -3 57 -1
62 18 62 18 0 20 -6 20 -66z m4790 0 c0 -57 -2 -65 -17 -62 -15 3 -19 16 -21
66 -3 57 -1 62 18 62 18 0 20 -6 20 -66z m228 4 c-2 -50 -6 -63 -20 -66 -16
-3 -18 5 -18 62 0 60 2 66 20 66 19 0 21 -5 18 -62z m142 -4 c0 -57 -2 -65
-17 -62 -15 3 -19 16 -21 66 -3 57 -1 62 18 62 18 0 20 -6 20 -66z m-6712
-536 c16 -16 16 -190 0 -206 -16 -16 -200 -16 -216 0 -13 13 -17 173 -6 202 5
13 24 16 108 16 66 0 106 -4 114 -12z m5666 -4 c11 -29 7 -189 -6 -202 -16
-16 -200 -16 -216 0 -13 13 -17 199 -5 211 3 4 55 7 114 7 88 0 108 -3 113
-16z m-4393 -21 c4 -155 4 -158 -22 -159 -13 -1 -32 -5 -41 -9 -25 -10 -58 28
-58 68 0 43 29 72 65 63 23 -6 25 -4 25 24 0 32 30 45 31 13z m294 -73 l0 -85
-50 -3 c-38 -2 -53 2 -62 15 -18 23 -16 64 3 92 13 18 23 22 45 17 27 -5 29
-3 29 25 0 24 4 30 18 27 15 -3 17 -15 17 -88z m330 70 c0 -22 -29 -18 -33 3
-3 14 1 18 15 15 10 -2 18 -10 18 -18z m5230 0 c-18 -20 -45 -27 -45 -12 0 15
24 32 44 32 18 0 19 -1 1 -20z m663 -64 c4 -96 -1 -111 -26 -97 -13 7 -22 7
-30 -1 -21 -21 -60 7 -68 47 -9 50 17 89 57 83 26 -4 29 -2 29 24 0 23 4 29
18 26 14 -3 17 -16 20 -82z m812 -4 c0 -93 -3 -104 -26 -95 -11 4 -14 27 -14
94 0 82 1 89 20 89 18 0 20 -7 20 -88z m130 73 c18 -21 3 -32 -22 -16 -14 9
-23 10 -31 2 -6 -6 -18 -11 -26 -11 -11 0 -10 4 4 20 22 24 58 26 75 5z m363
9 c9 -10 -4 -34 -19 -34 -8 0 -14 9 -14 20 0 19 19 27 33 14z m-8903 -18 c0
-9 -12 -16 -27 -18 -17 -2 -29 -10 -31 -20 -3 -14 3 -18 27 -18 21 0 31 -5 31
-15 0 -10 -10 -15 -30 -15 -23 0 -30 -4 -30 -20 0 -16 7 -20 30 -20 20 0 30
-5 30 -15 0 -11 -12 -15 -50 -15 l-50 0 0 85 0 85 50 0 c37 0 50 -4 50 -14z
m5659 4 c25 -13 34 -39 20 -57 -9 -10 -9 -17 -1 -25 15 -15 15 -51 0 -66 -7
-7 -36 -12 -65 -12 l-53 0 0 85 0 85 41 0 c22 0 48 -4 58 -10z m786 -10 c0
-10 -10 -15 -33 -15 -36 0 -52 -17 -52 -55 0 -35 17 -50 57 -50 38 0 43 -14
12 -30 -49 -27 -109 17 -109 80 0 57 36 92 88 88 25 -2 37 -8 37 -18z m1493 3
c-2 -13 -11 -17 -31 -15 -21 3 -27 -1 -27 -17 0 -14 8 -21 25 -23 14 -2 26 -7
26 -13 0 -5 -12 -11 -26 -13 -39 -5 -35 -42 5 -42 20 0 30 -5 30 -15 0 -10
-11 -15 -30 -16 -16 -1 -38 -2 -47 -3 -16 -1 -18 10 -21 87 l-3 87 51 0 c44 0
51 -3 48 -17z m-1114 -8 c3 -8 12 -15 21 -15 22 0 18 -27 -5 -33 -13 -3 -20
-14 -20 -31 0 -15 8 -30 20 -36 24 -13 26 -26 4 -34 -30 -11 -54 12 -54 52 0
21 -5 43 -11 49 -8 8 -6 18 6 37 20 30 30 33 39 11z m-6606 -23 c18 -3 17
-122 -2 -122 -17 0 -26 22 -26 66 0 22 -5 34 -14 34 -17 0 -26 -22 -26 -66 0
-27 -4 -34 -20 -34 -17 0 -20 7 -20 51 0 43 -3 50 -17 47 -14 -2 -19 -15 -21
-51 -3 -39 -6 -47 -23 -47 -17 0 -19 7 -19 58 0 32 2 61 5 64 4 4 150 4 183 0z
m162 -12 c31 -49 -7 -126 -55 -114 -23 6 -25 3 -25 -25 0 -21 -5 -31 -15 -31
-12 0 -15 17 -15 93 l0 94 50 -1 c33 -1 54 -6 60 -16z m70 8 c0 -9 3 -9 12 0
7 7 18 12 25 12 20 0 15 -28 -7 -40 -15 -8 -20 -21 -20 -50 0 -33 -3 -40 -20
-40 -18 0 -20 7 -20 65 0 51 3 65 15 65 8 0 15 -5 15 -12z m174 -4 c9 -8 16
-26 16 -40 0 -21 -4 -24 -40 -24 -22 0 -40 -4 -40 -9 0 -13 34 -23 53 -16 8 4
18 2 22 -4 3 -6 -6 -16 -21 -21 -48 -19 -94 11 -94 61 0 56 67 90 104 53z
m137 6 c12 -7 19 -21 19 -40 0 -28 -2 -30 -41 -30 -36 0 -40 -2 -29 -16 7 -8
24 -14 36 -12 32 4 30 -15 -2 -26 -20 -6 -32 -4 -53 11 -69 52 -7 154 70 113z
m157 -2 c7 -6 12 -34 12 -65 0 -46 -3 -54 -17 -51 -14 2 -18 14 -19 46 -1 48
-6 57 -29 49 -10 -5 -15 -20 -15 -52 0 -38 -3 -45 -20 -45 -18 0 -20 7 -20 63
l0 64 48 1 c26 0 53 -4 60 -10z m296 -4 c9 -8 16 -26 16 -40 0 -21 -4 -24 -40
-24 -32 0 -38 -3 -33 -16 4 -11 14 -14 34 -10 35 7 47 -9 19 -24 -40 -21 -100
15 -100 59 0 60 65 94 104 55z m298 -1 c21 -19 24 -71 4 -98 -17 -23 -71 -24
-93 -2 -24 23 -22 86 2 103 25 19 64 18 87 -3z m133 7 c3 -4 -6 -15 -20 -24
-20 -13 -25 -25 -25 -56 0 -33 -3 -40 -20 -40 -18 0 -20 7 -20 64 l0 63 40 0
c22 0 43 -3 45 -7z m63 -58 c3 -57 1 -62 -18 -62 -18 0 -20 6 -20 66 0 57 2
65 18 62 14 -3 18 -16 20 -66z m119 51 c3 -7 -9 -13 -29 -15 l-33 -3 33 -18
c60 -33 30 -97 -39 -82 -16 4 -29 13 -29 22 0 11 7 13 30 8 17 -4 30 -3 30 2
0 5 -13 19 -30 31 -32 24 -37 41 -18 60 16 16 80 12 85 -5z m221 4 c7 -5 12
-32 12 -63 0 -47 -2 -54 -20 -54 -17 0 -20 7 -20 51 0 43 -3 50 -17 47 -14 -2
-19 -15 -21 -51 -3 -38 -7 -47 -22 -47 -15 0 -19 9 -22 48 -2 34 -7 47 -18 47
-11 0 -16 -13 -18 -47 -3 -40 -6 -48 -23 -48 -17 0 -19 7 -19 63 l0 64 88 0
c48 0 93 -4 100 -10z m146 -3 c21 -20 21 -88 0 -104 -23 -20 -75 -16 -90 5
-19 26 -17 75 3 97 20 22 66 24 87 2z m3566 -37 c3 -26 8 -47 13 -47 4 0 11 0
16 0 6 0 11 21 13 47 2 36 7 49 21 51 15 3 17 -5 17 -63 0 -57 -2 -66 -17 -64
-10 2 -28 -1 -40 -5 -12 -4 -31 -2 -43 4 -17 9 -20 21 -20 71 0 52 2 60 18 57
12 -2 18 -16 22 -51z m198 36 c2 -8 -6 -13 -22 -13 -33 0 -34 -16 -2 -24 42
-10 46 -68 5 -81 -29 -9 -69 3 -69 20 0 11 8 13 30 9 19 -4 30 -2 30 4 0 7
-13 18 -30 27 -50 26 -33 79 24 73 16 -2 31 -9 34 -15z m132 3 c0 -9 -12 -16
-27 -18 -23 -2 -29 -8 -31 -35 -3 -33 2 -37 41 -34 24 3 22 -26 -3 -34 -11 -3
-32 0 -47 7 -22 10 -29 21 -31 52 -4 49 19 76 65 76 22 0 33 -5 33 -14z m128
2 c7 -7 12 -36 12 -65 0 -49 -2 -53 -22 -51 -13 1 -33 -2 -44 -6 -24 -7 -54
15 -54 39 0 21 29 45 56 45 13 0 24 5 24 10 0 6 -13 10 -30 10 -29 0 -38 9
-23 23 11 12 68 8 81 -5z m363 -9 c28 -28 22 -76 -12 -102 -44 -32 -99 -1 -99
55 0 62 67 91 111 47z m159 2 c15 -30 13 -108 -4 -114 -21 -8 -26 2 -26 49 0
24 -5 46 -12 50 -17 10 -38 -25 -38 -64 0 -26 -4 -33 -17 -30 -11 2 -17 16
-19 48 -4 70 0 75 56 78 40 2 51 -2 60 -17z m180 -46 c0 -51 -3 -65 -15 -65
-12 0 -15 14 -15 65 0 51 3 65 15 65 12 0 15 -14 15 -65z m148 53 c12 -10 17
-109 6 -121 -3 -3 -12 -3 -20 0 -9 3 -14 21 -14 55 0 42 -3 49 -17 46 -14 -2
-19 -15 -21 -51 -3 -39 -6 -47 -23 -47 -17 0 -19 7 -19 63 l0 64 48 1 c26 0
53 -4 60 -10z m82 -25 c0 -46 13 -68 34 -60 11 5 16 19 16 52 0 39 3 45 20 45
19 0 21 -5 18 -66 l-3 -66 -42 -3 c-65 -5 -77 12 -74 103 2 48 31 44 31 -5z
m223 17 c8 -11 14 -39 13 -63 -1 -38 -3 -42 -27 -43 -14 -1 -31 -4 -37 -8 -22
-13 -53 13 -50 42 2 21 11 29 36 37 40 12 42 25 2 25 -16 0 -30 4 -30 8 0 30
73 31 93 2z m363 -5 c23 -35 12 -55 -32 -55 -24 0 -34 -4 -31 -12 2 -7 18 -12
36 -12 41 2 42 -22 1 -31 -58 -13 -106 47 -79 98 16 29 28 37 61 37 18 0 33
-8 44 -25z m273 8 c10 -17 12 -17 25 0 14 19 46 23 46 7 0 -6 -7 -21 -16 -35
-14 -22 -14 -26 2 -50 24 -37 4 -55 -25 -23 -21 21 -23 22 -32 6 -9 -17 -55
-27 -47 -10 2 4 10 19 17 34 12 24 12 31 -3 52 -21 32 -20 36 4 36 10 0 24 -8
29 -17z m191 3 c0 -9 -12 -16 -27 -18 -20 -2 -29 -9 -31 -26 -5 -30 14 -51 38
-45 14 4 20 0 20 -10 0 -23 -35 -30 -67 -15 -22 10 -29 21 -31 52 -4 49 19 76
65 76 22 0 33 -5 33 -14z m138 -19 c17 -35 9 -47 -34 -47 -24 0 -34 -4 -31
-12 2 -8 17 -12 36 -10 41 3 42 -24 2 -33 -71 -15 -120 66 -70 116 29 29 80
23 97 -14z m204 16 c10 -9 18 -27 18 -40 0 -20 -5 -23 -40 -23 -22 0 -40 -4
-40 -9 0 -13 30 -22 51 -16 13 4 19 1 19 -8 0 -21 -46 -30 -78 -15 -21 10 -28
21 -30 52 -6 65 54 101 100 59z m155 5 c13 -10 19 -109 7 -121 -17 -16 -34 8
-34 48 0 75 -39 71 -49 -5 -9 -64 -26 -52 -29 20 l-3 65 48 2 c26 1 53 -3 60
-9z m140 -5 c3 -7 -8 -13 -24 -15 -23 -2 -29 -8 -31 -35 -3 -31 -1 -33 27 -33
33 0 43 -23 15 -34 -28 -11 -44 -6 -69 19 -31 30 -31 54 -4 89 16 21 28 26 52
24 17 -2 32 -8 34 -15z m71 -51 c3 -57 1 -62 -18 -62 -18 0 -20 6 -20 66 0 57
2 65 18 62 14 -3 18 -16 20 -66z m126 55 c13 -10 17 -24 14 -66 l-3 -53 -40
-3 c-22 -1 -48 2 -57 7 -38 19 -9 78 38 78 13 0 24 5 24 10 0 6 -13 10 -30 10
-20 0 -30 5 -30 15 0 19 59 21 84 2z m-9226 -589 c16 -16 16 -190 0 -206 -8
-8 -48 -12 -114 -12 -84 0 -103 3 -108 16 -8 20 -8 178 0 198 5 13 24 16 108
16 66 0 106 -4 114 -12z m5660 0 c13 -13 17 -173 6 -202 -5 -13 -25 -16 -114
-16 -89 0 -109 3 -114 16 -12 31 -7 202 7 207 27 11 203 7 215 -5z m-4812 -19
c10 -17 -13 -36 -27 -22 -12 12 -4 33 11 33 5 0 12 -5 16 -11z m154 -82 l0
-92 -42 -2 c-56 -1 -78 18 -78 68 0 30 6 42 24 54 14 9 33 15 43 13 11 -2 17
2 15 11 -5 22 6 41 23 41 12 0 15 -16 15 -93z m295 -3 l0 -89 -35 -1 c-55 -2
-69 5 -78 39 -16 59 15 106 59 92 15 -5 19 -1 19 18 0 27 9 39 24 34 7 -2 11
-39 11 -93z m5140 75 c0 -7 -8 -15 -17 -17 -18 -3 -25 18 -11 32 10 10 28 1
28 -15z m935 15 c0 -10 -33 -33 -48 -34 -10 0 -10 5 -2 20 10 18 50 29 50 14z
m170 -87 l0 -94 -45 -1 c-56 0 -75 17 -75 68 0 47 23 74 56 66 20 -5 24 -3 24
17 0 27 7 37 27 37 10 0 13 -22 13 -93z m2216 82 c10 -17 -13 -36 -27 -22 -12
12 -4 33 11 33 5 0 12 -5 16 -11z m692 -21 c2 -20 7 -25 23 -21 31 8 59 -24
59 -67 0 -49 -23 -68 -77 -67 l-43 2 0 93 c0 84 2 93 18 90 10 -2 18 -14 20
-30z m147 11 c0 -7 -8 -15 -17 -17 -18 -3 -25 18 -11 32 10 10 28 1 28 -15z
m-10467 -83 c3 -80 1 -87 -15 -84 -15 3 -18 15 -21 77 -3 82 2 105 21 99 8 -3
13 -33 15 -92z m5669 72 c17 -14 16 -48 -2 -68 -14 -15 -13 -20 5 -43 24 -30
26 -47 5 -47 -8 0 -25 16 -37 35 -28 43 -36 44 -40 3 -2 -22 -9 -34 -20 -36
-16 -3 -18 6 -18 81 0 46 3 87 8 91 9 10 82 -2 99 -16z m1277 16 c28 -11 18
-34 -14 -34 -39 0 -38 -20 3 -45 18 -11 33 -30 35 -42 6 -40 -75 -72 -106 -41
-20 20 -14 31 15 25 29 -5 53 0 53 13 0 4 -15 17 -34 28 -41 25 -51 57 -25 83
19 19 45 24 73 13z m860 0 c25 -10 20 -36 -6 -34 -60 5 -64 -9 -12 -39 30 -18
35 -25 32 -53 -3 -37 -37 -55 -82 -44 -39 10 -34 38 6 34 44 -4 47 21 5 47
-40 25 -46 57 -15 79 24 17 46 20 72 10z m1491 -42 c24 -81 25 -81 48 -17 19
52 26 60 47 60 24 0 25 -3 27 -65 3 -80 -3 -110 -22 -110 -10 0 -15 16 -17 58
l-3 57 -19 -58 c-22 -70 -44 -73 -66 -9 -16 48 -29 55 -24 15 4 -38 -4 -63
-22 -63 -11 0 -14 18 -14 83 0 90 3 99 34 95 13 -2 23 -17 31 -46z m697 -27
c15 -38 27 -78 28 -87 0 -25 -31 -23 -37 2 -4 15 -14 20 -38 20 -24 0 -34 -5
-38 -20 -5 -20 -31 -27 -41 -12 -3 5 6 39 20 78 13 38 27 75 29 82 3 7 15 12
27 10 18 -2 29 -19 50 -73z m-9742 38 c24 -21 26 -33 5 -33 -11 0 -15 -11 -15
-40 0 -29 4 -40 15 -40 8 0 15 -7 15 -15 0 -18 -41 -20 -58 -3 -7 7 -12 31
-12 54 0 23 -5 44 -12 46 -7 3 -5 12 8 26 22 27 28 27 54 5z m6130 8 c0 -5 9
-11 20 -14 11 -3 20 -10 20 -15 0 -5 -9 -12 -20 -15 -29 -7 -28 -67 0 -74 12
-3 19 -11 17 -17 -5 -14 -38 -19 -55 -8 -19 12 -32 112 -18 134 11 19 36 25
36 9z m4460 0 c0 -5 9 -11 20 -14 11 -3 20 -10 20 -15 0 -5 -9 -12 -20 -15
-15 -4 -20 -14 -20 -37 0 -23 5 -33 20 -37 11 -3 20 -12 20 -19 0 -18 -56 -19
-67 -2 -14 24 -20 112 -9 130 11 19 36 25 36 9z m-10692 -24 c7 -5 12 -31 12
-68 0 -52 -2 -60 -17 -57 -14 2 -19 16 -23 53 -4 36 -9 50 -20 50 -11 0 -16
-14 -20 -50 -4 -37 -9 -51 -22 -53 -16 -3 -18 5 -18 61 0 35 2 66 4 68 7 7 90
4 104 -4z m240 -3 c12 -8 22 -26 22 -39 0 -20 -6 -24 -35 -27 -40 -3 -43 -22
-5 -25 14 0 29 -2 34 -2 22 -2 -20 -31 -45 -31 -38 0 -69 32 -69 70 0 33 30
70 58 70 10 0 28 -7 40 -16z m165 10 c3 -3 1 -16 -5 -28 -6 -11 -14 -28 -18
-36 -4 -8 -17 -16 -29 -18 -32 -5 -25 -20 12 -24 25 -2 33 -8 35 -26 5 -35
-15 -52 -63 -52 -56 0 -68 15 -51 65 10 28 11 45 3 62 -16 35 14 63 68 63 23
0 44 -3 48 -6z m53 -5 c4 -8 9 -8 17 0 18 18 37 13 37 -9 0 -13 -7 -20 -19
-20 -22 0 -31 -19 -31 -66 0 -23 -5 -34 -14 -34 -22 0 -25 22 -17 123 1 19 16
23 27 6z m114 -65 c0 -57 -2 -65 -17 -62 -14 3 -19 15 -21 62 -2 40 1 62 9 67
23 14 29 -1 29 -67z m278 60 c20 -13 23 -23 20 -66 l-3 -50 -47 -4 c-52 -4
-72 10 -66 48 2 17 12 25 41 32 44 11 51 31 7 23 -22 -5 -30 -3 -30 7 0 28 45
33 78 10z m302 -4 c11 -11 20 -29 20 -40 0 -17 -7 -20 -41 -20 -28 0 -39 -4
-36 -12 2 -7 18 -13 35 -13 39 0 43 -22 5 -31 -44 -12 -77 14 -81 63 -2 33 1
44 20 57 30 21 54 20 78 -4z m4508 4 c12 -8 22 -26 22 -40 0 -21 -4 -24 -41
-24 -28 0 -39 -4 -36 -12 2 -7 18 -12 36 -11 25 1 31 -3 29 -15 -4 -23 -54
-27 -84 -7 -49 32 -22 125 36 125 9 0 26 -7 38 -16z m116 10 c28 -11 19 -35
-9 -28 -34 8 -31 -7 5 -28 34 -19 38 -39 14 -63 -21 -20 -78 -16 -82 6 -2 12
4 15 28 11 38 -5 38 8 0 30 -58 33 -19 96 44 72z m82 -5 c4 -8 9 -8 17 0 47
47 101 -50 61 -108 -13 -18 -23 -22 -45 -17 -27 5 -29 3 -29 -24 0 -27 -15
-48 -27 -37 -4 5 -6 85 -4 175 1 23 15 30 27 11z m212 -5 c12 -8 22 -26 22
-40 0 -21 -4 -24 -41 -24 -48 0 -51 -24 -3 -26 45 -2 47 -3 34 -19 -18 -21
-66 -19 -90 5 -38 38 -13 120 38 120 10 0 28 -7 40 -16z m86 -54 c1 -54 -2
-65 -17 -68 -15 -3 -17 6 -17 68 0 62 2 71 17 68 14 -2 17 -15 17 -68z m237
52 c43 -35 18 -122 -35 -122 -40 0 -66 28 -66 70 0 62 54 90 101 52z m210 -3
c16 -16 19 -30 17 -67 l-3 -46 -40 -2 c-64 -4 -77 3 -73 39 2 26 9 33 36 41
38 10 44 31 7 24 -29 -6 -45 10 -24 23 24 15 58 10 80 -12z m330 11 c15 -9 19
-22 19 -68 l0 -58 -42 1 c-62 2 -65 3 -72 21 -9 24 11 52 44 59 36 8 41 29 5
23 -29 -6 -45 10 -24 23 19 12 46 11 70 -1z m91 -27 c-4 -39 13 -74 33 -67 9
4 15 23 17 52 2 34 7 47 18 47 12 0 15 -14 15 -64 l0 -65 -45 -2 c-25 -1 -51
2 -57 8 -8 6 -13 34 -13 70 0 51 2 59 18 56 13 -2 16 -11 14 -35z m366 21 c12
-8 22 -26 22 -40 0 -21 -4 -24 -41 -24 -28 0 -39 -4 -36 -12 2 -7 18 -13 36
-13 23 0 31 -4 29 -15 -4 -21 -55 -25 -84 -5 -49 32 -22 125 36 125 9 0 26 -7
38 -16z m404 4 c9 -7 18 -25 20 -40 5 -27 3 -28 -33 -28 -29 0 -39 -4 -39 -16
0 -12 7 -15 30 -12 34 5 51 -9 29 -23 -25 -15 -68 -10 -90 12 -17 17 -20 29
-15 58 9 55 59 80 98 49z m161 6 c3 -3 1 -16 -5 -28 -6 -11 -14 -28 -18 -36
-4 -8 -19 -16 -34 -18 -35 -4 -23 -22 14 -22 31 0 51 -24 42 -50 -8 -23 -23
-30 -68 -30 -55 0 -67 15 -50 65 10 29 11 45 3 63 -10 21 -8 27 12 43 22 18
90 26 104 13z m57 -23 c0 -16 5 -42 10 -56 15 -38 38 -16 42 38 2 29 8 42 18
42 12 0 15 -14 15 -64 l0 -65 -44 -3 c-24 -2 -50 2 -57 8 -17 14 -28 72 -20
104 9 36 36 32 36 -4z m210 8 c0 -12 -7 -19 -19 -19 -22 0 -31 -19 -31 -67 0
-27 -4 -34 -17 -31 -14 2 -19 15 -21 57 -2 29 -1 59 1 65 3 6 23 12 46 12 34
1 41 -2 41 -17z m111 11 c15 -9 19 -22 19 -68 l0 -57 -50 -2 c-46 -2 -52 0
-63 24 -10 22 -8 28 12 44 13 11 32 19 42 19 10 0 19 5 19 11 0 7 -10 9 -25 7
-29 -6 -45 10 -24 23 19 12 46 11 70 -1z m169 -6 c17 -17 8 -119 -10 -119 -11
0 -16 14 -20 50 -4 36 -9 50 -20 50 -11 0 -16 -14 -20 -50 -4 -37 -9 -51 -22
-53 -16 -3 -18 5 -18 66 l0 69 50 -1 c27 -1 54 -6 60 -12z m135 -4 c0 -9 -9
-15 -25 -15 -22 0 -25 -4 -25 -35 0 -32 2 -35 28 -33 28 2 38 -19 15 -34 -7
-4 -13 -17 -13 -28 0 -13 -8 -21 -22 -23 -23 -3 -32 13 -12 20 7 2 1 16 -15
32 -34 38 -36 98 -3 121 27 19 72 16 72 -5z m130 4 c11 -12 15 -31 13 -67 l-3
-51 -47 -2 c-52 -3 -72 11 -66 48 2 17 13 25 43 34 31 9 36 13 23 19 -10 4
-24 5 -32 2 -20 -8 -28 4 -15 20 16 18 64 16 84 -3z m203 0 c12 -8 22 -26 22
-40 0 -21 -4 -24 -41 -24 -28 0 -39 -4 -36 -12 2 -7 18 -12 36 -11 25 1 31 -3
29 -15 -4 -23 -54 -27 -84 -7 -49 32 -22 125 36 125 9 0 26 -7 38 -16z m432
-4 c11 -11 20 -29 20 -40 0 -17 -7 -20 -41 -20 -28 0 -39 -4 -36 -12 2 -7 18
-12 36 -11 25 1 31 -3 29 -15 -4 -24 -70 -28 -92 -7 -21 21 -21 83 1 107 21
24 58 23 83 -2z m80 -51 c0 -62 -2 -70 -17 -67 -14 2 -19 15 -21 57 -4 63 2
81 23 81 12 0 15 -14 15 -71z m117 65 c27 -7 46 -52 37 -88 -18 -73 -124 -53
-124 24 0 31 30 70 53 70 6 0 22 -3 34 -6z m481 -7 c7 -5 12 -31 12 -68 0 -52
-2 -60 -17 -57 -13 2 -19 14 -21 43 -4 60 -9 70 -27 55 -9 -8 -15 -30 -15 -57
0 -37 -3 -44 -17 -41 -13 2 -19 14 -21 43 -4 60 -9 70 -27 55 -9 -8 -15 -30
-15 -57 0 -37 -3 -44 -17 -41 -14 2 -19 15 -21 57 -2 29 -1 59 1 65 5 13 165
16 185 3z m237 -58 c0 -53 -3 -64 -17 -67 -16 -3 -18 5 -18 61 0 35 3 67 7 71
18 17 28 -6 28 -65z m135 51 c11 -11 20 -29 20 -40 0 -17 -7 -20 -41 -20 -28
0 -39 -4 -36 -12 2 -7 18 -12 36 -12 38 2 43 -23 6 -32 -40 -10 -75 4 -86 33
-28 74 48 136 101 83z m148 7 c12 -15 22 -95 15 -113 -3 -8 -11 -14 -19 -14
-10 0 -14 13 -14 44 0 48 -18 74 -38 54 -7 -7 -12 -32 -12 -56 0 -36 -3 -43
-17 -40 -14 2 -19 15 -21 57 -2 29 -1 59 1 65 6 15 94 17 105 3z m252 -7 c11
-11 20 -29 20 -40 0 -17 -7 -20 -41 -20 -28 0 -39 -4 -36 -12 2 -7 18 -12 36
-11 25 1 31 -3 29 -15 -5 -26 -69 -28 -92 -3 -57 63 24 161 84 101z m-3380
-101 c0 -17 -20 -49 -30 -49 -11 0 -14 43 -3 53 10 11 33 8 33 -4z m-7746
-495 c11 -29 7 -189 -6 -202 -8 -8 -47 -12 -110 -12 -86 0 -98 2 -108 19 -11
21 -14 169 -4 195 5 13 25 16 114 16 89 0 109 -3 114 -16z m196 -29 c7 -9 10
-27 7 -45 -4 -16 -2 -32 3 -35 17 -11 11 -54 -9 -65 -11 -5 -40 -10 -65 -10
l-46 0 0 85 0 85 49 0 c31 0 53 -5 61 -15z m535 -20 c0 -26 4 -30 33 -33 31
-3 32 -2 32 32 0 29 4 36 20 36 18 0 20 -7 20 -85 0 -78 -2 -85 -20 -85 -16 0
-20 7 -20 36 0 34 -1 35 -32 32 -29 -3 -33 -7 -36 -35 -2 -21 -9 -33 -18 -33
-11 0 -14 18 -14 86 0 75 2 85 17 82 12 -2 17 -13 18 -33z m-383 -22 c22 -20
23 -70 1 -95 -23 -26 -78 -24 -97 4 -33 47 -7 108 46 108 17 0 40 -7 50 -17z
m238 -3 c6 -10 10 -39 10 -64 0 -39 -3 -46 -20 -46 -17 0 -20 7 -20 50 0 43
-3 50 -20 50 -17 0 -20 -7 -20 -50 0 -43 -3 -50 -19 -50 -17 0 -20 8 -23 47
-2 35 -7 49 -20 51 -14 3 -17 -6 -20 -45 -2 -36 -7 -49 -20 -51 -16 -3 -18 5
-18 61 l0 64 90 1 c78 0 92 -2 100 -18z m328 -33 c3 -39 6 -48 20 -45 13 2 18
16 20 51 3 39 6 47 23 47 17 0 19 -7 19 -65 l0 -66 -57 3 -58 3 -3 63 c-3 57
-1 63 15 60 14 -2 19 -14 21 -51z m313 32 c16 -31 7 -103 -13 -107 -15 -3 -18
4 -18 43 0 32 -5 47 -15 52 -22 8 -25 3 -28 -48 -2 -32 -8 -45 -20 -47 -13 -3
-17 4 -17 31 0 44 -8 67 -25 67 -17 0 -25 -23 -25 -67 0 -26 -4 -34 -16 -31
-13 2 -16 15 -16 61 0 31 1 58 1 60 1 2 41 4 91 4 80 2 91 0 101 -18z m141 4
c22 -20 23 -70 1 -95 -23 -26 -78 -24 -97 4 -33 47 -7 108 46 108 17 0 40 -7
50 -17z m133 5 c4 -4 -4 -13 -18 -19 -21 -9 -27 -20 -29 -53 -2 -29 -8 -42
-20 -44 -16 -3 -18 5 -18 60 l0 64 39 0 c22 -1 43 -4 46 -8z"/>
<path d="M2921 3968 c-9 -24 3 -58 20 -58 5 0 14 11 21 25 8 19 8 28 -2 40
-17 21 -29 19 -39 -7z"/>
<path d="M3380 3925 c0 -8 4 -15 9 -15 5 0 14 7 21 15 10 13 9 15 -9 15 -12 0
-21 -6 -21 -15z"/>
<path d="M3645 3931 c-3 -5 -1 -12 5 -16 12 -7 30 2 30 16 0 12 -27 12 -35 0z"/>
<path d="M3797 3983 c-10 -10 -8 -61 2 -67 17 -11 41 6 41 28 0 32 -27 56 -43
39z"/>
<path d="M8510 3924 c0 -17 22 -14 28 4 2 7 -3 12 -12 12 -9 0 -16 -7 -16 -16z"/>
<path d="M8732 3978 c-17 -17 -15 -43 3 -58 21 -18 37 0 33 36 -3 31 -18 40
-36 22z"/>
<path d="M9173 3928 c2 -7 10 -13 17 -13 7 0 15 6 18 13 2 7 -5 12 -18 12 -13
0 -20 -5 -17 -12z"/>
<path d="M9440 3925 c0 -8 6 -15 14 -15 8 0 16 7 20 15 4 10 -1 15 -14 15 -11
0 -20 -7 -20 -15z"/>
<path d="M9592 3978 c-16 -16 -15 -43 1 -56 20 -17 39 2 35 33 -3 32 -18 41
-36 23z"/>
<path d="M10370 3925 c0 -8 6 -15 14 -15 8 0 16 7 20 15 4 10 -1 15 -14 15
-11 0 -20 -7 -20 -15z"/>
<path d="M10670 3925 c0 -8 6 -15 14 -15 8 0 16 7 20 15 4 10 -1 15 -14 15
-11 0 -20 -7 -20 -15z"/>
<path d="M8755 3309 c-4 -5 -4 -21 -1 -35 10 -37 40 -28 44 14 3 26 0 32 -17
32 -11 0 -23 -5 -26 -11z"/>
<path d="M8990 3310 c-14 -27 -3 -62 18 -58 22 4 27 51 8 67 -12 10 -17 8 -26
-9z"/>
<path d="M9352 3288 c3 -36 31 -50 42 -22 10 26 -3 54 -25 54 -17 0 -20 -6
-17 -32z"/>
<path d="M9645 3310 c-12 -20 4 -62 23 -58 23 4 24 61 0 66 -9 2 -19 -2 -23
-8z"/>
<path d="M2845 3309 c-4 -5 -4 -21 -1 -35 10 -37 40 -28 44 14 3 26 0 32 -17
32 -11 0 -23 -5 -26 -11z"/>
<path d="M3235 3310 c-12 -20 4 -62 23 -58 23 4 24 61 0 66 -9 2 -19 -2 -23
-8z"/>
<path d="M3490 3285 c0 -28 4 -35 20 -35 16 0 20 7 20 35 0 28 -4 35 -20 35
-16 0 -20 -7 -20 -35z"/>
<path d="M3877 3324 c-13 -13 -7 -24 14 -24 11 0 19 5 17 12 -5 14 -22 21 -31
12z"/>
<path d="M4427 3324 c-9 -10 2 -24 19 -24 8 0 14 7 14 15 0 15 -21 21 -33 9z"/>
<path d="M4825 3301 c-8 -26 5 -53 24 -49 10 2 17 15 19 36 3 26 0 32 -17 32
-11 0 -22 -8 -26 -19z"/>
<path d="M8617 3324 c-9 -10 2 -24 19 -24 8 0 14 7 14 15 0 15 -21 21 -33 9z"/>
<path d="M9500 3264 c0 -9 7 -14 17 -12 25 5 28 28 4 28 -12 0 -21 -6 -21 -16z"/>
<path d="M9807 3324 c-13 -13 -7 -24 14 -24 11 0 19 5 17 12 -5 14 -22 21 -31
12z"/>
<path d="M3767 2653 c-12 -12 -7 -61 7 -66 29 -11 48 37 24 61 -14 14 -22 15
-31 5z"/>
<path d="M4057 2654 c-12 -12 -8 -51 7 -63 18 -15 39 9 34 41 -3 22 -27 35
-41 22z"/>
<path d="M10277 2654 c-12 -12 -8 -51 6 -62 20 -17 39 2 35 34 -3 27 -26 43
-41 28z"/>
<path d="M8366 2693 c-13 -14 -5 -33 14 -33 11 0 20 6 20 14 0 15 -24 28 -34
19z"/>
<path d="M8360 2610 c0 -16 5 -21 23 -18 12 2 22 10 22 18 0 8 -10 16 -22 18
-18 3 -23 -2 -23 -18z"/>
<path d="M3071 2641 c-14 -26 -4 -51 21 -51 16 0 19 6 16 32 -4 37 -22 47 -37
19z"/>
<path d="M3320 2650 c0 -5 9 -10 20 -10 11 0 20 5 20 10 0 6 -9 10 -20 10 -11
0 -20 -4 -20 -10z"/>
<path d="M3465 2650 c-3 -5 3 -10 14 -10 12 0 21 5 21 10 0 6 -6 10 -14 10 -8
0 -18 -4 -21 -10z"/>
<path d="M3910 2650 c0 -5 9 -10 20 -10 11 0 20 5 20 10 0 6 -9 10 -20 10 -11
0 -20 -4 -20 -10z"/>
<path d="M4204 2634 c-5 -20 -2 -31 11 -41 24 -17 37 -4 33 33 -4 39 -35 45
-44 8z"/>
<path d="M4890 2641 c-13 -25 -3 -51 20 -51 21 0 31 20 23 49 -7 26 -29 27
-43 2z"/>
<path d="M8920 2610 c-12 -7 -12 -12 -2 -22 9 -9 15 -9 24 0 16 16 -2 34 -22
22z"/>
<path d="M9274 2646 c-10 -26 0 -51 21 -51 16 0 20 7 20 30 0 33 -30 49 -41
21z"/>
<path d="M10070 2595 c0 -8 4 -15 9 -15 5 0 14 7 21 15 10 13 9 15 -9 15 -12
0 -21 -6 -21 -15z"/>
<path d="M10430 2650 c0 -5 9 -10 21 -10 11 0 17 5 14 10 -3 6 -13 10 -21 10
-8 0 -14 -4 -14 -10z"/>
<path d="M11030 2650 c0 -5 9 -10 21 -10 11 0 17 5 14 10 -3 6 -13 10 -21 10
-8 0 -14 -4 -14 -10z"/>
<path d="M11240 2650 c0 -5 9 -10 20 -10 11 0 20 5 20 10 0 6 -9 10 -20 10
-11 0 -20 -4 -20 -10z"/>
<path d="M11740 2610 c-12 -7 -12 -12 -2 -22 9 -9 15 -9 24 0 16 16 -2 34 -22
22z"/>
<path d="M3497 1993 c-11 -10 -8 -61 4 -69 6 -3 18 1 27 9 13 13 13 21 4 42
-12 25 -23 31 -35 18z"/>
<path d="M3792 1988 c-17 -17 -15 -43 3 -58 21 -18 37 0 33 36 -3 31 -18 40
-36 22z"/>
<path d="M10034 1986 c-9 -25 0 -61 16 -61 22 0 26 60 5 69 -9 3 -18 0 -21 -8z"/>
<path d="M13027 1994 c-10 -10 -9 -62 1 -68 16 -10 33 12 30 39 -3 28 -18 42
-31 29z"/>
<path d="M8300 2010 c0 -15 5 -20 18 -18 9 2 17 10 17 18 0 8 -8 16 -17 18
-13 2 -18 -3 -18 -18z"/>
<path d="M12637 2014 c-13 -13 -7 -44 8 -44 16 0 17 5 6 33 -3 10 -10 15 -14
11z"/>
<path d="M3036 1991 c-3 -5 0 -11 8 -14 15 -6 26 1 26 15 0 11 -27 10 -34 -1z"/>
<path d="M3172 1983 c5 -25 28 -28 28 -4 0 12 -6 21 -16 21 -9 0 -14 -7 -12
-17z"/>
<path d="M3160 1875 c0 -16 17 -19 44 -9 26 10 18 24 -14 24 -20 0 -30 -5 -30
-15z"/>
<path d="M3640 1934 c0 -9 7 -14 17 -12 25 5 28 28 4 28 -12 0 -21 -6 -21 -16z"/>
<path d="M3940 1990 c0 -5 9 -10 20 -10 11 0 20 5 20 10 0 6 -9 10 -20 10 -11
0 -20 -4 -20 -10z"/>
<path d="M8450 1990 c0 -5 9 -10 20 -10 11 0 20 5 20 10 0 6 -9 10 -20 10 -11
0 -20 -4 -20 -10z"/>
<path d="M8722 1988 c-16 -16 -15 -43 1 -56 20 -17 39 2 35 33 -3 32 -18 41
-36 23z"/>
<path d="M8865 1990 c-3 -5 3 -10 14 -10 12 0 21 5 21 10 0 6 -6 10 -14 10 -8
0 -18 -4 -21 -10z"/>
<path d="M9184 1987 c-9 -25 0 -62 15 -62 22 0 38 32 25 52 -14 23 -33 28 -40
10z"/>
<path d="M9390 1935 c0 -8 4 -15 9 -15 5 0 14 7 21 15 10 13 9 15 -9 15 -12 0
-21 -6 -21 -15z"/>
<path d="M9725 1941 c-3 -5 -1 -12 5 -16 12 -7 30 2 30 16 0 12 -27 12 -35 0z"/>
<path d="M10185 1990 c-3 -5 3 -10 14 -10 12 0 21 5 21 10 0 6 -6 10 -14 10
-8 0 -18 -4 -21 -10z"/>
<path d="M10590 1990 c0 -5 7 -10 15 -10 8 0 15 5 15 10 0 6 -7 10 -15 10 -8
0 -15 -4 -15 -10z"/>
<path d="M10722 1983 c5 -25 28 -28 28 -4 0 12 -6 21 -16 21 -9 0 -14 -7 -12
-17z"/>
<path d="M10713 1878 c2 -7 14 -13 27 -13 13 0 25 6 28 13 2 8 -7 12 -28 12
-21 0 -30 -4 -27 -12z"/>
<path d="M11125 1941 c-3 -5 -1 -12 5 -16 12 -7 30 2 30 16 0 12 -27 12 -35 0z"/>
<path d="M11550 1934 c0 -9 7 -14 17 -12 25 5 28 28 4 28 -12 0 -21 -6 -21
-16z"/>
<path d="M11760 1990 c0 -5 9 -10 21 -10 11 0 17 5 14 10 -3 6 -13 10 -21 10
-8 0 -14 -4 -14 -10z"/>
<path d="M12190 1990 c0 -5 9 -10 21 -10 11 0 17 5 14 10 -3 6 -13 10 -21 10
-8 0 -14 -4 -14 -10z"/>
<path d="M12413 1993 c-17 -6 -16 -60 1 -66 17 -7 36 11 36 34 0 20 -21 38
-37 32z"/>
<path d="M13240 1990 c0 -5 9 -10 21 -10 11 0 17 5 14 10 -3 6 -13 10 -21 10
-8 0 -14 -4 -14 -10z"/>
<path d="M13640 1990 c0 -5 9 -10 20 -10 11 0 20 5 20 10 0 6 -9 10 -20 10
-11 0 -20 -4 -20 -10z"/>
<path d="M2700 1349 c0 -25 33 -22 38 4 2 12 -3 17 -17 17 -15 0 -21 -6 -21
-21z"/>
<path d="M2700 1280 c0 -16 5 -21 23 -18 12 2 22 10 22 18 0 8 -10 16 -22 18
-18 3 -23 -2 -23 -18z"/>
<path d="M2854 1316 c-10 -26 0 -51 21 -51 16 0 20 7 20 30 0 33 -30 49 -41
21z"/>
<path d="M3874 1316 c-10 -26 0 -51 21 -51 16 0 20 7 20 30 0 33 -30 49 -41
21z"/>
<path d="M3157 6534 c-4 -4 -7 -106 -7 -226 l0 -218 45 0 45 0 -2 223 -3 222
-35 3 c-20 2 -39 0 -43 -4z"/>
<path d="M2367 6503 c-3 -5 27 -99 66 -211 l70 -203 50 3 49 3 69 200 c38 110
69 203 69 208 0 4 -18 7 -40 7 -48 0 -45 6 -101 -177 -24 -79 -46 -143 -49
-143 -3 0 -13 28 -23 63 -10 34 -32 106 -49 160 l-30 97 -38 0 c-22 0 -41 -3
-43 -7z"/>
<path d="M11707 6503 c-4 -3 -7 -60 -7 -125 0 -108 2 -119 18 -116 14 3 17 17
20 93 4 124 -6 173 -31 148z"/>
<path d="M12876 6494 c-11 -30 -6 -37 14 -19 11 10 20 22 20 27 0 15 -28 9
-34 -8z"/>
<path d="M13150 6490 c0 -15 5 -20 18 -18 9 2 17 10 17 18 0 8 -8 16 -17 18
-13 2 -18 -3 -18 -18z"/>
<path d="M11262 6484 c-15 -10 -22 -25 -22 -49 0 -28 6 -37 30 -50 16 -8 45
-15 64 -15 51 0 86 -16 86 -39 0 -31 -35 -43 -108 -39 -42 2 -67 -1 -69 -8 -8
-24 108 -33 165 -13 42 14 60 60 39 93 -16 24 -31 29 -119 41 -51 7 -69 28
-44 54 11 10 34 14 81 13 52 -2 65 1 65 13 0 22 -137 21 -168 -1z"/>
<path d="M12296 6492 c-11 -18 -76 -205 -76 -218 0 -24 28 -15 34 11 6 23 11
25 66 25 55 0 60 -2 66 -25 6 -25 34 -35 34 -12 0 6 -17 60 -37 120 -33 92
-41 107 -60 107 -12 0 -24 -4 -27 -8z m47 -79 c9 -27 17 -54 17 -60 0 -15 -66
-18 -74 -5 -6 10 25 112 34 112 3 0 14 -21 23 -47z"/>
<path d="M11500 6412 c-37 -38 -40 -80 -6 -119 21 -25 31 -28 81 -28 50 0 60
3 81 28 30 35 31 78 1 113 -18 20 -35 28 -75 32 -47 4 -54 2 -82 -26z m114
-12 c35 -13 37 -71 4 -94 -29 -20 -72 -20 -92 0 -17 16 -21 61 -8 80 15 23 57
29 96 14z"/>
<path d="M11805 6428 c-31 -18 -44 -40 -45 -76 0 -69 39 -95 135 -89 l60 3 0
84 0 83 -65 3 c-37 2 -74 -2 -85 -8z m93 -24 c19 -5 22 -13 22 -54 0 -52 -8
-60 -63 -60 -60 0 -88 59 -47 100 20 20 47 25 88 14z"/>
<path d="M11994 6431 c-2 -2 -4 -42 -4 -88 0 -75 2 -84 18 -81 14 3 18 16 20
70 l3 67 37 6 c54 9 64 14 57 25 -6 9 -121 10 -131 1z"/>
<path d="M12444 6428 c-3 -4 -4 -44 -3 -88 1 -71 4 -80 20 -80 17 0 19 8 19
70 l0 69 34 6 c19 4 43 2 55 -4 18 -10 21 -21 21 -76 0 -50 3 -65 15 -65 18 0
30 58 21 105 -6 31 -4 35 19 41 63 16 85 -9 85 -98 0 -36 4 -48 15 -48 26 0
21 120 -7 155 -20 25 -25 27 -72 21 -28 -4 -58 -6 -66 -5 -62 4 -153 3 -156
-3z"/>
<path d="M12830 6428 c-56 -30 -62 -109 -12 -148 33 -26 125 -25 130 1 2 14
-5 15 -46 11 -38 -3 -52 0 -67 14 -18 19 -17 19 56 24 l74 5 -2 34 c0 18 -8
40 -16 48 -20 20 -87 26 -117 11z m90 -33 c19 -22 3 -35 -45 -35 -50 0 -62 11
-39 34 19 20 68 21 84 1z"/>
<path d="M12994 6431 c-2 -2 -4 -42 -4 -88 0 -64 3 -83 14 -83 9 0 15 21 20
70 l7 69 37 6 c54 9 64 14 57 25 -6 9 -121 10 -131 1z"/>
<path d="M13157 6433 c-4 -3 -7 -44 -7 -90 0 -67 3 -83 15 -83 12 0 15 17 15
90 0 83 -5 101 -23 83z"/>
<path d="M13270 6433 c-83 -31 -79 -148 6 -169 39 -10 89 0 92 18 3 16 -2 17
-41 12 -37 -5 -48 -3 -66 15 -11 11 -21 30 -21 41 0 11 10 30 21 41 18 18 29
20 66 15 39 -5 44 -4 41 12 -2 12 -14 18 -43 19 -22 1 -47 -1 -55 -4z"/>
<path d="M13416 6418 c-16 -14 -29 -38 -33 -60 -5 -32 -1 -41 25 -67 29 -29
34 -31 102 -29 l71 2 -3 84 -3 84 -66 5 c-59 4 -70 1 -93 -19z m115 -18 c14
-8 19 -21 19 -50 0 -43 -18 -60 -65 -60 -47 0 -65 17 -65 61 0 32 4 41 23 49
30 12 65 12 88 0z"/>
<path d="M2871 6409 c-58 -11 -68 -21 -52 -55 8 -19 16 -24 29 -19 63 26 122
14 122 -25 0 -14 -11 -20 -52 -25 -84 -10 -117 -24 -133 -55 -26 -50 -15 -97
29 -132 38 -31 123 -20 152 20 10 14 13 13 23 -6 8 -15 21 -22 41 -22 l30 0 0
119 c0 66 -4 131 -10 145 -17 46 -96 70 -179 55z m99 -195 c0 -39 -17 -62 -50
-69 -35 -8 -60 8 -60 37 0 34 29 52 93 57 12 1 17 -6 17 -25z"/>
<path d="M3440 6410 c-85 -15 -120 -62 -120 -161 0 -52 5 -73 23 -100 61 -92
207 -91 262 2 24 42 27 140 5 183 -29 57 -99 88 -170 76z m87 -101 c24 -46 12
-129 -21 -151 -23 -16 -65 -8 -80 14 -17 24 -22 123 -8 145 12 18 55 31 77 23
11 -4 26 -18 32 -31z"/>
<path d="M3863 6413 c-12 -2 -33 -15 -48 -29 -14 -13 -28 -24 -29 -24 -2 0 -7
12 -10 26 -6 21 -11 25 -39 22 l-32 -3 0 -155 0 -155 43 -3 42 -3 0 94 c0 111
13 136 76 146 38 6 39 8 39 45 0 41 -5 46 -42 39z"/>
<path d="M4073 6410 c-77 -17 -113 -71 -113 -168 0 -45 5 -67 23 -92 42 -63
126 -85 220 -59 32 9 37 14 37 40 0 31 0 31 -42 23 -92 -18 -148 2 -148 53 0
23 2 23 100 23 l100 0 0 45 c0 26 -7 59 -15 75 -25 48 -97 75 -162 60z m82
-76 c31 -31 15 -49 -45 -49 -43 0 -55 4 -58 16 -4 24 25 49 58 49 16 0 36 -7
45 -16z"/>
<path d="M4415 6412 c-52 -8 -66 -14 -85 -34 -24 -26 -26 -75 -4 -106 9 -13
39 -33 67 -46 65 -28 85 -50 67 -71 -15 -18 -31 -19 -98 -1 l-52 13 0 -33 c0
-40 7 -45 79 -51 103 -10 161 25 161 95 0 52 -17 72 -86 103 -49 23 -64 34
-64 50 0 20 4 21 48 17 26 -3 53 -7 61 -9 17 -5 44 42 32 54 -10 10 -99 24
-126 19z"/>
<path d="M12228 6158 c9 -9 15 -9 24 0 9 9 7 12 -12 12 -19 0 -21 -3 -12 -12z"/>
<path d="M12301 6138 c0 -18 3 -27 6 -20 4 10 9 10 22 -2 17 -15 18 -14 19 19
1 31 -1 35 -23 35 -22 0 -25 -4 -24 -32z m39 12 c0 -5 -7 -10 -15 -10 -8 0
-15 5 -15 10 0 6 7 10 15 10 8 0 15 -4 15 -10z"/>
<path d="M12402 6145 c-16 -36 -16 -50 2 -36 7 6 21 9 30 5 9 -3 16 -4 16 -1
0 13 -24 57 -30 57 -4 0 -12 -11 -18 -25z m23 -5 c3 -5 1 -10 -4 -10 -6 0 -11
5 -11 10 0 6 2 10 4 10 3 0 8 -4 11 -10z"/>
<path d="M12491 6135 c1 -32 2 -35 8 -15 l7 24 15 -22 c19 -26 29 -19 28 17
-1 17 -3 20 -6 9 -6 -23 -11 -23 -34 5 l-18 22 0 -40z"/>
<path d="M12590 6155 c0 -9 7 -18 15 -21 20 -8 19 -21 -2 -27 -14 -4 -13 -5 3
-6 29 -1 41 29 14 36 -23 6 -26 19 -7 26 7 3 5 6 -5 6 -10 1 -18 -6 -18 -14z"/>
<path d="M12671 6133 c1 -21 3 -30 6 -21 2 9 12 19 21 21 15 4 15 5 0 6 -10 0
-18 5 -18 10 0 5 8 12 18 14 13 4 11 5 -5 6 -20 1 -23 -4 -22 -36z"/>
<path d="M12754 6156 c-9 -24 0 -51 19 -54 23 -5 47 15 47 38 0 29 -56 42 -66
16z m50 -5 c10 -16 -5 -41 -25 -41 -14 0 -19 7 -19 25 0 18 5 25 19 25 11 0
22 -4 25 -9z"/>
<path d="M12860 6160 c0 -5 7 -7 15 -4 8 4 15 1 15 -5 0 -6 -7 -11 -15 -11 -8
0 -15 -8 -15 -17 0 -14 2 -15 9 -4 7 10 10 11 16 0 6 -9 11 -6 17 10 4 13 6
27 2 32 -7 12 -44 12 -44 -1z"/>
<path d="M12941 6133 c1 -21 3 -31 6 -22 5 19 53 21 65 4 4 -5 8 5 8 23 0 35
-13 42 -30 15 -10 -17 -10 -17 -20 0 -18 28 -30 19 -29 -20z"/>
<path d="M13071 6152 c-16 -30 -14 -37 14 -37 28 0 32 12 11 40 -13 18 -14 18
-25 -3z"/>
<path d="M13152 6138 c4 -41 40 -52 58 -18 15 27 -2 50 -37 50 -21 0 -24 -4
-21 -32z m51 10 c6 -19 -3 -38 -18 -38 -18 0 -28 17 -21 35 7 18 33 20 39 3z"/>
<path d="M13253 6154 c-9 -24 10 -49 38 -49 20 0 24 5 24 30 0 25 -4 30 -28
33 -18 2 -29 -2 -34 -14z m55 -17 c4 -20 -25 -34 -40 -19 -15 15 -1 44 19 40
10 -2 19 -11 21 -21z"/>
<path d="M13360 6133 c0 -26 3 -34 9 -24 5 7 13 11 19 7 12 -7 26 29 17 44 -3
5 -15 10 -26 10 -15 0 -19 -7 -19 -37z m35 17 c3 -5 -1 -10 -9 -10 -9 0 -16 5
-16 10 0 6 4 10 9 10 6 0 13 -4 16 -10z"/>
<path d="M13450 6135 c0 -30 3 -35 23 -34 16 1 18 2 5 6 -10 2 -18 8 -18 13 0
5 8 11 18 13 16 4 16 5 0 6 -10 0 -18 5 -18 10 0 5 8 12 18 14 13 4 11 5 -5 6
-20 1 -23 -4 -23 -34z"/>
<path d="M13530 6155 c0 -9 7 -18 15 -21 20 -8 19 -21 -2 -27 -14 -4 -13 -5 4
-6 32 -2 39 19 13 39 -22 17 -23 18 -4 23 16 4 16 5 -3 6 -15 1 -23 -5 -23
-14z"/>
</g>
</svg>
