<?xml version="1.0" standalone="no"?>
<!DOCTYPE svg PUBLIC "-//W3C//DTD SVG 20010904//EN"
 "http://www.w3.org/TR/2001/REC-SVG-20010904/DTD/svg10.dtd">
<svg version="1.0" xmlns="http://www.w3.org/2000/svg"
 width="1600.000000pt" height="717.000000pt" viewBox="0 0 1600.000000 717.000000"
 preserveAspectRatio="xMidYMid meet">

<g transform="translate(0.000000,717.000000) scale(0.100000,-0.100000)"
fill="#000000" stroke="none">
<path d="M0 3585 l0 -3585 8000 0 8000 0 0 3585 0 3585 -810 0 -810 0 0 -875
0 -876 -6380 3 -6380 3 0 873 0 872 -810 0 -810 0 0 -3585z m6033 -239 c52
-25 96 -71 121 -126 17 -37 21 -65 21 -160 0 -100 -3 -122 -24 -168 -43 -96
-139 -152 -260 -152 -91 0 -159 25 -213 79 -63 64 -82 128 -76 266 4 87 8 108
33 153 31 56 77 98 134 119 52 19 215 12 264 -11z m531 14 c143 -15 196 -66
183 -178 -4 -37 -12 -53 -41 -79 l-35 -33 29 -15 c83 -43 90 -181 13 -251 -47
-44 -98 -54 -262 -54 l-141 0 0 303 c0 167 3 307 7 310 9 10 143 8 247 -3z
m557 1 c133 -17 189 -69 189 -176 0 -68 -28 -122 -80 -153 l-28 -17 84 -125
c46 -69 84 -128 84 -132 0 -5 -31 -8 -69 -8 l-69 0 -72 115 c-68 110 -73 115
-106 115 l-34 0 0 -115 0 -115 -65 0 -64 0 -3 305 c-2 197 1 307 7 309 18 8
158 6 226 -3z m467 -303 l2 -308 -64 0 -65 0 -3 303 c-2 193 1 305 7 310 6 4
35 6 65 5 l55 -3 3 -307z m579 296 c33 -10 53 -20 50 -27 -37 -93 -40 -98 -56
-91 -85 34 -182 31 -234 -9 -52 -39 -72 -89 -72 -177 0 -85 21 -140 68 -174
22 -16 44 -21 95 -21 l67 0 3 62 3 62 -58 3 -58 3 -3 52 c-4 64 0 65 143 61
l100 -3 3 -161 2 -161 -42 -12 c-23 -7 -86 -16 -140 -19 -107 -5 -162 8 -224
55 -93 70 -130 272 -74 401 36 81 84 126 164 154 65 22 190 23 263 2z m501 -1
c9 -18 118 -315 132 -363 5 -14 24 -70 44 -124 20 -55 36 -103 36 -108 0 -4
-31 -8 -70 -8 l-69 0 -21 70 -21 70 -113 0 -113 0 -19 -67 -20 -68 -72 -3
c-40 -2 -72 -1 -72 2 0 3 9 29 19 58 11 29 58 162 105 296 47 134 88 247 91
253 4 5 40 9 80 9 61 0 76 -3 83 -17z m621 -10 c73 -23 141 -91 164 -163 21
-66 22 -182 1 -243 -22 -64 -82 -129 -146 -158 -46 -20 -72 -24 -200 -27
l-148 -4 0 304 c0 168 3 308 8 313 13 14 263 -3 321 -22z m721 3 c109 -57 160
-174 146 -336 -16 -167 -107 -258 -267 -268 -190 -11 -303 89 -316 278 -13
178 53 298 187 341 45 15 211 5 250 -15z m385 -178 c-4 -112 -9 -206 -12 -210
-2 -5 -26 -8 -53 -8 l-48 0 -6 48 c-10 84 -18 350 -12 361 4 6 36 11 72 11
l66 0 -7 -202z m-13 -305 c23 -20 24 -80 1 -105 -20 -23 -85 -24 -107 -2 -21
20 -20 83 1 106 20 23 80 24 105 1z m-5482 -1443 c12 -8 11 -10 -7 -10 -28 0
-30 -16 -3 -30 11 -6 20 -17 20 -25 0 -18 -37 -38 -56 -31 -22 9 -17 28 6 21
23 -7 28 12 6 21 -21 8 -28 34 -15 50 13 16 28 17 49 4z m106 -15 c20 -30 11
-62 -22 -77 -47 -22 -84 43 -47 84 22 25 50 23 69 -7z m56 -25 c2 -26 8 -36
23 -38 16 -2 24 7 36 40 9 24 22 43 30 43 17 0 52 -92 39 -100 -6 -4 -13 1
-16 9 -8 21 -40 21 -48 0 -4 -11 -17 -14 -48 -12 -39 3 -43 6 -46 32 -5 38 7
81 18 70 5 -5 10 -25 12 -44z m205 38 c4 -7 8 -33 9 -58 2 -44 1 -44 -16 -22
-23 27 -30 28 -30 1 0 -11 -4 -17 -10 -14 -5 3 -10 28 -10 56 0 45 2 49 24 49
14 0 28 -6 33 -12z m120 0 c19 -25 34 -81 23 -92 -6 -6 -12 -4 -16 7 -8 21
-22 21 -46 0 -23 -21 -24 -4 -2 54 18 45 25 51 41 31z m88 -29 l12 -34 12 38
c7 21 18 36 24 34 16 -5 21 -87 8 -100 -8 -8 -11 -2 -11 19 l-1 29 -15 -27
c-8 -16 -17 -28 -19 -28 -2 0 -11 12 -19 28 l-15 27 -1 -28 c0 -16 -4 -26 -10
-22 -11 7 -14 88 -3 99 13 12 27 0 38 -35z m145 31 c0 -5 -7 -10 -15 -10 -8 0
-15 -4 -15 -10 0 -5 7 -10 15 -10 8 0 15 -4 15 -10 0 -5 -7 -10 -15 -10 -8 0
-15 -5 -15 -10 0 -6 7 -13 15 -16 23 -9 18 -24 -9 -24 -13 0 -27 7 -30 16 -8
21 -8 79 1 87 10 11 53 8 53 -3z m71 -1 c16 -8 19 -17 14 -39 -4 -16 -2 -31 5
-35 5 -3 7 -11 4 -17 -4 -7 -14 -2 -25 13 l-19 24 -6 -22 c-10 -35 -24 -16
-24 31 0 57 11 67 51 45z m67 -50 c-2 -24 -7 -44 -13 -44 -12 0 -19 69 -10 93
11 29 26 -4 23 -49z m87 52 c3 -5 -5 -11 -17 -13 -17 -2 -24 -11 -26 -30 -3
-27 4 -33 37 -29 18 3 8 -23 -10 -27 -25 -5 -51 23 -51 53 0 39 50 73 67 46z
m72 -3 c13 -17 34 -80 29 -85 -2 -3 -13 1 -25 9 -16 10 -23 10 -33 0 -30 -30
-32 -8 -6 61 11 30 20 34 35 15z m183 -37 c0 -28 -4 -53 -10 -56 -6 -4 -10 15
-10 49 0 31 5 56 10 56 6 0 10 -22 10 -49z m72 17 l27 -33 -2 27 c-1 15 3 27
8 27 6 1 10 -20 10 -46 0 -57 -16 -63 -45 -18 l-20 30 0 -27 c0 -15 -4 -30
-10 -33 -6 -4 -10 15 -10 49 0 31 3 56 8 56 4 0 19 -14 34 -32z m122 22 c21
-8 26 -16 26 -45 0 -29 -5 -37 -27 -46 -42 -16 -53 -5 -53 51 0 54 6 59 54 40z
m71 -33 c0 -22 5 -33 17 -35 13 -2 17 5 20 35 4 44 24 47 22 3 -2 -54 -4 -59
-24 -65 -35 -11 -60 12 -60 54 0 37 8 56 19 45 3 -3 6 -20 6 -37z m225 34 c0
-5 -7 -11 -15 -15 -10 -3 -15 -19 -15 -46 0 -25 -4 -39 -10 -35 -5 3 -10 24
-10 46 0 38 -1 39 -35 39 -40 0 -44 -8 -15 -33 11 -9 20 -21 20 -27 0 -14 -39
-32 -56 -26 -22 9 -17 28 6 21 11 -4 20 -2 20 4 0 6 -9 15 -20 21 -22 12 -26
30 -10 46 12 12 140 17 140 5z m69 0 c9 -6 12 -18 8 -32 -3 -12 -1 -31 4 -41
16 -29 0 -36 -20 -9 l-18 24 -6 -23 c-3 -12 -10 -19 -16 -15 -12 7 -15 87 -4
98 9 10 35 8 52 -2z m61 -47 c0 -24 -4 -44 -9 -44 -13 0 -19 28 -16 65 4 39 3
37 15 30 6 -3 10 -26 10 -51z m81 29 c18 -48 22 -83 10 -83 -6 0 -11 7 -11 15
0 20 -36 19 -44 -1 -3 -8 -10 -13 -15 -9 -9 5 7 68 24 96 11 17 25 9 36 -18z
m129 17 c0 -5 -7 -10 -15 -10 -8 0 -15 -4 -15 -10 0 -5 7 -10 15 -10 8 0 15
-4 15 -10 0 -5 -7 -10 -15 -10 -20 0 -19 -10 3 -26 16 -12 16 -13 0 -19 -33
-13 -48 2 -48 48 0 24 3 47 7 50 10 11 53 8 53 -3z m122 -5 c-1 -5 -10 -10
-20 -10 -19 0 -31 -54 -13 -56 26 -3 30 -4 36 -11 4 -3 -3 -9 -15 -13 -25 -8
-60 18 -60 44 0 29 30 62 53 59 12 -2 21 -7 19 -13z m105 -11 c15 -24 15 -29
2 -53 -17 -31 -50 -38 -73 -16 -21 21 -20 53 1 77 23 25 50 22 70 -8z m66 -4
c6 -16 14 -30 17 -30 3 0 11 14 17 30 18 48 33 36 33 -26 0 -34 -4 -53 -10
-49 -5 3 -10 16 -11 28 0 15 -2 17 -6 7 -14 -36 -26 -42 -39 -18 -11 18 -13
19 -14 6 0 -10 -6 -18 -12 -18 -9 0 -12 15 -10 50 4 56 18 64 35 20z m152 20
c3 -5 -3 -10 -14 -10 -12 0 -21 -4 -21 -10 0 -5 7 -10 15 -10 8 0 15 -4 15
-10 0 -5 -7 -10 -16 -10 -9 0 -14 -6 -11 -12 2 -7 9 -13 15 -13 25 0 16 -20
-10 -23 -28 -3 -28 -2 -28 52 0 53 1 56 24 56 14 0 28 -4 31 -10z m79 -3 c15
-11 16 -18 8 -33 -7 -13 -7 -25 0 -38 15 -26 3 -30 -20 -6 l-19 21 -6 -22 c-9
-34 -26 -12 -25 34 0 23 2 45 5 50 7 11 37 8 57 -6z m101 4 c3 -5 -5 -11 -17
-13 -18 -2 -23 -9 -23 -33 0 -22 4 -29 17 -27 22 4 32 -14 12 -22 -47 -18 -79
34 -50 79 16 25 50 33 61 16z m43 -52 c-2 -24 -7 -44 -13 -44 -12 0 -19 69
-10 93 11 29 26 -4 23 -49z m93 51 c29 -16 26 -77 -5 -91 -36 -17 -66 3 -66
44 0 51 28 69 71 47z m137 -6 c30 -21 29 -59 -3 -80 -39 -26 -55 -12 -55 46 0
55 15 64 58 34z m96 7 c3 -5 -4 -12 -17 -15 l-22 -7 25 -10 25 -11 -25 -10
-25 -9 25 -14 c22 -12 23 -14 8 -20 -33 -13 -48 2 -48 48 0 24 3 47 7 50 9 10
41 9 47 -2z m99 -23 l13 -33 15 29 c24 51 39 44 39 -18 0 -31 -4 -56 -10 -56
-5 0 -10 12 -10 28 l-1 27 -15 -28 c-16 -29 -34 -28 -35 1 0 12 -3 10 -10 -6
-13 -34 -29 -17 -29 32 0 65 21 77 43 24z m159 -21 c11 -28 14 -49 8 -52 -6
-4 -13 1 -16 9 -8 21 -33 20 -51 -1 -13 -16 -14 -15 -9 12 8 50 25 87 39 82 6
-2 20 -24 29 -50z m106 41 c14 -14 16 -74 2 -83 -5 -3 -7 -12 -3 -20 7 -20 1
-19 -41 6 -30 17 -36 27 -36 54 0 47 48 73 78 43z m54 -25 c2 -27 8 -39 21
-41 13 -3 17 4 17 32 0 19 5 38 10 41 6 4 10 -11 10 -38 0 -55 -19 -75 -55
-59 -21 10 -25 18 -25 57 0 54 18 60 22 8z m106 -24 c-2 -24 -7 -44 -13 -44
-13 0 -19 49 -10 83 10 40 27 11 23 -39z m69 29 c17 -33 17 -33 21 -8 8 52 22
43 22 -13 0 -31 -3 -57 -7 -57 -5 0 -20 14 -35 32 l-27 33 -1 -33 c0 -20 -4
-31 -10 -27 -11 7 -14 88 -3 98 13 13 23 7 40 -25z m135 -21 c11 -28 14 -49 8
-52 -6 -4 -13 1 -16 9 -8 20 -23 20 -46 -1 -17 -15 -18 -15 -18 6 0 34 28 93
42 89 7 -3 21 -25 30 -51z m83 43 c3 -5 -3 -10 -14 -10 -27 0 -27 -16 -1 -30
11 -6 20 -19 20 -30 0 -19 -32 -36 -50 -25 -15 9 -12 25 4 19 8 -3 17 -1 20 5
4 5 -3 12 -14 16 -19 6 -28 44 -13 58 10 10 41 8 48 -3z m115 0 c0 -5 -7 -10
-15 -10 -8 0 -15 -4 -15 -10 0 -5 7 -10 15 -10 8 0 15 -4 15 -10 0 -5 -7 -10
-15 -10 -8 0 -15 -4 -15 -9 0 -5 7 -11 15 -15 26 -9 16 -27 -12 -24 -25 3 -28
8 -31 42 -2 21 -1 44 2 52 6 16 56 19 56 4z m110 0 c0 -5 -7 -10 -15 -10 -8 0
-15 -4 -15 -10 0 -5 7 -10 15 -10 8 0 15 -4 15 -10 0 -5 -7 -10 -15 -10 -22 0
-18 -17 6 -23 27 -7 15 -27 -17 -27 -23 0 -24 3 -24 55 0 52 1 55 25 55 14 0
25 -4 25 -10z m106 -15 c13 -21 15 -31 6 -50 -6 -14 -9 -32 -6 -40 4 -10 0
-15 -10 -15 -9 0 -16 5 -16 10 0 6 -6 10 -14 10 -22 0 -46 29 -46 55 0 53 58
73 86 30z m54 -21 c0 -49 28 -46 32 4 4 46 22 45 26 -2 5 -54 -38 -84 -72 -50
-16 15 -22 75 -10 87 13 13 24 -5 24 -39z m100 -3 c0 -28 -4 -53 -10 -56 -6
-4 -10 15 -10 49 0 31 5 56 10 56 6 0 10 -22 10 -49z m85 35 c22 -16 14 -45
-14 -53 -11 -3 -22 -14 -24 -25 -9 -34 -27 -10 -27 36 0 23 3 46 7 49 11 11
38 8 58 -7z m86 -13 c6 -16 13 -41 15 -58 5 -27 4 -28 -9 -12 -17 21 -31 22
-47 2 -21 -26 -29 -6 -15 36 25 69 39 77 56 32z m67 15 c7 -7 12 -20 12 -30 0
-28 14 -21 27 13 16 43 37 32 41 -21 4 -49 -15 -79 -25 -41 -6 24 -6 24 -14 3
-11 -30 -25 -28 -37 6 -9 24 -10 25 -11 5 -2 -46 -21 -21 -21 27 0 51 6 60 28
38z m156 3 c3 -5 -4 -12 -17 -15 l-22 -7 25 -10 25 -11 -22 -9 c-13 -4 -23
-11 -23 -14 0 -3 10 -10 23 -14 19 -8 20 -10 5 -16 -35 -14 -48 2 -48 55 0 46
2 50 24 50 14 0 27 -4 30 -9z m68 -23 l27 -33 1 35 c0 24 3 31 11 23 14 -14 7
-95 -8 -100 -6 -3 -20 11 -30 29 -17 32 -17 33 -21 8 -8 -52 -22 -43 -22 13 0
31 3 57 8 57 4 0 19 -14 34 -32z m132 23 c3 -5 -1 -11 -9 -15 -10 -3 -15 -19
-15 -46 0 -22 -4 -40 -10 -40 -5 0 -10 18 -10 40 0 27 -5 43 -15 46 -23 9 -7
24 25 24 16 0 31 -4 34 -9z m94 -3 c7 -7 12 -27 12 -45 0 -25 -6 -36 -24 -44
-37 -17 -66 3 -66 46 0 47 48 73 78 43z m87 2 c3 -5 -3 -10 -14 -10 -27 0 -27
-16 -1 -30 24 -13 26 -33 5 -50 -16 -13 -59 -4 -49 11 3 6 12 8 19 5 22 -8 26
7 5 21 -20 14 -27 43 -13 56 10 10 41 8 48 -3z m115 0 c0 -5 -7 -10 -15 -10
-8 0 -15 -4 -15 -10 0 -5 7 -10 15 -10 8 0 15 -4 15 -10 0 -5 -7 -10 -15 -10
-20 0 -19 -10 3 -26 16 -12 16 -13 0 -19 -33 -13 -48 2 -48 48 0 24 3 47 7 50
10 11 53 8 53 -3z m40 -24 c0 -24 7 -38 23 -49 20 -14 20 -16 5 -22 -35 -14
-48 2 -48 55 0 27 5 50 10 50 6 0 10 -15 10 -34z m114 25 c3 -5 -4 -12 -17
-15 l-22 -7 25 -10 25 -11 -25 -10 -25 -10 24 -9 c28 -11 15 -33 -15 -27 -14
2 -20 14 -22 42 -2 21 -1 44 2 52 6 15 42 19 50 5z m86 -1 c0 -5 -4 -10 -9
-10 -6 0 -11 -19 -13 -42 -2 -24 -7 -43 -13 -43 -5 0 -11 19 -13 43 -2 23 -7
42 -13 42 -5 0 -9 5 -9 10 0 6 16 10 35 10 19 0 35 -4 35 -10z m70 0 c9 -6 15
-26 16 -55 l1 -46 -23 22 -24 22 0 -21 c0 -12 -4 -22 -10 -22 -5 0 -10 25 -10
55 0 58 13 69 50 45z m60 -46 c0 -34 -4 -53 -10 -49 -18 11 -12 105 7 105 2 0
3 -25 3 -56z m92 41 c-1 -5 -10 -10 -20 -10 -11 0 -18 -9 -20 -27 -3 -22 1
-28 17 -28 25 0 36 -16 15 -24 -24 -9 -31 -8 -48 10 -21 20 -20 53 1 76 17 19
60 21 55 3z m106 -17 c23 -48 -21 -93 -68 -68 -14 8 -20 21 -20 45 0 58 63 75
88 23z m80 14 c2 -7 -2 -10 -12 -6 -22 9 -20 -8 4 -29 11 -9 17 -23 14 -31 -7
-18 -39 -30 -54 -21 -16 10 -12 28 5 22 23 -9 28 11 5 23 -23 12 -26 30 -8 48
15 15 40 12 46 -6z m82 -21 c0 -30 4 -40 20 -44 31 -8 24 -29 -7 -25 -26 3
-28 7 -31 56 -2 31 1 52 7 52 6 0 11 -17 11 -39z m120 29 c0 -5 -4 -10 -9 -10
-6 0 -11 -19 -13 -42 -2 -24 -7 -43 -13 -43 -5 0 -11 19 -13 43 -2 29 -8 42
-18 42 -8 0 -12 5 -9 10 3 6 22 10 41 10 19 0 34 -4 34 -10z m82 -7 c25 -22
23 -59 -4 -77 -30 -21 -56 -20 -61 2 -3 13 -2 76 2 90 3 9 48 -1 63 -15z m103
-34 c17 -50 13 -80 -6 -46 -6 9 -16 17 -24 17 -8 0 -18 -8 -24 -17 -5 -10 -13
-15 -16 -11 -11 11 25 108 40 108 7 0 21 -23 30 -51z m-5115 -19 c0 -5 -6 -10
-14 -10 -8 0 -18 5 -21 10 -3 6 3 10 14 10 12 0 21 -4 21 -10z m645 -140 c-3
-5 -14 -10 -24 -10 -10 0 -21 -9 -24 -19 -5 -21 9 -41 30 -41 7 0 13 -4 13
-10 0 -14 -43 -13 -58 2 -7 7 -12 24 -12 38 0 14 5 31 12 38 15 15 72 16 63 2z
m65 -22 l20 -33 0 33 c0 17 5 32 10 32 6 0 10 -22 10 -50 0 -59 -16 -65 -45
-17 l-19 32 -4 -33 c-5 -47 -22 -29 -22 24 0 54 21 59 50 12z m134 17 c8 -23
-4 -45 -25 -45 -13 0 -19 -7 -19 -21 0 -12 -5 -19 -12 -17 -11 4 -13 24 -9 81
1 22 56 24 65 2z m44 -41 c-2 -40 -8 -60 -20 -68 -9 -5 -21 -6 -25 -2 -4 5 -2
11 5 13 7 3 12 25 12 59 0 42 3 54 15 54 13 0 15 -11 13 -56z m152 32 c0 -13
2 -30 5 -38 3 -7 1 -19 -3 -26 -7 -10 -15 -9 -40 4 -21 10 -29 20 -25 27 30
46 39 57 50 57 7 0 13 -11 13 -24z m78 12 c17 -17 15 -54 -4 -72 -17 -18 -54
-22 -54 -6 0 6 9 10 20 10 11 0 20 5 20 10 0 6 -9 10 -20 10 -14 0 -20 7 -20
23 0 13 3 27 7 30 10 11 38 8 51 -5z m122 -12 c0 -14 -4 -28 -10 -31 -15 -9
-12 -25 5 -25 8 0 15 -4 15 -10 0 -5 -16 -10 -35 -10 -40 0 -46 17 -15 45 11
10 20 22 20 27 0 4 -9 8 -20 8 -11 0 -20 5 -20 10 0 6 14 10 30 10 25 0 30 -4
30 -24z m80 2 c0 -12 -7 -30 -17 -40 -15 -17 -15 -18 6 -18 12 0 19 -4 16 -10
-3 -5 -19 -10 -36 -10 -34 0 -38 19 -9 45 11 10 20 22 20 27 0 4 -9 8 -20 8
-11 0 -20 5 -20 10 0 6 14 10 30 10 24 0 30 -4 30 -22z m70 -29 c0 -36 -4 -49
-12 -46 -7 2 -13 17 -13 32 -1 16 -6 30 -13 33 -16 5 4 32 24 32 10 0 14 -14
14 -51z m128 28 c2 -10 -4 -27 -14 -38 -16 -18 -16 -19 3 -19 23 0 33 18 33
56 0 22 4 25 28 22 20 -2 27 -9 27 -25 1 -35 11 -36 35 -4 12 17 25 31 29 31
14 0 23 -82 10 -94 -8 -8 -13 -8 -16 2 -5 14 -49 17 -57 3 -7 -11 -134 -12
-141 -2 -2 5 7 19 20 31 30 28 32 40 5 40 -11 0 -20 5 -20 11 0 18 55 5 58
-14z m222 20 c0 -17 -34 -97 -41 -97 -5 0 -9 4 -9 10 0 19 32 90 41 90 5 0 9
-1 9 -3z m75 -14 c6 -17 7 -17 16 0 6 9 21 17 33 17 14 0 27 -8 31 -17 6 -17
7 -17 16 0 27 47 84 -7 61 -58 -13 -28 -46 -33 -60 -9 -8 14 -10 14 -21 0 -17
-21 -50 -20 -58 0 -6 15 -7 15 -19 0 -7 -10 -22 -16 -36 -14 -18 2 -24 10 -26
36 -2 19 -1 40 2 48 8 20 53 18 61 -3z m225 -33 c0 -27 -4 -50 -10 -50 -5 0
-10 16 -10 35 0 26 -4 35 -16 35 -14 0 -14 3 -4 15 25 30 40 17 40 -35z m137
5 c1 -22 -3 -43 -10 -47 -17 -11 -57 -10 -57 2 0 6 9 10 19 10 11 0 23 5 26
10 3 6 -1 10 -9 10 -9 0 -16 5 -16 10 0 6 5 10 10 10 6 0 10 5 10 10 0 6 -9
10 -20 10 -11 0 -20 5 -20 11 0 6 14 9 32 7 30 -3 32 -6 35 -43z m73 35 c0 -5
-8 -10 -17 -10 -15 0 -13 -4 7 -20 20 -16 23 -22 14 -37 -12 -20 -64 -31 -64
-14 0 6 9 11 20 11 11 0 20 5 20 11 0 6 -9 13 -20 16 -19 5 -27 33 -13 46 10
11 53 8 53 -3z m125 -40 c0 -26 -5 -45 -12 -47 -9 -3 -13 10 -13 47 0 37 4 50
13 48 7 -3 12 -22 12 -48z m80 40 c-3 -5 -14 -10 -23 -10 -16 -1 -16 -2 1 -14
21 -16 22 -26 2 -26 -8 0 -15 -4 -15 -10 0 -5 9 -10 21 -10 11 0 17 -4 14 -10
-3 -5 -17 -10 -31 -10 -22 0 -24 4 -24 50 0 49 1 50 31 50 17 0 28 -4 24 -10z
m145 -41 c0 -36 -4 -49 -12 -46 -7 2 -13 16 -13 31 -1 15 -7 31 -15 37 -13 8
-13 10 0 19 31 20 40 11 40 -41z m90 41 c0 -5 -10 -10 -22 -11 -15 0 -18 -2
-8 -6 27 -10 40 -34 29 -54 -18 -35 -69 -17 -69 24 0 32 20 57 45 57 14 0 25
-4 25 -10z m110 -13 c0 -13 5 -28 10 -33 7 -7 5 -17 -6 -30 -11 -13 -17 -15
-20 -6 -3 6 -14 12 -25 12 -25 0 -24 15 2 51 25 35 39 37 39 6z m80 13 c0 -5
-7 -10 -16 -10 -12 0 -10 -5 7 -19 l24 -19 27 31 c30 37 33 35 41 -14 6 -38
-7 -72 -20 -53 -13 18 -51 23 -57 8 -6 -16 -52 -19 -61 -5 -3 5 5 11 17 13 30
4 30 22 1 26 -21 3 -24 15 -14 50 3 7 51 0 51 -8z m210 0 c0 -19 -40 -90 -50
-90 -13 0 -12 10 5 40 19 34 18 40 -5 40 -11 0 -20 5 -20 10 0 6 16 10 35 10
19 0 35 -5 35 -10z m60 -40 c0 -27 -4 -50 -10 -50 -5 0 -10 16 -10 35 0 19 -3
34 -7 34 -20 -3 -24 2 -13 16 25 30 40 17 40 -35z m90 40 c0 -5 -8 -10 -17
-10 -14 0 -12 -4 7 -17 14 -10 33 -16 43 -15 9 2 17 -2 17 -7 0 -6 -9 -11 -19
-11 -10 0 -22 -7 -25 -16 -4 -10 -15 -14 -33 -12 -24 2 -29 8 -31 36 -2 18 2
40 9 48 13 16 49 19 49 4z m128 -28 c2 -18 -2 -40 -9 -48 -13 -16 -49 -19 -49
-4 0 6 7 10 15 10 22 0 18 17 -5 23 -19 5 -27 36 -13 51 4 4 19 6 33 4 20 -2
26 -9 28 -36z m-2438 8 c0 -5 -4 -10 -10 -10 -5 0 -10 5 -10 10 0 6 5 10 10
10 6 0 10 -4 10 -10z m1565 0 c3 -5 -1 -10 -9 -10 -9 0 -16 5 -16 10 0 6 4 10
9 10 6 0 13 -4 16 -10z m-395 -30 c0 -5 -9 -10 -21 -10 -11 0 -17 5 -14 10 3
6 13 10 21 10 8 0 14 -4 14 -10z m-1170 -30 c0 -5 -4 -10 -10 -10 -5 0 -10 5
-10 10 0 6 5 10 10 10 6 0 10 -4 10 -10z m230 0 c0 -5 -4 -10 -10 -10 -5 0
-10 5 -10 10 0 6 5 10 10 10 6 0 10 -4 10 -10z m280 0 c0 -5 -4 -10 -10 -10
-5 0 -10 5 -10 10 0 6 5 10 10 10 6 0 10 -4 10 -10z m850 -4 c0 -8 -4 -18 -10
-21 -5 -3 -10 3 -10 14 0 12 5 21 10 21 6 0 10 -6 10 -14z m205 4 c-3 -5 -10
-10 -16 -10 -5 0 -9 5 -9 10 0 6 7 10 16 10 8 0 12 -4 9 -10z m235 0 c0 -5 -4
-10 -10 -10 -5 0 -10 5 -10 10 0 6 5 10 10 10 6 0 10 -4 10 -10z m280 0 c0 -5
-7 -10 -15 -10 -8 0 -15 5 -15 10 0 6 7 10 15 10 8 0 15 -4 15 -10z m-3351
-145 c1 -32 -3 -55 -9 -55 -6 0 -10 24 -10 55 0 30 4 55 8 55 5 0 10 -25 11
-55z m1111 45 c0 -5 -5 -10 -11 -10 -5 0 -7 5 -4 10 3 6 8 10 11 10 2 0 4 -4
4 -10z m615 -42 c0 -24 -4 -43 -10 -43 -9 0 -15 70 -7 88 8 19 18 -5 17 -45z
m235 -3 c0 -31 -4 -55 -10 -55 -6 0 -10 23 -9 55 1 30 6 55 11 55 4 0 8 -25 8
-55z m410 -1 l0 -55 -32 3 c-30 3 -33 6 -33 38 0 29 4 36 23 38 12 2 22 10 22
18 0 8 5 14 10 14 6 0 10 -25 10 -56z m325 46 c3 -5 -1 -10 -10 -10 -9 0 -13
5 -10 10 3 6 8 10 10 10 2 0 7 -4 10 -10z m125 -45 c0 -30 -4 -55 -10 -55 -5
0 -10 25 -10 55 0 30 5 55 10 55 6 0 10 -25 10 -55z m340 45 c12 -8 9 -10 -13
-10 -16 0 -26 4 -22 10 8 12 16 12 35 0z m-3699 -7 c9 -70 -2 -119 -17 -78 -4
8 -10 15 -15 15 -5 0 -9 -7 -9 -15 0 -8 -4 -15 -10 -15 -5 0 -10 23 -10 50 0
49 1 50 30 50 17 0 30 -3 31 -7z m283 -31 l9 -34 11 33 c6 19 19 35 29 37 14
3 17 -4 17 -47 0 -49 -19 -75 -21 -28 l0 22 -16 -22 c-8 -13 -19 -23 -23 -23
-4 0 -11 10 -15 23 l-8 22 -4 -22 c-8 -42 -23 -24 -23 28 0 42 3 50 17 47 10
-2 22 -18 27 -36z m464 11 c2 -16 -4 -26 -22 -35 -14 -6 -26 -17 -26 -25 0 -7
-4 -13 -10 -13 -5 0 -10 23 -10 51 l0 50 33 -3 c24 -2 33 -8 35 -25z m630 0
c2 -16 -4 -26 -22 -35 -14 -6 -26 -17 -26 -25 0 -7 -4 -13 -10 -13 -5 0 -10
23 -10 51 l0 50 33 -3 c24 -2 33 -8 35 -25z m420 -20 c-3 -54 -21 -65 -26 -15
-2 17 -8 32 -14 32 -6 0 -6 6 2 15 26 31 41 18 38 -32z m90 -1 c2 -32 -1 -44
-14 -49 -36 -14 -62 24 -50 73 5 20 12 25 34 22 24 -3 27 -8 30 -46z m77 38
c-3 -5 -14 -10 -23 -10 -14 0 -12 -4 7 -19 29 -22 25 -55 -8 -59 -13 -2 -28 1
-34 7 -8 8 -5 11 10 11 29 0 38 17 13 25 -13 4 -20 15 -20 31 0 20 5 24 31 24
17 0 28 -4 24 -10z m83 -38 c2 -32 -1 -44 -14 -49 -36 -14 -62 24 -50 73 5 20
12 25 34 22 24 -3 27 -8 30 -46z m176 16 c12 -35 -15 -68 -56 -68 -27 0 -28 2
-28 51 l0 50 37 -3 c31 -2 39 -8 47 -30z m168 -6 c-14 -4 -16 -42 -2 -42 6 0
10 -4 10 -10 0 -5 -9 -10 -19 -10 -14 0 -20 9 -24 38 -6 47 8 68 31 45 12 -12
13 -18 4 -21z m169 0 c-14 -5 -14 -42 -1 -42 6 0 10 -4 10 -10 0 -5 -9 -10
-20 -10 -23 0 -36 37 -26 76 7 26 7 26 27 8 12 -10 16 -20 10 -22z m169 -13
c0 -36 -4 -49 -12 -47 -14 5 -23 61 -14 84 12 31 26 11 26 -37z m820 -3 c0
-58 -20 -90 -42 -68 -9 9 -9 12 0 12 8 0 12 17 12 48 0 27 3 52 7 55 16 17 23
3 23 -47z m378 31 c3 -15 -47 -77 -62 -77 -3 0 -6 23 -6 51 l0 50 32 -3 c22
-2 34 -9 36 -21z m620 -4 c2 -16 -4 -26 -22 -35 -14 -6 -26 -17 -26 -25 0 -7
-4 -13 -10 -13 -5 0 -10 23 -10 51 l0 50 33 -3 c24 -2 33 -8 35 -25z m87 -23
c0 -43 -1 -45 -32 -48 l-33 -3 0 51 0 51 33 -3 c31 -3 32 -5 32 -48z m215 41
c0 -5 -10 -11 -22 -13 -17 -2 -23 -10 -23 -28 0 -18 6 -26 23 -28 33 -5 27
-22 -8 -22 -37 0 -55 35 -40 75 7 19 17 25 40 25 16 0 30 -4 30 -9z m70 -1 c0
-5 -7 -10 -15 -10 -8 0 -15 -4 -15 -10 0 -5 7 -10 15 -10 8 0 15 -4 15 -10 0
-5 -7 -10 -15 -10 -8 0 -15 -4 -15 -10 0 -5 7 -10 15 -10 8 0 15 -4 15 -10 0
-13 -47 -13 -52 1 -2 5 -2 28 0 50 4 33 7 39 28 39 13 0 24 -4 24 -10z m88
-22 c2 -19 -2 -28 -16 -33 -11 -3 -23 -13 -26 -21 -11 -28 -26 -3 -26 42 0 45
0 45 33 42 26 -2 33 -8 35 -30z m112 22 c0 -5 -8 -10 -17 -10 -15 0 -14 -4 6
-19 33 -25 21 -61 -20 -61 -16 0 -29 5 -29 10 0 6 9 10 20 10 11 0 20 4 20 9
0 5 -9 11 -20 14 -19 5 -27 36 -13 50 10 11 53 8 53 -3z m81 3 c0 -5 1 -26 2
-48 2 -38 1 -40 -28 -40 -28 0 -30 3 -31 40 -2 50 1 55 32 55 13 0 24 -3 25
-7z m125 -17 c8 -33 2 -57 -17 -69 -29 -18 -49 -1 -49 41 0 45 5 52 36 52 17
0 25 -7 30 -24z m77 -18 c7 -49 -1 -61 -34 -56 -20 2 -24 9 -26 38 -2 49 3 60
30 60 21 0 25 -6 30 -42z m80 28 c3 -8 -1 -22 -8 -33 -19 -24 -18 -33 0 -33 8
0 15 -4 15 -10 0 -5 -16 -10 -35 -10 -40 0 -46 17 -15 45 11 10 20 22 20 27 0
4 -9 8 -20 8 -11 0 -20 5 -20 10 0 15 57 12 63 -4z m122 -36 c0 -39 -3 -45
-22 -48 -13 -2 -27 4 -34 16 -7 12 -19 17 -31 14 -10 -2 -18 1 -18 7 0 6 9 11
19 11 12 0 21 9 25 26 5 20 12 25 34 22 25 -3 27 -6 27 -48z m65 0 c0 -27 -4
-50 -10 -50 -5 0 -10 15 -10 34 0 19 -6 37 -12 39 -10 4 -9 8 2 16 26 18 30
13 30 -39z m80 0 c0 -27 -4 -50 -10 -50 -5 0 -10 16 -10 35 0 27 -4 35 -17 35
-16 1 -16 2 1 15 31 23 36 18 36 -35z m-4648 29 c15 -8 22 -8 28 0 3 7 14 9
23 5 18 -7 23 -24 7 -24 -14 0 -12 -38 3 -43 6 -2 9 -8 5 -12 -14 -14 -38 5
-38 30 0 18 -5 25 -20 25 -13 0 -20 -7 -20 -20 0 -11 5 -20 10 -20 6 0 10 -5
10 -11 0 -6 -8 -9 -17 -7 -18 3 -33 51 -25 76 5 15 8 15 34 1z m2023 1 c4 -6
1 -17 -5 -25 -10 -12 -10 -18 0 -30 15 -18 7 -30 -13 -22 -14 5 -27 53 -19 75
5 15 29 16 37 2z m-3075 -31 c0 -38 24 -35 28 4 5 42 22 32 22 -13 0 -39 -1
-40 -35 -40 -34 0 -35 1 -35 40 0 22 5 40 10 40 6 0 10 -14 10 -31z m128 -11
c3 -36 2 -38 -26 -38 -48 0 -49 35 -2 53 10 3 7 6 -8 6 -14 1 -20 5 -17 12 4
5 17 9 28 7 17 -2 23 -11 25 -40z m250 0 c3 -36 2 -38 -27 -38 -24 0 -31 4
-31 20 0 12 10 24 23 30 l22 9 -23 0 c-14 1 -20 5 -17 12 4 5 17 9 28 7 17 -2
23 -11 25 -40z m72 36 c0 -2 -4 -12 -9 -22 -5 -9 -12 -25 -15 -35 -8 -26 -26
-11 -26 22 0 15 2 30 5 32 6 6 45 9 45 3z m118 -36 c3 -36 2 -38 -26 -38 -46
0 -52 42 -7 53 18 4 17 5 -3 6 -14 1 -20 5 -17 12 4 5 17 9 28 7 17 -2 23 -11
25 -40z m202 33 c0 -5 -7 -11 -15 -15 -8 -3 -15 -17 -15 -31 0 -14 -4 -25 -10
-25 -5 0 -10 17 -10 38 0 33 3 38 25 40 14 1 25 -2 25 -7z m70 -6 c15 -18 6
-30 -25 -38 -18 -4 -18 -5 3 -6 30 -1 28 -21 -3 -21 -31 0 -50 32 -35 60 13
24 43 26 60 5z m70 5 c0 -5 -5 -10 -12 -10 -7 0 -6 -6 4 -17 9 -10 13 -24 11
-30 -5 -15 -53 -18 -53 -3 0 6 8 10 17 10 15 0 15 1 -2 14 -23 16 -14 46 15
46 11 0 20 -4 20 -10z m84 -12 c15 -25 -4 -53 -35 -53 -25 0 -37 30 -25 61 8
20 46 14 60 -8z m206 2 c22 -40 -26 -80 -58 -48 -25 25 -6 68 30 68 9 0 22 -9
28 -20z m170 -16 c0 -34 17 -30 25 7 9 39 28 24 23 -17 -2 -23 -9 -30 -31 -32
-21 -3 -29 2 -36 19 -9 27 -3 61 10 53 5 -3 9 -16 9 -30z m120 26 c0 -5 -7
-10 -15 -10 -8 0 -15 -9 -15 -20 0 -11 7 -20 15 -20 8 0 15 -4 15 -10 0 -16
-36 -12 -50 5 -18 21 2 65 30 65 11 0 20 -4 20 -10z m70 0 c0 -5 -7 -10 -15
-10 -8 0 -15 -9 -15 -20 0 -11 7 -20 15 -20 8 0 15 -4 15 -10 0 -5 -9 -10 -20
-10 -25 0 -42 37 -28 63 9 18 48 24 48 7z m40 -30 c0 -22 -4 -40 -10 -40 -5 0
-10 18 -10 40 0 22 5 40 10 40 6 0 10 -18 10 -40z m685 30 c3 -5 -2 -10 -11
-10 -16 0 -16 -1 1 -14 11 -8 16 -19 12 -30 -7 -18 -42 -22 -52 -6 -3 6 2 10
11 10 16 0 16 1 0 19 -10 11 -15 25 -11 30 8 14 42 14 50 1z m135 0 c0 -4 -7
-10 -15 -14 -8 -3 -15 -17 -15 -31 0 -14 -4 -25 -10 -25 -5 0 -10 17 -10 39 0
34 3 39 25 39 14 0 25 -4 25 -8z m168 1 c8 -5 12 -21 10 -37 -3 -25 -7 -29
-33 -29 -26 0 -30 4 -33 29 -3 27 10 46 33 46 6 0 16 -4 23 -9z m180 -33 c2
-22 -1 -38 -7 -38 -6 0 -11 14 -11 31 0 38 -24 35 -28 -4 -5 -42 -22 -32 -22
14 0 39 1 40 33 37 29 -3 32 -6 35 -40z m134 17 c4 -35 22 -36 26 -2 5 42 22
32 22 -14 0 -39 -1 -40 -32 -37 -30 3 -33 6 -36 41 -4 41 15 52 20 12z m118
15 c0 -5 -5 -10 -12 -10 -9 0 -9 -3 0 -12 22 -22 14 -48 -13 -48 -14 0 -25 5
-25 10 0 6 8 10 17 10 15 0 15 1 -2 14 -23 16 -14 46 15 46 11 0 20 -4 20 -10z
m130 0 c0 -4 -7 -10 -15 -14 -8 -3 -15 -17 -15 -31 0 -14 -4 -25 -10 -25 -5 0
-10 17 -10 39 0 34 3 39 25 39 14 0 25 -4 25 -8z m38 -36 c-5 -42 -28 -43 -28
-1 0 18 3 37 7 41 12 12 25 -11 21 -40z m80 3 c3 -38 3 -38 -30 -35 -41 4 -51
33 -16 47 18 8 19 10 5 10 -10 1 -15 6 -12 12 4 5 17 9 28 7 18 -2 23 -11 25
-41z m316 21 c8 -13 8 -23 0 -35 -28 -45 -89 -9 -64 38 13 24 48 22 64 -3z
m84 -21 c3 -38 3 -38 -30 -35 -41 4 -51 33 -16 47 17 7 19 10 6 10 -10 1 -18
6 -18 12 0 6 12 9 28 7 23 -3 27 -8 30 -41z m86 21 c23 -38 -36 -77 -64 -43
-10 12 -10 21 -1 41 13 29 47 30 65 2z m204 -5 c3 -18 -2 -23 -20 -24 l-23 -2
23 -4 c29 -6 28 -23 -2 -23 -35 0 -52 25 -37 56 14 32 54 30 59 -3z m67 17 c3
-5 -2 -10 -11 -10 -16 0 -16 -1 1 -14 23 -16 14 -46 -15 -46 -11 0 -20 5 -20
10 0 6 8 10 17 10 14 0 13 3 -5 16 -18 13 -21 19 -11 30 13 16 35 18 44 4z
m75 0 c0 -5 -8 -10 -17 -10 -17 -1 -17 -1 0 -11 27 -16 22 -49 -7 -49 -14 0
-28 5 -31 10 -3 6 4 10 17 10 l22 0 -22 16 c-18 13 -21 19 -11 30 13 16 49 19
49 4z m84 -12 c23 -38 -36 -77 -64 -43 -10 12 -10 21 -1 41 13 29 47 30 65 2z
m84 -21 c3 -38 3 -38 -30 -35 -41 4 -51 33 -16 47 17 7 19 10 6 10 -10 1 -18
6 -18 12 0 6 12 9 28 7 23 -3 27 -8 30 -41z m-848 3 c0 -5 -13 -10 -30 -10
-16 0 -30 5 -30 10 0 6 14 10 30 10 17 0 30 -4 30 -10z m955 0 c4 -6 -7 -10
-24 -10 -17 0 -31 5 -31 10 0 6 11 10 24 10 14 0 28 -4 31 -10z m300 0 c3 -5
-3 -10 -14 -10 -12 0 -21 5 -21 10 0 6 6 10 14 10 8 0 18 -4 21 -10z m-3035
-34 c0 -8 -4 -18 -10 -21 -5 -3 -10 3 -10 14 0 12 5 21 10 21 6 0 10 -6 10
-14z m393 -11 c-3 -8 -9 -15 -14 -15 -10 0 -12 24 -3 33 11 11 24 -3 17 -18z
m3162 15 c-3 -5 -10 -10 -16 -10 -5 0 -9 5 -9 10 0 6 7 10 16 10 8 0 12 -4 9
-10z m-4385 -110 c0 -5 -7 -10 -15 -10 -8 0 -15 -4 -15 -10 0 -5 7 -10 15 -10
23 0 18 -17 -7 -25 l-23 -8 23 -4 c20 -4 29 -26 9 -24 -4 1 -16 1 -27 1 -17 0
-20 7 -20 50 0 49 1 50 30 50 17 0 30 -4 30 -10z m380 -6 c0 -8 4 -13 9 -10
21 13 41 -7 41 -40 0 -41 -17 -46 -22 -6 -4 33 -22 32 -26 -3 -6 -45 -22 -26
-22 25 0 28 5 50 10 50 6 0 10 -7 10 -16z m239 -34 c1 -28 -3 -50 -9 -50 -5 0
-10 23 -10 50 0 28 4 50 8 50 5 0 10 -22 11 -50z m206 -10 c0 -62 -12 -74 -28
-26 -9 26 6 86 22 86 3 0 6 -27 6 -60z m71 52 c16 -10 12 -81 -5 -92 -26 -15
-50 6 -48 43 4 51 23 69 53 49z m81 -4 c15 -20 10 -80 -8 -91 -19 -12 -49 -3
-49 14 0 6 7 9 15 6 19 -8 31 13 14 25 -11 7 -11 11 -1 15 19 8 14 23 -9 23
-11 0 -17 5 -14 10 9 14 41 12 52 -2z m53 -14 c13 -33 2 -94 -16 -94 -10 0
-11 6 -4 26 7 17 7 38 1 60 -11 41 5 47 19 8z m104 20 c17 -6 22 -59 8 -80 -9
-15 -52 -28 -52 -16 0 5 10 14 23 20 l22 11 -22 0 c-26 1 -40 36 -23 56 14 17
21 18 44 9z m93 -42 c1 -31 -3 -45 -17 -52 -25 -14 -49 9 -47 45 3 41 15 57
40 53 18 -2 22 -10 24 -46z m83 33 c0 -25 -40 -96 -50 -90 -6 4 -4 18 5 35 20
39 19 50 -5 50 -11 0 -20 5 -20 10 0 6 16 10 35 10 25 0 35 -4 35 -15z m70 -9
c0 -13 2 -30 5 -38 7 -18 -15 -48 -22 -30 -2 6 -13 12 -24 12 -25 0 -24 15 2
51 25 35 39 37 39 5z m76 9 c8 -20 -5 -85 -16 -85 -6 0 -10 13 -10 29 0 16 -6
31 -12 34 -10 3 -10 7 1 20 17 21 30 22 37 2z m122 -38 c2 -37 0 -47 -12 -47
-11 0 -16 9 -16 29 0 16 -6 31 -12 34 -10 3 -10 8 1 21 22 26 36 13 39 -37z
m87 43 c3 -5 -3 -10 -14 -10 -27 0 -27 -16 -1 -23 12 -3 20 -14 20 -26 0 -26
-34 -45 -58 -32 -14 8 -15 10 -2 15 45 14 45 15 23 21 -17 6 -23 15 -23 36 0
24 4 29 24 29 14 0 28 -4 31 -10z m83 -13 c2 -10 -4 -27 -14 -38 -16 -17 -16
-19 -1 -19 10 0 17 -4 17 -10 0 -5 -16 -10 -35 -10 -40 0 -44 9 -15 35 24 21
27 47 5 39 -15 -6 -21 7 -8 20 13 13 48 1 51 -17z m70 11 c21 -21 14 -66 -13
-84 -29 -19 -49 -9 -22 11 16 12 16 13 -3 18 -33 8 -20 67 15 67 6 0 16 -5 23
-12z m172 -38 c0 -69 -24 -69 -27 0 -2 39 1 50 12 50 11 0 15 -12 15 -50z
m421 37 c-1 -4 -1 -24 -1 -46 0 -33 -4 -39 -24 -43 -30 -6 -46 8 -46 38 0 25
24 49 40 39 5 -3 10 1 10 10 0 9 5 15 11 13 6 -2 10 -7 10 -11z m255 5 c6 -4
14 -17 18 -29 19 -59 -82 -105 -104 -47 -16 40 13 84 55 84 11 0 25 -4 31 -8z
m214 -42 c0 -27 -4 -50 -10 -50 -5 0 -10 23 -10 50 0 28 5 50 10 50 6 0 10
-22 10 -50z m552 28 c5 -34 -3 -78 -14 -78 -5 0 -8 22 -6 50 3 52 14 67 20 28z
m238 -28 c0 -27 -4 -50 -10 -50 -5 0 -10 23 -10 50 0 28 5 50 10 50 6 0 10
-22 10 -50z m180 1 c0 -44 -2 -49 -25 -53 -14 -3 -30 1 -36 8 -16 20 -6 58 19
69 12 5 22 13 22 17 0 5 5 8 10 8 6 0 10 -22 10 -49z m84 34 c3 -8 9 -15 13
-14 25 4 33 -4 33 -35 0 -37 -11 -45 -47 -38 -20 4 -23 10 -23 53 0 48 12 65
24 34z m-3856 -17 c16 -16 16 -71 0 -66 -7 3 -14 14 -16 26 -5 30 -22 28 -22
-3 0 -14 -4 -25 -10 -25 -5 0 -10 15 -10 34 0 32 4 37 41 45 3 0 10 -4 17 -11z
m92 -5 c0 -9 -7 -25 -17 -35 -15 -17 -15 -18 0 -18 25 0 21 -37 -4 -43 -11 -3
-27 -3 -34 -1 -17 7 -13 93 6 105 23 14 49 10 49 -8z m64 11 c24 -9 20 -44 -5
-44 -11 0 -17 -5 -14 -10 4 -6 10 -8 15 -5 5 3 11 1 14 -4 8 -12 -20 -22 -39
-15 -25 10 -31 55 -10 71 22 15 19 15 39 7z m90 0 c10 -4 16 -18 16 -40 0 -41
-17 -46 -22 -6 -2 15 -7 27 -13 27 -5 0 -11 -12 -13 -27 -5 -40 -22 -35 -22 6
0 24 5 36 18 39 9 3 18 5 19 6 1 0 8 -2 17 -5z m180 -10 c26 -26 20 -61 -11
-67 -16 -3 -31 -3 -35 0 -14 8 -8 35 10 50 9 8 11 12 5 8 -14 -6 -18 7 -6 18
10 11 20 8 37 -9z m73 -9 c-10 -7 -17 -22 -17 -34 0 -12 -6 -21 -15 -21 -10 0
-15 10 -15 34 0 28 4 35 23 38 31 6 43 -3 24 -17z m109 17 c14 -9 23 -47 15
-61 -4 -6 -18 -12 -31 -13 -31 -4 -39 28 -13 47 17 14 17 14 -2 15 -17 0 -17
2 -5 10 18 12 22 12 36 2z m55 -15 c-13 -13 -26 -3 -16 12 3 6 11 8 17 5 6 -4
6 -10 -1 -17z m1197 11 c7 -7 12 -24 12 -39 0 -21 -6 -28 -27 -32 -16 -3 -31
-3 -35 0 -14 8 -8 35 10 49 11 9 13 13 4 14 -17 0 -5 20 12 20 6 0 17 -5 24
-12z m116 6 c24 -9 20 -44 -5 -44 -12 0 -17 -4 -14 -11 4 -6 13 -8 21 -5 8 3
14 1 14 -3 0 -7 -23 -21 -35 -21 -9 0 -35 33 -35 45 0 12 26 45 35 45 2 0 10
-3 19 -6z m81 -8 c14 6 16 3 10 -15 -4 -12 -2 -28 4 -35 9 -11 3 -13 -29 -13
-31 0 -38 3 -30 12 6 8 8 25 4 42 -6 24 -5 26 8 15 9 -7 23 -9 33 -6z m89 -2
c26 -26 20 -61 -11 -67 -45 -8 -53 6 -33 57 11 30 22 32 44 10z m96 -10 c14
-36 12 -54 -5 -54 -9 0 -15 9 -15 25 0 14 -4 25 -10 25 -5 0 -10 -11 -10 -25
0 -16 -6 -25 -15 -25 -10 0 -15 10 -15 34 0 35 1 36 53 45 4 0 12 -11 17 -25z
m152 -2 c-7 -2 -12 -15 -12 -28 0 -15 -6 -24 -15 -24 -10 0 -15 10 -15 34 0
28 4 35 23 38 23 3 39 -13 19 -20z m76 16 c19 -19 14 -38 -9 -38 -12 0 -17 -4
-14 -11 4 -6 13 -8 21 -5 8 3 14 1 14 -3 0 -13 -27 -21 -45 -15 -21 8 -30 51
-15 69 15 18 32 19 48 3z m202 -4 c0 -9 -5 -12 -12 -8 -7 4 -4 -3 7 -15 20
-23 20 -23 0 -37 -21 -16 -37 -14 -43 4 -2 8 3 10 15 5 17 -6 17 -6 1 14 -21
23 -23 39 -5 46 24 10 37 7 37 -9z m71 6 c26 -14 25 -56 -2 -70 -38 -21 -69
36 -37 68 15 15 15 15 39 2z m134 0 c3 -5 8 -23 10 -39 3 -25 -1 -30 -23 -34
-15 -3 -30 -3 -34 0 -14 8 -8 35 10 49 16 13 16 13 -3 14 -17 0 -17 2 -5 10
19 12 37 13 45 0z m67 -18 c-7 -2 -12 -15 -12 -28 0 -15 -6 -24 -15 -24 -10 0
-15 10 -15 34 0 28 4 35 23 38 23 3 39 -13 19 -20z m72 22 c10 -4 16 -18 16
-39 0 -25 -5 -34 -22 -39 -31 -7 -56 17 -39 37 6 8 11 19 10 23 -4 25 5 29 35
18z m144 -7 c18 -12 16 -67 -3 -67 -9 0 -15 9 -15 25 0 14 -4 25 -10 25 -5 0
-10 -11 -10 -25 0 -14 -4 -25 -10 -25 -5 0 -10 12 -10 26 0 31 -23 28 -28 -4
-5 -35 -22 -25 -22 12 0 25 5 36 18 38 27 6 76 3 90 -5z m76 7 c25 -9 20 -44
-6 -44 -12 0 -18 -3 -14 -7 4 -5 12 -8 17 -8 15 0 11 -20 -4 -23 -17 -4 -47
24 -47 43 0 12 26 45 35 45 2 0 10 -3 19 -6z m73 -19 c-10 -7 -17 -22 -17 -34
0 -11 -4 -21 -10 -21 -5 0 -10 15 -10 34 0 25 5 36 18 39 26 6 37 -5 19 -18z
m117 18 c4 -4 -3 -15 -16 -25 l-23 -18 23 -6 c23 -7 29 -19 12 -29 -18 -11
-50 15 -50 40 0 30 36 55 54 38z m74 -5 c20 -20 15 -65 -9 -71 -48 -13 -66 20
-27 47 19 14 20 16 5 16 -10 0 -15 5 -12 10 8 14 28 13 43 -2z m180 -31 c2
-21 -1 -37 -7 -37 -6 0 -11 12 -11 26 0 31 -23 28 -28 -4 -5 -35 -22 -25 -22
12 0 24 5 36 18 39 36 10 47 2 50 -36z m279 18 c-10 -7 -17 -22 -17 -34 0 -11
-4 -21 -10 -21 -5 0 -10 15 -10 34 0 25 5 36 18 39 26 6 37 -5 19 -18z m-2527
-20 c0 -8 -7 -15 -15 -15 -8 0 -15 7 -15 15 0 8 7 15 15 15 8 0 15 -7 15 -15z
m-765 -25 c3 -5 -1 -10 -9 -10 -9 0 -16 5 -16 10 0 6 4 10 9 10 6 0 13 -4 16
-10z m2885 1 c0 -6 -4 -13 -10 -16 -5 -3 -10 1 -10 9 0 9 5 16 10 16 6 0 10
-4 10 -9z m260 -1 c0 -5 -4 -10 -10 -10 -5 0 -10 5 -10 10 0 6 5 10 10 10 6 0
10 -4 10 -10z m-3953 -158 c2 -43 -13 -58 -48 -47 -15 5 -18 15 -16 46 5 73
61 73 64 1z m62 49 c19 -10 23 -64 8 -88 -10 -15 -57 -17 -57 -3 0 6 9 10 20
10 24 0 27 18 5 26 -14 6 -14 8 1 19 15 11 15 13 -7 18 -20 6 -21 9 -9 17 19
12 18 12 39 1z m181 -46 c0 -24 -6 -38 -19 -45 -25 -13 -41 -13 -41 0 0 6 7
10 15 10 22 0 18 17 -5 23 -25 6 -27 42 -3 56 29 16 53 -5 53 -44z m138 46
c11 -6 17 -22 17 -46 0 -43 -21 -63 -51 -50 -18 8 -17 9 4 12 23 4 32 33 10
33 -9 0 -9 3 0 12 15 15 16 32 2 23 -13 -8 -32 4 -25 16 8 11 22 12 43 0z m98
-26 c8 -32 2 -56 -18 -68 -24 -16 -48 8 -48 49 0 54 53 69 66 19z m54 10 l-23
-12 27 -7 c21 -5 27 -12 24 -28 -8 -53 -68 -43 -68 11 0 30 9 46 30 53 26 9
34 -4 10 -17z m210 15 c8 -5 15 -27 17 -49 2 -36 0 -41 -23 -47 -14 -4 -30 -2
-37 5 -8 8 -5 11 11 11 23 0 29 14 11 26 -8 4 -8 9 0 17 14 14 14 30 1 22 -5
-3 -15 -3 -21 1 -8 4 -7 9 2 15 17 11 21 11 39 -1z m87 -2 c15 -26 13 -86 -4
-92 -35 -14 -53 3 -50 45 3 49 35 76 54 47z m89 -46 c2 -43 -12 -58 -47 -47
-15 5 -18 15 -16 46 5 73 59 73 63 1z m122 6 c-3 -51 -4 -53 -33 -53 -27 0
-30 4 -33 33 -2 24 1 34 15 39 10 3 22 12 26 20 17 28 28 11 25 -39z m262 42
c0 -5 -4 -10 -10 -10 -5 0 -10 5 -10 10 0 6 5 10 10 10 6 0 10 -4 10 -10z
m320 -45 c0 -30 -4 -55 -10 -55 -5 0 -10 25 -10 55 0 30 5 55 10 55 6 0 10
-25 10 -55z m555 45 c3 -5 -1 -10 -9 -10 -9 0 -16 5 -16 10 0 6 4 10 9 10 6 0
13 -4 16 -10z m235 -45 c0 -31 -4 -55 -10 -55 -6 0 -10 23 -9 55 1 30 6 55 11
55 4 0 8 -25 8 -55z m180 2 c0 -53 -1 -54 -30 -55 -24 0 -31 4 -36 24 -8 33 1
54 26 54 11 0 20 7 20 15 0 8 5 15 10 15 6 0 10 -24 10 -53z m80 39 c0 -8 10
-16 23 -18 18 -2 22 -9 22 -38 0 -32 -2 -35 -30 -35 -29 0 -30 2 -33 53 -2 31
1 52 7 52 6 0 11 -6 11 -14z m380 -41 c0 -30 -4 -55 -10 -55 -5 0 -10 25 -10
55 0 30 5 55 10 55 6 0 10 -25 10 -55z m555 45 c3 -5 -1 -10 -9 -10 -9 0 -16
5 -16 10 0 6 4 10 9 10 6 0 13 -4 16 -10z m235 0 c0 -5 -4 -10 -10 -10 -5 0
-10 5 -10 10 0 6 5 10 10 10 6 0 10 -4 10 -10z m180 -44 c0 -59 4 -57 -63 -47
-5 0 -7 16 -5 34 2 24 8 33 26 35 12 2 22 10 22 18 0 8 5 14 10 14 6 0 10 -24
10 -54z m80 40 c0 -8 10 -16 23 -18 18 -2 22 -9 22 -38 0 -32 -2 -35 -30 -35
-29 0 -30 2 -33 53 -2 31 1 52 7 52 6 0 11 -6 11 -14z m-4191 -26 c-8 -21 -8
-39 0 -61 8 -23 8 -30 -2 -26 -19 6 -30 59 -18 90 15 38 33 35 20 -3z m212 -3
c8 -30 -2 -79 -17 -84 -5 -2 -9 24 -9 57 0 61 13 75 26 27z m197 -3 c2 -19 -3
-38 -13 -48 -18 -18 -45 -22 -45 -6 0 6 7 10 15 10 22 0 18 17 -5 23 -19 5
-27 36 -13 51 4 4 19 6 33 4 20 -2 26 -9 28 -34z m350 -11 c-3 -53 -21 -65
-26 -18 -2 16 -8 33 -14 36 -16 10 0 29 23 29 18 0 20 -6 17 -47z m752 22 c14
-38 3 -55 -39 -56 -36 -1 -36 -1 -6 -8 21 -4 26 -9 17 -15 -21 -13 -62 3 -74
29 -17 37 12 75 57 75 29 0 37 -5 45 -25z m-300 -29 c0 -28 -4 -35 -27 -40
-16 -5 -29 -3 -34 5 -10 17 0 39 20 40 14 1 14 2 -1 6 -29 7 -20 23 12 23 27
0 30 -3 30 -34z m70 24 c0 -5 -4 -10 -9 -10 -5 0 -11 -14 -15 -31 -8 -39 -26
-28 -26 17 0 30 3 34 25 34 14 0 25 -4 25 -10z m70 1 c0 -5 -9 -11 -20 -14
-27 -7 -25 -26 3 -36 20 -8 20 -10 4 -16 -27 -11 -51 17 -43 49 5 19 13 26 31
26 14 0 25 -4 25 -9z m40 -25 c0 -19 -4 -38 -10 -41 -6 -4 -10 10 -10 34 0 23
5 41 10 41 6 0 10 -15 10 -34z m190 24 c0 -5 -5 -10 -11 -10 -6 0 -3 -7 6 -16
15 -15 15 -19 1 -32 -9 -9 -21 -12 -33 -7 -17 7 -17 8 2 15 18 7 19 8 3 15
-28 11 -23 45 7 45 14 0 25 -4 25 -10z m85 -24 c0 -36 -26 -56 -49 -37 -16 14
-22 52 -9 65 4 4 19 6 33 4 20 -2 25 -8 25 -32z m125 -5 c0 -35 -2 -38 -27
-37 -21 1 -29 7 -31 24 -3 17 2 22 20 23 17 1 18 3 6 6 -27 7 -22 23 7 23 22
0 25 -4 25 -39z m70 29 c0 -5 -4 -10 -9 -10 -5 0 -11 -12 -13 -27 -4 -41 -23
-34 -26 10 -3 34 -1 37 22 37 14 0 26 -4 26 -10z m78 -30 c3 -34 2 -36 -30
-35 -26 0 -33 4 -33 20 0 12 9 22 25 26 15 4 18 7 8 8 -9 1 -20 6 -23 12 -5 7
3 9 21 7 25 -3 29 -8 32 -38z m138 15 c7 -30 -2 -59 -16 -50 -5 3 -10 17 -10
31 0 13 -4 24 -10 24 -5 0 -10 -13 -10 -30 0 -16 -4 -30 -10 -30 -5 0 -10 14
-10 31 0 38 -24 35 -28 -4 -5 -38 -22 -23 -22 19 l0 34 55 0 c50 0 55 -2 61
-25z m84 0 c0 -17 -4 -23 -14 -19 -8 3 -17 1 -21 -5 -3 -7 2 -11 14 -11 12 0
21 -4 21 -10 0 -5 -11 -10 -25 -10 -32 0 -55 41 -35 65 7 8 23 15 36 15 19 0
24 -5 24 -25z m70 16 c0 -5 -7 -11 -15 -15 -8 -3 -15 -17 -15 -31 0 -14 -4
-25 -10 -25 -5 0 -10 18 -10 40 0 36 3 40 25 40 14 0 25 -4 25 -9z m35 -29 c0
-46 -19 -44 -23 2 -3 28 0 37 10 34 7 -3 13 -19 13 -36z m75 29 c0 -5 -9 -11
-20 -14 -23 -6 -17 -37 6 -37 8 0 14 -4 14 -10 0 -14 -33 -13 -48 2 -25 25 -6
68 30 68 10 0 18 -4 18 -9z m78 -31 c3 -34 2 -36 -30 -35 -41 0 -52 30 -16 44
17 7 19 10 6 10 -10 1 -18 6 -18 12 0 6 12 9 28 7 23 -3 27 -8 30 -38z m172 0
c0 -22 -4 -40 -10 -40 -5 0 -10 14 -10 30 0 39 -16 39 -24 -1 -8 -39 -26 -28
-26 17 0 32 2 34 35 34 34 0 35 -1 35 -40z m290 31 c0 -5 -7 -11 -15 -15 -8
-3 -15 -17 -15 -31 0 -14 -4 -25 -10 -25 -5 0 -10 18 -10 40 0 36 3 40 25 40
14 0 25 -4 25 -9z m127 -5 c-15 -12 -16 -14 -2 -20 33 -12 10 -46 -31 -46 -20
0 -17 20 4 20 16 1 16 2 -2 15 -25 19 -13 45 21 45 26 -1 27 -2 10 -14z m91
-23 c2 -25 -1 -33 -18 -38 -26 -8 -50 10 -50 40 0 29 9 37 40 33 20 -2 26 -9
28 -35z m128 12 c9 -37 -1 -52 -33 -51 -21 1 -29 7 -31 24 -3 17 2 22 20 23
17 1 18 3 6 6 -27 7 -22 23 7 23 18 0 26 -7 31 -25z m62 12 c-9 -7 -18 -24
-20 -37 -4 -32 -22 -32 -26 -2 -5 37 5 52 35 52 25 -1 26 -2 11 -13z m82 -26
c0 -35 -3 -40 -22 -39 -13 1 -28 6 -35 11 -16 11 -5 37 16 38 10 0 11 2 4 6
-22 8 -14 23 12 23 22 0 25 -4 25 -39z m138 5 c2 -16 -1 -33 -7 -39 -8 -8 -11
-2 -11 21 0 22 -5 32 -15 32 -10 0 -15 -10 -15 -30 0 -16 -4 -30 -10 -30 -5 0
-10 14 -10 30 0 30 -19 43 -21 15 -3 -31 -4 -35 -14 -37 -5 -2 -11 14 -13 35
l-3 38 58 -3 c56 -3 58 -4 61 -32z m82 15 c11 -21 -2 -37 -19 -26 -5 3 -12 1
-16 -5 -3 -5 3 -10 14 -10 12 0 21 -4 21 -10 0 -5 -11 -10 -25 -10 -28 0 -46
27 -38 58 7 28 48 30 63 3z m70 10 c0 -5 -7 -11 -15 -15 -8 -3 -15 -17 -15
-31 0 -14 -4 -25 -10 -25 -5 0 -10 18 -10 40 0 36 3 40 25 40 14 0 25 -4 25
-9z m38 -28 c-2 -21 -7 -38 -13 -38 -5 0 -11 17 -13 38 -3 29 0 37 13 37 13 0
16 -8 13 -37z m72 27 c0 -5 -7 -10 -15 -10 -8 0 -15 -9 -15 -20 0 -11 7 -20
15 -20 8 0 15 -4 15 -10 0 -15 -36 -12 -50 5 -20 24 -4 65 25 65 14 0 25 -4
25 -10z m78 -30 c3 -34 2 -36 -30 -35 -41 0 -52 30 -16 44 17 7 19 10 6 10
-10 1 -18 6 -18 12 0 6 12 9 28 7 23 -3 27 -8 30 -38z m82 0 c0 -22 -4 -40
-10 -40 -5 0 -10 18 -10 40 0 22 5 40 10 40 6 0 10 -18 10 -40z m92 12 c2 -16
2 -34 0 -40 -6 -20 -22 -3 -22 24 0 33 -18 31 -22 -3 -4 -41 -23 -34 -26 10
-3 36 -2 37 31 37 30 0 35 -3 39 -28z m288 19 c0 -5 -7 -11 -15 -15 -8 -3 -15
-17 -15 -31 0 -14 -4 -25 -10 -25 -5 0 -10 18 -10 40 0 36 3 40 25 40 14 0 25
-4 25 -9z m-3615 -31 c-3 -5 -13 -10 -21 -10 -8 0 -14 5 -14 10 0 6 9 10 21
10 11 0 17 -4 14 -10z m2021 -37 c-10 -10 -19 5 -10 18 6 11 8 11 12 0 2 -7 1
-15 -2 -18z m1430 0 c-10 -10 -19 5 -10 18 6 11 8 11 12 0 2 -7 1 -15 -2 -18z
m-1686 7 c0 -5 -4 -10 -10 -10 -5 0 -10 5 -10 10 0 6 5 10 10 10 6 0 10 -4 10
-10z m1430 0 c0 -5 -4 -10 -10 -10 -5 0 -10 5 -10 10 0 6 5 10 10 10 6 0 10
-4 10 -10z m-1285 -143 c0 -65 -19 -64 -23 2 -2 40 0 52 10 49 8 -3 13 -22 13
-51z m555 43 c0 -5 -4 -10 -10 -10 -5 0 -10 5 -10 10 0 6 5 10 10 10 6 0 10
-4 10 -10z m236 -45 c-1 -55 -21 -55 -22 0 -1 44 3 58 15 50 5 -2 8 -25 7 -50z
m179 0 c0 -45 -2 -48 -27 -51 -15 -1 -32 4 -39 12 -17 20 -3 64 21 64 12 0 20
7 20 16 0 9 6 14 13 12 7 -3 12 -23 12 -53z m85 40 c0 -8 9 -15 20 -15 13 0
22 -9 26 -25 8 -33 -12 -56 -45 -52 -22 3 -26 9 -29 41 -2 21 -1 44 2 52 7 19
26 18 26 -1z m-3125 -54 c1 -48 -2 -58 -12 -49 -14 11 -17 65 -7 92 12 31 19
15 19 -43z m83 34 c-3 -14 -1 -28 3 -31 17 -10 -12 -45 -34 -42 -17 2 -22 10
-24 38 -2 50 3 60 33 60 23 0 26 -3 22 -25z m80 -20 c0 -40 -3 -46 -25 -51
-13 -4 -30 -1 -36 5 -8 8 -4 11 16 11 15 0 27 5 27 10 0 6 -7 10 -15 10 -20 0
-19 16 1 24 8 3 13 10 9 15 -3 6 -12 8 -20 4 -8 -3 -15 0 -15 6 0 6 13 11 29
11 28 0 29 -2 29 -45z m46 29 c13 -33 4 -104 -13 -104 -4 0 -7 27 -6 60 0 59
7 75 19 44z m122 -9 c11 -43 -41 -98 -61 -65 -3 6 3 10 14 10 27 0 27 16 1 23
-11 3 -20 14 -20 24 0 26 8 33 36 33 17 0 25 -7 30 -25z m71 -22 c-2 -44 -4
-48 -27 -48 -22 0 -25 5 -27 35 -2 50 3 60 31 60 24 0 25 -3 23 -47z m63 32
c-20 -11 -21 -14 -7 -15 10 0 20 -7 24 -16 4 -12 9 -8 19 16 11 24 19 31 36
28 19 -2 24 -10 26 -42 5 -53 -21 -71 -53 -39 -16 16 -18 16 -27 0 -21 -38
-69 -6 -60 40 6 32 18 43 47 42 18 0 17 -1 -5 -14z m178 -25 c4 -34 -15 -60
-45 -60 -21 0 -15 17 10 25 l22 8 -23 4 c-47 9 -41 67 5 61 24 -3 28 -8 31
-38z m105 28 l-23 -11 28 -14 c25 -13 28 -13 47 11 28 35 45 33 45 -5 0 -20 4
-29 12 -27 7 3 13 15 13 29 0 19 6 25 29 27 26 3 28 1 24 -22 -5 -27 6 -55 18
-43 4 3 7 19 8 34 1 23 6 29 29 31 25 3 28 0 26 -20 -2 -13 0 -29 5 -36 17
-28 -36 -56 -61 -31 -8 8 -17 7 -32 -3 -17 -10 -25 -10 -42 0 -16 10 -24 10
-35 1 -8 -7 -14 -7 -14 -1 0 16 -48 20 -63 4 -15 -15 -57 -9 -57 9 0 5 -11 9
-25 9 -14 0 -25 5 -25 10 0 6 11 10 25 10 14 0 25 6 25 13 0 20 21 37 45 36
19 0 19 -1 -2 -11z m987 -38 c0 -27 -4 -50 -10 -50 -5 0 -10 16 -10 35 0 26
-4 35 -16 35 -14 0 -14 3 -4 15 25 30 40 17 40 -35z m130 36 c6 -8 10 -25 8
-38 -2 -18 -10 -24 -37 -26 -20 -2 -38 2 -43 10 -8 10 -9 10 -5 -2 2 -8 19
-18 38 -21 29 -5 31 -7 15 -14 -48 -21 -98 52 -61 89 20 20 68 21 85 2z m-750
-15 c0 -5 -7 -11 -15 -15 -8 -3 -15 -14 -15 -25 0 -11 -4 -23 -10 -26 -6 -4
-10 10 -10 34 0 37 2 41 25 41 14 0 25 -4 25 -9z m68 -3 c17 -17 15 -28 -7
-28 -11 0 -23 -4 -26 -10 -3 -6 4 -10 16 -10 17 0 20 -3 12 -11 -15 -15 -50
-3 -56 20 -10 40 32 68 61 39z m77 2 c-3 -5 -13 -10 -21 -10 -22 0 -16 -30 9
-39 19 -8 20 -10 5 -16 -29 -11 -48 2 -48 33 0 16 3 32 7 35 10 11 55 8 48 -3z
m83 -12 c2 -13 -3 -18 -17 -18 -28 0 -27 -18 2 -23 20 -3 21 -4 3 -12 -34 -15
-67 23 -52 61 8 21 60 14 64 -8z m88 -3 c7 -27 -10 -55 -32 -55 -8 0 -14 -7
-14 -16 0 -9 -6 -14 -12 -12 -8 3 -14 26 -16 56 l-3 52 35 0 c30 0 37 -4 42
-25z m74 16 c0 -5 -9 -11 -20 -14 -26 -7 -25 -26 2 -36 27 -10 7 -25 -22 -16
-20 6 -29 53 -13 68 10 10 53 8 53 -2z m75 -31 c0 -32 -2 -35 -30 -35 -38 0
-47 31 -13 44 17 7 19 10 6 10 -10 1 -18 6 -18 12 0 6 12 9 28 7 24 -3 27 -7
27 -38z m89 18 c14 -23 -3 -52 -32 -56 -29 -4 -51 40 -32 63 16 20 49 16 64
-7z m264 9 c-15 -12 -15 -14 0 -23 21 -13 9 -44 -17 -44 -11 0 -23 5 -26 10
-3 6 4 10 17 10 l22 0 -21 15 c-28 20 -19 45 16 45 23 -1 24 -2 9 -13z m92 -2
c17 -21 -2 -65 -28 -65 -22 0 -42 19 -42 40 0 37 47 53 70 25z m125 -25 c0
-32 -2 -35 -30 -35 -38 0 -47 31 -13 44 17 7 19 10 6 10 -10 1 -18 6 -18 12 0
6 12 9 28 7 24 -3 27 -7 27 -38z m75 31 c0 -5 -7 -11 -15 -15 -8 -3 -15 -17
-15 -31 0 -14 -4 -25 -10 -25 -5 0 -10 18 -10 40 0 36 3 40 25 40 14 0 25 -4
25 -9z m76 -16 c9 -37 -1 -52 -32 -51 -37 1 -45 32 -12 45 17 7 19 10 6 10
-28 1 -21 21 7 21 18 0 26 -7 31 -25z m134 -16 c0 -24 -4 -38 -10 -34 -5 3
-10 17 -10 31 0 32 -18 31 -22 -1 -2 -14 -7 -26 -13 -26 -5 0 -11 12 -13 26
-4 32 -22 33 -22 1 0 -14 -4 -28 -10 -31 -6 -4 -10 10 -10 34 l0 41 55 0 55 0
0 -41z m80 37 c0 -2 3 -11 6 -19 3 -9 -3 -17 -18 -22 -19 -6 -20 -8 -5 -12 20
-5 23 -23 3 -23 -31 0 -46 13 -46 39 0 15 3 31 7 34 7 8 53 10 53 3z m70 -6
c0 -5 -4 -10 -9 -10 -5 0 -11 -12 -13 -27 -4 -41 -23 -34 -26 10 -3 34 -1 37
22 37 14 0 26 -4 26 -10z m40 -30 c0 -22 -4 -40 -10 -40 -5 0 -10 18 -10 40 0
22 5 40 10 40 6 0 10 -18 10 -40z m70 30 c0 -5 -7 -10 -15 -10 -8 0 -15 -9
-15 -20 0 -14 7 -20 21 -20 11 0 17 -4 14 -10 -11 -17 -44 -11 -55 10 -8 14
-8 26 0 40 11 20 50 28 50 10z m85 -10 c11 -34 -3 -57 -33 -56 -35 1 -43 32
-10 45 17 7 19 10 6 10 -28 1 -21 21 6 21 16 0 27 -7 31 -20z m170 -17 c0 -39
-19 -45 -23 -8 -4 32 -22 33 -22 1 0 -14 -4 -28 -10 -31 -6 -4 -10 10 -10 35
0 41 1 41 33 38 29 -3 32 -6 32 -35z m285 27 c0 -5 -4 -10 -9 -10 -5 0 -11
-12 -13 -27 -4 -41 -23 -34 -26 10 -3 34 -1 37 22 37 14 0 26 -4 26 -10z
m-416 -61 c-3 -5 -10 -7 -15 -3 -5 3 -7 10 -3 15 3 5 10 7 15 3 5 -3 7 -10 3
-15z m260 0 c-3 -5 -10 -7 -15 -3 -5 3 -7 10 -3 15 3 5 10 7 15 3 5 -3 7 -10
3 -15z"/>
<path d="M5797 3231 c-46 -41 -61 -87 -60 -184 2 -126 45 -186 140 -194 107
-9 163 61 163 202 -1 140 -41 197 -144 203 -59 4 -65 2 -99 -27z"/>
<path d="M6445 3248 c-4 -9 -5 -40 -3 -69 l3 -54 66 0 c77 0 99 13 99 60 0 45
-26 64 -98 71 -50 6 -63 4 -67 -8z"/>
<path d="M6448 3014 c-5 -4 -8 -40 -8 -81 l0 -73 69 0 c79 0 107 16 117 66 4
24 0 37 -18 57 -19 22 -35 28 -88 33 -36 3 -68 3 -72 -2z"/>
<path d="M7027 3254 c-4 -4 -7 -43 -7 -87 l0 -80 58 6 c45 5 62 12 80 32 48
56 12 119 -73 130 -28 3 -54 3 -58 -1z"/>
<path d="M8551 3145 c-17 -57 -34 -111 -37 -120 -5 -13 6 -15 70 -15 42 0 76
3 76 7 0 11 -70 233 -74 233 -1 0 -17 -47 -35 -105z"/>
<path d="M9098 3254 c-5 -4 -8 -94 -8 -201 l0 -193 55 0 c73 0 124 22 155 67
22 33 25 46 25 134 0 107 -12 137 -71 171 -32 18 -145 34 -156 22z"/>
<path d="M9788 3245 c-43 -24 -68 -76 -75 -153 -7 -84 9 -159 43 -195 48 -52
143 -60 198 -16 47 37 60 75 61 174 0 104 -19 155 -69 186 -37 23 -119 25
-158 4z"/>
<path d="M4957 1404 c-10 -10 -9 -52 1 -58 15 -9 34 11 30 34 -3 24 -19 36
-31 24z"/>
<path d="M5140 1380 c0 -5 5 -10 10 -10 6 0 10 5 10 10 0 6 -4 10 -10 10 -5 0
-10 -4 -10 -10z"/>
<path d="M5235 1401 c-3 -5 -1 -12 5 -16 5 -3 10 1 10 9 0 18 -6 21 -15 7z"/>
<path d="M5666 1401 c-4 -5 -2 -12 3 -15 5 -4 12 -2 15 3 4 5 2 12 -3 15 -5 4
-12 2 -15 -3z"/>
<path d="M6267 1404 c-4 -4 -7 -18 -7 -31 0 -26 27 -32 37 -7 6 17 -19 49 -30
38z"/>
<path d="M6630 1394 c0 -8 5 -12 10 -9 6 4 8 11 5 16 -9 14 -15 11 -15 -7z"/>
<path d="M6770 1380 c0 -5 5 -10 11 -10 5 0 7 5 4 10 -3 6 -8 10 -11 10 -2 0
-4 -4 -4 -10z"/>
<path d="M7107 1404 c-4 -4 -7 -18 -7 -31 0 -17 6 -23 21 -23 16 0 20 5 17 27
-3 26 -18 39 -31 27z"/>
<path d="M7420 1396 c0 -9 5 -16 10 -16 6 0 10 4 10 9 0 6 -4 13 -10 16 -5 3
-10 -1 -10 -9z"/>
<path d="M7651 1396 c-16 -19 -7 -46 14 -46 22 0 30 29 13 46 -13 13 -16 13
-27 0z"/>
<path d="M7790 1380 c0 -19 5 -30 14 -30 22 0 28 17 16 40 -16 29 -30 25 -30
-10z"/>
<path d="M8145 1380 c-3 -5 -1 -10 4 -10 6 0 11 5 11 10 0 6 -2 10 -4 10 -3 0
-8 -4 -11 -10z"/>
<path d="M8241 1396 c-16 -19 -7 -46 14 -46 22 0 30 29 13 46 -13 13 -16 13
-27 0z"/>
<path d="M8615 1380 c-3 -5 -1 -10 4 -10 6 0 11 5 11 10 0 6 -2 10 -4 10 -3 0
-8 -4 -11 -10z"/>
<path d="M9012 1393 c-13 -25 -4 -43 19 -43 16 0 20 6 17 27 -4 32 -23 41 -36
16z"/>
<path d="M9270 1396 c0 -9 5 -16 10 -16 6 0 10 4 10 9 0 6 -4 13 -10 16 -5 3
-10 -1 -10 -9z"/>
<path d="M9360 1380 c0 -5 5 -10 11 -10 5 0 7 5 4 10 -3 6 -8 10 -11 10 -2 0
-4 -4 -4 -10z"/>
<path d="M9861 1396 c-16 -19 -7 -46 14 -46 22 0 30 29 13 46 -13 13 -16 13
-27 0z"/>
<path d="M10390 1396 c0 -9 5 -16 10 -16 6 0 10 4 10 9 0 6 -4 13 -10 16 -5 3
-10 -1 -10 -9z"/>
<path d="M10622 1392 c-13 -23 -4 -42 19 -42 13 0 19 7 19 24 0 29 -26 42 -38
18z"/>
<path d="M11000 1380 c0 -19 5 -30 14 -30 19 0 26 21 14 43 -14 27 -28 20 -28
-13z"/>
<path d="M6830 1200 c0 -5 5 -10 10 -10 6 0 10 5 10 10 0 6 -4 10 -10 10 -5 0
-10 -4 -10 -10z"/>
<path d="M7035 1180 c-3 -5 -1 -10 4 -10 6 0 11 5 11 10 0 6 -2 10 -4 10 -3 0
-8 -4 -11 -10z"/>
<path d="M7110 1200 c0 -5 5 -10 10 -10 6 0 10 5 10 10 0 6 -4 10 -10 10 -5 0
-10 -4 -10 -10z"/>
<path d="M7590 1160 c0 -5 5 -10 10 -10 6 0 10 5 10 10 0 6 -4 10 -10 10 -5 0
-10 -4 -10 -10z"/>
<path d="M7800 1186 c0 -14 4 -27 9 -30 12 -8 22 20 15 39 -9 23 -24 18 -24
-9z"/>
<path d="M7880 1180 c0 -16 5 -30 10 -30 6 0 10 14 10 30 0 17 -4 30 -10 30
-5 0 -10 -13 -10 -30z"/>
<path d="M7960 1180 c0 -16 5 -30 10 -30 6 0 10 14 10 30 0 17 -4 30 -10 30
-5 0 -10 -13 -10 -30z"/>
<path d="M8680 1165 c0 -8 5 -15 10 -15 6 0 10 7 10 15 0 8 -4 15 -10 15 -5 0
-10 -7 -10 -15z"/>
<path d="M9236 1171 c-4 -5 -2 -12 3 -15 5 -4 12 -2 15 3 4 5 2 12 -3 15 -5 4
-12 2 -15 -3z"/>
<path d="M9350 1200 c0 -5 7 -10 15 -10 8 0 15 5 15 10 0 6 -7 10 -15 10 -8 0
-15 -4 -15 -10z"/>
<path d="M8014 986 c-8 -22 3 -33 18 -18 9 9 9 15 0 24 -9 9 -13 7 -18 -6z"/>
<path d="M5110 1010 c0 -5 5 -10 10 -10 6 0 10 5 10 10 0 6 -4 10 -10 10 -5 0
-10 -4 -10 -10z"/>
<path d="M5850 1010 c0 -5 7 -10 16 -10 8 0 12 5 9 10 -3 6 -10 10 -16 10 -5
0 -9 -4 -9 -10z"/>
<path d="M6480 1010 c0 -5 7 -10 16 -10 8 0 12 5 9 10 -3 6 -10 10 -16 10 -5
0 -9 -4 -9 -10z"/>
<path d="M7000 990 c0 -16 5 -30 10 -30 6 0 10 14 10 30 0 17 -4 30 -10 30 -5
0 -10 -13 -10 -30z"/>
<path d="M7154 1006 c-8 -21 3 -49 16 -41 5 3 10 15 10 25 0 25 -18 36 -26 16z"/>
<path d="M7320 990 c0 -21 4 -30 13 -27 6 2 12 14 12 27 0 13 -6 25 -12 28 -9
2 -13 -7 -13 -28z"/>
<path d="M9040 1010 c0 -5 5 -10 11 -10 5 0 7 5 4 10 -3 6 -8 10 -11 10 -2 0
-4 -4 -4 -10z"/>
<path d="M9650 1010 c0 -5 7 -10 16 -10 8 0 12 5 9 10 -3 6 -10 10 -16 10 -5
0 -9 -4 -9 -10z"/>
<path d="M9740 1010 c0 -5 5 -10 10 -10 6 0 10 5 10 10 0 6 -4 10 -10 10 -5 0
-10 -4 -10 -10z"/>
<path d="M9740 970 c0 -5 4 -10 9 -10 6 0 13 5 16 10 3 6 -1 10 -9 10 -9 0
-16 -4 -16 -10z"/>
<path d="M10120 1010 c0 -5 5 -10 10 -10 6 0 10 5 10 10 0 6 -4 10 -10 10 -5
0 -10 -4 -10 -10z"/>
<path d="M10310 970 c0 -5 5 -10 10 -10 6 0 10 5 10 10 0 6 -4 10 -10 10 -5 0
-10 -4 -10 -10z"/>
<path d="M10430 996 c0 -14 5 -28 10 -31 6 -4 10 7 10 24 0 17 -4 31 -10 31
-5 0 -10 -11 -10 -24z"/>
<path d="M10510 970 c0 -5 5 -10 10 -10 6 0 10 5 10 10 0 6 -4 10 -10 10 -5 0
-10 -4 -10 -10z"/>
<path d="M10714 1006 c-8 -21 3 -49 16 -41 5 3 10 15 10 25 0 25 -18 36 -26
16z"/>
<path d="M6150 980 c0 -13 5 -20 13 -17 6 2 12 10 12 17 0 7 -6 15 -12 18 -8
2 -13 -5 -13 -18z"/>
<path d="M6360 980 c0 -11 5 -20 10 -20 6 0 10 9 10 20 0 11 -4 20 -10 20 -5
0 -10 -9 -10 -20z"/>
<path d="M7754 986 c-8 -22 3 -33 18 -18 9 9 9 15 0 24 -9 9 -13 7 -18 -6z"/>
<path d="M8740 980 c0 -11 5 -20 10 -20 6 0 10 9 10 20 0 11 -4 20 -10 20 -5
0 -10 -9 -10 -20z"/>
<path d="M8910 980 c0 -11 5 -20 10 -20 6 0 10 9 10 20 0 11 -4 20 -10 20 -5
0 -10 -9 -10 -20z"/>
<path d="M9340 980 c0 -11 5 -20 10 -20 6 0 10 9 10 20 0 11 -4 20 -10 20 -5
0 -10 -9 -10 -20z"/>
<path d="M6876 781 c-4 -5 -2 -12 3 -15 5 -4 12 -2 15 3 4 5 2 12 -3 15 -5 4
-12 2 -15 -3z"/>
<path d="M7116 822 c-3 -6 -1 -14 5 -17 15 -10 25 3 12 16 -7 7 -13 7 -17 1z"/>
<path d="M7196 781 c-4 -5 -2 -12 3 -15 5 -4 12 -2 15 3 4 5 2 12 -3 15 -5 4
-12 2 -15 -3z"/>
<path d="M7796 821 c-4 -5 -2 -12 3 -15 5 -4 12 -2 15 3 4 5 2 12 -3 15 -5 4
-12 2 -15 -3z"/>
<path d="M8372 788 c6 -18 28 -21 28 -4 0 9 -7 16 -16 16 -9 0 -14 -5 -12 -12z"/>
<path d="M8616 821 c-3 -4 6 -6 19 -3 14 2 25 6 25 8 0 8 -39 4 -44 -5z"/>
<path d="M8636 801 c-4 -7 -5 -15 -2 -18 9 -9 19 4 14 18 -4 11 -6 11 -12 0z"/>
<path d="M8671 794 c0 -11 3 -14 6 -6 3 7 2 16 -1 19 -3 4 -6 -2 -5 -13z"/>
<path d="M8616 759 c3 -5 14 -9 25 -9 10 0 19 4 19 9 0 5 -11 9 -25 9 -13 0
-22 -4 -19 -9z"/>
<path d="M9810 785 c0 -8 7 -15 15 -15 8 0 15 7 15 15 0 8 -7 15 -15 15 -8 0
-15 -7 -15 -15z"/>
<path d="M9947 794 c-8 -8 1 -24 14 -24 5 0 9 7 9 15 0 15 -12 20 -23 9z"/>
<path d="M6138 733 c7 -3 16 -2 19 1 4 3 -2 6 -13 5 -11 0 -14 -3 -6 -6z"/>
<path d="M8800 785 c0 -8 7 -15 15 -15 8 0 15 7 15 15 0 8 -7 15 -15 15 -8 0
-15 -7 -15 -15z"/>
<path d="M9560 769 c0 -5 5 -7 10 -4 6 3 10 8 10 11 0 2 -4 4 -10 4 -5 0 -10
-5 -10 -11z"/>
<path d="M5900 580 c0 -5 4 -10 9 -10 6 0 13 5 16 10 3 6 -1 10 -9 10 -9 0
-16 -4 -16 -10z"/>
<path d="M6140 620 c0 -5 7 -10 15 -10 8 0 15 5 15 10 0 6 -7 10 -15 10 -8 0
-15 -4 -15 -10z"/>
<path d="M6380 606 c0 -14 4 -27 9 -31 12 -7 25 31 16 45 -11 18 -25 10 -25
-14z"/>
<path d="M6462 591 c4 -13 18 -16 19 -4 0 4 -5 9 -11 12 -7 2 -11 -2 -8 -8z"/>
<path d="M6745 580 c3 -5 10 -10 16 -10 5 0 9 5 9 10 0 6 -7 10 -16 10 -8 0
-12 -4 -9 -10z"/>
<path d="M6825 580 c3 -5 8 -10 11 -10 2 0 4 5 4 10 0 6 -5 10 -11 10 -5 0 -7
-4 -4 -10z"/>
<path d="M6940 590 c0 -13 5 -20 13 -17 6 2 12 10 12 17 0 7 -6 15 -12 18 -8
2 -13 -5 -13 -18z"/>
<path d="M8492 593 c5 -25 28 -28 28 -4 0 12 -6 21 -16 21 -9 0 -14 -7 -12
-17z"/>
<path d="M8625 600 c-8 -13 4 -32 16 -25 12 8 12 35 0 35 -6 0 -13 -4 -16 -10z"/>
<path d="M9925 600 c-8 -13 4 -32 16 -25 12 8 12 35 0 35 -6 0 -13 -4 -16 -10z"/>
<path d="M10055 600 c-8 -13 4 -32 16 -25 12 8 12 35 0 35 -6 0 -13 -4 -16
-10z"/>
<path d="M6220 620 c0 -5 7 -10 16 -10 8 0 12 5 9 10 -3 6 -10 10 -16 10 -5 0
-9 -4 -9 -10z"/>
<path d="M7292 628 c-7 -7 -12 -21 -11 -32 1 -18 2 -17 8 4 4 14 17 27 31 31
21 6 22 7 5 8 -12 1 -26 -4 -33 -11z"/>
<path d="M7351 604 c0 -11 3 -14 6 -6 3 7 2 16 -1 19 -3 4 -6 -2 -5 -13z"/>
<path d="M7310 600 c0 -5 5 -10 10 -10 6 0 10 5 10 10 0 6 -4 10 -10 10 -5 0
-10 -4 -10 -10z"/>
<path d="M7030 580 c0 -5 5 -10 11 -10 5 0 7 5 4 10 -3 6 -8 10 -11 10 -2 0
-4 -4 -4 -10z"/>
<path d="M7482 594 c4 -21 22 -23 26 -1 2 10 -3 17 -13 17 -10 0 -15 -6 -13
-16z"/>
<path d="M7615 580 c-3 -5 -1 -10 4 -10 6 0 11 5 11 10 0 6 -2 10 -4 10 -3 0
-8 -4 -11 -10z"/>
<path d="M7760 580 c0 -5 5 -10 11 -10 5 0 7 5 4 10 -3 6 -8 10 -11 10 -2 0
-4 -4 -4 -10z"/>
<path d="M8240 580 c0 -5 5 -10 11 -10 5 0 7 5 4 10 -3 6 -8 10 -11 10 -2 0
-4 -4 -4 -10z"/>
<path d="M8912 594 c4 -21 22 -23 26 -1 2 10 -3 17 -13 17 -10 0 -15 -6 -13
-16z"/>
<path d="M9045 580 c-3 -5 -1 -10 4 -10 6 0 11 5 11 10 0 6 -2 10 -4 10 -3 0
-8 -4 -11 -10z"/>
<path d="M9390 400 c0 -11 5 -20 10 -20 6 0 10 9 10 20 0 11 -4 20 -10 20 -5
0 -10 -9 -10 -20z"/>
<path d="M9520 400 c0 -11 5 -20 10 -20 6 0 10 9 10 20 0 11 -4 20 -10 20 -5
0 -10 -9 -10 -20z"/>
<path d="M6440 440 c0 -5 5 -10 10 -10 6 0 10 5 10 10 0 6 -4 10 -10 10 -5 0
-10 -4 -10 -10z"/>
<path d="M6440 390 c0 -5 5 -10 10 -10 6 0 10 5 10 10 0 6 -4 10 -10 10 -5 0
-10 -4 -10 -10z"/>
<path d="M6680 430 c0 -5 5 -10 10 -10 6 0 10 5 10 10 0 6 -4 10 -10 10 -5 0
-10 -4 -10 -10z"/>
<path d="M6765 440 c-3 -5 -1 -10 4 -10 6 0 11 5 11 10 0 6 -2 10 -4 10 -3 0
-8 -4 -11 -10z"/>
<path d="M6760 390 c0 -5 5 -10 10 -10 6 0 10 5 10 10 0 6 -4 10 -10 10 -5 0
-10 -4 -10 -10z"/>
<path d="M6920 410 c0 -16 5 -30 10 -30 6 0 10 14 10 30 0 17 -4 30 -10 30 -5
0 -10 -13 -10 -30z"/>
<path d="M6840 395 c0 -8 5 -15 10 -15 6 0 10 7 10 15 0 8 -4 15 -10 15 -5 0
-10 -7 -10 -15z"/>
<path d="M7000 430 c0 -5 5 -10 10 -10 6 0 10 5 10 10 0 6 -4 10 -10 10 -5 0
-10 -4 -10 -10z"/>
<path d="M7285 440 c-3 -5 -1 -10 4 -10 6 0 11 5 11 10 0 6 -2 10 -4 10 -3 0
-8 -4 -11 -10z"/>
<path d="M7360 440 c0 -5 5 -10 10 -10 6 0 10 5 10 10 0 6 -4 10 -10 10 -5 0
-10 -4 -10 -10z"/>
<path d="M7200 409 c0 -5 5 -7 10 -4 6 3 10 8 10 11 0 2 -4 4 -10 4 -5 0 -10
-5 -10 -11z"/>
<path d="M7126 401 c-4 -5 -2 -12 3 -15 5 -4 12 -2 15 3 4 5 2 12 -3 15 -5 4
-12 2 -15 -3z"/>
<path d="M7280 390 c0 -5 5 -10 10 -10 6 0 10 5 10 10 0 6 -4 10 -10 10 -5 0
-10 -4 -10 -10z"/>
<path d="M7360 390 c0 -5 5 -10 10 -10 6 0 10 5 10 10 0 6 -4 10 -10 10 -5 0
-10 -4 -10 -10z"/>
<path d="M8196 441 c-3 -4 6 -6 19 -3 14 2 25 6 25 8 0 8 -39 4 -44 -5z"/>
<path d="M8241 414 c0 -11 3 -14 6 -6 3 7 2 16 -1 19 -3 4 -6 -2 -5 -13z"/>
<path d="M8205 410 c-3 -5 -2 -10 4 -10 5 0 13 5 16 10 3 6 2 10 -4 10 -5 0
-13 -4 -16 -10z"/>
<path d="M7780 406 c0 -8 5 -18 10 -21 6 -3 10 3 10 14 0 12 -4 21 -10 21 -5
0 -10 -6 -10 -14z"/>
<path d="M8020 400 c0 -11 5 -20 10 -20 6 0 10 9 10 20 0 11 -4 20 -10 20 -5
0 -10 -9 -10 -20z"/>
<path d="M8380 400 c0 -11 5 -20 10 -20 6 0 10 9 10 20 0 11 -4 20 -10 20 -5
0 -10 -9 -10 -20z"/>
<path d="M8655 390 c-3 -5 -1 -10 4 -10 6 0 11 5 11 10 0 6 -2 10 -4 10 -3 0
-8 -4 -11 -10z"/>
<path d="M9135 390 c-3 -5 -1 -10 4 -10 6 0 11 5 11 10 0 6 -2 10 -4 10 -3 0
-8 -4 -11 -10z"/>
<path d="M7382 6713 l-22 -4 2 -242 3 -242 33 -3 32 -3 -2 247 c-2 155 -7 248
-13 249 -5 1 -20 0 -33 -2z"/>
<path d="M9710 6680 c-22 -44 -20 -61 8 -54 17 5 62 65 62 84 0 5 -11 10 -25
10 -19 0 -29 -10 -45 -40z"/>
<path d="M10260 6705 c-20 -24 3 -65 35 -65 32 0 55 41 35 65 -7 8 -23 15 -35
15 -12 0 -28 -7 -35 -15z"/>
<path d="M6539 6701 c-67 -21 -101 -64 -101 -128 0 -78 53 -111 205 -129 124
-14 157 -30 157 -74 0 -38 -29 -67 -75 -76 -42 -8 -221 0 -247 11 -13 5 -20 1
-27 -16 -13 -36 2 -46 95 -59 138 -20 250 3 299 61 33 40 40 87 21 133 -21 50
-75 73 -216 90 -60 8 -117 19 -125 26 -25 21 -19 67 12 87 23 15 50 18 153 18
l125 0 3 26 c3 22 -2 27 -29 33 -43 8 -218 6 -250 -3z"/>
<path d="M8555 6701 c-11 -18 -165 -455 -165 -468 0 -14 27 -17 54 -7 8 3 22
28 31 55 l17 50 111 -3 111 -3 15 -48 c15 -48 41 -67 76 -54 17 7 21 -6 -72
252 -36 99 -70 192 -75 208 -9 24 -15 27 -53 27 -24 0 -46 -4 -50 -9z m94
-184 c22 -63 37 -118 33 -121 -10 -10 -151 -6 -157 4 -3 6 8 54 26 108 34 104
48 136 55 129 2 -2 22 -56 43 -120z"/>
<path d="M7054 6581 c-117 -28 -175 -122 -144 -230 34 -119 215 -168 333 -90
52 34 77 80 77 140 0 127 -126 213 -266 180z m129 -75 c71 -29 89 -128 34
-184 -31 -30 -114 -41 -172 -22 -91 30 -100 167 -12 205 41 18 109 19 150 1z"/>
<path d="M7600 6574 c-55 -17 -72 -30 -99 -74 -29 -48 -29 -138 0 -190 41 -73
153 -107 253 -76 45 14 51 14 61 -1 6 -8 20 -14 31 -11 18 3 19 14 22 181 l2
177 -23 0 c-13 0 -28 -5 -34 -11 -7 -7 -28 -6 -71 5 -71 19 -83 19 -142 0z
m155 -65 c22 -6 43 -16 48 -23 8 -13 7 -150 -2 -164 -11 -16 -73 -32 -123 -32
-54 0 -102 20 -118 49 -13 26 -13 107 1 132 23 43 112 61 194 38z"/>
<path d="M8066 6574 c-45 -12 -60 -13 -66 -4 -4 6 -18 10 -31 8 l-24 -3 0
-175 0 -175 30 0 30 0 5 134 5 134 35 13 c19 7 63 13 96 13 58 1 62 3 68 27 4
15 5 28 3 30 -12 13 -100 11 -151 -2z"/>
<path d="M8971 6574 c-38 -11 -57 -12 -64 -5 -6 6 -21 11 -34 11 l-23 0 0
-174 c0 -185 2 -192 49 -179 20 5 21 12 21 134 0 149 -1 148 104 156 51 5 65
2 86 -15 24 -19 25 -27 30 -149 l5 -128 30 0 30 0 0 138 0 137 35 10 c57 16
115 12 141 -9 22 -18 24 -28 29 -148 l5 -128 30 0 30 0 3 125 c3 144 -9 180
-68 214 -44 26 -125 27 -197 2 -47 -16 -54 -16 -76 -2 -34 23 -105 27 -166 10z"/>
<path d="M9644 6574 c-88 -32 -141 -129 -115 -213 33 -112 144 -162 291 -130
46 10 51 13 46 33 -3 11 -6 24 -6 28 0 4 -40 5 -88 2 -71 -5 -94 -4 -120 10
-32 17 -56 48 -45 60 3 3 71 6 150 6 l143 0 0 43 c0 64 -36 128 -85 151 -53
25 -120 29 -171 10z m150 -76 c14 -13 26 -32 28 -43 3 -19 -3 -20 -109 -23
-77 -2 -113 1 -113 8 0 67 138 108 194 58z"/>
<path d="M10066 6573 c-45 -12 -60 -12 -66 -3 -4 6 -18 10 -31 8 l-24 -3 0
-175 0 -175 30 0 30 0 5 134 5 134 35 13 c19 7 63 13 98 13 62 1 62 1 62 30 0
44 -41 51 -144 24z"/>
<path d="M10515 6579 c-115 -27 -174 -140 -130 -246 31 -73 124 -120 219 -110
94 10 124 33 97 76 -7 11 -15 11 -41 2 -45 -15 -114 -14 -155 3 -68 29 -84
126 -30 181 37 36 110 44 191 20 15 -5 23 0 33 21 15 33 8 39 -62 54 -55 12
-67 11 -122 -1z"/>
<path d="M10868 6581 c-89 -18 -143 -86 -143 -181 1 -132 117 -205 267 -167
56 14 63 14 73 0 6 -8 20 -13 31 -11 18 3 19 13 19 178 l0 175 -24 3 c-13 2
-27 -2 -31 -8 -6 -9 -23 -9 -72 4 -35 9 -68 15 -74 15 -5 -1 -26 -5 -46 -8z
m160 -80 c20 -11 22 -19 22 -100 l0 -88 -45 -13 c-69 -19 -151 -9 -183 23 -22
22 -26 36 -26 81 0 57 17 89 59 107 27 12 145 5 173 -10z"/>
<path d="M10264 6567 c-2 -7 -3 -87 -2 -177 l3 -165 30 0 30 0 3 178 2 177
-30 0 c-17 0 -33 -6 -36 -13z"/>
<path d="M8390 6040 c0 -5 9 -10 20 -10 18 0 20 -7 20 -60 0 -77 18 -79 22 -2
3 50 6 57 26 60 44 7 21 22 -33 22 -30 0 -55 -4 -55 -10z"/>
<path d="M8569 6048 c0 -2 -1 -32 -2 -67 -1 -44 2 -66 11 -68 7 -3 12 5 12 21
0 33 15 33 36 1 9 -14 23 -25 31 -25 13 0 13 4 -1 25 -15 23 -15 27 -1 41 18
18 20 45 3 62 -10 10 -86 18 -89 10z m74 -32 c7 -17 -11 -36 -35 -36 -13 0
-18 8 -18 25 0 20 5 25 24 25 13 0 26 -6 29 -14z"/>
<path d="M8757 5983 c-28 -71 -28 -86 1 -60 24 22 68 22 81 0 22 -40 22 0 0
61 -31 86 -48 86 -82 -1z m63 -15 c0 -4 -9 -8 -20 -8 -20 0 -28 29 -13 44 7 7
33 -21 33 -36z"/>
<path d="M8930 5980 c0 -56 3 -70 15 -70 11 0 15 11 15 40 0 22 3 40 8 40 4
-1 19 -19 34 -40 15 -22 32 -40 38 -40 6 0 10 30 10 70 0 40 -4 70 -10 70 -5
0 -10 -18 -10 -40 0 -22 -4 -40 -9 -40 -4 0 -20 18 -35 40 -41 62 -56 54 -56
-30z"/>
<path d="M9137 6043 c-4 -3 -7 -17 -7 -30 0 -16 10 -28 36 -40 45 -22 45 -38
0 -38 -45 0 -54 -10 -19 -22 44 -15 77 -2 81 30 3 25 -2 30 -38 44 -47 19 -48
37 -2 41 18 2 32 7 32 13 0 10 -73 13 -83 2z"/>
<path d="M9300 5980 c0 -68 15 -98 22 -42 2 21 9 28 31 30 15 2 27 7 27 12 0
5 -12 10 -27 12 -40 4 -36 32 5 36 48 5 39 22 -13 22 l-45 0 0 -70z"/>
<path d="M9470 6030 c-45 -45 -11 -120 55 -120 44 0 75 29 75 70 0 41 -31 70
-75 70 -22 0 -43 -8 -55 -20z m96 -25 c15 -23 15 -27 0 -50 -10 -15 -26 -25
-41 -25 -15 0 -31 10 -41 25 -15 23 -15 27 0 50 10 15 26 25 41 25 15 0 31
-10 41 -25z"/>
<path d="M9670 5980 c0 -40 4 -70 10 -70 6 0 10 11 10 25 0 14 6 25 13 25 8 0
20 -11 27 -25 7 -14 19 -25 27 -25 16 0 17 12 1 28 -9 9 -9 17 1 36 8 14 11
36 7 50 -6 23 -11 26 -51 26 l-45 0 0 -70z m75 25 c0 -22 -31 -33 -47 -17 -17
17 -1 44 24 40 15 -2 23 -10 23 -23z"/>
<path d="M9842 5983 c4 -80 25 -100 30 -26 l3 48 18 -32 c21 -39 34 -41 49 -8
17 37 28 30 28 -16 0 -60 25 -45 27 17 3 91 -19 111 -53 49 -10 -19 -21 -35
-25 -35 -3 0 -14 16 -25 35 -11 20 -26 35 -37 35 -16 0 -18 -8 -15 -67z"/>
<path d="M10088 5983 c-15 -40 -21 -70 -15 -72 5 -2 14 4 19 13 5 9 22 16 38
16 16 0 33 -7 38 -16 5 -9 14 -15 19 -13 6 2 0 32 -15 72 -17 47 -30 67 -42
67 -12 0 -25 -20 -42 -67z m56 11 c10 -26 7 -34 -14 -34 -11 0 -20 4 -20 9 0
17 12 41 20 41 4 0 11 -7 14 -16z"/>
<path d="M10264 6036 c-3 -7 -4 -38 -2 -67 l3 -54 38 -3 c55 -5 87 19 87 63 0
48 -29 75 -80 75 -25 0 -43 -5 -46 -14z m88 -23 c35 -31 12 -83 -38 -83 -22 0
-24 4 -24 50 0 45 2 50 22 50 12 0 30 -7 40 -17z"/>
<path d="M10475 6030 c-25 -27 -23 -76 3 -102 45 -46 125 -13 125 51 0 44 -28
71 -73 71 -24 0 -43 -7 -55 -20z m93 -12 c7 -7 12 -24 12 -38 0 -33 -17 -50
-50 -50 -32 0 -50 17 -50 46 0 44 58 72 88 42z"/>
<path d="M10678 6028 c-5 -39 3 -118 13 -118 5 0 9 11 9 25 0 14 4 25 10 25 5
0 17 -11 26 -25 9 -14 23 -25 30 -25 12 0 12 4 -1 24 -14 21 -14 25 0 36 18
15 20 51 3 68 -7 7 -29 12 -49 12 -31 0 -38 -4 -41 -22z m71 -7 c12 -8 12 -12
2 -25 -21 -26 -51 -20 -51 9 0 26 22 33 49 16z"/>
<path d="M10850 5980 l0 -70 45 0 c52 0 61 17 13 22 -22 2 -34 9 -36 21 -3 14
4 17 32 17 45 0 48 18 4 22 -21 2 -33 8 -33 18 0 10 12 16 33 18 48 5 39 22
-13 22 l-45 0 0 -70z"/>
<path d="M11020 6035 c-19 -22 -2 -53 35 -65 20 -7 35 -18 35 -27 0 -12 -8
-15 -41 -10 -44 6 -51 -12 -8 -23 30 -9 67 4 75 25 8 20 -20 51 -52 59 -39 10
-30 36 12 36 21 0 33 4 29 10 -9 15 -71 12 -85 -5z"/>
</g>
</svg>
