<?xml version="1.0" standalone="no"?>
<!DOCTYPE svg PUBLIC "-//W3C//DTD SVG 20010904//EN"
 "http://www.w3.org/TR/2001/REC-SVG-20010904/DTD/svg10.dtd">
<svg version="1.0" xmlns="http://www.w3.org/2000/svg"
 width="1600.000000pt" height="717.000000pt" viewBox="0 0 1600.000000 717.000000"
 preserveAspectRatio="xMidYMid meet">

<g transform="translate(0.000000,717.000000) scale(0.100000,-0.100000)"
fill="#000000" stroke="none">
<path d="M0 3585 l0 -3585 8000 0 8000 0 0 3585 0 3585 -810 0 -810 0 0 -980
0 -980 -6380 0 -6380 0 0 980 0 980 -810 0 -810 0 0 -3585z m5148 623 c-5 -14
-65 -58 -79 -58 -16 0 -9 23 13 47 23 24 73 32 66 11z m1662 2 c0 -12 -70 -60
-87 -60 -19 0 -16 12 12 43 25 26 75 38 75 17z m2340 1 c0 -12 -63 -61 -78
-61 -19 0 -14 22 10 47 21 23 68 32 68 14z m1930 -2 c0 -23 -72 -65 -92 -53
-15 10 43 64 69 64 13 0 23 -5 23 -11z m-7259 -119 c1 -66 2 -128 3 -137 1
-13 -8 -19 -26 -21 l-28 -3 0 140 0 141 25 0 25 0 1 -120z m1624 95 c0 -14 -8
-21 -27 -23 -24 -3 -28 0 -28 23 0 23 4 26 28 23 19 -2 27 -9 27 -23z m1145
-115 l0 -140 -25 0 c-14 0 -25 5 -25 10 0 6 -14 3 -31 -6 -38 -19 -80 -6 -98
32 -16 36 -14 111 5 139 18 28 65 41 93 25 20 -10 21 -8 21 35 0 43 1 45 30
45 l30 0 0 -140z m875 115 c0 -14 -8 -21 -27 -23 -24 -3 -28 0 -28 23 0 23 4
26 28 23 19 -2 27 -9 27 -23z m2175 0 c0 -20 -5 -25 -24 -25 -14 0 -28 5 -31
10 -12 19 4 40 30 40 20 0 25 -5 25 -25z m568 -112 l-3 -138 -40 -1 c-22 0
-52 -4 -66 -8 -20 -6 -33 -2 -55 17 -26 23 -29 31 -29 87 0 56 3 64 29 87 28
24 47 26 89 8 15 -6 17 -1 17 39 0 45 1 46 30 46 l31 0 -3 -137z m1487 112 c0
-14 -8 -21 -27 -23 -24 -3 -28 0 -28 23 0 23 4 26 28 23 19 -2 27 -9 27 -23z
m-8214 -2 c5 -5 7 -17 3 -26 -4 -13 -17 -16 -53 -14 -39 2 -46 -1 -46 -17 0
-11 14 -26 33 -36 69 -38 89 -79 62 -130 -13 -25 -75 -41 -120 -32 -29 6 -36
13 -38 36 -3 23 0 27 15 22 53 -16 69 -16 88 -1 20 15 20 15 -1 33 -12 9 -36
25 -53 34 -60 33 -66 107 -11 136 27 14 105 11 121 -5z m1034 0 c12 -31 85
-245 85 -249 0 -2 -13 -4 -29 -4 -22 0 -31 6 -41 30 -11 27 -17 30 -60 30 -45
0 -48 -2 -53 -30 -6 -26 -11 -30 -38 -30 -27 0 -31 3 -26 23 4 17 39 120 82
235 7 19 72 15 80 -5z m1585 -119 l0 -135 -27 3 -28 3 -3 119 c-1 66 0 126 2
133 3 7 17 13 31 13 l25 0 0 -136z m2251 119 c5 -5 7 -17 3 -27 -5 -14 -14
-16 -49 -10 -59 8 -85 -17 -85 -84 0 -70 17 -87 80 -85 48 2 51 1 48 -20 -5
-34 -74 -46 -125 -21 -47 23 -63 54 -63 122 0 98 46 145 133 139 27 -2 53 -9
58 -14z m2340 -76 c15 -49 29 -91 32 -93 3 -3 19 38 37 90 l32 96 39 0 39 0 0
-136 0 -135 -27 3 c-28 3 -28 4 -29 78 -1 41 -2 80 -3 85 -1 6 -14 -28 -29
-75 -26 -80 -29 -85 -58 -88 -30 -3 -31 -3 -61 95 l-30 98 5 -97 5 -98 -32 0
-31 0 0 128 c0 71 3 132 7 136 4 4 23 6 42 4 35 -3 35 -4 62 -91z m-3551 48
c5 -14 13 -25 17 -24 27 5 43 -3 43 -21 0 -16 -7 -20 -30 -20 l-31 0 3 -57 c3
-55 4 -58 31 -61 38 -5 37 -38 -2 -47 -60 -13 -91 24 -91 109 0 31 -4 56 -10
56 -16 0 -12 30 5 36 8 4 15 12 15 18 0 14 20 36 32 36 5 0 13 -11 18 -25z
m-3442 -50 c48 -56 18 -165 -48 -179 -35 -6 -87 12 -109 37 -20 25 -17 114 5
139 42 46 113 47 152 3z m327 10 c22 -22 25 -32 25 -105 0 -73 -2 -80 -19 -80
-11 0 -22 4 -25 9 -4 5 -19 3 -36 -6 -51 -25 -100 0 -100 52 0 40 23 61 78 70
28 4 42 12 42 22 0 13 -9 15 -44 11 -33 -4 -46 -2 -50 9 -9 22 -8 23 17 33 42
17 87 11 112 -15z m213 -2 c-2 -20 -10 -29 -32 -34 -39 -11 -46 -24 -46 -91 0
-55 -1 -58 -25 -58 l-25 0 0 100 c0 92 1 100 19 100 11 0 23 -5 26 -10 4 -7
14 -5 28 5 35 25 59 20 55 -12z m550 11 c20 -14 24 -14 44 0 12 9 32 16 43 16
11 0 31 -7 43 -16 20 -14 22 -23 22 -105 l0 -89 -30 0 -30 0 0 75 c0 58 -3 77
-15 81 -29 12 -44 -15 -47 -84 -3 -65 -4 -67 -30 -70 l-28 -3 0 69 c0 77 -16
105 -48 85 -13 -7 -18 -28 -20 -82 l-3 -71 -29 0 -30 0 0 101 0 102 33 -6 c19
-3 40 -1 48 4 21 13 52 11 77 -7z m337 6 c15 -6 32 -24 40 -45 26 -60 22 -65
-49 -65 -71 0 -81 -6 -61 -34 12 -15 23 -18 60 -14 42 5 45 4 45 -17 0 -49
-132 -38 -159 13 -16 31 -13 104 5 130 27 38 71 50 119 32z m220 -21 c0 -16
-7 -25 -20 -27 -37 -7 -45 -23 -45 -88 l0 -64 -30 0 -30 0 0 100 c0 92 1 100
19 100 11 0 23 -5 26 -10 4 -6 16 -5 33 5 35 18 47 14 47 -16z m283 25 c16 -5
22 -13 20 -28 -2 -17 -9 -20 -36 -18 -44 4 -62 -12 -62 -58 0 -48 19 -64 66
-56 33 7 35 5 32 -16 -2 -17 -12 -25 -40 -31 -77 -18 -131 47 -114 137 11 57
69 87 134 70z m202 -9 c32 -16 32 -18 34 -130 l1 -60 -50 -3 c-100 -6 -108 -5
-122 14 -35 48 -4 99 67 108 64 9 63 31 -1 31 -38 0 -44 3 -47 22 -2 16 3 23
20 26 46 9 70 7 98 -8z m508 -12 c7 -10 12 -49 12 -101 l0 -83 -27 3 c-26 3
-27 5 -24 53 3 64 -12 105 -39 105 -27 0 -40 -36 -40 -106 0 -53 0 -54 -30
-54 l-30 0 0 101 0 102 33 -5 c17 -3 41 -2 52 3 28 12 78 2 93 -18z m364 -57
c2 -54 7 -71 21 -80 31 -19 57 24 57 94 0 49 3 58 20 63 30 8 38 -17 36 -113
l-1 -85 -50 -3 c-97 -6 -107 -5 -123 11 -11 12 -17 41 -20 101 -4 82 -4 84 19
88 13 2 27 2 31 -1 4 -4 8 -37 10 -75z m320 66 c5 -5 6 -16 3 -24 -5 -12 -16
-15 -46 -11 -53 8 -50 -11 6 -36 43 -19 45 -22 45 -61 0 -38 -3 -42 -36 -56
-24 -10 -50 -13 -75 -9 -32 6 -39 11 -39 30 0 21 3 22 44 18 58 -7 67 11 18
36 -21 11 -44 26 -51 35 -20 23 -9 69 19 84 26 13 96 10 112 -6z m348 -12 c0
-25 -4 -30 -24 -30 -34 0 -44 -18 -48 -85 -3 -57 -4 -60 -30 -63 l-28 -3 0
100 c0 93 1 101 19 101 11 0 22 -4 26 -9 3 -6 17 -4 33 5 41 21 52 18 52 -16z
m277 19 c39 -15 43 -24 43 -116 0 -76 -2 -83 -19 -83 -11 0 -23 4 -26 10 -4 6
-15 4 -30 -6 -44 -29 -105 3 -105 53 0 33 26 63 54 63 37 0 66 12 66 27 0 11
-10 14 -38 12 -59 -4 -85 22 -39 41 30 12 60 12 94 -1z m319 1 c37 -14 53 -38
54 -77 l0 -33 -58 0 c-67 0 -76 -5 -61 -33 10 -17 18 -19 61 -14 46 6 49 5 46
-15 -6 -44 -106 -47 -146 -5 -28 30 -36 67 -22 116 16 60 65 84 126 61z m568
-4 c52 -22 70 -89 40 -152 -21 -43 -68 -61 -119 -44 -79 26 -89 160 -15 197
32 16 53 16 94 -1z m254 -2 c20 -14 24 -14 44 0 12 9 32 16 43 16 11 0 31 -7
43 -16 20 -14 22 -23 22 -105 l0 -90 -27 3 c-26 3 -28 5 -31 73 -4 77 -13 95
-40 79 -13 -9 -18 -28 -20 -83 l-3 -71 -29 0 -29 0 -3 71 c-2 57 -7 74 -21 83
-29 18 -47 -17 -47 -91 l0 -63 -30 0 -30 0 0 101 0 102 33 -6 c19 -3 40 -1 48
4 21 13 52 11 77 -7z m336 6 c27 -10 56 -56 56 -90 0 -18 -6 -20 -65 -20 -49
0 -65 -3 -65 -14 0 -25 29 -39 70 -33 42 5 54 -1 44 -26 -9 -23 -75 -31 -117
-14 -43 19 -57 42 -57 99 0 82 61 126 134 98z m226 -20 c0 -25 -4 -30 -23 -30
-37 0 -47 -19 -47 -87 l0 -63 -30 0 -30 0 0 100 0 100 25 0 c14 0 25 -5 25
-10 0 -6 12 -4 28 4 41 23 52 20 52 -14z m187 17 c3 -3 2 -15 -2 -27 -6 -18
-12 -20 -36 -15 -40 9 -59 -9 -59 -55 0 -50 21 -68 61 -53 24 10 31 9 36 -3 9
-25 -4 -41 -40 -48 -71 -13 -117 28 -117 104 0 49 19 86 54 101 20 9 93 6 103
-4z m321 -22 c32 -37 31 -113 -2 -152 -20 -23 -32 -28 -70 -28 -65 0 -99 35
-100 103 -1 52 18 85 59 103 34 15 88 2 113 -26z m554 7 c10 -10 21 -35 25
-55 l6 -37 -67 0 c-49 0 -66 -3 -66 -14 0 -27 28 -39 76 -32 43 5 45 4 42 -16
-2 -17 -13 -25 -41 -31 -80 -19 -137 22 -137 100 0 53 19 89 54 104 30 12 87
3 108 -19z m669 2 c16 -14 19 -31 19 -101 0 -75 -2 -83 -19 -83 -11 0 -22 4
-26 9 -3 6 -17 4 -33 -5 -35 -18 -52 -18 -80 2 -26 18 -30 74 -7 97 7 8 34 18
60 21 31 5 45 12 45 23 0 13 -9 15 -44 11 -33 -4 -46 -2 -50 9 -9 22 -8 23 17
33 31 14 95 5 118 -16z m171 17 c13 -4 32 -5 43 -1 42 15 45 5 45 -146 l0
-144 -30 0 c-29 0 -30 1 -30 51 0 45 -2 50 -17 43 -26 -11 -70 -9 -87 5 -43
36 -43 135 -1 177 26 26 41 29 77 15z m198 -66 c0 -75 6 -95 29 -95 31 0 41
22 41 91 0 55 3 67 18 71 38 10 42 -1 42 -103 0 -91 -2 -99 -19 -99 -11 0 -22
4 -26 9 -3 6 -17 4 -33 -5 -39 -20 -59 -17 -87 11 -22 22 -25 33 -25 104 0 75
1 80 23 83 34 6 37 1 37 -67z m248 -34 l-3 -96 -27 -3 -28 -3 0 99 c0 54 2
101 5 104 3 3 17 3 31 0 25 -4 25 -5 22 -101z m133 100 c28 15 86 3 99 -21 5
-10 10 -55 10 -100 l0 -81 -27 3 c-27 3 -28 5 -33 78 -4 64 -8 75 -24 78 -31
6 -46 -26 -46 -95 l0 -63 -30 0 -30 0 0 99 c0 103 6 118 43 99 11 -5 25 -5 38
3z m321 -21 c14 -17 18 -41 18 -101 0 -72 -2 -79 -19 -79 -11 0 -22 4 -26 9
-3 6 -17 4 -33 -5 -56 -29 -102 -5 -102 55 0 47 11 57 73 66 60 9 57 30 -4 30
-38 0 -44 3 -47 22 -2 16 3 23 20 26 46 10 102 -1 120 -23z m177 24 c25 -5 31
-11 29 -28 -3 -18 -9 -21 -45 -18 -54 5 -55 -10 -2 -33 64 -29 76 -69 34 -110
-39 -40 -135 -32 -135 10 0 21 4 23 45 22 52 -2 58 11 15 34 -51 28 -61 40
-58 73 5 46 47 64 117 50z m310 -9 c32 -16 41 -33 41 -76 0 -29 0 -29 -59 -29
-66 0 -80 -9 -54 -35 13 -13 27 -16 60 -11 40 5 43 4 43 -19 0 -20 -6 -25 -42
-30 -71 -11 -119 19 -131 81 -18 97 60 162 142 119z m-7191 -92 l-3 -98 -27
-3 -28 -3 0 100 0 101 30 0 31 0 -3 -97z m2020 0 l-3 -98 -27 -3 -28 -3 0 100
0 101 30 0 31 0 -3 -97z m2172 -3 l0 -100 -30 0 -30 0 0 100 0 100 30 0 30 0
0 -100z m-3642 -2 c-3 -20 -9 -23 -48 -23 -39 0 -45 3 -48 23 -3 20 0 22 48
22 48 0 51 -2 48 -22z m3932 -337 c0 -13 -59 -61 -76 -61 -35 0 -1 53 41 63
32 8 35 7 35 -2z m-4432 -143 l3 -138 -31 0 -30 0 0 141 0 140 28 -3 27 -3 3
-137z m187 117 c-55 -45 -89 -46 -60 -1 13 20 26 26 54 26 l36 0 -30 -25z
m475 0 c0 -20 -5 -25 -24 -25 -14 0 -28 5 -31 10 -12 19 4 40 30 40 20 0 25
-5 25 -25z m2448 -117 l3 -138 -31 0 -30 0 0 141 0 140 28 -3 27 -3 3 -137z
m1617 117 c0 -14 -8 -21 -27 -23 -22 -3 -28 1 -28 16 0 25 10 33 35 30 12 -2
20 -10 20 -23z m-3233 -103 l3 -106 50 -1 c44 0 50 -3 53 -22 3 -22 1 -23 -82
-23 l-86 0 0 128 c0 71 2 131 5 134 3 3 16 3 30 0 24 -4 24 -7 27 -110z m772
109 c3 -4 26 -65 50 -135 l45 -126 -34 0 c-29 0 -34 4 -40 30 -6 28 -9 30 -56
30 -47 0 -50 -2 -55 -30 -6 -26 -11 -30 -40 -30 -22 0 -32 4 -29 13 19 58 79
226 87 240 9 18 62 24 72 8z m296 -4 c0 -3 -8 -24 -18 -44 -23 -53 -23 -177 1
-222 22 -45 22 -53 -5 -49 -75 11 -91 236 -22 305 22 22 47 28 44 10z m202 -5
c5 -5 6 -16 2 -26 -5 -14 -14 -16 -43 -12 -69 11 -81 -28 -19 -60 54 -27 68
-44 68 -84 0 -45 -22 -67 -75 -75 -56 -9 -95 8 -95 40 0 23 3 25 23 19 12 -5
36 -8 52 -9 42 0 47 36 8 55 -46 23 -83 62 -83 88 0 32 17 61 43 72 24 11 106
5 119 -8z m1041 -24 c52 -142 77 -215 77 -222 0 -4 -14 -6 -32 -4 -25 2 -34 9
-38 28 -5 22 -12 25 -53 28 -45 3 -48 2 -58 -27 -9 -25 -17 -31 -40 -31 -16 0
-29 4 -29 8 0 6 40 125 85 250 2 6 20 12 38 12 31 0 36 -4 50 -42z m1458 -14
c45 -95 15 -274 -47 -274 -29 0 -29 -3 -4 51 26 59 26 159 0 218 -11 23 -18
47 -15 51 12 19 46 -5 66 -46z m-5373 24 c-3 -18 -10 -22 -48 -22 -41 -1 -45
-3 -48 -28 -3 -27 -2 -28 42 -28 42 0 46 -2 46 -25 0 -23 -4 -25 -46 -25 -45
0 -45 0 -42 -32 3 -29 7 -33 33 -34 61 -2 65 -4 65 -24 0 -18 -7 -20 -80 -20
l-80 0 0 130 0 130 81 0 c77 0 80 -1 77 -22z m1930 0 c-2 -18 -11 -24 -35 -26
l-33 -3 0 -105 0 -104 -30 0 -30 0 0 105 0 105 -34 0 c-33 0 -53 20 -40 41 3
5 50 9 105 9 98 0 100 0 97 -22z m202 7 c80 -41 80 -189 0 -230 -17 -9 -56
-15 -95 -15 l-65 0 0 130 0 130 65 0 c39 0 78 -6 95 -15z m-1680 -26 c0 -13 7
-19 23 -19 13 0 26 -3 30 -6 12 -12 -6 -34 -29 -34 -23 0 -24 -3 -24 -60 l0
-60 30 0 c23 0 30 -4 30 -20 0 -28 -61 -38 -95 -16 -23 15 -25 23 -25 86 0 56
-3 70 -15 70 -21 0 -19 13 5 35 11 10 20 24 20 31 0 7 6 14 13 17 20 7 37 -4
37 -24z m-132 -45 c16 -18 22 -36 20 -58 l-3 -31 -63 0 c-39 0 -62 -4 -62 -11
0 -22 30 -36 72 -32 37 2 43 0 43 -17 0 -28 -54 -41 -105 -26 -62 18 -88 90
-58 157 26 57 113 67 156 18z m357 6 c0 -18 -7 -26 -31 -32 -36 -9 -44 -28
-44 -100 0 -47 -1 -48 -30 -48 l-31 0 3 97 c3 86 5 98 22 101 10 2 22 -2 26
-9 7 -10 13 -9 32 4 31 22 53 17 53 -13z m298 11 c4 -4 5 -15 1 -25 -5 -13
-13 -16 -36 -11 -39 9 -58 -9 -58 -55 0 -48 19 -64 65 -56 31 6 35 4 35 -14 0
-45 -92 -50 -137 -8 -18 17 -23 32 -23 70 0 61 13 86 53 104 31 14 84 11 100
-5z m205 -14 c28 -28 39 -87 23 -125 -29 -69 -134 -81 -172 -18 -36 59 -18
138 36 162 38 18 84 10 113 -19z m187 23 c17 -7 25 -16 23 -28 -3 -14 -12 -16
-46 -14 -49 4 -57 -12 -14 -30 38 -16 72 -48 72 -68 0 -47 -59 -78 -126 -66
-27 6 -34 12 -34 30 0 22 3 23 50 18 62 -6 65 8 8 40 -50 28 -63 47 -54 81 9
38 69 57 121 37z m1722 -27 c32 -40 32 -112 -1 -150 -20 -23 -32 -28 -69 -28
-54 0 -82 22 -98 76 -10 31 -9 43 7 75 11 22 30 45 44 52 37 19 91 8 117 -25z
m334 11 c16 -14 19 -32 19 -101 0 -75 -2 -83 -19 -83 -11 0 -23 5 -26 10 -4 7
-14 5 -28 -5 -46 -32 -107 -6 -107 47 0 46 25 68 77 68 37 0 43 3 43 21 0 20
-4 21 -45 16 -27 -4 -46 -3 -46 3 -5 29 -2 35 21 41 36 11 89 3 111 -17z m209
-4 c0 -25 -4 -30 -24 -30 -34 0 -47 -22 -53 -90 -5 -55 -8 -60 -29 -60 -24 0
-24 2 -24 100 0 90 2 100 18 100 10 0 24 -6 30 -12 9 -9 15 -10 20 -2 8 12 29
22 50 23 7 1 12 -11 12 -29z m543 16 c23 -13 31 -13 55 0 37 19 58 18 82 -6
17 -17 20 -33 20 -105 0 -83 -1 -85 -24 -85 -22 0 -24 4 -28 70 -4 76 -18 101
-46 84 -13 -9 -18 -28 -20 -83 l-3 -71 -29 0 -29 0 -3 71 c-2 57 -7 74 -21 83
-29 18 -47 -17 -47 -91 l0 -63 -30 0 -30 0 0 101 0 102 33 -5 c17 -3 41 -2 52
3 29 11 37 11 68 -5z m347 -1 c21 -11 32 -27 40 -55 6 -22 8 -45 5 -50 -3 -6
-33 -10 -66 -10 -32 0 -59 -3 -59 -7 1 -25 20 -35 65 -32 49 4 62 -5 45 -31
-6 -10 -26 -15 -66 -15 -49 0 -59 4 -80 28 -18 21 -24 40 -24 75 0 90 66 135
140 97z m220 -15 c0 -25 -4 -30 -23 -30 -37 0 -47 -19 -47 -87 l0 -63 -30 0
-30 0 0 100 c0 90 2 100 18 100 10 0 23 -5 29 -11 8 -8 17 -7 34 5 35 24 49
20 49 -14z m278 24 c16 -5 22 -13 20 -28 -2 -17 -10 -21 -41 -21 -53 0 -74
-44 -46 -97 9 -17 17 -19 50 -14 36 6 39 5 39 -18 0 -19 -7 -26 -30 -31 -73
-16 -130 26 -130 96 0 86 59 134 138 113z m196 -5 c32 -15 46 -56 46 -136 l0
-63 -37 1 c-21 1 -54 -2 -74 -6 -30 -6 -41 -3 -58 14 -42 42 -13 110 49 112
45 2 50 3 50 12 0 4 0 12 0 18 0 8 -14 10 -40 6 -61 -8 -83 32 -25 46 36 9 64
7 89 -4z m-4444 -99 l0 -100 -30 0 -30 0 0 93 c0 52 3 97 7 100 3 4 17 7 30 7
23 0 23 -2 23 -100z m4070 0 l0 -100 -30 0 -30 0 0 100 0 100 30 0 30 0 0
-100z m-3502 -482 l-3 -143 -25 0 -25 0 -3 143 -3 142 31 0 31 0 -3 -142z
m282 112 c-19 -17 -42 -30 -52 -30 -22 0 -22 4 -2 35 13 19 25 25 53 25 l36
-1 -35 -29z m2960 22 c0 -12 -57 -52 -75 -52 -19 0 -19 10 1 38 15 21 74 33
74 14z m338 -18 c3 -23 -18 -37 -43 -28 -16 6 -20 35 -8 48 14 14 48 1 51 -20z
m2230 2 c5 -25 -12 -39 -37 -31 -20 6 -28 34 -14 49 13 13 48 1 51 -18z m340
-118 l-3 -143 -25 0 -25 0 -3 143 -3 142 31 0 31 0 -3 -142z m-9596 122 c88
-25 117 -153 51 -231 l-26 -30 27 -28 c34 -35 33 -41 -9 -41 -26 0 -39 7 -56
29 -14 20 -33 31 -59 35 -72 11 -114 97 -91 183 12 45 36 70 77 83 39 11 44
11 86 0z m5881 -40 c3 -14 14 -20 32 -20 22 0 26 -4 23 -22 -2 -17 -10 -23
-28 -23 -21 0 -26 -6 -28 -34 -6 -56 5 -81 34 -81 21 0 25 -4 22 -22 -2 -18
-10 -24 -39 -26 -54 -5 -69 16 -69 93 0 47 -4 64 -15 69 -21 8 -19 29 5 44 11
7 20 19 20 27 0 22 37 18 43 -5z m557 0 c0 -16 7 -20 31 -20 26 0 30 -3 27
-22 -2 -17 -10 -23 -28 -23 -23 0 -25 -4 -28 -57 l-3 -58 31 0 c27 0 31 -3 28
-22 -2 -18 -10 -24 -38 -26 -54 -5 -72 15 -77 84 -2 32 -9 69 -15 80 -8 18 -6
26 11 43 12 12 21 26 21 31 0 6 9 10 20 10 13 0 20 -7 20 -20z m-6250 -77 c0
-82 8 -103 36 -103 32 0 44 27 44 99 l0 61 30 0 30 0 0 -100 c0 -81 -3 -102
-15 -106 -8 -4 -22 -1 -29 6 -11 8 -20 8 -35 1 -29 -16 -66 -13 -91 7 -19 15
-22 27 -22 92 0 41 1 81 1 88 1 6 12 12 26 12 24 0 25 -3 25 -57z m345 32 c17
-16 25 -35 25 -60 l0 -35 -65 0 c-68 0 -79 -9 -43 -34 15 -11 34 -14 60 -10
33 6 38 4 38 -14 0 -31 -74 -43 -125 -20 -62 28 -73 129 -20 181 26 27 100 22
130 -8z m118 13 c4 -10 7 -10 18 0 17 15 81 16 97 0 9 -9 15 -9 24 0 16 16 80
15 102 -1 13 -10 17 -28 17 -92 0 -44 0 -86 0 -93 -1 -8 -10 -12 -23 -10 -21
3 -23 10 -28 76 -5 77 -19 99 -52 81 -13 -7 -18 -25 -20 -82 -3 -69 -4 -72
-28 -72 -24 0 -25 3 -28 70 -3 62 -13 95 -31 95 -24 -1 -35 -25 -40 -92 -6
-70 -7 -73 -31 -73 -25 0 -25 1 -28 103 l-3 102 25 0 c13 0 26 -6 29 -12z
m545 -17 c3 -22 2 -23 -37 -16 -55 9 -56 -15 -2 -39 22 -9 43 -26 46 -37 11
-33 -4 -69 -31 -79 -59 -23 -135 -2 -121 33 5 13 12 14 42 6 65 -18 75 10 15
41 -60 31 -74 66 -39 101 16 16 30 19 72 17 46 -3 52 -6 55 -27z m217 -3 c23
-28 27 -39 23 -80 -6 -55 -27 -84 -69 -93 -79 -18 -134 33 -126 115 7 59 41
90 102 90 36 0 47 -5 70 -32z m118 20 c4 -10 7 -10 18 0 16 15 81 16 97 0 8
-8 15 -8 26 1 8 7 34 11 58 9 56 -4 69 -28 66 -128 -3 -73 -4 -75 -28 -75 -24
0 -25 3 -30 73 -5 73 -18 96 -47 85 -16 -6 -22 -30 -25 -103 -3 -51 -5 -55
-28 -55 -24 0 -25 3 -28 70 -3 62 -13 95 -31 95 -24 -1 -35 -25 -40 -92 -6
-70 -7 -73 -31 -73 -25 0 -25 1 -28 89 -2 49 -1 95 2 103 7 17 43 17 49 1z
m472 -10 c51 -45 38 -156 -22 -179 -73 -28 -143 19 -143 96 0 64 37 105 95
105 31 0 51 -7 70 -22z m210 -3 c0 -17 -6 -20 -42 -17 -54 4 -55 -11 -3 -38
63 -32 75 -66 35 -105 -38 -39 -135 -34 -135 7 0 16 6 19 46 16 62 -4 67 15
12 43 -48 24 -58 35 -58 63 0 39 29 57 89 54 48 -3 56 -6 56 -23z m304 -1 c12
-15 21 -41 21 -60 l0 -34 -65 0 c-69 0 -80 -10 -41 -35 19 -13 32 -14 60 -6
34 9 36 8 36 -14 0 -36 -76 -48 -130 -20 -54 28 -64 123 -18 172 32 35 109 33
137 -3z m279 14 c9 -9 12 -9 12 0 0 7 11 12 25 12 l25 0 0 -150 0 -150 -25 0
c-24 0 -25 3 -25 55 0 51 -10 69 -25 45 -7 -11 -45 -13 -70 -4 -44 17 -59 116
-25 172 17 27 26 32 58 32 21 0 43 -5 50 -12z m182 -68 c4 -62 8 -75 23 -78
35 -7 47 17 47 89 l0 69 30 0 30 0 0 -100 c0 -81 -3 -102 -15 -106 -8 -4 -22
-1 -29 6 -11 8 -20 8 -35 1 -31 -17 -69 -13 -91 9 -17 17 -20 33 -20 106 l0
85 28 -3 c26 -3 27 -5 32 -78z m327 72 c21 -13 33 -61 33 -128 0 -67 -15 -89
-43 -65 -10 8 -22 7 -44 -1 -61 -23 -114 17 -99 77 7 29 40 45 92 45 35 0 40
5 25 29 -6 9 -20 11 -48 6 -33 -5 -42 -3 -47 11 -4 10 -1 21 6 26 16 10 109
10 125 0z m448 -18 c16 -18 25 -39 25 -60 l0 -34 -65 0 c-67 0 -77 -7 -49 -35
12 -12 27 -14 60 -9 36 5 44 3 44 -10 0 -40 -113 -47 -151 -9 -38 38 -37 125
1 163 31 31 104 28 135 -6z m315 6 c17 -17 20 -33 20 -106 0 -85 0 -86 -22
-79 -26 8 -39 8 -89 -1 -45 -7 -69 14 -69 61 0 42 29 65 83 65 31 0 38 3 35
18 -3 13 -13 17 -45 17 -46 0 -58 7 -50 30 10 24 111 21 137 -5z m220 10 c0
-7 6 -7 19 0 32 16 86 12 105 -9 14 -15 16 -35 14 -102 -3 -82 -4 -84 -28 -84
-24 0 -25 2 -28 75 -3 83 -16 103 -52 80 -10 -6 -17 -32 -20 -82 -5 -70 -6
-73 -30 -73 -25 0 -25 1 -28 103 l-3 102 26 0 c14 0 25 -5 25 -10z m347 -5
c44 -31 48 -131 9 -171 -10 -9 -36 -19 -60 -21 -56 -7 -102 29 -109 84 -5 44
13 96 40 112 27 15 95 13 120 -4z m211 7 c7 -5 10 -16 6 -25 -5 -13 -14 -16
-45 -11 -54 9 -52 -15 4 -41 37 -18 42 -24 45 -57 4 -49 -26 -70 -95 -66 -44
3 -48 5 -51 30 -3 26 -3 27 34 17 26 -8 40 -7 48 1 12 12 4 20 -53 52 -25 14
-31 23 -31 52 0 23 6 39 18 45 20 12 102 14 120 3z m190 -20 c3 -22 2 -23 -42
-17 -58 9 -60 -6 -4 -37 50 -28 63 -47 55 -80 -8 -29 -44 -48 -95 -48 -46 0
-65 12 -60 36 2 14 10 18 28 15 72 -12 93 7 38 35 -69 35 -85 68 -51 106 13
15 28 18 72 16 50 -3 56 -6 59 -26z m206 6 c19 -26 23 -173 5 -183 -5 -4 -19
1 -30 11 -10 9 -19 12 -19 6 0 -6 -16 -14 -35 -18 -50 -9 -85 16 -85 61 0 42
29 65 83 65 31 0 38 3 35 18 -3 13 -14 17 -47 17 -29 0 -46 5 -49 14 -7 20 18
31 75 31 42 0 55 -4 67 -22z m325 -4 c12 -15 21 -41 21 -60 l0 -34 -65 0 c-68
0 -79 -9 -43 -34 15 -11 34 -14 60 -10 34 6 38 4 38 -14 0 -25 -50 -38 -105
-28 -71 14 -99 115 -49 175 22 27 32 31 74 31 41 0 52 -4 69 -26z m196 1 c0
-17 -6 -20 -42 -17 -49 4 -57 -12 -15 -30 93 -40 96 -123 3 -135 -57 -8 -91 3
-91 28 0 18 6 20 38 18 20 -1 43 -1 50 0 21 2 13 21 -15 33 -67 29 -90 73 -56
110 13 15 28 18 72 16 48 -3 56 -6 56 -23z m268 13 c4 -10 7 -10 18 0 7 6 26
12 42 12 22 0 28 -4 23 -16 -3 -9 -6 -20 -6 -25 0 -5 -8 -9 -17 -9 -37 0 -48
-18 -53 -87 -5 -65 -6 -68 -30 -68 -25 0 -25 1 -28 103 l-3 102 25 0 c13 0 26
-6 29 -12z m269 -5 c15 -13 18 -32 18 -105 0 -80 -2 -88 -19 -88 -11 0 -21 6
-24 13 -3 10 -9 10 -26 0 -51 -31 -111 -3 -111 52 0 42 29 65 83 65 31 0 38 3
35 18 -3 13 -14 17 -47 17 -46 0 -66 19 -40 36 25 15 111 10 131 -8z m387 -4
c22 -24 36 -72 26 -89 -3 -5 -33 -10 -66 -10 -46 0 -59 -3 -59 -15 0 -22 43
-36 80 -25 25 7 32 6 37 -7 18 -46 -96 -59 -146 -17 -28 23 -31 32 -31 80 0
45 4 59 25 79 33 33 105 35 134 4z m251 7 c0 -8 -7 -16 -15 -20 -8 -3 -14 -13
-13 -23 0 -10 0 -26 0 -35 -2 -20 -50 -48 -82 -48 -11 0 -20 -4 -20 -10 0 -5
20 -10 45 -10 104 0 115 -103 14 -130 -92 -25 -175 33 -123 85 18 18 28 92 13
101 -15 9 -10 66 8 86 13 14 31 18 95 18 60 0 78 -3 78 -14z m88 -88 c-3 -102
-3 -103 -28 -103 -25 0 -25 1 -28 103 l-3 102 31 0 31 0 -3 -102z m198 94 c23
-15 34 -53 34 -122 0 -74 -14 -96 -44 -70 -11 8 -20 8 -35 1 -50 -27 -111 3
-111 54 0 40 33 65 85 65 46 0 51 4 36 29 -6 9 -20 11 -48 6 -35 -5 -41 -4
-46 14 -3 11 0 22 7 25 18 7 110 6 122 -2z m332 -15 c12 -12 23 -38 24 -57 l3
-35 -62 -3 c-48 -2 -63 -7 -63 -18 0 -21 43 -35 79 -24 28 8 31 7 31 -15 0
-44 -90 -50 -139 -9 -28 23 -31 32 -31 80 0 45 4 59 25 79 33 34 102 35 133 2z
m118 12 c4 -8 9 -8 17 0 14 14 72 14 99 0 14 -8 23 -8 31 0 18 18 82 13 101
-8 14 -15 16 -35 14 -102 -3 -82 -4 -84 -28 -84 -24 0 -25 3 -28 72 -2 48 -8
75 -18 84 -27 22 -48 -13 -54 -89 -4 -55 -8 -67 -24 -70 -27 -6 -35 15 -35 87
1 68 -11 87 -43 70 -13 -7 -18 -25 -20 -82 -3 -70 -4 -72 -30 -75 l-28 -3 0
105 c0 98 1 106 19 106 11 0 23 -5 27 -11z m369 1 c5 -8 11 -8 20 0 8 6 31 10
52 8 33 -3 41 -8 57 -41 22 -47 15 -113 -16 -147 -18 -19 -28 -21 -64 -16
l-44 6 0 -50 c0 -46 -2 -50 -24 -50 -13 0 -27 7 -30 16 -3 9 -6 76 -6 150 l0
134 24 0 c14 0 28 -5 31 -10z m238 -2 c4 -10 7 -10 18 0 7 6 26 12 42 12 22 0
28 -4 23 -16 -3 -9 -6 -20 -6 -25 0 -5 -8 -9 -17 -9 -37 0 -48 -18 -53 -87 -5
-65 -6 -68 -30 -68 -25 0 -25 1 -28 103 l-3 102 25 0 c13 0 26 -6 29 -12z
m252 6 c20 -8 45 -56 45 -89 0 -24 -2 -25 -65 -25 -67 0 -77 -7 -50 -34 12
-12 27 -14 60 -9 37 5 45 3 45 -10 0 -47 -118 -48 -157 -2 -37 42 -24 151 19
168 19 8 84 8 103 1z m220 -19 c0 -17 -6 -20 -37 -17 -52 4 -56 -14 -9 -38 64
-32 76 -66 36 -105 -17 -18 -35 -25 -64 -25 -54 0 -71 8 -71 35 0 21 3 22 36
15 66 -15 88 11 30 35 -45 19 -66 41 -66 70 0 41 26 56 89 53 48 -3 56 -6 56
-23z m205 3 c17 -18 20 -35 20 -100 0 -61 -3 -80 -15 -84 -8 -4 -22 -1 -29 6
-11 8 -20 8 -35 1 -46 -25 -95 -7 -106 41 -10 41 31 78 85 78 34 0 41 3 38 18
-3 13 -13 17 -45 17 -46 0 -58 7 -50 30 5 11 21 15 61 15 44 0 59 -5 76 -22z
m123 10 c4 -10 7 -10 18 0 7 6 26 12 41 12 23 0 28 -4 28 -25 0 -20 -5 -25
-23 -25 -38 0 -56 -29 -59 -95 -3 -57 -4 -60 -28 -60 -25 0 -25 1 -28 103 l-3
102 25 0 c13 0 26 -6 29 -12z m175 -90 c-3 -102 -3 -103 -28 -103 -25 0 -25 1
-28 103 l-3 102 31 0 31 0 -3 -102z m212 82 c17 -17 20 -33 20 -100 0 -63 -3
-82 -15 -86 -8 -4 -21 -1 -28 5 -10 8 -22 7 -44 -1 -41 -16 -82 -3 -94 29 -22
58 11 93 87 93 28 0 35 3 32 18 -3 13 -13 17 -45 17 -46 0 -58 7 -50 30 10 24
111 21 137 -5z"/>
<path d="M6472 4078 c-7 -7 -12 -28 -12 -48 0 -39 14 -60 41 -60 21 0 29 20
29 70 0 25 -5 40 -16 44 -22 8 -28 8 -42 -6z"/>
<path d="M10086 4074 c-30 -29 -13 -104 22 -104 26 0 42 20 42 53 0 58 -32 84
-64 51z"/>
<path d="M4462 4111 c-19 -54 -16 -71 13 -71 28 0 31 15 11 70 l-13 34 -11
-33z"/>
<path d="M3590 4071 c-31 -59 16 -131 58 -89 16 16 16 80 0 96 -18 18 -46 14
-58 -7z"/>
<path d="M3937 4013 c-4 -3 -7 -15 -7 -25 0 -30 54 -21 58 10 3 17 -1 22 -21
22 -13 0 -27 -3 -30 -7z"/>
<path d="M5057 4084 c-19 -19 -6 -35 26 -32 39 4 45 32 7 36 -14 2 -29 0 -33
-4z"/>
<path d="M5750 4005 c-14 -17 -5 -35 19 -35 20 0 41 19 41 37 0 18 -45 17 -60
-2z"/>
<path d="M7577 4013 c-4 -3 -7 -15 -7 -25 0 -30 54 -21 58 10 3 17 -1 22 -21
22 -13 0 -27 -3 -30 -7z"/>
<path d="M7907 4083 c-16 -15 -5 -29 23 -29 17 1 30 4 30 9 0 4 0 12 0 17 0
11 -43 14 -53 3z"/>
<path d="M8462 4078 c-17 -17 -15 -83 3 -98 37 -31 78 23 59 78 -10 30 -42 40
-62 20z"/>
<path d="M9057 4084 c-18 -18 -5 -32 26 -30 20 2 32 8 32 17 0 15 -46 25 -58
13z"/>
<path d="M9749 4064 c-13 -35 6 -94 30 -94 27 0 41 21 41 60 0 61 -51 85 -71
34z"/>
<path d="M10315 4079 c-4 -6 -2 -15 5 -19 20 -12 55 -6 55 10 0 18 -50 26 -60
9z"/>
<path d="M10987 4013 c-4 -3 -7 -15 -7 -25 0 -30 54 -21 58 10 3 17 -1 22 -21
22 -13 0 -27 -3 -30 -7z"/>
<path d="M11223 4082 c-33 -21 -21 -112 15 -112 28 0 42 20 42 60 0 49 -25 72
-57 52z"/>
<path d="M12057 4013 c-14 -14 -7 -43 11 -43 21 0 42 18 42 37 0 13 -41 18
-53 6z"/>
<path d="M12564 4079 c-3 -6 0 -15 7 -20 15 -9 55 -6 52 4 -2 4 -3 12 -3 17 0
14 -47 13 -56 -1z"/>
<path d="M7716 3583 c-4 -16 -9 -36 -12 -45 -4 -15 1 -18 26 -18 25 0 30 3 26
18 -3 9 -8 29 -12 45 -3 15 -10 27 -14 27 -4 0 -11 -12 -14 -27z"/>
<path d="M9248 3605 c-3 -6 -9 -27 -13 -48 -7 -35 -6 -37 19 -37 18 0 26 5 26
18 -1 26 -25 78 -32 67z"/>
<path d="M7425 3622 c-3 -3 -5 -41 -5 -84 l0 -78 28 0 c33 0 45 8 61 37 15 30
14 74 -4 100 -13 19 -69 36 -80 25z"/>
<path d="M5606 3555 c-9 -25 -9 -25 30 -25 28 0 35 3 32 18 -4 23 -53 29 -62
7z"/>
<path d="M6472 3558 c-7 -7 -12 -28 -12 -48 0 -56 47 -84 70 -41 30 57 -17
130 -58 89z"/>
<path d="M8374 3545 c-13 -20 -15 -33 -8 -58 18 -60 74 -43 74 22 0 61 -37 81
-66 36z"/>
<path d="M8723 3493 c-7 -2 -13 -14 -13 -24 0 -31 54 -22 58 9 3 22 -14 28
-45 15z"/>
<path d="M9837 3563 c-18 -18 -5 -33 29 -33 29 0 35 3 30 16 -3 9 -6 18 -6 20
0 7 -46 5 -53 -3z"/>
<path d="M10530 3485 c-15 -18 -5 -35 20 -35 20 0 44 32 33 44 -11 11 -40 6
-53 -9z"/>
<path d="M3207 3098 c-23 -18 -35 -58 -29 -98 6 -45 28 -70 62 -70 15 0 34 8
42 18 61 70 -5 203 -75 150z"/>
<path d="M3722 3038 c-20 -20 -14 -28 24 -28 28 0 35 3 32 18 -4 21 -39 27
-56 10z"/>
<path d="M4610 3043 c-21 -8 -30 -24 -30 -55 0 -43 10 -58 40 -58 30 0 40 15
40 60 0 22 -23 64 -33 59 -1 0 -9 -3 -17 -6z"/>
<path d="M5196 3038 c-17 -10 -22 -73 -7 -96 14 -22 55 -10 65 19 19 54 -16
101 -58 77z"/>
<path d="M5707 3043 c-18 -17 -5 -33 28 -33 37 0 43 8 23 28 -13 13 -41 16
-51 5z"/>
<path d="M6016 3024 c-19 -48 -2 -94 34 -94 29 0 40 15 40 55 0 40 -11 55 -40
55 -16 0 -30 -7 -34 -16z"/>
<path d="M6508 2969 c-16 -9 -26 -39 -14 -39 2 0 11 -3 19 -6 17 -6 47 21 47
42 0 16 -27 18 -52 3z"/>
<path d="M6942 3038 c-20 -20 -14 -28 24 -28 28 0 35 3 32 18 -4 21 -39 27
-56 10z"/>
<path d="M7263 2973 c-15 -6 -17 -39 -3 -48 16 -10 50 14 50 35 0 20 -19 25
-47 13z"/>
<path d="M7834 3036 c-12 -9 -18 -25 -17 -51 1 -44 13 -58 44 -53 21 3 24 9
27 50 2 38 -1 49 -16 57 -14 7 -24 7 -38 -3z"/>
<path d="M8432 2968 c-15 -15 -16 -35 -2 -43 16 -10 50 14 50 35 0 23 -29 27
-48 8z"/>
<path d="M8752 3037 c-15 -18 -5 -27 30 -27 23 0 29 4 26 18 -4 21 -41 28 -56
9z"/>
<path d="M9498 2969 c-22 -13 -23 -35 -2 -43 21 -8 44 11 44 35 0 21 -16 24
-42 8z"/>
<path d="M9877 3043 c-18 -17 -5 -33 28 -33 37 0 43 8 23 28 -13 13 -41 16
-51 5z"/>
<path d="M10091 3046 c-17 -20 -4 -56 20 -56 24 0 36 27 22 48 -14 22 -28 25
-42 8z"/>
<path d="M10073 2864 c-9 -24 11 -36 51 -29 26 5 36 12 36 26 0 16 -7 19 -40
19 -28 0 -43 -5 -47 -16z"/>
<path d="M10428 2969 c-16 -9 -26 -39 -14 -39 2 0 11 -3 19 -6 17 -6 47 21 47
42 0 16 -27 18 -52 3z"/>
<path d="M10747 3043 c-18 -17 -5 -33 28 -33 37 0 43 8 23 28 -13 13 -41 16
-51 5z"/>
<path d="M11353 3042 c-18 -11 -25 -55 -14 -85 13 -33 45 -36 62 -6 14 27 3
85 -17 93 -19 7 -16 7 -31 -2z"/>
<path d="M11742 3038 c-20 -20 -14 -28 23 -28 37 0 49 22 19 34 -22 8 -28 8
-42 -6z"/>
<path d="M12145 2964 c-14 -15 -15 -19 -2 -31 19 -19 57 -1 57 27 0 25 -32 27
-55 4z"/>
<path d="M12655 2964 c-14 -15 -15 -19 -2 -31 19 -19 60 0 55 25 -4 23 -32 26
-53 6z"/>
<path d="M7382 6713 l-22 -4 2 -242 3 -242 33 -3 32 -3 -2 247 c-2 155 -7 248
-13 249 -5 1 -20 0 -33 -2z"/>
<path d="M9710 6680 c-22 -44 -20 -61 8 -54 17 5 62 65 62 84 0 5 -11 10 -25
10 -19 0 -29 -10 -45 -40z"/>
<path d="M10260 6705 c-20 -24 3 -65 35 -65 32 0 55 41 35 65 -7 8 -23 15 -35
15 -12 0 -28 -7 -35 -15z"/>
<path d="M6539 6701 c-67 -21 -101 -64 -101 -128 0 -78 53 -111 205 -129 124
-14 157 -30 157 -74 0 -38 -29 -67 -75 -76 -42 -8 -221 0 -247 11 -13 5 -20 1
-27 -16 -13 -36 2 -46 95 -59 138 -20 250 3 299 61 33 40 40 87 21 133 -21 50
-75 73 -216 90 -60 8 -117 19 -125 26 -25 21 -19 67 12 87 23 15 50 18 153 18
l125 0 3 26 c3 22 -2 27 -29 33 -43 8 -218 6 -250 -3z"/>
<path d="M8555 6701 c-11 -18 -165 -455 -165 -468 0 -14 27 -17 54 -7 8 3 22
28 31 55 l17 50 111 -3 111 -3 15 -48 c15 -48 41 -67 76 -54 17 7 21 -6 -72
252 -36 99 -70 192 -75 208 -9 24 -15 27 -53 27 -24 0 -46 -4 -50 -9z m94
-184 c22 -63 37 -118 33 -121 -10 -10 -151 -6 -157 4 -3 6 8 54 26 108 34 104
48 136 55 129 2 -2 22 -56 43 -120z"/>
<path d="M7054 6581 c-117 -28 -175 -122 -144 -230 34 -119 215 -168 333 -90
52 34 77 80 77 140 0 127 -126 213 -266 180z m129 -75 c71 -29 89 -128 34
-184 -31 -30 -114 -41 -172 -22 -91 30 -100 167 -12 205 41 18 109 19 150 1z"/>
<path d="M7600 6574 c-55 -17 -72 -30 -99 -74 -29 -48 -29 -138 0 -190 41 -73
153 -107 253 -76 45 14 51 14 61 -1 6 -8 20 -14 31 -11 18 3 19 14 22 181 l2
177 -23 0 c-13 0 -28 -5 -34 -11 -7 -7 -28 -6 -71 5 -71 19 -83 19 -142 0z
m186 -78 c23 -16 25 -22 23 -91 -1 -40 -5 -78 -8 -83 -21 -31 -152 -42 -201
-17 -38 20 -50 43 -50 100 0 58 13 83 53 101 41 19 148 12 183 -10z"/>
<path d="M8066 6574 c-45 -12 -60 -13 -66 -4 -4 6 -18 10 -31 8 l-24 -3 0
-175 0 -175 30 0 30 0 5 134 5 134 35 13 c19 7 63 13 96 13 58 1 62 3 68 27 4
15 5 28 3 30 -12 13 -100 11 -151 -2z"/>
<path d="M8971 6574 c-38 -11 -57 -12 -64 -5 -6 6 -21 11 -34 11 l-23 0 0
-174 c0 -185 2 -192 49 -179 20 5 21 12 21 134 0 149 -1 148 104 156 51 5 65
2 86 -15 24 -19 25 -27 30 -149 l5 -128 30 0 30 0 0 138 0 137 35 10 c57 16
115 12 141 -9 22 -18 24 -28 29 -148 l5 -128 30 0 30 0 3 125 c3 144 -9 180
-68 214 -44 26 -125 27 -197 2 -47 -16 -54 -16 -76 -2 -34 23 -105 27 -166 10z"/>
<path d="M9644 6574 c-88 -32 -141 -129 -115 -213 33 -112 144 -162 291 -130
46 10 51 13 46 33 -3 11 -6 24 -6 28 0 4 -40 5 -88 2 -71 -5 -94 -4 -120 10
-32 17 -56 48 -45 60 3 3 71 6 150 6 l143 0 0 43 c0 64 -36 128 -85 151 -53
25 -120 29 -171 10z m150 -76 c14 -13 26 -32 28 -43 3 -19 -3 -20 -109 -23
-77 -2 -113 1 -113 8 0 67 138 108 194 58z"/>
<path d="M10066 6573 c-45 -12 -60 -12 -66 -3 -4 6 -18 10 -31 8 l-24 -3 0
-175 0 -175 30 0 30 0 5 134 5 134 35 13 c19 7 63 13 98 13 62 1 62 1 62 30 0
44 -41 51 -144 24z"/>
<path d="M10515 6579 c-115 -27 -174 -140 -130 -246 31 -73 124 -120 219 -110
94 10 124 33 97 76 -7 11 -15 11 -41 2 -45 -15 -114 -14 -155 3 -68 29 -84
126 -30 181 37 36 110 44 191 20 15 -5 23 0 33 21 15 33 8 39 -62 54 -55 12
-67 11 -122 -1z"/>
<path d="M10868 6581 c-89 -18 -143 -86 -143 -181 1 -132 117 -205 267 -167
56 14 63 14 73 0 6 -8 20 -13 31 -11 18 3 19 13 19 178 l0 175 -24 3 c-13 2
-27 -2 -31 -8 -6 -9 -23 -9 -72 4 -35 9 -68 15 -74 15 -5 -1 -26 -5 -46 -8z
m160 -80 c20 -11 22 -19 22 -100 l0 -88 -45 -13 c-69 -19 -151 -9 -183 23 -22
22 -26 36 -26 81 0 57 17 89 59 107 27 12 145 5 173 -10z"/>
<path d="M10264 6567 c-2 -7 -3 -87 -2 -177 l3 -165 30 0 30 0 3 178 2 177
-30 0 c-17 0 -33 -6 -36 -13z"/>
<path d="M8390 6040 c0 -5 9 -10 20 -10 18 0 20 -7 20 -60 0 -77 18 -79 22 -2
3 50 6 57 26 60 44 7 21 22 -33 22 -30 0 -55 -4 -55 -10z"/>
<path d="M8569 6048 c0 -2 -1 -32 -2 -67 -1 -44 2 -66 11 -68 7 -3 12 5 12 21
0 33 15 33 36 1 9 -14 23 -25 31 -25 13 0 13 4 -1 25 -15 23 -15 27 -1 41 18
18 20 45 3 62 -10 10 -86 18 -89 10z m74 -32 c7 -17 -11 -36 -35 -36 -13 0
-18 8 -18 25 0 20 5 25 24 25 13 0 26 -6 29 -14z"/>
<path d="M8757 5983 c-28 -71 -28 -86 1 -60 24 22 68 22 81 0 22 -40 22 0 0
61 -31 86 -48 86 -82 -1z m63 -15 c0 -4 -9 -8 -20 -8 -20 0 -28 29 -13 44 7 7
33 -21 33 -36z"/>
<path d="M8930 5980 c0 -54 3 -70 14 -70 11 0 16 14 18 46 l3 46 32 -46 c18
-25 37 -46 43 -46 6 0 10 29 10 70 0 40 -4 70 -10 70 -5 0 -10 -18 -10 -40 0
-22 -3 -40 -7 -40 -5 0 -21 18 -36 40 -43 61 -57 54 -57 -30z"/>
<path d="M9137 6043 c-4 -3 -7 -17 -7 -30 0 -16 10 -28 36 -40 45 -22 45 -38
0 -38 -45 0 -54 -10 -19 -22 44 -15 77 -2 81 30 3 25 -2 30 -38 44 -47 19 -48
37 -2 41 18 2 32 7 32 13 0 10 -73 13 -83 2z"/>
<path d="M9300 5980 c0 -68 15 -98 22 -42 2 21 9 28 31 30 15 2 27 7 27 12 0
5 -12 10 -27 12 -40 4 -36 32 5 36 48 5 39 22 -13 22 l-45 0 0 -70z"/>
<path d="M9470 6030 c-45 -45 -11 -120 55 -120 44 0 75 29 75 70 0 41 -31 70
-75 70 -22 0 -43 -8 -55 -20z m96 -25 c15 -23 15 -27 0 -50 -10 -15 -26 -25
-41 -25 -15 0 -31 10 -41 25 -15 23 -15 27 0 50 10 15 26 25 41 25 15 0 31
-10 41 -25z"/>
<path d="M9670 5980 c0 -40 4 -70 10 -70 6 0 10 11 10 25 0 14 6 25 13 25 8 0
20 -11 27 -25 7 -14 19 -25 27 -25 16 0 17 12 1 28 -9 9 -9 17 1 36 8 14 11
36 7 50 -6 23 -11 26 -51 26 l-45 0 0 -70z m75 25 c0 -22 -31 -33 -47 -17 -17
17 -1 44 24 40 15 -2 23 -10 23 -23z"/>
<path d="M9842 5983 c4 -80 25 -100 30 -26 l3 48 18 -32 c21 -39 34 -41 49 -8
17 37 28 30 28 -16 0 -60 25 -45 27 17 3 91 -19 111 -53 49 -10 -19 -21 -35
-25 -35 -3 0 -14 16 -25 35 -11 20 -26 35 -37 35 -16 0 -18 -8 -15 -67z"/>
<path d="M10088 5983 c-15 -40 -21 -70 -15 -72 5 -2 14 4 19 13 5 9 22 16 38
16 16 0 33 -7 38 -16 5 -9 14 -15 19 -13 6 2 0 32 -15 72 -17 47 -30 67 -42
67 -12 0 -25 -20 -42 -67z m56 11 c10 -26 7 -34 -14 -34 -11 0 -20 4 -20 9 0
17 12 41 20 41 4 0 11 -7 14 -16z"/>
<path d="M10264 6036 c-3 -7 -4 -38 -2 -67 l3 -54 38 -3 c55 -5 87 19 87 63 0
48 -29 75 -80 75 -25 0 -43 -5 -46 -14z m88 -23 c35 -31 12 -83 -38 -83 -22 0
-24 4 -24 50 0 45 2 50 22 50 12 0 30 -7 40 -17z"/>
<path d="M10475 6030 c-25 -27 -23 -76 3 -102 45 -46 125 -13 125 51 0 44 -28
71 -73 71 -24 0 -43 -7 -55 -20z m93 -12 c7 -7 12 -24 12 -38 0 -33 -17 -50
-50 -50 -32 0 -50 17 -50 46 0 44 58 72 88 42z"/>
<path d="M10678 6028 c-5 -39 3 -118 13 -118 5 0 9 11 9 25 0 14 4 25 10 25 5
0 17 -11 26 -25 9 -14 23 -25 30 -25 12 0 12 4 -1 24 -14 21 -14 25 0 36 18
15 20 51 3 68 -7 7 -29 12 -49 12 -31 0 -38 -4 -41 -22z m77 -8 c9 -15 -14
-40 -36 -40 -14 0 -19 7 -19 25 0 20 5 25 24 25 14 0 28 -5 31 -10z"/>
<path d="M10850 5980 l0 -70 45 0 c52 0 61 17 13 22 -22 2 -34 9 -36 21 -3 14
4 17 32 17 45 0 48 18 4 22 -21 2 -33 8 -33 18 0 10 12 16 33 18 48 5 39 22
-13 22 l-45 0 0 -70z"/>
<path d="M11020 6035 c-19 -22 -2 -53 35 -65 20 -7 35 -18 35 -27 0 -12 -8
-15 -41 -10 -44 6 -51 -12 -8 -23 30 -9 67 4 75 25 8 20 -20 51 -52 59 -39 10
-30 36 12 36 21 0 33 4 29 10 -9 15 -71 12 -85 -5z"/>
</g>
</svg>
