<?xml version="1.0" standalone="no"?>
<!DOCTYPE svg PUBLIC "-//W3C//DTD SVG 20010904//EN"
 "http://www.w3.org/TR/2001/REC-SVG-20010904/DTD/svg10.dtd">
<svg version="1.0" xmlns="http://www.w3.org/2000/svg"
 width="1600.000000pt" height="717.000000pt" viewBox="0 0 1600.000000 717.000000"
 preserveAspectRatio="xMidYMid meet">

<g transform="translate(0.000000,717.000000) scale(0.100000,-0.100000)"
fill="#000000" stroke="none">
<path d="M0 3585 l0 -3585 8000 0 8000 0 0 3585 0 3585 -810 0 -810 0 0 -980
0 -980 -6380 0 -6380 0 0 980 0 980 -810 0 -810 0 0 -3585z m3570 1044 c0 -12
-29 -24 -37 -16 -3 4 -3 13 0 21 6 16 37 11 37 -5z m367 -3 c-4 -10 -19 -14
-47 -13 -47 2 -49 22 -2 23 17 0 35 3 38 7 11 11 17 0 11 -17z m503 14 c0 -11
-33 -30 -51 -30 -8 0 -5 7 6 20 19 21 45 27 45 10z m335 -10 c0 -8 -6 -16 -12
-16 -26 -3 -28 -5 -10 -15 21 -12 22 -29 2 -29 -12 0 -15 -13 -15 -55 0 -48
-2 -55 -20 -55 -18 0 -20 7 -20 54 0 34 -5 57 -12 60 -10 5 -10 7 0 12 6 3 12
12 12 19 0 22 31 46 54 43 11 -2 21 -10 21 -18z m1455 -76 c0 -86 -2 -95 -17
-92 -15 3 -18 16 -18 88 -1 95 0 100 21 100 11 0 14 -19 14 -96z m417 72 c-4
-10 -19 -14 -47 -13 -47 2 -49 22 -2 23 18 1 35 4 39 8 10 10 16 -1 10 -18z
m633 -69 l0 -92 -42 -2 c-53 -1 -78 19 -78 61 0 48 26 79 61 72 27 -5 29 -3
29 24 0 20 5 30 15 30 12 0 15 -17 15 -93z m571 71 c4 -131 1 -163 -15 -166
-14 -3 -16 9 -16 92 0 79 3 96 15 96 9 0 15 -9 16 -22z m987 -76 c3 -87 2 -92
-18 -92 -19 0 -20 6 -20 88 0 49 3 92 7 96 19 19 28 -8 31 -92z m72 72 c0 -8
-7 -14 -15 -14 -15 0 -21 21 -9 33 10 9 24 -2 24 -19z m155 -69 l0 -89 -44 -3
c-57 -4 -81 16 -81 68 0 30 6 42 25 55 14 9 32 13 45 9 17 -5 20 -2 20 25 0
25 4 31 18 28 15 -3 17 -15 17 -93z m293 -2 l3 -90 -51 -1 c-57 -1 -70 12 -70
71 0 41 29 72 59 62 17 -5 21 -2 21 18 0 27 9 39 24 34 7 -2 12 -41 14 -94z
m1692 82 c0 -9 -10 -20 -22 -25 -18 -7 -19 -9 -5 -9 21 -1 23 -27 2 -35 -11
-4 -15 -20 -15 -56 0 -44 -3 -51 -17 -48 -35 6 -35 158 0 180 21 14 57 9 57
-7z m762 3 c3 -11 3 -112 -1 -159 -1 -12 -12 -16 -43 -17 -55 0 -78 20 -78 68
0 47 28 75 65 66 23 -6 25 -4 25 24 0 30 24 43 32 18z m946 -86 c3 -87 2 -92
-18 -92 -19 0 -20 6 -20 96 0 86 2 95 18 92 14 -3 17 -17 20 -96z m132 88 c0
-13 -48 -36 -56 -27 -4 4 -1 13 6 22 14 17 50 20 50 5z m290 -16 c0 -17 -26
-19 -36 -3 -7 12 15 31 28 23 4 -3 8 -12 8 -20z m-10735 -54 l30 -55 3 58 c2
42 7 57 17 57 12 0 15 -17 15 -86 0 -82 -1 -85 -22 -82 -15 2 -33 21 -53 55
-16 29 -34 53 -38 53 -5 0 -7 -24 -6 -52 3 -43 0 -54 -14 -56 -15 -3 -17 7
-17 83 l0 86 28 -3 c21 -2 33 -15 57 -58z m5485 41 c0 -5 9 -11 20 -14 11 -3
20 -10 20 -15 0 -5 -9 -12 -20 -15 -29 -7 -28 -67 0 -74 12 -3 19 -11 17 -17
-5 -15 -47 -20 -60 -7 -16 16 -26 113 -13 133 11 19 36 25 36 9z m2450 0 c0
-5 9 -11 20 -14 11 -3 20 -10 20 -16 0 -6 -9 -11 -20 -11 -17 0 -20 -7 -20
-40 0 -34 3 -40 21 -40 27 0 19 -24 -10 -28 -33 -5 -51 16 -51 59 0 21 -5 41
-10 44 -6 4 -3 16 7 30 18 24 43 33 43 16z m2600 -1 c0 -5 7 -10 16 -10 10 0
14 -7 12 -17 -2 -10 -10 -17 -16 -15 -8 1 -12 -12 -12 -38 0 -29 4 -40 15 -40
8 0 15 -7 15 -16 0 -11 -8 -14 -32 -12 -31 3 -33 5 -36 48 -2 24 -8 50 -13 57
-7 8 -5 18 8 32 18 22 43 28 43 11z m-10322 -37 c17 -24 15 -73 -5 -95 -38
-42 -107 -7 -105 54 2 61 74 87 110 41z m130 13 c11 -12 -12 -25 -34 -20 -34
9 -30 -11 6 -26 56 -23 32 -84 -31 -78 -43 4 -51 28 -10 28 39 0 39 10 1 32
-34 19 -38 39 -13 63 11 12 25 15 46 11 17 -3 32 -8 35 -10z m120 0 c11 -12
-12 -25 -34 -20 -33 9 -30 -7 6 -28 53 -30 31 -82 -31 -76 -43 4 -51 28 -10
28 39 0 39 10 1 32 -54 31 -29 84 34 73 16 -3 31 -7 34 -9z m123 -7 c16 -16
19 -30 17 -67 l-3 -47 -49 0 c-35 0 -52 5 -60 18 -15 24 3 51 40 57 35 6 33
26 -2 23 -25 -2 -34 21 -11 30 25 11 48 6 68 -14z m374 11 c6 -1 19 1 30 5 43
13 60 -20 56 -107 -2 -39 -31 -38 -31 1 0 16 -5 42 -10 56 -16 41 -40 15 -40
-42 0 -37 -3 -44 -17 -41 -13 2 -18 14 -20 41 -2 56 -10 72 -28 57 -9 -8 -15
-30 -15 -57 0 -37 -3 -44 -17 -41 -14 2 -19 15 -21 57 -2 29 -1 59 1 65 4 9
53 12 112 6z m160 -61 c0 -53 -3 -64 -17 -67 -16 -3 -18 5 -18 61 0 35 3 67 7
71 18 17 28 -6 28 -65z m114 62 c19 -12 3 -33 -20 -26 -29 9 -23 -14 6 -25 17
-6 25 -17 25 -34 0 -32 -22 -48 -61 -44 -43 4 -51 28 -10 28 37 0 40 12 7 30
-28 14 -38 33 -30 54 9 23 58 32 83 17z m120 0 c19 -12 5 -30 -19 -24 -29 8
-25 -15 5 -29 28 -13 34 -48 11 -67 -20 -17 -81 -10 -81 9 0 10 8 14 28 12 36
-4 34 9 -3 31 -33 20 -38 38 -14 61 17 18 51 21 73 7z m133 -8 c13 -12 18 -30
18 -68 l0 -53 -51 2 c-38 1 -55 6 -63 19 -15 24 3 51 39 57 16 3 30 11 33 19
4 11 -2 13 -27 8 -23 -5 -31 -3 -31 8 0 13 17 21 49 24 8 0 23 -6 33 -16z
m146 1 c27 -19 30 -78 5 -106 -39 -43 -103 -10 -103 53 0 39 26 69 60 69 9 0
26 -7 38 -16z m362 -4 c11 -11 20 -29 20 -40 0 -17 -7 -20 -41 -20 -49 0 -50
-23 0 -28 43 -4 35 -26 -10 -30 -66 -6 -100 79 -50 120 30 23 56 23 81 -2z
m433 9 c29 -15 37 -28 37 -59 0 -39 -27 -70 -61 -70 -61 0 -91 73 -49 118 23
25 41 27 73 11z m92 1 c4 -7 12 -7 25 0 26 14 30 13 30 -10 0 -11 -7 -20 -15
-20 -19 0 -35 -31 -35 -69 0 -21 -5 -31 -15 -31 -12 0 -15 14 -15 70 0 64 9
86 25 60z m110 0 c3 -6 15 -5 30 2 40 18 65 -12 65 -79 0 -46 -2 -53 -20 -53
-17 0 -20 7 -20 49 0 28 -5 53 -12 57 -17 11 -38 -26 -38 -69 0 -31 -3 -38
-17 -35 -14 2 -19 14 -20 48 -4 73 12 112 32 80z m225 -10 c11 -11 20 -29 20
-40 0 -17 -7 -20 -40 -20 -29 0 -40 -4 -40 -15 0 -11 11 -15 36 -15 47 0 41
-24 -7 -27 -47 -4 -71 17 -72 63 -2 63 61 96 103 54z m130 10 c18 -11 5 -25
-23 -25 -18 0 -22 -6 -22 -35 0 -31 3 -35 25 -35 36 0 33 -29 -3 -33 -41 -5
-67 22 -67 69 0 54 48 86 90 59z m128 -6 c12 -8 22 -26 22 -40 0 -21 -4 -24
-41 -24 -28 0 -39 -4 -36 -12 2 -7 18 -13 36 -13 23 0 31 -4 29 -15 -5 -22
-66 -25 -89 -4 -25 23 -25 78 1 104 24 24 48 25 78 4z m102 6 c22 14 30 12 30
-9 0 -10 -9 -21 -19 -24 -15 -4 -20 -15 -23 -48 -2 -32 -8 -45 -20 -47 -16 -3
-18 5 -18 61 0 67 6 83 24 67 7 -5 17 -5 26 0z m358 -4 c11 -12 -12 -25 -34
-20 -33 9 -30 -7 6 -28 53 -30 31 -82 -31 -76 -43 4 -51 28 -10 28 39 0 39 10
1 32 -54 31 -29 84 34 73 16 -3 31 -7 34 -9z m129 -12 c20 -20 24 -31 19 -57
-11 -56 -67 -76 -106 -37 -39 39 -12 120 40 120 12 0 32 -12 47 -26z m157 10
c3 -9 6 -34 6 -56 0 -32 3 -39 18 -36 13 2 18 16 22 53 4 36 9 50 20 50 12 0
16 -15 18 -66 l3 -66 -48 -1 c-26 0 -54 4 -60 10 -19 15 -17 128 1 128 8 0 17
-7 20 -16z m200 10 c22 -8 20 -36 -1 -33 -39 3 -44 -1 -41 -33 3 -29 7 -33 31
-33 28 1 38 -21 13 -31 -7 -3 -11 -14 -9 -28 3 -16 -1 -25 -13 -30 -22 -8 -45
11 -26 23 10 6 7 15 -12 38 -55 66 -14 155 58 127z m143 -16 c27 -25 30 -64 7
-96 -32 -47 -114 -14 -114 46 1 63 62 92 107 50z m143 2 c11 -11 20 -29 20
-40 0 -17 -7 -20 -41 -20 -49 0 -50 -23 0 -28 41 -4 36 -26 -8 -30 -43 -4 -71
21 -71 65 0 37 29 73 60 73 11 0 29 -9 40 -20z m114 14 c28 -11 19 -35 -9 -28
-34 8 -31 -7 5 -28 53 -30 31 -82 -31 -76 -43 4 -51 28 -10 28 39 0 39 10 1
32 -58 33 -19 96 44 72z m508 -11 c10 -9 18 -26 18 -39 0 -19 -6 -23 -37 -26
-48 -4 -46 -22 2 -26 47 -4 41 -26 -8 -30 -71 -6 -105 74 -51 117 32 25 51 26
76 4z m349 7 c15 -9 19 -22 19 -68 l0 -57 -50 -2 c-40 -2 -52 1 -60 17 -15 28
3 58 37 62 14 2 28 9 31 17 3 10 -3 11 -27 6 -24 -5 -31 -3 -31 8 0 24 49 34
81 17z m320 0 c15 -9 19 -22 19 -68 l0 -58 -52 1 -53 0 0 35 c0 32 3 35 33 38
20 2 32 9 32 18 0 10 -9 14 -26 12 -31 -3 -45 18 -17 25 31 8 44 7 64 -3z
m384 -90 c0 -82 -2 -95 -17 -98 -14 -3 -18 4 -18 31 0 31 -2 33 -29 29 -53 -7
-83 76 -42 117 14 14 31 19 63 17 l43 -2 0 -94z m75 44 c4 -35 9 -49 20 -49
11 0 16 14 20 50 4 37 9 51 23 53 15 3 17 -5 17 -66 l0 -69 -47 -1 c-27 0 -54
4 -60 10 -14 11 -18 109 -6 122 16 15 28 -4 33 -50z m212 39 c13 -12 18 -30
18 -68 l0 -52 -47 -1 c-55 0 -73 11 -73 44 0 18 7 25 28 30 47 10 53 14 47 25
-4 6 -18 8 -30 5 -29 -7 -42 9 -18 23 26 15 54 13 75 -6z m156 -56 c2 -55 0
-67 -13 -67 -12 0 -15 14 -15 71 0 52 3 70 13 67 7 -3 13 -29 15 -71z m286 57
c11 -10 16 -34 16 -69 l0 -53 -51 2 c-38 1 -55 6 -63 19 -15 24 3 51 39 57 16
3 30 11 33 19 4 11 -2 13 -27 8 -23 -5 -31 -3 -31 7 0 28 60 35 84 10z m294 0
c12 -8 22 -26 22 -40 0 -21 -4 -24 -41 -24 -49 0 -50 -23 0 -28 41 -4 36 -26
-8 -30 -45 -5 -71 21 -71 69 0 39 26 69 60 69 9 0 26 -7 38 -16z m350 -1 c12
-10 22 -27 24 -38 2 -16 -4 -21 -35 -25 -44 -6 -46 -25 -2 -26 45 0 39 -28 -7
-32 -68 -6 -104 67 -58 116 25 27 51 28 78 5z m82 7 c0 -6 8 -5 19 2 15 9 26
9 44 1 14 -7 29 -8 38 -2 41 26 69 -6 69 -77 0 -47 -2 -54 -20 -54 -17 0 -20
7 -20 48 0 53 -5 63 -26 55 -9 -3 -14 -21 -14 -54 0 -42 -3 -49 -20 -49 -17 0
-20 7 -20 48 0 53 -5 63 -26 55 -9 -3 -14 -21 -14 -54 0 -42 -3 -49 -20 -49
-18 0 -20 7 -20 63 0 35 3 67 7 70 10 10 23 8 23 -3z m572 1 c19 10 38 5 38
-12 0 -5 -11 -14 -25 -19 -22 -8 -25 -16 -25 -55 0 -38 -3 -45 -20 -45 -18 0
-20 7 -20 63 0 66 7 84 23 68 7 -7 17 -7 29 0z m146 -7 c18 -12 22 -25 22 -68
l0 -54 -51 2 c-38 1 -55 6 -63 19 -15 24 3 51 40 57 35 6 33 26 -2 23 -14 -1
-24 4 -24 12 0 27 45 32 78 9z m168 -9 c21 -32 15 -109 -8 -113 -14 -3 -17 6
-20 45 -3 40 -6 48 -23 48 -17 0 -20 -8 -23 -47 -3 -40 -6 -48 -23 -48 -17 0
-19 7 -19 63 0 35 2 66 4 68 2 2 25 5 50 6 39 1 49 -2 62 -22z m123 16 c19
-12 3 -33 -20 -26 -28 9 -23 -13 6 -27 28 -13 34 -48 11 -67 -20 -17 -81 -10
-81 9 0 10 8 14 28 12 35 -4 34 9 -3 30 -17 9 -30 24 -30 32 0 36 55 58 89 37z
m229 -7 c27 -19 30 -78 5 -106 -35 -39 -113 -3 -113 52 0 27 39 70 64 70 12 0
32 -7 44 -16z m104 7 c19 10 38 5 38 -12 0 -5 -11 -14 -25 -19 -22 -8 -25 -16
-25 -55 0 -38 -3 -45 -20 -45 -18 0 -20 7 -20 63 0 66 7 84 23 68 7 -7 17 -7
29 0z m163 -1 c6 -2 20 -1 32 4 12 4 31 2 43 -4 17 -9 20 -21 20 -70 0 -53 -2
-60 -20 -60 -17 0 -20 7 -20 48 0 53 -5 63 -26 55 -9 -3 -14 -21 -14 -54 0
-42 -3 -49 -20 -49 -17 0 -20 7 -20 48 0 53 -5 63 -26 55 -9 -3 -14 -21 -14
-54 0 -42 -3 -49 -20 -49 -18 0 -20 7 -20 68 l0 69 48 -2 c26 -1 52 -3 57 -5z
m218 -2 c18 -13 31 -79 22 -108 -4 -12 -18 -16 -58 -15 l-52 0 0 35 c0 31 3
35 29 40 16 3 31 11 34 19 3 10 -2 13 -22 9 -30 -6 -46 9 -25 23 20 13 52 11
72 -3z m307 -8 c41 -41 12 -120 -45 -120 -14 0 -34 9 -45 20 -41 41 -12 120
45 120 14 0 34 -9 45 -20z m75 10 c4 -7 12 -7 25 0 26 14 30 13 30 -9 0 -10
-9 -21 -19 -24 -15 -4 -20 -15 -23 -48 -2 -32 -8 -45 -20 -47 -16 -3 -18 5
-18 67 0 65 9 87 25 61z m173 -6 c12 -8 22 -26 22 -40 0 -21 -4 -24 -41 -24
-28 0 -39 -4 -36 -12 2 -7 18 -13 35 -13 24 0 32 -4 32 -17 0 -14 -8 -18 -37
-18 -49 0 -73 23 -73 71 0 39 26 69 60 69 9 0 26 -7 38 -16z m131 7 c21 -13 3
-32 -25 -25 -33 9 -30 -7 6 -28 53 -30 34 -78 -32 -78 -30 0 -38 4 -38 18 0
15 6 18 30 14 38 -5 38 8 0 30 -34 19 -40 51 -12 67 21 13 52 14 71 2z m343
-8 c10 -9 18 -26 18 -39 0 -19 -6 -23 -35 -26 -40 -3 -44 -23 -5 -24 14 0 26
-3 28 -7 7 -21 -2 -27 -37 -27 -30 0 -44 6 -55 22 -47 67 27 155 86 101z m211
5 c9 -7 19 -25 23 -40 6 -27 5 -28 -35 -28 -30 0 -41 -4 -41 -15 0 -11 11 -15
36 -15 47 0 40 -24 -8 -28 -69 -6 -102 65 -53 113 27 28 53 32 78 13z m183 1
c4 -8 9 -8 17 0 17 17 37 13 37 -8 0 -10 -9 -21 -19 -24 -15 -4 -20 -15 -23
-48 -2 -32 -8 -45 -20 -47 -16 -3 -18 5 -18 67 0 66 9 87 26 60z m114 -60 c0
-62 -2 -70 -17 -67 -14 2 -19 15 -21 57 -4 63 2 81 23 81 12 0 15 -14 15 -71z
m130 61 c19 -12 4 -27 -30 -32 -20 -2 -25 -9 -25 -33 0 -26 4 -30 27 -30 15 0
28 -3 28 -7 0 -5 0 -12 0 -18 0 -16 -62 -11 -82 7 -24 22 -24 77 2 103 21 21
55 26 80 10z m128 -6 c16 -11 22 -25 22 -51 0 -44 -24 -73 -59 -73 -60 1 -89
65 -51 113 24 30 55 35 88 11z m131 7 c19 -12 3 -33 -20 -26 -28 9 -23 -13 6
-27 28 -13 34 -48 11 -67 -18 -15 -78 -10 -84 7 -2 8 7 12 27 12 39 0 39 10 1
32 -34 19 -40 51 -12 67 21 13 52 14 71 2z m71 -115 c0 -25 -12 -46 -26 -46
-14 0 -20 41 -7 53 12 12 33 7 33 -7z m-9470 -250 c0 -39 -4 -76 -8 -81 -4 -6
-26 -11 -49 -13 -36 -2 -45 1 -59 23 -14 21 -15 34 -8 63 8 34 12 37 47 40 31
3 37 7 37 26 0 29 10 39 27 25 9 -8 13 -35 13 -83z m4470 -7 c0 -82 -1 -89
-20 -89 -18 0 -20 7 -20 88 0 93 3 104 26 95 11 -4 14 -27 14 -94z m220 2 l0
-88 -47 -1 c-61 0 -73 10 -73 64 0 35 5 47 24 59 13 8 31 13 40 9 12 -5 16 0
16 19 0 24 16 39 33 30 4 -2 7 -44 7 -92z m1665 3 c0 -77 -2 -89 -17 -92 -16
-3 -18 6 -18 86 0 49 3 92 7 96 20 19 28 -7 28 -90z m125 77 c11 -21 -3 -40
-15 -21 -4 7 -19 8 -36 5 -33 -7 -36 -3 -13 19 21 22 51 20 64 -3z m1738 -80
l-3 -86 -50 -2 c-57 -3 -75 12 -75 62 0 45 21 68 59 67 21 0 31 3 28 11 -7 20
12 47 29 40 12 -4 14 -22 12 -92z m-6528 74 c0 -8 -6 -15 -14 -15 -17 0 -28
14 -19 24 12 12 33 6 33 -9z m847 1 c-2 -6 -25 -12 -51 -13 -39 -1 -45 1 -36
12 14 17 93 18 87 1z m1703 -10 c0 -21 5 -25 31 -24 38 1 59 -23 59 -67 0 -45
-27 -66 -81 -62 l-44 3 -3 87 c-3 82 -2 87 18 87 15 0 20 -7 20 -24z m155 15
c3 -5 1 -13 -5 -16 -15 -9 -43 3 -35 15 8 13 32 13 40 1z m145 -6 c0 -8 -9
-15 -20 -15 -11 0 -20 7 -20 15 0 8 9 15 20 15 11 0 20 -7 20 -15z m450 -73
l0 -89 -50 -1 c-62 -1 -85 24 -74 82 7 42 16 49 55 48 24 -1 29 3 29 24 0 17
5 24 20 24 18 0 20 -7 20 -88z m1860 73 c0 -8 -9 -15 -20 -15 -11 0 -20 7 -20
15 0 8 9 15 20 15 11 0 20 -7 20 -15z m1438 3 c-7 -19 -38 -22 -38 -4 0 10 9
16 21 16 12 0 19 -5 17 -12z m-8768 -23 c0 -8 9 -15 20 -15 11 0 20 -4 20 -9
0 -5 -9 -11 -20 -14 -15 -4 -20 -14 -20 -41 0 -30 4 -36 21 -36 27 0 19 -24
-10 -28 -12 -2 -28 1 -35 7 -18 15 -27 110 -12 133 13 22 36 24 36 3z m4080 0
c0 -8 7 -15 15 -15 8 0 15 -7 15 -15 0 -8 -7 -15 -15 -15 -10 0 -15 -11 -15
-35 0 -24 5 -35 15 -35 8 0 15 -7 15 -16 0 -11 -8 -14 -32 -12 -31 3 -33 5
-36 48 -2 25 -7 49 -12 54 -11 11 18 56 36 56 8 0 14 -7 14 -15z m400 0 c0 -8
7 -15 15 -15 8 0 15 -5 15 -10 0 -6 -7 -13 -15 -16 -9 -4 -15 -19 -15 -40 0
-28 4 -34 21 -34 31 0 17 -24 -16 -28 -34 -4 -45 11 -45 60 0 20 -5 40 -10 43
-6 4 -3 16 7 30 20 27 43 33 43 10z m3740 1 c0 -7 10 -17 23 -20 l22 -7 -22
-11 c-32 -15 -33 -78 -2 -78 12 0 19 -5 17 -12 -3 -7 -20 -13 -39 -13 -33 0
-34 1 -37 45 -2 25 -7 49 -12 54 -11 11 19 55 38 56 6 0 12 -6 12 -14z m1160
-1 c0 -8 7 -15 15 -15 8 0 15 -5 15 -10 0 -6 -7 -13 -15 -16 -9 -4 -15 -19
-15 -39 0 -25 5 -34 22 -39 32 -8 9 -29 -28 -24 -27 3 -29 7 -32 48 -2 25 -7
49 -12 54 -11 11 19 55 38 56 6 0 12 -7 12 -15z m-10478 -38 c13 -20 9 -61 -8
-85 -28 -41 -98 -24 -109 27 -8 36 8 69 38 80 24 9 67 -3 79 -22z m636 5 c17
-22 15 -72 -5 -94 -21 -23 -65 -23 -87 1 -26 28 -18 92 12 107 28 14 62 8 80
-14z m610 11 c11 -10 23 -28 27 -40 5 -20 2 -22 -37 -25 -53 -4 -57 -22 -5
-26 42 -4 47 -25 8 -30 -40 -6 -68 7 -80 36 -15 36 0 79 31 92 32 12 33 12 56
-7z m850 -11 c17 -22 15 -72 -5 -94 -21 -23 -65 -23 -87 1 -26 28 -18 92 12
107 28 14 62 8 80 -14z m129 4 c-2 -6 -13 -11 -24 -11 -34 0 -36 -11 -3 -25
23 -10 30 -19 30 -41 0 -31 -25 -44 -71 -37 -36 5 -36 28 0 28 39 0 39 10 0
32 -35 21 -36 47 -1 64 27 13 75 6 69 -10z m233 -2 c0 -7 -12 -14 -27 -16 -24
-3 -28 -8 -28 -33 0 -26 4 -30 28 -30 19 1 27 -4 27 -17 0 -28 -64 -25 -84 4
-17 24 -21 65 -8 85 19 30 92 36 92 7z m630 -52 l0 -57 -50 -2 c-40 -2 -52 1
-60 17 -16 31 4 60 41 60 20 0 29 4 26 13 -2 6 -14 12 -27 12 -13 0 -25 6 -27
12 -5 15 35 21 70 10 25 -8 27 -13 27 -65z m478 56 c17 -15 15 -83 -4 -102
-21 -22 -67 -20 -88 3 -26 29 -18 92 14 108 25 13 54 9 78 -9z m280 -1 c7 -5
12 -32 12 -62 l0 -53 -51 2 c-38 1 -55 6 -63 19 -16 25 4 51 43 55 20 2 31 8
28 15 -2 7 -16 11 -31 9 -17 -2 -26 2 -26 12 0 25 57 27 88 3z m139 -1 c-2 -6
-15 -12 -29 -14 -15 -2 -28 -11 -31 -22 -7 -26 16 -55 36 -47 22 8 34 -13 16
-27 -8 -6 -13 -21 -11 -33 2 -14 -3 -23 -17 -28 -30 -9 -48 5 -27 21 16 11 15
14 -9 36 -22 21 -26 32 -23 69 2 34 8 46 26 55 27 13 74 6 69 -10z m281 -4
c17 -22 15 -72 -5 -94 -18 -20 -54 -23 -83 -8 -24 13 -35 63 -20 90 21 39 81
46 108 12z m322 3 c6 -8 10 -35 8 -61 l-3 -48 -52 -3 c-49 -3 -53 -2 -59 22
-8 31 9 53 42 57 32 4 31 23 -1 23 -29 0 -34 16 -9 25 24 9 61 1 74 -15z m228
0 c-2 -6 -13 -9 -25 -7 -32 4 -28 -10 7 -30 53 -30 31 -82 -31 -76 -43 4 -51
28 -10 28 39 0 39 10 0 32 -38 22 -37 59 1 68 29 8 63 -2 58 -15z m273 15 c5
0 9 -7 9 -16 0 -12 -6 -15 -25 -10 -34 9 -31 -5 5 -26 53 -30 34 -78 -32 -78
-30 0 -38 4 -38 18 0 15 6 18 32 14 29 -4 31 -3 20 11 -8 9 -22 19 -33 22 -28
9 -25 53 4 65 12 5 28 7 35 4 8 -2 18 -4 23 -4z m407 -69 c3 -56 1 -62 -15
-59 -14 2 -19 14 -21 51 -3 39 -6 47 -23 47 -16 0 -19 -7 -19 -50 0 -43 -3
-50 -20 -50 -18 0 -20 7 -20 64 l0 65 30 -1 c17 -1 33 2 36 5 3 3 16 2 27 -2
19 -7 22 -17 25 -70z m240 56 c7 -5 12 -32 12 -62 l0 -53 -51 2 c-38 1 -55 6
-63 19 -16 25 4 51 43 55 20 2 31 8 28 15 -2 7 -16 11 -31 9 -17 -2 -26 2 -26
12 0 25 57 27 88 3z m670 -6 c7 -9 12 -35 10 -61 l-3 -45 -55 0 c-55 0 -55 0
-58 32 -3 28 0 33 25 38 48 11 54 15 48 26 -4 6 -18 8 -30 5 -32 -8 -42 12
-13 23 28 12 59 4 76 -18z m294 10 c4 -3 10 -18 13 -33 7 -27 6 -28 -34 -28
-30 0 -41 -4 -41 -15 0 -11 11 -15 36 -15 40 0 44 -23 5 -28 -61 -9 -102 38
-81 94 15 37 73 52 102 25z m259 -18 c14 -39 11 -43 -31 -43 -29 0 -40 -4 -40
-15 0 -11 11 -15 36 -15 45 0 42 -24 -4 -28 -60 -6 -93 36 -72 93 18 48 94 53
111 8z m223 27 c24 -9 26 -14 26 -69 l0 -59 -51 2 c-38 1 -55 6 -63 19 -16 25
4 51 43 55 20 2 31 9 31 18 0 12 -7 14 -30 9 -23 -5 -30 -3 -30 9 0 8 10 17
23 19 12 2 23 5 24 6 1 0 13 -3 27 -9z m274 -18 c6 -9 12 -24 12 -34 0 -14 -8
-18 -40 -18 -29 0 -40 -4 -40 -15 0 -11 11 -15 36 -15 24 0 34 -4 32 -12 -5
-15 -67 -22 -86 -10 -18 12 -30 64 -21 90 15 41 78 50 107 14z m269 4 c-2 -6
-16 -12 -31 -14 -24 -3 -27 -7 -24 -35 2 -27 8 -33 31 -35 36 -4 30 -26 -9
-30 -42 -4 -66 17 -66 60 0 43 7 57 35 67 27 10 69 2 64 -13z m131 -4 c6 -9
12 -24 12 -34 0 -14 -8 -18 -41 -18 -49 0 -50 -23 -1 -28 47 -5 43 -32 -5 -32
-46 0 -73 24 -73 65 0 66 69 96 108 47z m211 4 c5 -6 11 -20 13 -31 2 -16 -4
-21 -35 -25 -50 -7 -52 -24 -4 -28 46 -4 45 -26 -1 -30 -61 -6 -94 35 -73 91
16 42 74 55 100 23z m294 -1 c0 -6 -12 -12 -29 -15 -24 -4 -29 -10 -29 -35 0
-25 4 -30 25 -31 25 0 30 -4 30 -24 0 -16 -62 -11 -82 7 -18 16 -24 68 -10 90
18 29 91 35 95 8z m205 -4 c7 -9 12 -35 10 -61 l-3 -45 -55 0 -55 0 0 35 c0
32 3 35 33 38 20 2 32 9 32 18 0 10 -9 14 -26 12 -33 -4 -44 19 -12 25 32 6
61 -2 76 -22z m270 -55 c3 -51 1 -56 -18 -56 -17 0 -20 6 -20 50 0 43 -3 50
-19 50 -17 0 -20 -8 -23 -47 -2 -36 -7 -49 -20 -51 -16 -3 -18 5 -18 62 l0 65
38 3 c60 6 77 -10 80 -76z m140 62 c6 -6 12 -30 12 -54 0 -33 -5 -46 -19 -54
-56 -29 -104 3 -99 66 5 57 60 78 106 42z m237 10 c23 -10 25 -17 25 -68 l0
-58 -51 2 c-38 1 -55 6 -63 19 -16 25 4 51 43 55 20 2 31 8 28 15 -2 7 -16 11
-31 9 -33 -3 -36 25 -3 31 12 2 23 5 24 6 1 0 14 -4 28 -11z m253 -4 c12 -8
22 -26 22 -39 0 -20 -6 -24 -37 -27 -49 -4 -49 -22 0 -26 51 -4 43 -26 -10
-30 -33 -2 -44 1 -57 20 -19 27 -21 68 -3 90 10 14 21 19 57 27 3 0 16 -6 28
-15z m170 -63 c3 -56 1 -62 -15 -59 -14 2 -19 14 -21 51 -3 39 -6 48 -20 45
-13 -2 -18 -16 -20 -51 -3 -39 -6 -47 -23 -47 -17 0 -19 7 -19 64 l0 65 38 3
c68 6 77 -2 80 -71z m400 70 c44 17 62 -4 62 -72 0 -52 -2 -60 -17 -57 -14 2
-19 15 -21 51 -3 39 -6 48 -20 45 -13 -2 -18 -16 -20 -51 -3 -39 -6 -48 -20
-45 -13 2 -18 16 -20 51 -3 39 -6 48 -20 45 -13 -2 -18 -16 -20 -51 -3 -39 -6
-47 -23 -47 -17 0 -19 7 -19 64 l0 65 38 3 c20 2 46 0 57 -3 11 -4 30 -3 43 2z
m200 -13 c6 -6 12 -21 12 -34 0 -19 -6 -23 -37 -26 -44 -4 -46 -23 -3 -23 22
0 30 -5 30 -17 0 -14 -8 -18 -37 -18 -46 0 -73 24 -73 65 0 64 58 92 108 53z
m143 12 c15 -9 19 -22 19 -70 0 -53 -2 -60 -20 -60 -17 0 -20 7 -20 50 0 43
-3 50 -20 50 -17 0 -20 -7 -20 -50 0 -43 -3 -50 -20 -50 -18 0 -20 7 -20 64
l0 65 38 4 c20 2 38 4 40 5 2 1 12 -3 23 -8z m267 -17 c33 -44 1 -113 -53
-113 -64 0 -89 80 -38 120 30 24 69 20 91 -7z m250 -2 c7 -9 12 -35 10 -61
l-3 -45 -55 0 c-53 0 -55 1 -58 29 -4 31 10 46 46 46 13 0 22 6 22 16 0 12 -6
15 -24 10 -32 -8 -44 12 -14 23 28 12 59 4 76 -18z m150 2 c17 -24 15 -73 -5
-95 -23 -26 -78 -24 -97 4 -23 32 -20 65 10 94 19 20 31 24 52 19 15 -3 33
-13 40 -22z m-11188 3 c0 -9 -12 -16 -27 -18 -24 -3 -28 -8 -28 -33 0 -25 4
-30 28 -33 15 -2 27 -9 27 -18 0 -20 -59 -18 -82 3 -22 20 -24 76 -2 97 20 21
84 22 84 2z m372 0 c4 -6 8 -35 8 -63 0 -46 -3 -53 -20 -53 -17 0 -20 7 -20
48 0 53 -5 63 -26 55 -9 -3 -14 -21 -14 -54 0 -42 -3 -49 -20 -49 -17 0 -20 7
-20 50 0 43 -3 50 -19 50 -17 0 -20 -8 -23 -47 -2 -36 -7 -49 -20 -51 -16 -3
-18 5 -18 62 l0 65 93 0 c57 -1 95 -6 99 -13z m161 -22 c14 -47 -9 -88 -51
-92 -28 -3 -32 -7 -32 -33 0 -24 -4 -30 -17 -27 -15 3 -18 17 -21 96 l-3 93
58 -3 c55 -3 58 -4 66 -34z m117 23 c0 -7 -10 -17 -22 -22 -18 -8 -24 -20 -26
-52 -3 -47 -28 -61 -36 -20 -4 18 -1 101 3 102 1 1 19 1 41 2 26 1 40 -2 40
-10z m362 -1 c4 -6 8 -35 8 -64 0 -46 -3 -53 -17 -50 -13 2 -19 14 -21 43 -4
60 -9 70 -27 55 -9 -8 -15 -30 -15 -56 0 -37 -3 -44 -20 -44 -17 0 -20 7 -20
50 0 43 -3 50 -20 50 -17 0 -20 -7 -20 -50 0 -43 -3 -50 -20 -50 -18 0 -20 7
-20 65 l0 64 93 0 c57 -1 95 -6 99 -13z m148 -5 c20 -39 13 -51 -31 -51 -49 0
-50 -23 -1 -28 47 -5 43 -32 -5 -32 -45 0 -73 24 -73 62 0 50 16 68 60 68 29
0 42 -5 50 -19z m398 -48 c2 -51 0 -63 -12 -63 -11 0 -16 13 -18 48 -3 39 -6
47 -23 47 -17 0 -20 -8 -23 -47 -3 -40 -6 -48 -23 -48 -17 0 -19 7 -19 64 l0
64 58 -1 57 -2 3 -62z m302 48 c37 -69 -23 -137 -90 -101 -27 14 -35 65 -16
95 21 32 89 36 106 6z m228 7 c7 -7 12 -36 12 -65 0 -46 -3 -53 -20 -53 -17 0
-20 7 -20 49 0 28 -4 52 -9 56 -18 10 -41 -26 -41 -66 0 -28 -4 -39 -15 -39
-12 0 -15 14 -15 65 l0 65 48 0 c26 0 53 -5 60 -12z m652 -7 c27 -51 0 -111
-51 -111 -53 0 -84 60 -55 105 21 32 89 36 106 6z m238 -48 c3 -58 1 -63 -18
-63 -17 0 -20 6 -20 51 0 43 -3 50 -17 47 -14 -2 -19 -15 -21 -51 -3 -39 -6
-47 -23 -47 -16 0 -19 7 -19 51 0 43 -3 50 -17 47 -14 -2 -19 -15 -21 -51 -3
-39 -6 -47 -23 -47 -17 0 -19 7 -19 65 l0 65 98 -2 97 -3 3 -62z m432 2 c0
-51 -3 -65 -15 -65 -17 0 -17 -1 -20 65 -2 57 1 65 21 65 11 0 14 -15 14 -65z
m154 49 c3 -9 6 -38 6 -65 0 -42 -3 -49 -20 -49 -17 0 -20 7 -20 49 0 28 -4
52 -8 55 -17 10 -31 -11 -34 -54 -2 -33 -8 -46 -20 -48 -16 -3 -18 5 -18 62
l0 66 54 0 c40 0 55 -4 60 -16z m221 -14 c10 -43 22 -45 35 -5 8 24 18 35 31
35 23 0 21 -10 -12 -87 -26 -61 -50 -58 -74 10 -10 28 -20 58 -23 65 -2 7 4
12 16 12 15 0 22 -9 27 -30z m475 10 c6 -12 10 -40 8 -63 l-3 -42 -55 0 c-55
0 -55 0 -58 32 -3 28 0 33 25 38 48 11 54 15 48 26 -4 6 -18 8 -30 5 -23 -6
-41 5 -28 18 3 3 23 6 44 6 28 0 41 -5 49 -20z m776 -29 c4 -50 7 -56 29 -48
10 5 15 20 15 52 0 38 3 45 20 45 18 0 20 -7 20 -63 l0 -64 -47 -1 c-27 0 -54
4 -60 10 -8 6 -13 34 -13 65 0 45 3 54 16 51 12 -2 18 -16 20 -47z m442 37 c7
-7 12 -22 12 -35 0 -20 -5 -23 -41 -23 -52 0 -49 -24 4 -28 26 -2 34 -7 30
-18 -7 -20 -72 -18 -95 3 -21 19 -24 64 -6 93 15 23 76 28 96 8z m636 -15 c3
-16 4 -39 2 -53 -2 -14 -4 -31 -5 -37 0 -7 -8 -13 -16 -13 -12 0 -15 14 -15
65 0 49 3 65 14 65 8 0 17 -12 20 -27z m146 -38 c0 -58 -2 -65 -20 -65 -18 0
-20 7 -20 65 0 58 2 65 20 65 18 0 20 -7 20 -65z m1414 49 c6 -16 8 -16 24 0
10 9 26 16 36 16 16 0 16 -2 0 -29 -16 -26 -16 -33 -4 -58 8 -15 16 -31 18
-35 9 -19 -39 -6 -49 13 l-11 21 -14 -21 c-9 -12 -24 -21 -36 -21 l-20 0 21
36 c19 32 20 37 6 57 -8 12 -15 25 -15 29 0 15 38 8 44 -8z m694 -51 c2 -51 0
-63 -12 -63 -11 0 -16 13 -18 48 -3 39 -6 47 -23 47 -17 0 -20 -8 -23 -47 -3
-40 -6 -48 -23 -48 -17 0 -19 7 -19 65 l0 66 58 -3 57 -3 3 -62z m202 2 c0
-58 -2 -65 -20 -65 -18 0 -20 7 -20 65 0 58 2 65 20 65 18 0 20 -7 20 -65z
m1440 0 c0 -58 -2 -65 -20 -65 -18 0 -20 7 -20 65 0 58 2 65 20 65 18 0 20 -7
20 -65z m-8060 0 c0 -10 -10 -15 -30 -15 -20 0 -30 5 -30 15 0 10 10 15 30 15
20 0 30 -5 30 -15z m2530 -49 c0 -25 -12 -46 -26 -46 -15 0 -18 18 -8 44 8 20
34 21 34 2z m-4410 -256 c0 -83 -1 -90 -20 -90 -19 0 -20 7 -20 90 0 83 1 90
20 90 19 0 20 -7 20 -90z m70 77 c0 -8 -3 -17 -7 -20 -9 -9 -34 13 -27 24 8
14 34 11 34 -4z m2843 7 c9 -10 -4 -34 -19 -34 -8 0 -14 9 -14 20 0 19 19 27
33 14z m677 -5 c0 -6 -9 -13 -20 -16 -23 -6 -27 -23 -5 -23 8 0 15 -7 15 -15
0 -8 -7 -15 -15 -15 -11 0 -15 -12 -15 -50 0 -43 -3 -50 -20 -50 -17 0 -20 7
-20 49 0 27 -5 51 -11 53 -10 3 -1 26 24 66 10 15 67 16 67 1z m38 -6 c-5 -25
-28 -28 -28 -4 0 12 6 21 16 21 9 0 14 -7 12 -17z m198 6 c10 -17 -13 -36 -27
-22 -12 12 -4 33 11 33 5 0 12 -5 16 -11z m132 -9 c10 -16 10 -20 -1 -20 -7 0
-18 5 -25 12 -9 9 -15 9 -24 0 -7 -7 -18 -12 -25 -12 -11 0 -11 4 -1 20 7 11
24 20 38 20 14 0 31 -9 38 -20z m360 3 c-5 -25 -28 -28 -28 -4 0 12 6 21 16
21 9 0 14 -7 12 -17z m2137 -73 l0 -85 -30 -3 c-57 -5 -70 -3 -82 14 -18 25
-16 74 4 96 9 10 29 18 45 18 23 0 28 4 28 26 0 19 4 25 18 22 15 -3 17 -15
17 -88z m745 1 l0 -90 -29 1 c-15 1 -33 -2 -39 -5 -20 -13 -55 28 -55 66 0 47
19 70 55 65 25 -4 28 -2 28 24 0 21 5 28 20 28 19 0 20 -7 20 -89z m550 -2 c0
-81 -2 -90 -17 -87 -15 3 -19 16 -21 77 -3 83 1 101 23 101 12 0 15 -16 15
-91z m130 83 c0 -4 -10 -13 -22 -21 -21 -13 -21 -13 10 -27 26 -11 32 -19 32
-44 0 -29 -2 -30 -41 -30 -36 0 -40 -2 -28 -16 8 -9 21 -13 35 -10 33 9 40
-12 9 -24 -77 -29 -129 56 -71 115 14 13 27 34 31 45 6 18 45 30 45 12z m296
-3 c10 -17 -13 -36 -27 -22 -12 12 -4 33 11 33 5 0 12 -5 16 -11z m1250 0 c10
-17 -13 -36 -27 -22 -12 12 -4 33 11 33 5 0 12 -5 16 -11z m74 -17 c0 -26 3
-28 29 -24 40 6 66 -33 57 -83 -8 -43 -30 -55 -84 -48 l-42 6 0 82 c0 45 3 85
7 88 16 16 33 5 33 -21z m306 17 c10 -17 -13 -36 -27 -22 -12 12 -4 33 11 33
5 0 12 -5 16 -11z m314 -80 c0 -88 -1 -90 -22 -88 -13 2 -28 0 -35 -4 -24 -15
-62 11 -69 48 -9 50 17 89 57 83 26 -4 29 -2 29 24 0 21 5 28 20 28 19 0 20
-7 20 -91z m-9221 74 c21 -5 23 -10 18 -44 -3 -22 -1 -42 4 -45 14 -8 11 -41
-7 -58 -10 -10 -33 -16 -65 -16 l-49 0 0 85 0 85 38 0 c20 0 48 -3 61 -7z
m-453 -18 c4 -8 12 -15 20 -15 8 0 14 -7 14 -15 0 -8 -7 -15 -15 -15 -10 0
-15 -10 -15 -34 0 -26 5 -35 22 -40 22 -5 22 -6 6 -22 -14 -15 -22 -16 -43 -6
-21 10 -25 18 -25 56 0 25 -5 46 -12 48 -8 3 -6 13 8 31 22 30 32 33 40 12z
m2368 0 c3 -8 12 -15 21 -15 8 0 15 -7 15 -15 0 -8 -7 -15 -15 -15 -10 0 -15
-11 -15 -35 0 -24 5 -35 15 -35 22 0 19 -27 -4 -33 -34 -8 -51 11 -51 58 0 24
-5 45 -12 47 -8 3 -6 13 8 31 22 30 30 33 38 12z m5156 1 c0 -7 9 -16 20 -19
11 -3 20 -10 20 -16 0 -6 -9 -11 -20 -11 -30 0 -29 -65 1 -73 25 -7 20 -31 -7
-35 -33 -4 -47 14 -54 70 -5 39 -3 59 8 76 16 25 32 29 32 8z m1250 -1 c0 -8
6 -15 14 -15 24 0 30 -21 7 -27 -16 -4 -21 -13 -21 -39 0 -23 5 -34 14 -34 21
0 31 -21 15 -31 -37 -23 -61 -1 -69 63 -5 39 -3 59 8 76 16 25 32 29 32 7z
m-9290 -29 c0 -9 -12 -16 -27 -18 -24 -3 -28 -8 -28 -33 0 -25 4 -30 28 -33
33 -4 37 -31 5 -33 -55 -3 -78 15 -78 61 0 42 26 70 66 70 23 0 34 -5 34 -14z
m140 -51 c0 -58 -2 -65 -20 -65 -18 0 -20 7 -20 58 0 61 4 72 27 72 9 0 13
-17 13 -65z m132 48 c10 -9 18 -27 18 -40 0 -20 -5 -23 -40 -23 -22 0 -40 -4
-40 -9 0 -13 30 -22 51 -16 13 4 19 1 19 -9 0 -16 -21 -21 -65 -16 -27 2 -45
28 -45 64 0 57 60 87 102 49z m156 5 c7 -6 12 -33 12 -64 0 -47 -3 -54 -19
-54 -17 0 -20 8 -23 48 -2 34 -7 47 -18 47 -9 0 -16 -11 -18 -25 -6 -52 -13
-70 -27 -70 -12 0 -15 14 -15 63 l0 64 48 1 c26 0 53 -4 60 -10z m250 0 c7 -7
12 -25 12 -40 0 -26 -3 -28 -41 -28 -36 0 -40 -2 -28 -16 8 -9 21 -13 35 -10
32 8 40 -12 10 -24 -70 -26 -128 58 -76 110 22 22 69 27 88 8z m390 -41 c3
-39 6 -48 20 -45 12 2 18 16 22 48 4 32 10 46 23 48 15 3 17 -5 17 -62 l0 -65
-29 1 c-15 1 -32 -1 -37 -4 -5 -3 -19 -2 -31 3 -20 7 -23 15 -23 69 0 53 2 61
18 58 13 -2 18 -15 20 -51z m202 38 c0 -10 -10 -15 -27 -15 l-27 0 34 -28 c23
-20 31 -34 27 -45 -14 -36 -97 -45 -97 -11 0 10 7 13 24 8 36 -9 41 13 6 31
-31 16 -42 58 -17 68 29 12 77 7 77 -8z m130 1 c0 -9 -12 -16 -27 -18 -23 -2
-29 -8 -31 -35 -3 -31 -1 -33 27 -33 21 0 31 -5 31 -15 0 -25 -68 -23 -87 3
-18 22 -16 77 3 96 20 21 84 22 84 2z m124 -2 c10 -10 16 -33 16 -66 0 -47 -2
-50 -22 -45 -12 3 -30 2 -40 -4 -26 -14 -58 6 -58 36 0 26 25 45 59 45 12 0
21 5 21 10 0 6 -13 10 -29 10 -30 0 -46 12 -34 24 12 12 72 6 87 -10z m234 3
c7 -5 12 -32 12 -63 0 -47 -2 -54 -20 -54 -17 0 -20 7 -20 51 0 43 -3 50 -17
47 -14 -2 -19 -15 -21 -51 -3 -39 -6 -47 -23 -47 -16 0 -19 7 -19 51 0 43 -3
50 -17 47 -14 -2 -19 -15 -21 -51 -3 -39 -6 -47 -23 -47 -17 0 -19 7 -19 63
l0 64 88 0 c48 0 93 -4 100 -10z m142 3 c10 -5 20 -21 24 -34 14 -57 -39 -110
-87 -85 -29 16 -37 28 -37 63 0 54 51 82 100 56z m140 -5 c0 -10 -10 -15 -27
-15 l-28 0 33 -26 c38 -31 40 -48 7 -70 -29 -19 -75 -12 -75 11 0 11 7 14 24
9 36 -9 41 13 6 31 -31 16 -42 58 -17 68 29 12 77 7 77 -8z m230 10 c0 -3 -5
-15 -12 -28 -6 -12 -14 -29 -18 -37 -4 -8 -17 -16 -29 -18 -30 -5 -16 -22 19
-22 37 0 50 -33 24 -61 -17 -19 -66 -25 -98 -13 -17 6 -22 49 -7 58 4 3 7 26
4 52 -2 26 2 53 8 60 11 13 109 21 109 9z m114 -11 c10 -10 16 -33 16 -66 0
-47 -2 -50 -22 -45 -12 3 -28 2 -37 -2 -26 -14 -61 5 -61 33 0 27 25 46 59 46
12 0 21 5 21 10 0 6 -13 10 -30 10 -20 0 -30 5 -30 15 0 21 64 20 84 -1z m136
2 c0 -6 -10 -16 -22 -21 -18 -8 -24 -20 -26 -52 -3 -35 -7 -43 -23 -43 -17 0
-19 7 -19 63 l0 64 45 1 c28 0 45 -4 45 -12z m118 2 c7 -7 12 -36 12 -64 0
-51 -1 -53 -29 -52 -15 1 -33 -2 -38 -5 -13 -8 -53 20 -53 38 0 21 29 45 56
45 13 0 24 5 24 10 0 6 -13 10 -30 10 -29 0 -38 9 -23 23 11 12 68 8 81 -5z
m159 0 c8 -6 13 -33 13 -64 0 -47 -3 -54 -19 -54 -17 0 -20 8 -23 48 -2 34 -7
47 -18 47 -10 0 -18 -16 -24 -47 -14 -72 -36 -63 -36 15 l0 62 47 2 c26 1 53
-3 60 -9z m187 -11 c-1 -9 -2 -37 -3 -62 -1 -33 -5 -45 -16 -45 -12 0 -15 14
-15 66 0 57 2 65 18 62 9 -2 16 -11 16 -21z m121 11 c4 -4 -4 -13 -19 -19 -22
-10 -26 -18 -26 -56 0 -36 -3 -43 -20 -43 -18 0 -20 7 -20 63 l0 63 39 0 c22
-1 43 -4 46 -8z m199 -4 c10 -10 16 -33 16 -64 l0 -49 -35 1 c-19 1 -38 -2
-41 -5 -13 -13 -44 14 -44 38 0 26 25 45 59 45 12 0 21 5 21 10 0 6 -13 10
-30 10 -20 0 -30 5 -30 15 0 21 64 20 84 -1z m232 -9 c23 -35 12 -55 -32 -55
-24 0 -34 -4 -31 -12 2 -8 17 -12 36 -10 41 3 42 -23 0 -32 -58 -11 -99 36
-78 91 13 34 26 43 61 43 18 0 33 -8 44 -25z m166 9 c7 -39 -4 -114 -18 -114
-11 0 -14 16 -14 65 0 50 3 65 14 65 8 0 16 -7 18 -16z m128 2 c0 -9 -12 -16
-27 -18 -24 -3 -28 -8 -28 -33 0 -24 5 -31 25 -33 36 -5 45 -18 22 -31 -23
-12 -70 1 -84 22 -13 20 -9 61 8 85 18 26 84 32 84 8z m70 -51 c0 -58 -2 -65
-20 -65 -18 0 -20 7 -20 65 0 58 2 65 20 65 18 0 20 -7 20 -65z m134 43 c28
-40 21 -58 -24 -58 -22 0 -40 -4 -40 -9 0 -13 25 -20 49 -14 14 4 21 1 21 -10
0 -21 -46 -30 -78 -15 -34 17 -43 79 -16 109 24 26 69 25 88 -3z m156 2 c5
-10 10 -39 10 -64 0 -39 -3 -46 -20 -46 -17 0 -20 7 -20 44 0 76 -37 73 -47
-3 -4 -25 -11 -41 -19 -41 -10 0 -14 16 -14 64 l0 63 50 2 c39 0 52 -3 60 -19z
m138 3 c2 -9 -7 -13 -26 -13 -22 0 -31 -6 -35 -21 -9 -33 3 -49 34 -49 37 0
39 -25 3 -34 -42 -11 -74 16 -74 64 0 22 7 45 16 55 19 18 75 17 82 -2z m62
-48 c0 -55 -3 -65 -17 -65 -16 0 -18 9 -16 62 1 35 2 64 2 66 1 1 8 2 16 2 12
0 15 -14 15 -65z m138 53 c7 -7 12 -36 12 -64 0 -58 8 -53 -84 -55 -20 0 -36
17 -36 38 0 20 30 43 56 43 13 0 24 5 24 10 0 6 -13 10 -30 10 -29 0 -38 9
-23 23 11 12 68 8 81 -5z m228 -13 c23 -35 12 -55 -32 -55 -24 0 -34 -4 -31
-12 2 -8 17 -12 36 -10 21 1 31 -2 31 -12 0 -20 -47 -29 -78 -14 -34 17 -43
79 -16 109 25 28 70 25 90 -6z m213 11 c7 -8 13 -37 14 -65 l2 -50 -33 1 c-17
1 -35 -2 -38 -5 -13 -12 -44 14 -44 36 0 29 18 47 47 47 13 0 23 5 23 10 0 6
-13 10 -30 10 -29 0 -38 9 -23 23 12 13 70 7 82 -7z m218 -3 c3 -7 -9 -13 -29
-15 l-33 -3 33 -18 c42 -23 45 -63 5 -78 -34 -13 -73 -4 -73 17 0 12 7 14 30
9 37 -8 41 11 5 27 -30 13 -41 43 -24 64 14 18 80 15 86 -3z m124 7 c12 -7 19
-21 19 -40 0 -28 -2 -30 -41 -30 -36 0 -40 -2 -28 -16 8 -9 21 -13 35 -10 33
9 40 -12 9 -24 -52 -20 -95 8 -95 62 0 55 51 84 101 58z m159 1 c0 -35 -25
-72 -53 -80 l-32 -8 30 -7 c52 -13 55 -15 55 -40 0 -30 -25 -46 -73 -46 -46 0
-65 22 -47 55 8 15 10 39 6 66 -4 26 -2 46 5 55 12 15 109 20 109 5z m60 -36
c0 -33 5 -47 16 -52 21 -8 34 14 34 60 0 31 3 38 18 35 14 -3 18 -16 20 -66
l3 -62 -28 1 c-15 1 -36 -2 -45 -5 -28 -13 -58 27 -58 77 0 46 5 57 27 57 9 0
13 -14 13 -45z m210 31 c0 -8 -11 -17 -25 -20 -22 -6 -25 -12 -25 -51 0 -38
-3 -45 -20 -45 -18 0 -20 7 -20 58 0 32 2 61 5 63 2 3 22 5 45 6 27 1 40 -2
40 -11z m118 2 c7 -7 12 -36 12 -65 0 -49 -2 -53 -22 -51 -13 1 -33 -2 -44 -6
-24 -7 -54 15 -54 39 0 21 29 45 56 45 13 0 24 5 24 10 0 6 -13 10 -30 10 -29
0 -38 9 -23 23 11 12 68 8 81 -5z m162 -7 c5 -11 10 -40 10 -65 0 -39 -3 -46
-19 -46 -17 0 -20 8 -23 48 -3 39 -6 47 -23 47 -17 0 -20 -8 -23 -47 -3 -40
-6 -48 -23 -48 -17 0 -19 7 -19 58 0 32 2 61 4 63 3 3 28 6 55 7 41 2 52 -2
61 -17z m138 2 c2 -9 -7 -13 -27 -13 -24 0 -32 -5 -37 -24 -8 -34 2 -46 37
-46 30 0 40 -17 14 -26 -10 -4 -13 -14 -9 -30 7 -27 -14 -41 -43 -29 -17 7
-17 8 0 14 17 6 16 9 -9 36 -34 37 -39 99 -9 121 23 17 77 15 83 -3z m116 11
c21 -8 24 -128 4 -121 -7 2 -23 0 -36 -4 -35 -13 -64 6 -60 39 2 21 11 29 36
37 40 12 42 25 2 25 -29 0 -38 9 -23 23 8 9 56 9 77 1z m384 -6 c7 -7 12 -36
12 -64 0 -51 -1 -53 -29 -52 -15 1 -33 -2 -39 -6 -19 -12 -52 13 -52 39 0 26
25 45 59 45 12 0 21 5 21 10 0 6 -13 10 -30 10 -20 0 -30 5 -30 15 0 19 70 21
88 3z m132 -3 c0 -10 -10 -15 -27 -15 l-28 0 33 -26 c38 -30 40 -48 8 -70 -31
-19 -70 -15 -74 9 -3 14 1 17 21 12 35 -9 43 11 10 27 -31 15 -43 55 -21 69
23 15 78 11 78 -6z m200 2 c0 -7 -10 -17 -22 -22 -18 -8 -24 -20 -26 -52 -3
-35 -7 -43 -23 -43 -17 0 -19 7 -19 58 0 32 2 61 5 63 10 11 85 7 85 -4z m126
-12 c23 -35 12 -55 -32 -55 -24 0 -34 -4 -31 -12 2 -8 17 -12 36 -10 38 3 44
-23 7 -32 -56 -14 -103 30 -91 85 12 53 82 68 111 24z m290 0 c23 -35 12 -55
-31 -55 -19 0 -35 -4 -35 -9 0 -13 30 -22 51 -16 13 4 19 1 19 -9 0 -22 -43
-30 -77 -14 -23 11 -29 20 -31 54 -4 49 16 74 58 74 20 0 35 -8 46 -25z m124
10 c0 -10 -10 -15 -27 -15 -27 -1 -27 -1 -8 -15 54 -39 58 -56 20 -81 -29 -19
-75 -12 -75 11 0 11 7 14 24 9 36 -9 41 13 6 31 -20 10 -30 23 -30 39 0 31 7
36 52 36 27 0 38 -4 38 -15z m214 -7 c28 -40 21 -58 -24 -58 -22 0 -40 -4 -40
-9 0 -13 25 -20 49 -14 14 4 21 1 21 -10 0 -21 -46 -30 -78 -15 -22 11 -28 21
-30 54 -2 28 2 47 13 58 24 24 71 20 89 -6z m446 8 c0 -7 -11 -18 -25 -24 -21
-10 -25 -19 -25 -52 0 -33 -3 -40 -20 -40 -18 0 -20 7 -20 58 0 32 2 61 5 63
2 3 22 5 45 6 27 1 40 -2 40 -11z m60 -51 c0 -58 -2 -65 -20 -65 -18 0 -20 7
-20 65 0 58 2 65 20 65 18 0 20 -7 20 -65z m130 51 c0 -9 -12 -16 -27 -18 -23
-2 -29 -8 -31 -35 -3 -31 -1 -33 27 -33 39 0 42 -25 5 -34 -42 -11 -74 16 -74
64 0 22 7 45 16 54 20 21 84 22 84 2z m124 -2 c10 -10 16 -33 16 -64 l0 -48
-42 -4 c-54 -6 -78 6 -78 37 0 26 25 45 59 45 12 0 21 5 21 10 0 6 -13 10 -29
10 -30 0 -46 12 -34 24 12 12 72 6 87 -10z m134 -1 c2 -8 -6 -13 -22 -13 -14
0 -26 -4 -26 -10 0 -5 6 -10 14 -10 23 0 47 -40 36 -61 -13 -23 -66 -35 -85
-19 -21 17 -8 31 21 24 33 -8 30 4 -7 36 -28 23 -31 28 -20 49 10 18 19 22 48
19 20 -2 38 -9 41 -15z m272 3 c0 -9 -12 -16 -27 -18 -24 -3 -28 -8 -28 -33 0
-24 5 -31 25 -33 36 -5 45 -18 21 -31 -63 -34 -119 45 -75 107 18 26 84 32 84
8z m132 -3 c28 -25 24 -88 -7 -109 -52 -34 -117 22 -94 82 5 16 16 32 22 36
20 13 60 9 79 -9z m157 8 c8 -5 14 -30 15 -62 1 -43 -2 -54 -16 -57 -14 -3
-17 6 -20 45 -3 40 -6 48 -23 48 -17 0 -20 -8 -23 -47 -3 -40 -6 -48 -23 -48
-17 0 -19 7 -19 63 l0 64 48 1 c26 0 54 -3 61 -7z m241 -5 c0 -7 -11 -18 -25
-24 -21 -10 -25 -19 -25 -52 0 -33 -3 -40 -20 -40 -18 0 -20 7 -20 63 l0 64
45 1 c30 0 45 -4 45 -12z m60 -51 c0 -58 -2 -65 -20 -65 -18 0 -20 7 -20 65 0
58 2 65 20 65 18 0 20 -7 20 -65z m222 18 c3 -40 6 -48 23 -48 17 0 20 8 23
48 3 39 6 47 23 47 17 0 19 -7 19 -65 0 -61 -1 -65 -22 -65 -13 0 -33 -3 -45
-6 -34 -9 -63 27 -63 79 0 46 5 57 26 57 8 0 14 -17 16 -47z m158 -18 c0 -58
-2 -65 -20 -65 -18 0 -20 7 -20 65 0 58 2 65 20 65 18 0 20 -7 20 -65z m150
46 c5 -11 10 -40 10 -65 0 -39 -3 -46 -20 -46 -17 0 -20 7 -20 44 0 25 -5 48
-12 52 -16 10 -38 -25 -38 -63 0 -26 -4 -33 -20 -33 -18 0 -20 7 -20 58 0 32
2 61 4 63 3 3 28 6 55 7 41 2 52 -2 61 -17z m295 3 c26 -26 16 -95 -16 -113
-52 -29 -109 28 -87 89 5 13 15 28 21 32 21 13 65 9 82 -8z m242 -14 c26 -50
-8 -115 -54 -105 -20 5 -23 1 -23 -25 0 -23 -4 -30 -20 -30 -19 0 -20 7 -20
94 l0 94 52 -2 c45 -1 54 -4 65 -26z m131 18 c7 -7 12 -36 12 -66 0 -48 -2
-54 -19 -49 -10 2 -26 0 -35 -5 -27 -15 -69 17 -60 45 8 27 22 37 52 37 12 0
22 5 22 10 0 6 -13 10 -30 10 -29 0 -38 9 -23 23 11 12 68 8 81 -5z m132 -4
c0 -7 -9 -16 -20 -19 -16 -5 -20 -15 -20 -51 0 -37 -3 -44 -20 -44 -18 0 -20
7 -20 64 l0 63 40 0 c26 0 40 -4 40 -13z m124 0 c10 -10 16 -33 16 -66 0 -47
-2 -50 -22 -45 -12 3 -30 2 -40 -4 -26 -14 -58 6 -58 36 0 26 25 45 60 45 12
0 18 5 15 10 -3 6 -19 10 -36 10 -28 0 -37 9 -22 23 12 13 72 7 87 -9z m230
-6 c17 -24 21 -65 8 -84 -35 -53 -122 -29 -122 34 0 44 26 72 65 72 24 0 39
-7 49 -22z m-10431 -85 c9 -9 -13 -34 -24 -27 -14 8 -11 34 4 34 8 0 17 -3 20
-7z m7949 -18 c-5 -27 -23 -48 -33 -38 -14 15 2 64 20 61 10 -2 15 -11 13 -23z
m-8682 -244 l0 -89 -37 -5 c-55 -7 -83 14 -83 62 0 44 26 74 62 69 19 -2 24 2
26 25 2 15 9 27 18 27 11 0 14 -18 14 -89z m920 1 c0 -93 -3 -104 -26 -95 -11
4 -14 27 -14 94 0 82 1 89 20 89 18 0 20 -7 20 -88z m206 77 c10 -17 -13 -36
-27 -22 -12 12 -4 33 11 33 5 0 12 -5 16 -11z m1102 -81 l-3 -92 -49 0 c-55 1
-66 12 -66 66 0 44 24 72 57 65 18 -3 23 0 23 18 0 25 8 35 27 35 11 0 13 -19
11 -92z m982 77 c0 -8 -7 -15 -15 -15 -20 0 -19 -10 2 -25 15 -11 15 -13 -5
-24 -18 -9 -22 -21 -22 -56 0 -33 -4 -45 -15 -45 -11 0 -15 12 -15 49 0 30 -5
51 -12 54 -10 4 -10 7 0 18 6 7 12 21 12 30 0 19 13 27 48 28 13 1 22 -5 22
-14z m1630 5 c0 -12 -40 -34 -47 -26 -9 8 17 36 33 36 8 0 14 -4 14 -10z m186
-1 c3 -6 2 -15 -2 -19 -12 -12 -38 5 -30 19 9 14 23 14 32 0z m894 -3 c0 -8
-5 -18 -11 -22 -14 -8 -33 11 -25 25 10 16 36 13 36 -3z m1297 -11 c-24 -21
-25 -25 -10 -25 31 0 43 -21 43 -76 0 -51 -12 -76 -25 -54 -4 7 -13 7 -26 -1
-48 -25 -91 29 -49 63 12 10 31 18 41 18 10 0 19 5 19 10 0 6 -13 10 -30 10
-31 0 -41 16 -15 26 8 4 15 12 15 18 0 19 22 36 45 36 18 -1 18 -3 -8 -25z
m381 -67 c-2 -75 -6 -93 -18 -93 -12 0 -16 17 -18 79 -3 89 0 106 23 106 13 0
15 -14 13 -92z m1022 78 c0 -7 -10 -17 -22 -21 -20 -6 -20 -8 -5 -12 21 -5 23
-33 3 -33 -11 0 -16 -15 -18 -52 -2 -39 -7 -53 -18 -53 -11 0 -16 14 -18 53
-2 28 -7 52 -12 52 -10 0 6 44 23 68 13 17 67 16 67 -2z m45 -6 c0 -22 -29
-18 -33 3 -3 14 1 18 15 15 10 -2 18 -10 18 -18z m118 -2 l-22 -22 22 -11 c18
-9 22 -20 25 -70 l3 -60 -51 0 c-52 1 -75 16 -65 43 3 8 5 18 5 22 0 5 16 12
35 16 43 8 46 24 5 24 -34 0 -40 15 -10 25 11 4 18 11 14 16 -9 15 16 39 39
39 l21 0 -21 -22z m377 -67 c0 -88 -11 -121 -31 -90 -10 16 -12 163 -2 172 3
4 12 7 20 7 10 0 13 -22 13 -89z m608 -3 c-2 -75 -6 -93 -18 -93 -12 0 -16 18
-18 93 -3 87 -2 92 18 92 20 0 21 -5 18 -92z m328 81 c10 -17 -13 -36 -27 -22
-12 12 -4 33 11 33 5 0 12 -5 16 -11z m-626 -56 c9 -29 18 -55 21 -58 4 -3 14
22 23 55 14 48 21 60 38 60 12 0 18 -5 15 -12 -2 -7 -15 -45 -28 -85 -35 -109
-60 -108 -98 6 -26 79 -26 93 -4 89 11 -2 23 -22 33 -55z m-7711 17 c6 0 11
-7 11 -15 0 -8 -7 -15 -16 -15 -12 0 -14 -9 -12 -37 2 -21 8 -38 15 -38 20 0
24 -12 8 -25 -12 -10 -21 -10 -40 -2 -21 10 -25 18 -25 57 0 25 -5 45 -10 45
-6 0 0 14 12 31 19 26 24 28 34 15 6 -9 16 -16 23 -16z m1661 15 c0 -8 9 -15
20 -15 26 0 26 -26 -1 -33 -16 -4 -20 -12 -17 -39 2 -21 8 -33 18 -33 23 0 18
-30 -5 -33 -34 -4 -48 14 -55 70 -5 39 -3 59 8 76 16 25 32 29 32 7z m1533
-18 c23 -9 22 -27 -3 -27 -16 0 -20 -7 -20 -35 0 -28 4 -35 20 -35 25 0 26
-27 1 -35 -41 -13 -54 4 -64 85 -5 43 21 90 37 68 6 -8 19 -17 29 -21z m1723
18 c4 -8 12 -15 20 -15 8 0 14 -7 14 -15 0 -8 -7 -15 -15 -15 -10 0 -15 -10
-15 -34 0 -26 5 -35 22 -40 22 -5 22 -6 6 -22 -14 -15 -22 -16 -43 -6 -21 10
-25 18 -25 56 0 26 -5 46 -12 48 -9 3 -8 9 5 22 9 10 17 22 17 27 0 15 20 10
26 -6z m427 -18 c20 -8 14 -27 -9 -27 -9 0 -14 -11 -14 -36 0 -28 5 -37 20
-41 26 -7 21 -27 -7 -31 -31 -5 -53 24 -53 69 0 21 -5 39 -10 39 -6 0 0 14 12
31 18 24 25 27 33 16 5 -7 18 -16 28 -20z m-6969 -13 c9 -8 16 -26 16 -40 0
-21 -4 -24 -40 -24 -22 0 -40 -4 -40 -9 0 -14 29 -22 56 -15 30 8 32 -11 3
-26 -44 -24 -98 10 -99 63 0 54 68 88 104 51z m120 10 c26 -10 18 -23 -16 -26
l-33 -3 33 -18 c40 -22 44 -62 8 -78 -31 -14 -76 -4 -76 17 0 12 7 14 30 9 19
-4 30 -3 30 4 0 6 -13 17 -30 26 -62 32 -13 95 54 69z m137 -4 c12 -7 19 -21
19 -40 0 -28 -2 -30 -40 -30 -22 0 -40 -4 -40 -9 0 -14 29 -22 56 -15 18 5 24
2 24 -10 0 -33 -81 -31 -107 3 -44 58 23 135 88 101z m157 -2 c7 -6 12 -33 12
-64 0 -47 -2 -54 -20 -54 -17 0 -20 7 -20 51 0 43 -3 50 -17 47 -14 -2 -19
-15 -21 -51 -3 -39 -6 -47 -23 -47 -17 0 -19 7 -19 63 l0 64 48 1 c26 0 53 -4
60 -10z m82 -30 c16 -36 20 -39 25 -23 16 49 26 65 40 65 20 0 19 -8 -6 -75
-16 -44 -25 -55 -42 -55 -18 0 -26 12 -44 59 -11 33 -19 62 -15 65 13 13 24 4
42 -36z m204 23 c27 -30 18 -91 -16 -111 -25 -13 -31 -13 -55 0 -57 32 -36
130 27 130 15 0 35 -9 44 -19z m154 -22 l18 -42 16 42 c10 24 23 41 32 41 20
0 20 -1 -5 -71 -32 -87 -54 -87 -88 -1 -25 63 -26 72 -6 72 9 0 24 -18 33 -41z
m140 -23 c2 -40 -1 -62 -9 -67 -23 -14 -29 1 -29 67 0 57 2 65 18 62 13 -3 18
-15 20 -62z m219 56 c7 -1 13 -26 15 -62 3 -56 1 -61 -17 -58 -11 2 -19 10
-17 18 6 27 -9 80 -22 80 -15 0 -26 -30 -26 -72 0 -22 -5 -28 -21 -28 -13 0
-20 6 -18 18 4 47 -2 82 -15 82 -17 0 -26 -22 -26 -66 0 -27 -4 -34 -20 -34
-18 0 -20 7 -20 58 0 32 2 61 5 64 4 4 151 4 182 0z m147 -8 c9 -8 16 -26 16
-40 0 -21 -4 -24 -40 -24 -22 0 -40 -4 -40 -9 0 -13 34 -23 53 -16 21 9 30
-10 12 -25 -19 -16 -74 -6 -91 18 -47 61 37 150 90 96z m153 4 c13 -10 19
-109 7 -121 -3 -3 -12 -3 -20 0 -9 3 -14 21 -14 55 0 42 -3 49 -17 46 -14 -2
-19 -15 -21 -51 -3 -39 -6 -47 -23 -47 -17 0 -19 7 -19 63 l0 62 47 2 c26 1
53 -3 60 -9z m251 -4 c16 -11 22 -25 22 -54 0 -29 -6 -43 -22 -54 -32 -23 -55
-20 -85 10 -20 20 -24 31 -19 57 11 54 58 73 104 41z m464 -1 c10 -9 18 -27
18 -40 0 -20 -5 -23 -40 -23 -22 0 -40 -4 -40 -9 0 -13 30 -22 51 -16 13 4 19
1 19 -9 0 -23 -49 -32 -79 -15 -33 19 -41 81 -15 110 21 23 61 25 86 2z m246
-35 c5 -80 52 -66 52 16 0 24 5 36 14 36 9 0 15 -17 18 -51 7 -71 1 -91 -22
-79 -13 7 -21 7 -25 0 -9 -15 -42 -12 -59 6 -11 10 -16 34 -16 70 0 47 3 55
18 52 13 -2 18 -15 20 -50z m310 40 c12 -11 17 -109 6 -121 -3 -3 -12 -3 -20
0 -9 3 -14 21 -14 55 0 42 -3 49 -17 46 -13 -2 -19 -16 -23 -51 -3 -26 -8 -47
-12 -47 -5 0 -12 0 -17 0 -6 0 -11 21 -13 48 -2 34 -7 47 -18 47 -11 0 -16
-14 -20 -48 -3 -26 -8 -47 -12 -47 -5 0 -12 0 -18 0 -6 0 -10 28 -10 63 l0 62
88 2 c48 0 93 -4 100 -9z m342 -37 c0 -32 5 -51 14 -54 22 -9 36 14 36 61 0
36 3 43 18 40 14 -3 18 -16 20 -66 3 -56 1 -62 -16 -62 -11 0 -33 -3 -49 -6
-43 -8 -63 16 -63 75 0 50 5 61 27 61 9 0 13 -15 13 -49z m260 6 c0 -24 5 -48
12 -55 20 -20 38 6 38 55 0 37 3 44 18 41 13 -3 18 -15 20 -64 l3 -61 -42 -6
c-52 -7 -68 -1 -80 30 -10 28 -12 87 -2 96 19 20 33 5 33 -36z m210 29 c0 -7
-11 -18 -24 -24 -20 -9 -25 -20 -28 -54 -2 -30 -7 -43 -18 -43 -11 0 -16 14
-18 54 -2 29 -1 59 1 65 7 17 87 18 87 2z m118 -2 c45 -31 16 -124 -38 -124
-12 0 -32 12 -47 26 -20 20 -24 31 -19 57 11 54 58 73 104 41z m314 -1 c10 -9
18 -27 18 -40 0 -20 -5 -23 -41 -23 -28 0 -39 -4 -36 -12 2 -7 18 -12 36 -12
39 2 43 -23 4 -32 -43 -11 -77 14 -81 60 -6 65 54 101 100 59z m155 5 c18 -15
17 -114 -1 -121 -21 -8 -26 2 -26 50 0 30 -5 45 -15 50 -22 8 -25 2 -33 -51
-10 -67 -26 -61 -32 12 -3 35 -4 64 -3 65 7 8 100 3 110 -5z m144 -9 c31 -31
21 -53 -24 -57 -24 -2 -37 -8 -34 -15 2 -7 18 -11 36 -9 39 3 43 -25 4 -34
-37 -10 -77 15 -84 51 -13 71 53 113 102 64z m129 4 c0 -7 -8 -17 -17 -20 -25
-9 -33 -23 -33 -59 0 -36 -6 -45 -26 -37 -10 4 -14 23 -14 62 0 32 2 60 4 62
3 2 23 5 45 5 29 1 41 -3 41 -13z m140 12 c0 -3 -5 -15 -12 -28 -6 -12 -14
-29 -18 -37 -4 -8 -17 -16 -29 -18 -30 -5 -16 -22 19 -22 37 0 50 -33 24 -61
-14 -15 -28 -19 -63 -17 -39 3 -46 6 -49 26 -2 13 1 28 6 35 5 7 7 32 5 56 -1
24 2 50 8 58 11 12 109 20 109 8z m114 -11 c9 -8 16 -26 16 -40 0 -21 -4 -24
-40 -24 -22 0 -40 -4 -40 -9 0 -14 34 -23 55 -15 13 5 16 3 13 -12 -5 -26 -73
-25 -93 2 -47 63 35 153 89 98z m186 -47 c0 -68 -4 -79 -26 -70 -10 4 -14 23
-14 62 0 60 4 71 27 71 9 0 13 -17 13 -63z m127 46 c3 -7 -8 -13 -24 -15 -23
-2 -29 -8 -31 -35 -3 -33 2 -38 41 -33 28 3 17 -34 -11 -38 -13 -2 -34 4 -48
12 -33 23 -34 88 -1 111 24 17 68 17 74 -2z m133 -3 c26 -26 26 -70 0 -98 -26
-28 -50 -28 -84 -1 -48 38 -22 119 39 119 14 0 34 -9 45 -20z m398 8 c17 -15
16 -114 -2 -121 -21 -8 -26 2 -26 55 0 36 -4 48 -15 48 -15 0 -22 -20 -27 -75
-2 -19 -9 -30 -18 -30 -11 0 -16 14 -18 53 -2 37 -7 52 -17 52 -15 0 -22 -21
-27 -75 -2 -19 -9 -30 -18 -30 -11 0 -16 14 -18 54 -2 29 -1 59 1 65 6 15 167
18 185 4z m147 -4 c11 -12 15 -31 13 -66 l-3 -50 -40 -3 c-55 -4 -77 10 -73
43 2 22 10 29 41 36 44 11 49 26 7 26 -29 0 -38 9 -23 23 12 13 62 7 78 -9z
m85 -47 c0 -68 -4 -79 -26 -70 -10 4 -14 23 -14 62 0 60 4 71 27 71 9 0 13
-17 13 -63z m118 46 c2 -8 -6 -13 -22 -13 -34 0 -33 -11 4 -32 34 -19 38 -39
14 -63 -22 -21 -78 -16 -82 7 -3 15 2 17 27 12 39 -8 40 6 1 28 -50 28 -33 82
24 76 16 -2 31 -9 34 -15z m290 0 c2 -8 -6 -13 -22 -13 -33 0 -33 -13 -1 -28
34 -16 34 -58 1 -73 -31 -14 -76 -4 -76 17 0 12 7 14 30 9 37 -8 41 11 5 27
-30 13 -41 43 -24 64 15 18 80 15 87 -3z m72 -36 c3 -26 8 -47 13 -47 4 0 11
0 16 0 6 0 11 21 13 47 2 37 7 49 21 51 16 3 18 -3 15 -63 l-3 -67 -40 -3
c-64 -4 -75 7 -75 76 0 52 2 60 18 57 12 -2 18 -16 22 -51z m200 38 c0 -9 -9
-15 -25 -15 -14 0 -25 -4 -25 -10 0 -5 6 -10 14 -10 18 0 46 -27 46 -45 0 -42
-91 -62 -98 -23 -3 15 2 17 27 12 39 -8 41 10 4 28 -53 25 -37 78 23 78 24 0
34 -5 34 -15z m234 -1 c9 -8 16 -26 16 -40 0 -21 -4 -24 -40 -24 -22 0 -40 -4
-40 -9 0 -14 29 -22 56 -15 18 5 24 2 24 -10 0 -33 -81 -31 -107 3 -46 60 39
148 91 95z m154 4 c12 -10 17 -109 6 -121 -3 -3 -12 -3 -20 0 -9 3 -14 21 -14
55 0 42 -3 49 -17 46 -14 -2 -19 -16 -23 -53 -4 -36 -9 -50 -20 -50 -12 0 -16
15 -18 66 l-3 66 48 1 c26 0 54 -4 61 -10z m330 -29 l18 -42 16 42 c10 25 23
41 33 41 20 0 17 -21 -15 -95 -27 -62 -47 -57 -77 20 -27 70 -28 75 -8 75 9 0
24 -18 33 -41z m210 8 c18 -36 9 -47 -40 -47 -36 0 -39 -2 -27 -16 9 -11 22
-14 41 -10 36 7 39 -21 4 -30 -75 -18 -124 67 -70 121 26 25 76 16 92 -18z
m373 12 c31 -31 21 -53 -24 -57 -24 -2 -37 -8 -34 -15 2 -7 18 -11 36 -9 33 2
45 -21 15 -32 -31 -12 -55 -6 -81 20 -20 20 -24 31 -19 57 11 57 67 76 107 36z
m299 6 c0 -9 -9 -15 -25 -15 -18 0 -26 -7 -31 -24 -8 -33 2 -46 32 -46 36 0
28 -34 -8 -38 -58 -7 -91 75 -48 118 24 24 80 27 80 5z m128 -1 c33 -23 31
-88 -4 -110 -67 -44 -135 53 -78 111 20 19 54 19 82 -1z m162 2 c17 -21 9
-121 -10 -121 -11 0 -16 14 -18 53 -3 44 -6 53 -20 50 -12 -2 -18 -17 -22 -53
-4 -36 -9 -50 -20 -50 -11 0 -16 14 -18 54 -2 29 -1 59 1 65 7 17 93 18 107 2z
m175 -56 c0 -51 -3 -65 -15 -65 -12 0 -16 16 -18 68 -3 62 -1 68 15 65 15 -3
18 -14 18 -68z m217 28 l14 -42 17 42 c15 38 34 52 50 36 3 -3 2 -14 -3 -23
-5 -9 -18 -37 -29 -63 -29 -69 -47 -64 -80 25 -26 70 -25 67 -2 67 14 0 23
-12 33 -42z m204 17 c23 -35 12 -55 -32 -55 -24 0 -34 -4 -31 -12 2 -7 18 -12
36 -12 38 2 43 -23 5 -32 -57 -14 -104 38 -83 93 13 34 26 43 61 43 18 0 33
-8 44 -25z m599 9 c11 -12 15 -31 13 -66 l-3 -50 -45 -3 c-51 -4 -70 7 -70 41
0 25 26 44 59 44 12 0 21 5 21 10 0 6 -13 10 -30 10 -29 0 -38 9 -23 23 12 13
62 7 78 -9z m212 8 c23 -15 34 -62 21 -90 -31 -64 -118 -46 -118 25 0 20 7 45
17 55 16 18 58 24 80 10z m143 -9 c0 -7 -11 -18 -24 -23 -20 -7 -25 -17 -28
-52 -2 -30 -7 -43 -18 -43 -11 0 -16 14 -18 54 -2 29 -1 59 1 65 7 17 87 17
87 -1z m58 -50 c-2 -53 -6 -68 -18 -68 -11 0 -16 14 -18 54 -4 63 2 81 23 81
13 0 15 -11 13 -67z m127 57 c4 -6 -5 -26 -19 -45 -32 -41 -33 -52 -3 -51 13
1 22 -5 22 -14 0 -11 -13 -16 -44 -18 -61 -5 -70 9 -38 56 33 47 33 52 2 52
-24 0 -32 10 -18 23 10 11 91 8 98 -3z m116 0 c15 -9 19 -22 19 -65 0 -51 -11
-77 -25 -55 -4 7 -12 7 -25 0 -10 -5 -23 -10 -29 -10 -14 0 -41 29 -41 45 0
21 29 45 56 45 13 0 24 5 24 10 0 6 -13 10 -30 10 -29 0 -38 9 -23 23 10 10
52 8 74 -3z m250 -10 c15 -24 7 -115 -11 -115 -11 0 -16 14 -20 50 -4 36 -9
50 -20 50 -11 0 -16 -14 -20 -50 -4 -35 -10 -51 -21 -53 -13 -2 -17 8 -21 48
-3 28 -8 53 -12 57 -12 12 -30 -17 -35 -59 -4 -29 -11 -43 -21 -43 -12 0 -15
13 -15 60 -1 33 0 62 2 66 1 3 43 5 93 4 69 0 93 -4 101 -15z m137 4 c45 -31
16 -124 -38 -124 -12 0 -32 12 -47 26 -20 20 -24 31 -19 57 11 54 58 73 104
41z m137 -4 c0 -10 -8 -14 -27 -12 -36 4 -35 -4 2 -23 57 -29 29 -91 -38 -83
-17 2 -28 10 -30 21 -3 16 1 18 27 12 39 -8 40 5 1 27 -53 30 -33 81 30 76 23
-2 35 -8 35 -18z m294 6 c7 -8 11 -37 9 -66 l-3 -52 -42 -4 c-43 -4 -73 13
-73 41 0 17 38 45 62 45 10 0 18 5 18 10 0 6 -13 10 -30 10 -29 0 -38 9 -23
23 12 13 70 7 82 -7z m-1926 -92 c9 -10 -4 -34 -18 -34 -17 0 -28 17 -20 30 7
11 28 13 38 4z m-9313 -208 c-13 -13 -35 7 -25 24 5 8 11 8 21 -1 10 -8 12
-15 4 -23z m724 19 c3 -9 -1 -18 -10 -22 -19 -7 -28 2 -21 22 8 19 23 19 31 0z
m147 -17 c1 -18 2 -60 2 -92 l0 -60 -42 -2 c-51 -3 -81 21 -81 64 0 45 27 75
61 68 27 -5 29 -3 29 24 0 43 30 41 31 -2z m297 -59 l-3 -91 -40 -3 c-52 -3
-75 17 -75 65 0 43 28 75 60 67 16 -4 20 0 20 17 0 26 8 36 27 36 11 0 13 -19
11 -91z m632 81 c0 -12 -40 -34 -47 -26 -9 8 17 36 33 36 8 0 14 -4 14 -10z
m186 -1 c10 -17 -13 -36 -27 -22 -12 12 -4 33 11 33 5 0 12 -5 16 -11z m1212
-21 c2 -20 8 -25 22 -21 37 10 60 -14 60 -62 0 -58 -19 -76 -73 -71 l-42 4 -3
92 c-3 83 -1 91 15 88 11 -2 19 -14 21 -30z m292 -64 c0 -86 -2 -95 -17 -92
-15 3 -18 16 -19 88 -1 93 0 100 22 100 11 0 14 -19 14 -96z m75 66 c0 -22 4
-25 31 -22 43 4 56 -16 52 -80 -2 -39 -7 -53 -18 -53 -11 0 -16 14 -20 50 -4
36 -9 50 -20 50 -11 0 -16 -14 -20 -50 -4 -37 -9 -51 -22 -53 -16 -3 -18 7
-18 93 0 87 2 96 18 93 10 -2 17 -13 17 -28z m1275 10 c0 -11 -6 -20 -13 -20
-19 0 -27 10 -20 26 8 21 33 17 33 -6z m2105 9 c4 -6 -2 -13 -14 -16 -25 -6
-27 -18 -6 -27 19 -7 20 -26 1 -26 -11 0 -16 -15 -18 -52 -2 -41 -7 -54 -20
-56 -15 -3 -18 4 -18 45 0 27 -5 54 -12 61 -9 9 -9 15 0 24 7 7 12 20 12 29 0
26 61 41 75 18z m1290 -84 c0 -78 -2 -90 -17 -93 -16 -3 -18 7 -18 93 0 86 2
96 18 93 15 -3 17 -15 17 -93z m75 66 c0 -25 3 -28 25 -23 41 7 55 -13 55 -80
0 -51 -2 -59 -17 -56 -13 2 -19 16 -23 51 -3 26 -8 47 -12 47 -5 0 -12 0 -17
0 -6 0 -11 -21 -13 -47 -2 -35 -7 -48 -18 -48 -12 0 -16 18 -18 93 -3 87 -2
92 18 92 15 0 20 -6 20 -29z m407 14 c7 -20 -2 -29 -21 -22 -9 4 -13 13 -10
22 8 19 23 19 31 0z m853 7 c0 -12 -49 -37 -56 -29 -11 10 17 37 37 37 11 0
19 -4 19 -8z m658 -84 l-3 -92 -42 -2 c-58 -3 -78 14 -77 65 2 53 19 74 56 67
26 -5 28 -3 28 24 0 24 4 30 20 30 20 0 21 -5 18 -92z m-9965 39 c23 -9 22
-27 -3 -27 -30 0 -29 -69 0 -77 26 -7 20 -27 -9 -31 -34 -5 -51 16 -51 64 0
24 -5 44 -10 44 -6 0 0 14 12 31 18 24 25 27 33 16 5 -7 18 -16 28 -20z m1650
0 c23 -9 22 -23 -3 -30 -29 -7 -28 -67 0 -74 27 -7 20 -27 -9 -31 -33 -5 -44
10 -51 70 -5 40 -3 59 8 77 13 19 18 21 26 9 6 -8 19 -17 29 -21z m967 -19 c0
-3 -9 -8 -20 -11 -30 -8 -24 -77 6 -77 8 0 14 -4 14 -9 0 -16 -20 -23 -46 -17
-21 6 -24 12 -24 51 0 24 -4 47 -10 50 -15 9 -12 19 10 43 l20 21 25 -23 c14
-13 25 -26 25 -28z m6566 37 c4 -8 12 -15 20 -15 8 0 14 -7 14 -15 0 -8 -7
-15 -15 -15 -11 0 -15 -11 -15 -41 0 -32 3 -40 15 -35 10 4 15 -1 15 -14 0
-13 -7 -20 -19 -20 -41 0 -51 11 -51 54 0 23 -5 47 -11 53 -8 8 -6 18 7 37 22
29 32 32 40 11z m-9443 -85 c1 -51 -2 -65 -14 -65 -10 0 -15 15 -17 54 -3 60
3 84 19 79 6 -2 11 -31 12 -68z m144 58 c8 -6 13 -33 13 -70 0 -51 -2 -59 -17
-56 -14 2 -19 16 -23 53 -4 36 -9 50 -20 50 -11 0 -16 -14 -20 -50 -4 -36 -9
-50 -20 -50 -11 0 -16 14 -18 54 -2 29 -1 59 1 65 6 15 87 18 104 4z m244 2
c12 -7 19 -21 19 -40 0 -28 -2 -30 -41 -30 -37 0 -40 -2 -28 -16 9 -11 22 -14
41 -10 31 6 41 -17 12 -28 -33 -13 -63 -5 -84 21 -48 61 13 139 81 103z m162
4 c3 -3 1 -16 -5 -28 -6 -11 -14 -28 -18 -36 -4 -8 -17 -16 -29 -18 -32 -5
-25 -20 10 -24 78 -8 52 -78 -28 -78 -51 0 -61 15 -45 67 7 23 7 44 1 60 -14
38 12 63 66 63 23 0 44 -3 48 -6z m53 -5 c4 -8 9 -8 17 0 17 17 37 13 37 -8 0
-10 -9 -21 -20 -24 -12 -3 -20 -14 -21 -29 -3 -56 -5 -63 -21 -66 -16 -3 -18
5 -18 67 0 66 9 87 26 60z m116 -59 c0 -52 -3 -66 -16 -68 -14 -3 -16 7 -16
68 0 61 2 71 16 68 13 -2 16 -16 16 -68z m282 57 c13 -10 17 -24 14 -66 l-3
-53 -42 -4 c-84 -8 -102 61 -20 81 34 9 36 29 2 23 -27 -6 -41 5 -30 22 9 14
58 12 79 -3z m298 -4 c10 -9 18 -27 18 -40 0 -20 -5 -23 -41 -23 -28 0 -39 -4
-36 -12 2 -7 18 -13 35 -13 33 0 44 -18 16 -29 -29 -11 -54 -6 -74 14 -58 58
21 158 82 103z m282 4 c13 -10 17 -24 14 -66 l-3 -53 -43 -3 c-84 -6 -101 60
-19 80 36 9 35 25 -3 25 -29 0 -38 9 -23 23 11 12 58 8 77 -6z m218 -4 c10 -9
18 -27 18 -40 0 -20 -5 -23 -41 -23 -48 0 -51 -24 -3 -26 45 -2 47 -3 34 -19
-18 -21 -66 -19 -90 5 -58 58 21 158 82 103z m188 -54 c0 -62 -2 -70 -17 -67
-14 2 -19 15 -21 57 -4 63 2 81 23 81 12 0 15 -14 15 -71z m125 51 c0 -9 -10
-15 -25 -15 -20 0 -26 -6 -28 -29 -4 -32 13 -49 41 -40 14 5 18 1 15 -13 -4
-24 -43 -29 -74 -9 -52 34 -17 131 44 124 16 -2 27 -9 27 -18z m130 4 c11 -12
15 -31 13 -66 l-3 -50 -47 -4 c-53 -4 -74 12 -64 50 5 19 15 27 41 32 19 3 35
11 35 16 0 6 -11 8 -25 6 -27 -6 -41 5 -30 22 10 16 62 12 80 -6z m217 -1 c10
-9 18 -27 18 -40 0 -20 -5 -23 -41 -23 -48 0 -51 -24 -3 -26 45 -2 47 -3 34
-19 -18 -21 -66 -19 -90 5 -58 58 21 158 82 103z m216 1 c47 -33 16 -124 -42
-124 -35 0 -69 46 -62 84 11 52 60 71 104 40z m258 5 c4 -8 9 -8 17 0 16 16
37 13 37 -5 0 -9 -9 -18 -19 -21 -20 -5 -31 -31 -31 -76 0 -22 -4 -28 -17 -25
-10 2 -18 11 -17 21 0 9 1 40 2 67 2 47 13 63 28 39z m174 -5 c8 -8 14 -38 14
-66 l1 -51 -47 -3 c-52 -3 -72 11 -66 48 2 17 13 25 43 34 31 9 36 13 23 19
-10 4 -25 5 -33 2 -19 -8 -31 13 -14 24 22 14 65 10 79 -7z m294 3 c13 -10 17
-24 14 -66 -3 -53 -3 -54 -38 -57 -46 -4 -68 3 -75 25 -9 30 5 50 41 57 19 3
34 11 34 16 0 6 -11 8 -25 6 -27 -6 -41 5 -30 22 9 14 58 12 79 -3z m381 -2
c25 -20 25 -77 0 -105 -39 -43 -105 -10 -105 54 0 56 59 85 105 51z m217 -2
c10 -9 18 -27 18 -40 0 -20 -5 -23 -41 -23 -28 0 -39 -4 -36 -12 2 -7 18 -12
36 -11 45 2 39 -31 -6 -35 -60 -6 -95 63 -57 116 18 26 60 29 86 5z m73 7 c4
-6 13 -5 25 2 14 9 25 9 44 0 16 -7 28 -8 31 -2 11 18 54 11 65 -10 16 -30 9
-115 -10 -115 -11 0 -16 14 -20 50 -4 36 -9 50 -20 50 -11 0 -16 -14 -20 -50
-4 -37 -9 -51 -22 -53 -15 -3 -18 4 -18 47 0 28 -4 51 -10 51 -5 0 -13 0 -17
0 -5 0 -10 -21 -13 -47 -4 -35 -10 -49 -22 -51 -16 -3 -18 5 -18 67 0 65 9 87
25 61z m377 -7 c10 -9 18 -27 18 -40 0 -20 -5 -23 -41 -23 -28 0 -39 -4 -36
-12 2 -7 18 -12 36 -11 25 1 31 -3 29 -15 -4 -23 -54 -27 -84 -7 -29 19 -33
78 -7 107 20 22 61 23 85 1z m158 -79 c0 -50 -3 -93 -6 -97 -13 -13 -34 7 -34
33 0 23 -3 27 -20 23 -31 -8 -60 24 -60 65 0 51 22 71 76 69 l44 -2 0 -91z
m80 43 c3 -26 8 -47 13 -47 4 0 11 0 16 0 6 0 11 21 13 47 2 37 7 49 21 51 16
3 18 -3 15 -63 l-3 -67 -45 -3 c-60 -5 -70 6 -70 77 0 51 2 59 18 56 12 -2 18
-16 22 -51z m151 41 c-1 -5 -1 -35 -1 -68 0 -47 -3 -60 -15 -60 -12 0 -15 15
-15 71 0 58 3 70 16 67 8 -2 15 -6 15 -10z m149 -8 c30 -47 -5 -129 -50 -117
-17 4 -20 0 -20 -24 0 -22 -5 -29 -20 -29 -19 0 -20 7 -20 93 l0 94 50 -1 c33
-1 54 -6 60 -16z m127 12 c15 -9 34 -58 26 -66 -4 -3 -24 -6 -45 -6 -21 0 -38
-4 -38 -10 0 -11 39 -23 59 -18 23 5 23 -20 1 -27 -30 -10 -79 4 -90 25 -34
63 31 138 87 102z m278 -12 c0 -10 -8 -14 -22 -12 -13 2 -23 -2 -23 -7 0 -6 5
-11 10 -11 13 0 50 -37 50 -49 0 -34 -76 -55 -99 -28 -15 18 -3 28 24 21 13
-3 26 -1 29 5 4 6 2 11 -4 11 -6 0 -22 12 -36 26 -25 24 -25 26 -8 45 21 24
79 23 79 -1z m128 8 c9 -7 18 -24 19 -38 3 -22 -1 -25 -35 -28 -47 -4 -45 -28
2 -25 44 2 39 -31 -5 -35 -63 -6 -102 62 -64 111 23 29 56 35 83 15z m152 2
c3 -4 18 -3 34 3 45 17 61 -3 61 -74 0 -45 -3 -59 -14 -59 -11 0 -16 14 -18
48 -3 39 -6 47 -23 47 -17 0 -20 -8 -23 -48 -3 -39 -6 -48 -20 -45 -12 2 -18
15 -20 43 -4 60 -9 70 -27 55 -9 -8 -15 -30 -15 -57 0 -37 -3 -44 -17 -41 -14
2 -19 15 -21 57 -2 29 -1 59 1 65 5 13 94 18 102 6z m165 -2 c0 -9 3 -9 12 0
31 31 78 -3 78 -58 0 -43 -28 -75 -60 -67 -17 4 -20 0 -20 -23 0 -26 -21 -46
-34 -33 -3 4 -6 48 -6 100 0 76 3 93 15 93 8 0 15 -5 15 -12z m207 -5 c3 -7
-7 -17 -21 -22 -20 -8 -25 -18 -28 -53 -2 -31 -8 -44 -20 -46 -16 -3 -18 5
-18 65 l0 69 42 0 c24 -1 43 -6 45 -13z m117 1 c9 -8 16 -26 16 -40 0 -21 -4
-24 -40 -24 -22 0 -40 -4 -40 -9 0 -14 29 -22 56 -15 26 7 31 -5 12 -24 -34
-34 -108 5 -108 56 0 61 65 96 104 56z m211 -4 c0 -9 -9 -15 -25 -15 -22 0
-25 -4 -25 -35 0 -32 2 -35 28 -32 18 2 27 -2 27 -12 0 -18 -34 -30 -65 -22
-43 11 -53 94 -16 123 22 18 76 12 76 -7z m127 7 c34 -27 31 -95 -6 -119 -37
-25 -96 11 -96 60 0 60 57 93 102 59z m245 -17 c19 -36 13 -104 -9 -108 -15
-3 -18 4 -18 40 0 24 -5 49 -12 56 -20 20 -38 -6 -38 -55 0 -37 -3 -44 -17
-41 -13 3 -17 12 -16 32 1 15 -2 39 -8 53 -15 39 -39 12 -39 -44 0 -37 -3 -44
-17 -41 -14 2 -19 15 -21 57 -2 29 -1 59 1 66 4 8 33 11 93 11 84 -1 89 -2
101 -26z m306 13 c30 -34 31 -70 3 -97 -14 -15 -34 -26 -46 -26 -50 0 -80 82
-43 122 21 23 65 23 86 1z m142 -3 c0 -9 -9 -15 -24 -15 -13 0 -29 -8 -35 -17
-16 -26 5 -54 38 -50 32 3 36 -23 5 -33 -34 -11 -66 3 -76 32 -11 31 -1 82 19
95 21 13 73 5 73 -12z m128 3 c28 -31 30 -66 7 -96 -26 -32 -62 -35 -90 -7
-24 24 -26 77 -3 102 21 23 65 23 86 1z m237 -4 c16 -30 9 -114 -10 -114 -11
0 -16 14 -20 49 -3 27 -11 51 -17 54 -15 4 -33 -38 -33 -79 0 -19 -5 -29 -15
-29 -12 0 -15 14 -15 68 l0 67 50 2 c41 2 52 -1 60 -18z m138 9 c6 -7 12 -38
14 -68 l3 -54 -40 -2 c-53 -3 -72 3 -78 25 -7 27 10 49 43 56 36 8 41 29 5 23
-14 -3 -28 -1 -32 4 -14 25 65 39 85 16z m228 1 c8 -7 14 -7 19 1 8 14 48 13
63 -2 7 -7 12 -38 12 -71 0 -50 -2 -58 -17 -55 -13 2 -19 14 -21 43 -4 60 -9
70 -27 55 -9 -8 -15 -30 -15 -57 0 -37 -3 -44 -17 -41 -13 2 -19 16 -23 51 -3
26 -8 47 -12 47 -5 0 -12 0 -17 0 -6 0 -11 -21 -13 -47 -2 -35 -7 -48 -18 -48
-11 0 -16 14 -18 54 -2 29 -1 59 1 65 6 15 87 19 103 5z m226 -6 c10 -9 18
-27 18 -40 0 -20 -5 -23 -41 -23 -28 0 -39 -4 -36 -12 2 -7 18 -12 36 -11 25
1 31 -3 29 -15 -4 -23 -54 -27 -84 -7 -33 21 -34 87 -2 109 29 21 57 20 80 -1z
m378 -3 c41 -41 12 -120 -45 -120 -14 0 -34 9 -45 20 -41 41 -12 120 45 120
14 0 34 -9 45 -20z m76 9 c4 -8 9 -8 17 0 18 18 37 13 37 -9 0 -11 -7 -20 -15
-20 -19 0 -35 -31 -35 -70 0 -25 -4 -31 -17 -28 -15 3 -18 14 -19 63 0 33 1
63 3 68 6 10 21 9 29 -4z m114 -60 c0 -62 -2 -70 -17 -67 -14 2 -19 15 -21 57
-4 63 2 81 23 81 12 0 15 -14 15 -71z m134 58 c13 -10 17 -24 14 -67 l-3 -54
-47 -2 c-52 -3 -72 11 -66 48 2 17 13 25 43 34 31 9 36 13 23 19 -10 4 -25 5
-33 1 -15 -5 -21 14 -8 27 11 12 58 8 77 -6z m211 -7 c0 -8 -7 -15 -15 -16 -8
-1 -21 -2 -27 -2 -18 -3 -16 -59 2 -66 8 -3 22 -3 31 1 12 4 15 1 12 -13 -4
-26 -54 -31 -79 -8 -28 25 -26 88 4 109 27 19 72 16 72 -5z m128 7 c10 -6 20
-28 23 -48 5 -29 2 -41 -15 -58 -42 -42 -111 -12 -111 49 0 55 60 89 103 57z
m167 -2 c17 -20 9 -120 -10 -120 -11 0 -16 13 -18 47 -2 29 -8 48 -18 52 -18
7 -36 -34 -32 -73 2 -20 -1 -26 -16 -26 -16 0 -18 8 -18 63 1 34 1 63 1 65 1
1 23 3 50 4 32 1 53 -3 61 -12z m185 -55 c0 -54 -3 -65 -17 -68 -16 -3 -18 5
-18 68 0 63 2 71 18 68 14 -3 17 -14 17 -68z m142 58 c8 -6 13 -33 13 -70 0
-51 -2 -59 -17 -56 -13 2 -19 16 -23 51 -3 26 -8 47 -12 47 -5 0 -12 0 -17 0
-6 0 -11 -21 -13 -47 -2 -35 -7 -48 -18 -48 -11 0 -16 14 -18 54 -2 29 -1 59
1 65 6 15 87 18 104 4z m87 -13 c4 -14 4 -30 1 -35 -3 -5 -1 -19 5 -29 17 -33
39 -14 42 37 2 34 7 47 18 47 12 0 15 -14 15 -64 l0 -63 -44 -4 c-24 -2 -50 1
-57 7 -20 16 -19 129 0 129 8 0 17 -11 20 -25z m214 13 c9 -11 16 -77 13 -113
-1 -9 -54 -13 -97 -7 -16 3 -23 36 -13 55 5 8 23 18 39 22 36 8 41 29 5 23
-14 -3 -28 -1 -32 4 -14 25 65 39 85 16z m376 -10 c29 -40 21 -58 -25 -58 -28
0 -39 -4 -36 -12 2 -7 18 -12 36 -11 25 1 31 -3 29 -15 -2 -11 -15 -18 -39
-20 -43 -4 -72 24 -72 68 0 62 74 95 107 48z m223 10 c8 -6 13 -34 13 -70 0
-51 -2 -59 -17 -56 -13 2 -19 16 -23 51 -3 26 -8 47 -12 47 -5 0 -12 0 -17 0
-6 0 -11 -21 -13 -47 -2 -36 -7 -49 -20 -51 -16 -3 -18 5 -18 65 l0 68 47 2
c26 1 53 -3 60 -9z m147 -3 c13 -10 19 -27 19 -55 0 -45 -21 -69 -60 -70 -53
0 -84 81 -46 122 19 21 61 23 87 3z m131 -5 c0 -10 -8 -14 -22 -12 -28 4 -30
-14 -3 -23 25 -8 42 -38 34 -59 -8 -20 -46 -30 -80 -22 -33 9 -25 32 10 28 33
-4 34 15 1 30 -27 12 -33 46 -13 66 18 18 73 11 73 -8z m120 0 c0 -10 -8 -14
-22 -12 -31 4 -29 -12 2 -26 28 -13 34 -52 11 -71 -20 -17 -81 -10 -81 9 0 10
8 14 28 12 33 -3 36 13 5 29 -40 21 -46 39 -22 64 21 20 79 17 79 -5z m135 0
c40 -40 12 -120 -42 -120 -29 0 -42 9 -57 37 -25 48 3 103 54 103 14 0 34 -9
45 -20z m135 0 c0 -10 -8 -14 -22 -12 -31 4 -29 -12 2 -26 28 -13 34 -52 11
-71 -22 -18 -80 -10 -84 11 -3 15 2 17 27 12 39 -8 41 10 4 28 -31 15 -41 42
-22 64 16 20 84 15 84 -6z m-6057 -121 c-10 -29 -22 -37 -32 -20 -11 17 12 61
28 55 11 -4 12 -12 4 -35z m-3818 20 c0 -17 -20 -49 -30 -49 -11 0 -14 43 -3
53 10 11 33 8 33 -4z m552 -169 c2 -5 2 -47 0 -92 l-3 -83 -42 -2 c-52 -1 -77
19 -77 62 0 42 22 69 56 70 24 0 30 5 32 28 3 26 27 38 34 17z m238 -29 c0 -5
9 -13 20 -16 11 -3 20 -11 20 -16 0 -5 -9 -9 -20 -9 -17 0 -20 -7 -20 -40 0
-34 3 -40 21 -40 27 0 19 -24 -10 -28 -12 -2 -28 1 -35 7 -18 15 -27 110 -12
133 11 19 36 25 36 9z m-2098 -28 c42 -38 10 -129 -43 -121 -20 3 -23 -2 -24
-27 0 -20 -5 -30 -15 -30 -12 0 -16 18 -18 92 l-3 92 33 4 c18 2 37 5 42 5 5
1 18 -5 28 -15z m100 8 c10 5 23 7 28 4 14 -8 1 -32 -20 -38 -14 -4 -20 -16
-22 -48 -2 -32 -8 -45 -20 -47 -16 -3 -18 5 -18 61 0 66 6 85 23 68 7 -7 17
-7 29 0z m153 -16 c28 -27 30 -42 13 -80 -14 -30 -50 -42 -83 -27 -44 20 -45
104 -2 122 35 14 46 12 72 -15z m135 15 c18 -11 6 -24 -23 -25 -18 0 -22 -6
-22 -35 0 -32 2 -35 28 -33 39 3 33 -31 -6 -35 -41 -5 -67 22 -67 69 0 54 48
86 90 59z m128 -6 c12 -8 22 -26 22 -40 0 -21 -4 -24 -41 -24 -52 0 -48 -24 5
-28 31 -3 35 -6 25 -18 -17 -20 -66 -17 -89 6 -27 27 -26 74 2 100 26 24 46
25 76 4z m131 7 c21 -13 5 -29 -24 -23 -35 6 -32 -10 5 -26 33 -15 41 -51 16
-71 -20 -17 -81 -10 -81 9 0 10 8 14 28 12 35 -4 34 9 -3 30 -17 9 -30 24 -30
32 0 36 55 58 89 37z m112 -2 c26 -13 16 -28 -16 -21 -34 6 -31 -9 5 -30 53
-30 31 -82 -31 -76 -43 4 -51 28 -10 28 39 0 39 10 1 32 -62 36 -13 102 51 67z
m146 -15 c20 -20 24 -31 19 -57 -11 -56 -67 -76 -106 -37 -39 39 -12 120 40
120 12 0 32 -12 47 -26z m117 20 c28 -11 19 -35 -9 -28 -34 8 -31 -7 5 -28 53
-30 27 -84 -37 -76 -39 4 -42 28 -4 28 39 0 39 10 1 32 -58 33 -19 96 44 72z
m204 -10 c12 -8 22 -26 22 -40 0 -21 -4 -24 -41 -24 -49 0 -50 -23 0 -28 19
-2 31 -8 28 -15 -6 -19 -56 -20 -83 -2 -31 20 -33 76 -4 105 24 24 48 25 78 4z
m222 -4 c5 -8 10 -34 10 -57 0 -46 -24 -70 -60 -60 -15 4 -20 -2 -22 -27 -2
-19 -8 -31 -18 -31 -12 0 -16 17 -18 84 -2 46 -1 89 1 95 7 17 96 13 107 -4z
m95 10 c15 12 35 6 35 -11 0 -5 -11 -14 -24 -19 -20 -7 -25 -17 -28 -52 -2
-30 -7 -43 -18 -43 -11 0 -16 14 -18 54 -4 68 3 88 23 71 12 -10 18 -10 30 0z
m162 -18 c32 -43 0 -112 -52 -112 -65 0 -89 100 -32 128 27 14 67 6 84 -16z
m233 -34 c0 -42 3 -49 18 -46 12 2 18 15 20 48 3 43 17 64 34 54 4 -3 8 -33 8
-67 l0 -62 -47 -2 c-26 -1 -53 3 -60 9 -13 10 -19 109 -7 121 3 3 12 3 20 0 9
-3 14 -21 14 -55z m328 35 c18 -25 15 -70 -8 -93 -49 -49 -123 2 -105 73 12
45 83 58 113 20z m130 13 c11 -12 -12 -25 -34 -20 -34 9 -30 -11 6 -26 56 -23
32 -84 -31 -78 -43 4 -51 28 -10 28 39 0 39 10 1 32 -54 31 -29 84 34 73 16
-3 31 -7 34 -9z m62 -106 c0 -11 -6 -20 -14 -20 -18 0 -29 16 -21 30 11 18 35
11 35 -10z"/>
<path d="M7202 4528 c2 -25 8 -33 23 -33 16 0 20 7 20 30 0 24 -5 31 -23 33
-21 3 -23 0 -20 -30z"/>
<path d="M8984 4546 c-10 -26 0 -51 21 -51 16 0 20 7 20 30 0 33 -30 49 -41
21z"/>
<path d="M9282 4528 c2 -21 8 -33 18 -33 10 0 16 12 18 33 3 27 0 32 -18 32
-18 0 -21 -5 -18 -32z"/>
<path d="M11734 4546 c-9 -24 0 -51 18 -54 19 -4 35 38 23 57 -9 16 -35 13
-41 -3z"/>
<path d="M2590 4555 c-17 -21 -4 -67 18 -63 22 4 29 63 8 71 -8 3 -20 -1 -26
-8z"/>
<path d="M2970 4504 c0 -9 7 -14 17 -12 25 5 28 28 4 28 -12 0 -21 -6 -21 -16z"/>
<path d="M3875 4509 c-4 -6 -4 -13 -1 -16 8 -8 36 5 36 17 0 13 -27 13 -35 -1z"/>
<path d="M4020 4550 c-11 -21 2 -60 20 -60 18 0 31 39 20 60 -6 11 -15 20 -20
20 -5 0 -14 -9 -20 -20z"/>
<path d="M4387 4564 c-13 -13 -7 -24 14 -24 11 0 19 5 17 12 -5 14 -22 21 -31
12z"/>
<path d="M4831 4556 c-19 -23 -10 -61 14 -61 14 0 21 8 23 26 4 33 -20 56 -37
35z"/>
<path d="M5240 4556 c0 -10 9 -16 21 -16 24 0 21 23 -4 28 -10 2 -17 -3 -17
-12z"/>
<path d="M5505 4560 c-3 -6 1 -13 10 -16 19 -8 30 0 20 15 -8 14 -22 14 -30 1z"/>
<path d="M6082 4528 c2 -25 8 -33 23 -33 16 0 20 7 20 30 0 24 -5 31 -23 33
-21 3 -23 0 -20 -30z"/>
<path d="M6591 4556 c-19 -23 -10 -61 14 -61 14 0 21 8 23 26 4 33 -20 56 -37
35z"/>
<path d="M6737 4564 c-9 -10 2 -24 19 -24 8 0 14 7 14 15 0 15 -21 21 -33 9z"/>
<path d="M7357 4564 c-9 -10 2 -24 19 -24 8 0 14 7 14 15 0 15 -21 21 -33 9z"/>
<path d="M7705 4511 c-3 -5 -1 -12 5 -16 12 -7 30 2 30 16 0 12 -27 12 -35 0z"/>
<path d="M8030 4505 c0 -8 7 -15 15 -15 8 0 15 7 15 15 0 8 -7 15 -15 15 -8 0
-15 -7 -15 -15z"/>
<path d="M8391 4556 c-19 -23 -10 -61 14 -61 14 0 21 8 23 26 4 33 -20 56 -37
35z"/>
<path d="M8695 4509 c-4 -6 -4 -13 -1 -16 8 -8 36 5 36 17 0 13 -27 13 -35 -1z"/>
<path d="M9135 4509 c-4 -6 -4 -13 -1 -16 8 -8 36 5 36 17 0 13 -27 13 -35 -1z"/>
<path d="M9437 4563 c-13 -12 -7 -23 13 -23 11 0 20 7 20 15 0 15 -21 21 -33
8z"/>
<path d="M9787 4564 c-9 -10 2 -24 19 -24 8 0 14 7 14 15 0 15 -21 21 -33 9z"/>
<path d="M10585 4509 c-4 -6 -4 -13 -1 -16 8 -8 36 5 36 17 0 13 -27 13 -35
-1z"/>
<path d="M11095 4541 c-8 -26 5 -53 24 -49 10 2 17 15 19 36 3 26 0 32 -17 32
-11 0 -22 -8 -26 -19z"/>
<path d="M11585 4511 c-3 -5 -1 -12 5 -16 12 -7 30 2 30 16 0 12 -27 12 -35 0z"/>
<path d="M11884 4546 c-10 -26 0 -51 21 -51 16 0 20 7 20 30 0 33 -30 49 -41
21z"/>
<path d="M12145 4560 c-3 -6 1 -13 10 -16 19 -8 30 0 20 15 -8 14 -22 14 -30
1z"/>
<path d="M12615 4560 c-3 -6 1 -13 10 -16 19 -8 30 0 20 15 -8 14 -22 14 -30
1z"/>
<path d="M12830 4555 c0 -10 7 -15 18 -13 21 4 19 22 -2 26 -10 2 -16 -3 -16
-13z"/>
<path d="M13376 4544 c-8 -20 12 -56 27 -51 7 2 13 18 15 35 3 26 0 32 -16 32
-11 0 -23 -7 -26 -16z"/>
<path d="M4084 4216 c-10 -26 0 -51 21 -51 16 0 20 7 20 30 0 33 -30 49 -41
21z"/>
<path d="M8782 4198 c3 -36 31 -50 42 -22 10 26 -3 54 -25 54 -17 0 -20 -6
-17 -32z"/>
<path d="M12304 4216 c-10 -26 0 -51 21 -51 16 0 20 7 20 30 0 33 -30 49 -41
21z"/>
<path d="M8416 4212 c-9 -27 3 -54 23 -50 22 5 22 62 -1 66 -9 2 -19 -5 -22
-16z"/>
<path d="M9075 4211 c-8 -26 5 -53 24 -49 10 2 17 15 19 36 3 26 0 32 -17 32
-11 0 -22 -8 -26 -19z"/>
<path d="M2514 4216 c-10 -26 1 -51 21 -51 15 0 21 8 23 33 3 27 0 32 -18 32
-11 0 -23 -6 -26 -14z"/>
<path d="M3157 4216 c-9 -24 4 -56 23 -56 21 0 33 25 25 51 -7 22 -40 25 -48
5z"/>
<path d="M3790 4226 c0 -10 9 -16 21 -16 24 0 21 23 -4 28 -10 2 -17 -3 -17
-12z"/>
<path d="M4617 4216 c-10 -24 4 -56 24 -56 15 0 19 7 19 35 0 28 -4 35 -19 35
-10 0 -21 -6 -24 -14z"/>
<path d="M5607 4183 c-13 -12 -7 -23 13 -23 11 0 20 7 20 15 0 15 -21 21 -33
8z"/>
<path d="M6092 4198 c4 -39 32 -51 41 -18 8 31 -2 50 -25 50 -16 0 -19 -6 -16
-32z"/>
<path d="M6375 4179 c-4 -6 -4 -13 -1 -16 8 -8 36 5 36 17 0 13 -27 13 -35 -1z"/>
<path d="M6785 4211 c-8 -26 5 -53 24 -49 10 2 17 15 19 36 3 26 0 32 -17 32
-11 0 -22 -8 -26 -19z"/>
<path d="M7115 4179 c-4 -6 -4 -13 -1 -16 8 -8 36 5 36 17 0 13 -27 13 -35 -1z"/>
<path d="M8265 4179 c-4 -6 -4 -13 -1 -16 8 -8 36 5 36 17 0 13 -27 13 -35 -1z"/>
<path d="M8935 4179 c-4 -6 -4 -13 -1 -16 8 -8 36 5 36 17 0 13 -27 13 -35 -1z"/>
<path d="M9230 4226 c0 -10 9 -16 21 -16 24 0 21 23 -4 28 -10 2 -17 -3 -17
-12z"/>
<path d="M9480 4226 c0 -10 9 -16 21 -16 24 0 21 23 -4 28 -10 2 -17 -3 -17
-12z"/>
<path d="M9727 4183 c-13 -12 -7 -23 13 -23 11 0 20 7 20 15 0 15 -21 21 -33
8z"/>
<path d="M9987 4234 c-13 -13 -7 -24 14 -24 11 0 19 5 17 12 -5 14 -22 21 -31
12z"/>
<path d="M10385 4230 c-3 -6 1 -13 10 -16 19 -8 30 0 20 15 -8 14 -22 14 -30
1z"/>
<path d="M10600 4225 c0 -8 9 -15 20 -15 24 0 27 15 4 24 -22 9 -24 8 -24 -9z"/>
<path d="M11090 4175 c0 -8 7 -15 15 -15 8 0 15 7 15 15 0 8 -7 15 -15 15 -8
0 -15 -7 -15 -15z"/>
<path d="M11500 4201 c0 -36 17 -49 37 -28 20 19 8 57 -18 57 -14 0 -19 -7
-19 -29z"/>
<path d="M11755 4179 c-4 -6 -4 -13 -1 -16 8 -8 36 5 36 17 0 13 -27 13 -35
-1z"/>
<path d="M12012 4233 c-15 -6 -6 -23 14 -23 8 0 14 7 14 15 0 15 -6 17 -28 8z"/>
<path d="M12765 4230 c-3 -6 1 -13 10 -16 19 -8 30 0 20 15 -8 14 -22 14 -30
1z"/>
<path d="M13164 4216 c-10 -26 0 -51 21 -51 16 0 20 7 20 30 0 33 -30 49 -41
21z"/>
<path d="M13420 4175 c0 -10 7 -15 18 -13 21 4 19 22 -2 26 -10 2 -16 -3 -16
-13z"/>
<path d="M13564 4216 c-10 -26 0 -51 21 -51 16 0 20 7 20 30 0 33 -30 49 -41
21z"/>
<path d="M2904 4216 c-9 -24 0 -51 18 -54 19 -4 35 38 23 57 -9 16 -35 13 -41
-3z"/>
<path d="M3547 4233 c-13 -12 -7 -23 13 -23 11 0 20 7 20 15 0 15 -21 21 -33
8z"/>
<path d="M4235 4219 c-4 -5 -4 -21 -1 -35 10 -37 40 -28 44 14 3 26 0 32 -17
32 -11 0 -23 -5 -26 -11z"/>
<path d="M5115 4219 c-4 -5 -4 -21 -1 -35 10 -37 40 -28 44 14 3 26 0 32 -17
32 -11 0 -23 -5 -26 -11z"/>
<path d="M6645 4179 c-4 -6 -4 -13 -1 -16 8 -8 36 5 36 17 0 13 -27 13 -35 -1z"/>
<path d="M7865 4230 c-3 -6 1 -13 10 -16 19 -8 30 0 20 15 -8 14 -22 14 -30 1z"/>
<path d="M8894 3886 c-10 -26 0 -51 21 -51 16 0 20 7 20 30 0 33 -30 49 -41
21z"/>
<path d="M9637 3880 c-8 -31 2 -50 25 -50 16 0 19 6 16 32 -4 39 -32 51 -41
18z"/>
<path d="M10345 3890 c-3 -5 3 -10 14 -10 12 0 21 5 21 10 0 6 -6 10 -14 10
-8 0 -18 -4 -21 -10z"/>
<path d="M12024 3886 c-10 -26 0 -51 21 -51 16 0 20 7 20 30 0 33 -30 49 -41
21z"/>
<path d="M12561 3886 c-18 -22 -9 -51 17 -54 21 -3 23 0 20 29 -3 37 -19 47
-37 25z"/>
<path d="M3360 3920 c0 -15 5 -20 18 -18 9 2 17 10 17 18 0 8 -8 16 -17 18
-13 2 -18 -3 -18 -18z"/>
<path d="M3360 3850 c0 -16 5 -21 23 -18 12 2 22 10 22 18 0 8 -10 16 -22 18
-18 3 -23 -2 -23 -18z"/>
<path d="M2660 3890 c0 -5 9 -10 20 -10 11 0 20 5 20 10 0 6 -9 10 -20 10 -11
0 -20 -4 -20 -10z"/>
<path d="M3065 3890 c-4 -6 5 -10 20 -10 15 0 24 4 20 10 -3 6 -12 10 -20 10
-8 0 -17 -4 -20 -10z"/>
<path d="M3921 3850 c-14 -8 -7 -30 9 -30 11 0 21 28 12 34 -5 3 -14 1 -21 -4z"/>
<path d="M4297 3894 c-4 -4 -7 -20 -7 -36 0 -25 4 -29 23 -26 17 2 22 10 22
33 0 29 -22 45 -38 29z"/>
<path d="M4633 3894 c-7 -20 8 -36 25 -25 14 8 6 41 -9 41 -5 0 -12 -7 -16
-16z"/>
<path d="M4620 3781 c0 -12 21 -19 43 -13 28 7 20 22 -13 22 -16 0 -30 -4 -30
-9z"/>
<path d="M4780 3850 c-12 -7 -12 -12 -2 -22 9 -9 15 -9 24 0 16 16 -2 34 -22
22z"/>
<path d="M5031 3847 c-6 -8 -8 -16 -5 -20 10 -9 34 4 34 19 0 18 -14 18 -29 1z"/>
<path d="M5700 3850 c-10 -6 -11 -13 -5 -19 6 -6 16 -7 25 -1 10 6 11 13 5 19
-6 6 -16 7 -25 1z"/>
<path d="M5920 3890 c0 -5 9 -10 20 -10 11 0 20 5 20 10 0 6 -9 10 -20 10 -11
0 -20 -4 -20 -10z"/>
<path d="M6420 3890 c0 -5 9 -10 20 -10 11 0 20 5 20 10 0 6 -9 10 -20 10 -11
0 -20 -4 -20 -10z"/>
<path d="M6920 3850 c-10 -6 -11 -13 -5 -19 6 -6 16 -7 25 -1 10 6 11 13 5 19
-6 6 -16 7 -25 1z"/>
<path d="M7140 3890 c0 -5 9 -10 21 -10 11 0 17 5 14 10 -3 6 -13 10 -21 10
-8 0 -14 -4 -14 -10z"/>
<path d="M7373 3853 c-15 -5 -18 -33 -4 -33 13 0 33 28 24 33 -4 2 -14 2 -20
0z"/>
<path d="M7705 3890 c-3 -5 3 -10 14 -10 12 0 21 5 21 10 0 6 -6 10 -14 10 -8
0 -18 -4 -21 -10z"/>
<path d="M7846 3903 c-12 -12 -6 -33 9 -33 8 0 15 6 15 14 0 17 -14 28 -24 19z"/>
<path d="M7830 3780 c0 -5 11 -10 24 -10 14 0 28 5 31 10 4 6 -7 10 -24 10
-17 0 -31 -4 -31 -10z"/>
<path d="M8250 3850 c-12 -7 -12 -12 -2 -22 9 -9 15 -9 24 0 16 16 -2 34 -22
22z"/>
<path d="M8683 3853 c-15 -5 -18 -33 -4 -33 13 0 33 28 24 33 -4 2 -14 2 -20
0z"/>
<path d="M9050 3850 c-12 -7 -12 -12 -2 -22 9 -9 15 -9 24 0 16 16 -2 34 -22
22z"/>
<path d="M9500 3890 c0 -5 9 -10 21 -10 11 0 17 5 14 10 -3 6 -13 10 -21 10
-8 0 -14 -4 -14 -10z"/>
<path d="M9790 3890 c0 -5 9 -10 21 -10 11 0 17 5 14 10 -3 6 -13 10 -21 10
-8 0 -14 -4 -14 -10z"/>
<path d="M10130 3890 c0 -5 9 -10 20 -10 11 0 20 5 20 10 0 6 -9 10 -20 10
-11 0 -20 -4 -20 -10z"/>
<path d="M10900 3850 c-11 -7 -12 -12 -4 -20 8 -8 14 -7 23 4 14 17 1 28 -19
16z"/>
<path d="M11432 3884 c-14 -24 -3 -54 20 -54 16 0 19 6 16 32 -3 36 -22 47
-36 22z"/>
<path d="M12717 3894 c-4 -4 -7 -20 -7 -36 0 -22 5 -28 21 -28 17 0 20 5 17
32 -3 31 -17 45 -31 32z"/>
<path d="M12944 3886 c-9 -24 0 -51 19 -54 14 -3 17 4 17 32 0 26 -4 36 -15
36 -9 0 -18 -6 -21 -14z"/>
<path d="M13090 3834 c0 -9 5 -14 12 -12 18 6 21 28 4 28 -9 0 -16 -7 -16 -16z"/>
<path d="M13353 3853 c-15 -5 -18 -33 -4 -33 13 0 33 28 24 33 -4 2 -14 2 -20
0z"/>
<path d="M13564 3886 c-10 -26 0 -51 21 -51 16 0 20 7 20 30 0 33 -30 49 -41
21z"/>
<path d="M2397 3563 c-12 -12 -7 -61 7 -66 29 -11 48 37 24 61 -14 14 -22 15
-31 5z"/>
<path d="M4627 3564 c-10 -10 -9 -62 1 -68 16 -10 33 12 30 39 -3 28 -18 42
-31 29z"/>
<path d="M9643 3508 c2 -7 10 -13 17 -13 7 0 15 6 18 13 2 7 -5 12 -18 12 -13
0 -20 -5 -17 -12z"/>
<path d="M11210 3504 c0 -9 5 -14 12 -12 18 6 21 28 4 28 -9 0 -16 -7 -16 -16z"/>
<path d="M2545 3560 c-3 -5 3 -10 14 -10 12 0 21 5 21 10 0 6 -6 10 -14 10 -8
0 -18 -4 -21 -10z"/>
<path d="M2805 3560 c-3 -5 3 -10 14 -10 12 0 21 5 21 10 0 6 -6 10 -14 10 -8
0 -18 -4 -21 -10z"/>
<path d="M3240 3550 c-13 -25 4 -62 24 -54 21 8 28 32 16 55 -14 24 -27 24
-40 -1z"/>
<path d="M3905 3560 c-3 -5 3 -10 14 -10 12 0 21 5 21 10 0 6 -6 10 -14 10 -8
0 -18 -4 -21 -10z"/>
<path d="M4304 3545 c-4 -18 -1 -32 10 -43 21 -21 39 -4 34 34 -4 39 -35 45
-44 9z"/>
<path d="M4770 3560 c0 -5 9 -10 20 -10 11 0 20 5 20 10 0 6 -9 10 -20 10 -11
0 -20 -4 -20 -10z"/>
<path d="M6254 3546 c-7 -31 1 -46 27 -46 17 0 20 6 17 32 -4 42 -34 51 -44
14z"/>
<path d="M6570 3560 c0 -5 9 -10 20 -10 11 0 20 5 20 10 0 6 -9 10 -20 10 -11
0 -20 -4 -20 -10z"/>
<path d="M6870 3560 c0 -5 9 -10 21 -10 11 0 17 5 14 10 -3 6 -13 10 -21 10
-8 0 -14 -4 -14 -10z"/>
<path d="M7114 3566 c-9 -24 12 -44 28 -28 10 10 8 16 -5 29 -15 15 -17 15
-23 -1z"/>
<path d="M7100 3451 c0 -12 21 -19 43 -13 28 7 20 22 -13 22 -16 0 -30 -4 -30
-9z"/>
<path d="M7255 3560 c-3 -5 3 -10 14 -10 12 0 21 5 21 10 0 6 -6 10 -14 10 -8
0 -18 -4 -21 -10z"/>
<path d="M7694 3556 c-10 -26 0 -51 21 -51 16 0 20 7 20 30 0 33 -30 49 -41
21z"/>
<path d="M8240 3504 c0 -9 7 -14 17 -12 25 5 28 28 4 28 -12 0 -21 -6 -21 -16z"/>
<path d="M9245 3560 c-3 -5 3 -10 14 -10 12 0 21 5 21 10 0 6 -6 10 -14 10 -8
0 -18 -4 -21 -10z"/>
<path d="M9930 3560 c0 -5 9 -10 21 -10 11 0 17 5 14 10 -3 6 -13 10 -21 10
-8 0 -14 -4 -14 -10z"/>
<path d="M10310 3560 c0 -5 9 -10 21 -10 11 0 17 5 14 10 -3 6 -13 10 -21 10
-8 0 -14 -4 -14 -10z"/>
<path d="M10740 3551 c-14 -27 3 -63 26 -54 10 4 14 16 12 36 -4 37 -23 46
-38 18z"/>
<path d="M11490 3560 c0 -5 9 -10 20 -10 11 0 20 5 20 10 0 6 -9 10 -20 10
-11 0 -20 -4 -20 -10z"/>
<path d="M12090 3504 c0 -9 7 -14 17 -12 25 5 28 28 4 28 -12 0 -21 -6 -21
-16z"/>
<path d="M12317 3563 c-4 -3 -7 -19 -7 -35 0 -21 5 -28 19 -28 24 0 34 25 21
51 -11 20 -22 24 -33 12z"/>
<path d="M12755 3511 c-3 -5 -1 -12 5 -16 12 -7 30 2 30 16 0 12 -27 12 -35 0z"/>
<path d="M13141 3556 c-18 -22 -9 -51 17 -54 21 -3 23 0 20 29 -3 37 -19 47
-37 25z"/>
<path d="M13570 3504 c0 -9 5 -14 12 -12 18 6 21 28 4 28 -9 0 -16 -7 -16 -16z"/>
<path d="M3193 3233 c-7 -3 -13 -17 -13 -33 0 -28 14 -41 38 -33 6 3 12 17 12
33 0 28 -14 41 -37 33z"/>
<path d="M3493 3233 c-16 -6 -17 -59 -1 -69 10 -6 38 20 38 36 0 14 -26 37
-37 33z"/>
<path d="M5594 3227 c-9 -25 0 -62 16 -62 10 0 15 10 15 34 0 36 -21 54 -31
28z"/>
<path d="M12542 3198 c2 -21 8 -33 18 -33 10 0 16 12 18 33 3 27 0 32 -18 32
-18 0 -21 -5 -18 -32z"/>
<path d="M2726 3231 c-3 -5 0 -11 7 -13 17 -7 38 2 31 13 -7 12 -31 12 -38 0z"/>
<path d="M2862 3223 c2 -10 10 -18 18 -18 22 0 18 29 -3 33 -14 3 -18 -1 -15
-15z"/>
<path d="M2850 3121 c0 -16 19 -23 40 -16 30 10 24 25 -10 25 -16 0 -30 -4
-30 -9z"/>
<path d="M3335 3181 c-3 -5 -1 -12 5 -16 12 -7 30 2 30 16 0 12 -27 12 -35 0z"/>
<path d="M3636 3231 c-3 -5 0 -11 8 -14 15 -6 26 1 26 15 0 11 -27 10 -34 -1z"/>
<path d="M3915 3181 c-3 -5 -1 -12 5 -16 12 -7 30 2 30 16 0 12 -27 12 -35 0z"/>
<path d="M4137 3234 c-4 -4 -4 -10 -1 -15 6 -10 34 0 34 12 0 10 -24 12 -33 3z"/>
<path d="M4570 3174 c0 -9 7 -14 17 -12 25 5 28 28 4 28 -12 0 -21 -6 -21 -16z"/>
<path d="M4795 3230 c-3 -5 3 -10 14 -10 12 0 21 5 21 10 0 6 -6 10 -14 10 -8
0 -18 -4 -21 -10z"/>
<path d="M5012 3228 c-17 -17 -15 -43 3 -58 21 -18 37 0 33 36 -3 31 -18 40
-36 22z"/>
<path d="M5440 3175 c0 -8 4 -15 9 -15 5 0 14 7 21 15 10 13 9 15 -9 15 -12 0
-21 -6 -21 -15z"/>
<path d="M5735 3179 c-4 -6 -4 -13 -1 -16 8 -8 36 5 36 17 0 13 -27 13 -35 -1z"/>
<path d="M6123 3233 c-16 -6 -17 -59 -3 -68 15 -9 40 13 40 35 0 21 -20 39
-37 33z"/>
<path d="M6335 3231 c-3 -5 -1 -12 5 -16 12 -7 30 2 30 16 0 12 -27 12 -35 0z"/>
<path d="M6780 3230 c0 -5 9 -10 20 -10 11 0 20 5 20 10 0 6 -9 10 -20 10 -11
0 -20 -4 -20 -10z"/>
<path d="M6933 3233 c-16 -6 -17 -59 -3 -68 15 -9 40 13 40 35 0 21 -20 39
-37 33z"/>
<path d="M7317 3234 c-13 -13 -7 -62 8 -68 18 -7 28 13 23 45 -3 23 -19 35
-31 23z"/>
<path d="M7460 3230 c0 -5 7 -10 15 -10 8 0 15 5 15 10 0 6 -7 10 -15 10 -8 0
-15 -4 -15 -10z"/>
<path d="M7860 3230 c0 -5 9 -10 21 -10 11 0 17 5 14 10 -3 6 -13 10 -21 10
-8 0 -14 -4 -14 -10z"/>
<path d="M8247 3234 c-13 -13 -7 -62 8 -68 18 -7 28 13 23 45 -3 23 -19 35
-31 23z"/>
<path d="M8496 3231 c-3 -5 0 -11 8 -14 15 -6 26 1 26 15 0 11 -27 10 -34 -1z"/>
<path d="M8830 3201 c0 -35 15 -48 36 -30 22 18 14 53 -13 57 -20 3 -23 -1
-23 -27z"/>
<path d="M9384 3226 c-8 -22 -1 -59 13 -64 20 -6 39 44 23 63 -16 19 -29 19
-36 1z"/>
<path d="M9663 3233 c-16 -6 -17 -59 -3 -68 15 -9 40 13 40 35 0 21 -20 39
-37 33z"/>
<path d="M10030 3174 c0 -17 22 -14 28 4 2 7 -3 12 -12 12 -9 0 -16 -7 -16
-16z"/>
<path d="M10486 3231 c-3 -5 0 -11 8 -14 15 -6 26 1 26 15 0 11 -27 10 -34 -1z"/>
<path d="M10863 3233 c-7 -3 -13 -17 -13 -33 0 -28 14 -41 38 -33 6 3 12 15
12 28 0 25 -19 45 -37 38z"/>
<path d="M11180 3174 c0 -9 7 -14 17 -12 25 5 28 28 4 28 -12 0 -21 -6 -21
-16z"/>
<path d="M11533 3233 c-7 -3 -13 -17 -13 -33 0 -28 14 -41 38 -33 6 3 12 15
12 28 0 25 -19 45 -37 38z"/>
<path d="M12320 3175 c0 -8 4 -15 9 -15 5 0 14 7 21 15 10 13 9 15 -9 15 -12
0 -21 -6 -21 -15z"/>
<path d="M12690 3230 c0 -5 9 -10 21 -10 11 0 17 5 14 10 -3 6 -13 10 -21 10
-8 0 -14 -4 -14 -10z"/>
<path d="M13062 3198 c4 -37 22 -47 37 -19 14 26 4 51 -21 51 -16 0 -19 -6
-16 -32z"/>
<path d="M13443 3214 c-8 -20 9 -49 28 -49 8 0 15 13 17 33 3 27 0 32 -18 32
-11 0 -23 -7 -27 -16z"/>
<path d="M4253 2903 c-16 -6 -17 -59 -3 -68 15 -9 40 13 40 35 0 21 -20 39
-37 33z"/>
<path d="M2402 2893 c-12 -22 3 -66 20 -61 16 6 17 70 1 75 -6 2 -16 -4 -21
-14z"/>
<path d="M2662 2901 c-19 -12 -11 -65 10 -69 12 -2 19 5 24 23 8 31 -13 59
-34 46z"/>
<path d="M2926 2901 c-3 -5 0 -11 8 -14 15 -6 26 1 26 15 0 11 -27 10 -34 -1z"/>
<path d="M3312 2901 c-19 -12 -11 -65 10 -69 12 -2 19 5 24 23 8 31 -13 59
-34 46z"/>
<path d="M3635 2901 c-3 -5 -1 -12 5 -16 12 -7 30 2 30 16 0 12 -27 12 -35 0z"/>
<path d="M3853 2903 c-16 -6 -17 -59 -1 -69 10 -6 38 20 38 36 0 14 -26 37
-37 33z"/>
<path d="M4100 2895 c-17 -21 -4 -67 18 -63 22 4 29 63 8 71 -8 3 -20 -1 -26
-8z"/>
<path d="M4661 2897 c-15 -15 -14 -42 4 -57 20 -16 35 -4 35 30 0 30 -21 45
-39 27z"/>
<path d="M2967 6514 c-4 -4 -7 -20 -7 -35 0 -23 6 -30 27 -35 35 -9 58 7 58
42 0 26 -4 29 -35 32 -20 2 -39 0 -43 -4z"/>
<path d="M3780 6500 c-23 -23 -27 -70 -6 -70 7 0 19 7 27 16 9 11 22 14 43 9
88 -18 103 -17 125 6 41 44 13 82 -31 42 -17 -15 -21 -15 -54 0 -46 22 -80 21
-104 -3z"/>
<path d="M11707 6503 c-4 -3 -7 -60 -7 -125 0 -108 2 -119 18 -116 14 3 17 17
20 93 4 124 -6 173 -31 148z"/>
<path d="M12876 6494 c-11 -30 -6 -37 14 -19 11 10 20 22 20 27 0 15 -28 9
-34 -8z"/>
<path d="M13150 6490 c0 -15 5 -20 18 -18 9 2 17 10 17 18 0 8 -8 16 -17 18
-13 2 -18 -3 -18 -18z"/>
<path d="M2410 6495 c0 -3 -1 -98 -1 -212 l0 -208 36 -3 35 -3 0 162 c0 89 2
160 5 157 3 -3 27 -75 53 -159 l48 -154 40 0 39 0 55 160 55 160 3 -163 3
-163 37 3 37 3 3 213 2 213 -62 -3 -62 -3 -48 -149 c-26 -82 -51 -153 -56
-158 -5 -5 -25 47 -46 119 -59 200 -55 193 -120 193 -31 0 -56 -2 -56 -5z"/>
<path d="M11262 6484 c-15 -10 -22 -25 -22 -49 0 -28 6 -37 30 -50 16 -8 45
-15 64 -15 51 0 86 -16 86 -39 0 -31 -35 -43 -108 -39 -42 2 -67 -1 -69 -8 -8
-24 108 -33 165 -13 42 14 60 60 39 93 -16 24 -31 29 -119 41 -51 7 -69 28
-44 54 11 10 34 14 81 13 52 -2 65 1 65 13 0 22 -137 21 -168 -1z"/>
<path d="M12296 6492 c-11 -18 -76 -205 -76 -218 0 -24 28 -15 34 11 6 23 11
25 66 25 55 0 60 -2 66 -25 6 -25 34 -35 34 -12 0 6 -17 60 -37 120 -33 92
-41 107 -60 107 -12 0 -24 -4 -27 -8z m47 -79 c9 -27 17 -54 17 -60 0 -15 -66
-18 -74 -5 -6 10 25 112 34 112 3 0 14 -21 23 -47z"/>
<path d="M11500 6412 c-37 -38 -40 -80 -6 -119 21 -25 31 -28 81 -28 50 0 60
3 81 28 30 35 31 78 1 113 -18 20 -35 28 -75 32 -47 4 -54 2 -82 -26z m114
-12 c35 -13 37 -71 4 -94 -29 -20 -72 -20 -92 0 -17 16 -21 61 -8 80 15 23 57
29 96 14z"/>
<path d="M11805 6428 c-31 -18 -44 -40 -45 -76 0 -69 39 -95 135 -89 l60 3 0
84 0 83 -65 3 c-37 2 -74 -2 -85 -8z m93 -24 c19 -5 22 -13 22 -54 0 -52 -8
-60 -63 -60 -60 0 -88 59 -47 100 20 20 47 25 88 14z"/>
<path d="M11994 6431 c-2 -2 -4 -42 -4 -88 0 -75 2 -84 18 -81 14 3 18 16 20
70 l3 67 37 6 c54 9 64 14 57 25 -6 9 -121 10 -131 1z"/>
<path d="M12444 6428 c-3 -4 -4 -44 -3 -88 1 -71 4 -80 20 -80 17 0 19 8 19
70 l0 69 34 6 c19 4 43 2 55 -4 18 -10 21 -21 21 -76 0 -50 3 -65 15 -65 18 0
30 58 21 105 -6 31 -4 35 19 41 63 16 85 -9 85 -98 0 -36 4 -48 15 -48 26 0
21 120 -7 155 -20 25 -25 27 -72 21 -28 -4 -58 -6 -66 -5 -62 4 -153 3 -156
-3z"/>
<path d="M12830 6428 c-56 -30 -62 -109 -12 -148 33 -26 125 -25 130 1 2 14
-5 15 -46 11 -38 -3 -52 0 -67 14 -18 19 -17 19 56 24 l74 5 -2 34 c0 18 -8
40 -16 48 -20 20 -87 26 -117 11z m90 -33 c19 -22 3 -35 -45 -35 -50 0 -62 11
-39 34 19 20 68 21 84 1z"/>
<path d="M12994 6431 c-2 -2 -4 -42 -4 -88 0 -64 3 -83 14 -83 9 0 15 21 20
70 l7 69 37 6 c54 9 64 14 57 25 -6 9 -121 10 -131 1z"/>
<path d="M13157 6433 c-4 -3 -7 -44 -7 -90 0 -67 3 -83 15 -83 12 0 15 17 15
90 0 83 -5 101 -23 83z"/>
<path d="M13270 6433 c-83 -31 -79 -148 6 -169 39 -10 89 0 92 18 3 16 -2 17
-41 12 -37 -5 -48 -3 -66 15 -11 11 -21 30 -21 41 0 11 10 30 21 41 18 18 29
20 66 15 39 -5 44 -4 41 12 -2 12 -14 18 -43 19 -22 1 -47 -1 -55 -4z"/>
<path d="M13416 6418 c-16 -14 -29 -38 -33 -60 -5 -32 -1 -41 25 -67 29 -29
34 -31 102 -29 l71 2 -3 84 -3 84 -66 5 c-59 4 -70 1 -93 -19z m115 -18 c14
-8 19 -21 19 -50 0 -43 -18 -60 -65 -60 -47 0 -65 17 -65 61 0 32 4 41 23 49
30 12 65 12 88 0z"/>
<path d="M2962 6238 l3 -163 40 0 40 0 0 160 0 160 -43 3 -43 3 3 -163z"/>
<path d="M3168 6385 c-15 -8 -31 -30 -38 -49 -18 -54 5 -88 86 -126 55 -26 65
-34 62 -53 -3 -19 -9 -22 -48 -22 -25 0 -60 4 -77 9 -32 7 -33 7 -33 -23 0
-38 26 -51 104 -51 71 0 114 16 131 51 34 65 11 108 -81 150 -94 41 -84 84 15
61 39 -9 48 -9 59 5 6 9 12 22 12 28 0 33 -140 48 -192 20z"/>
<path d="M3474 6390 c-29 -12 -54 -49 -54 -81 0 -38 32 -73 88 -97 63 -27 79
-46 61 -68 -13 -16 -66 -15 -126 2 -20 6 -23 3 -23 -25 0 -39 26 -51 108 -51
71 0 102 15 125 61 28 59 10 92 -75 135 -50 25 -68 40 -66 52 4 18 50 22 99 8
21 -6 27 -3 37 20 7 14 11 28 10 29 -30 25 -139 34 -184 15z"/>
<path d="M3777 6388 c-22 -8 -26 -14 -21 -31 10 -35 19 -39 62 -26 49 14 88 6
97 -21 10 -31 -2 -40 -56 -40 -59 0 -113 -20 -128 -48 -6 -12 -11 -39 -11 -62
0 -31 6 -47 26 -65 36 -34 109 -35 149 -3 l28 22 15 -22 c8 -12 25 -22 38 -22
l24 0 0 131 c0 72 -5 139 -10 150 -6 10 -24 26 -40 34 -33 17 -130 19 -173 3z
m143 -187 c0 -32 -39 -71 -70 -71 -36 0 -56 30 -40 59 12 24 25 29 73 30 30 1
37 -3 37 -18z"/>
<path d="M4154 6384 c-51 -27 -77 -84 -72 -160 5 -73 25 -109 79 -137 49 -26
140 -19 175 14 73 67 73 202 0 269 -34 31 -134 39 -182 14z m130 -76 c10 -13
16 -43 16 -73 0 -66 -20 -95 -65 -95 -45 0 -65 29 -65 95 0 66 20 95 65 95 24
0 39 -7 49 -22z"/>
<path d="M12228 6158 c9 -9 15 -9 24 0 9 9 7 12 -12 12 -19 0 -21 -3 -12 -12z"/>
<path d="M12301 6138 c0 -18 3 -27 6 -20 4 10 9 10 22 -2 17 -15 18 -14 19 19
1 31 -1 35 -23 35 -22 0 -25 -4 -24 -32z m39 12 c0 -5 -7 -10 -15 -10 -8 0
-15 5 -15 10 0 6 7 10 15 10 8 0 15 -4 15 -10z"/>
<path d="M12402 6145 c-16 -36 -16 -50 2 -36 7 6 21 9 30 5 9 -3 16 -4 16 -1
0 13 -24 57 -30 57 -4 0 -12 -11 -18 -25z m23 -5 c3 -5 1 -10 -4 -10 -6 0 -11
5 -11 10 0 6 2 10 4 10 3 0 8 -4 11 -10z"/>
<path d="M12491 6135 c1 -32 2 -35 8 -15 l7 24 15 -22 c19 -26 29 -19 28 17
-1 17 -3 20 -6 9 -6 -23 -11 -23 -34 5 l-18 22 0 -40z"/>
<path d="M12585 6160 c-3 -5 3 -15 15 -22 25 -16 25 -25 3 -31 -14 -4 -13 -5
3 -6 29 -1 41 29 14 36 -25 7 -26 20 -2 26 13 4 12 5 -5 6 -12 0 -25 -3 -28
-9z"/>
<path d="M12671 6133 c1 -21 3 -30 6 -21 2 9 12 19 21 21 15 4 15 5 0 6 -10 0
-18 5 -18 10 0 5 8 12 18 14 13 4 11 5 -5 6 -20 1 -23 -4 -22 -36z"/>
<path d="M12754 6156 c-9 -24 0 -51 19 -54 23 -5 47 15 47 38 0 29 -56 42 -66
16z m50 -5 c10 -16 -5 -41 -25 -41 -14 0 -19 7 -19 25 0 18 5 25 19 25 11 0
22 -4 25 -9z"/>
<path d="M12860 6160 c0 -5 7 -7 15 -4 8 4 15 1 15 -5 0 -6 -7 -11 -15 -11 -8
0 -15 -8 -15 -17 0 -14 2 -15 9 -4 7 10 10 11 16 0 6 -9 11 -6 17 10 4 13 6
27 2 32 -7 12 -44 12 -44 -1z"/>
<path d="M12941 6133 c1 -21 3 -31 6 -22 5 19 53 21 65 4 4 -5 8 5 8 23 0 35
-13 42 -30 15 -10 -17 -10 -17 -20 0 -18 28 -30 19 -29 -20z"/>
<path d="M13071 6152 c-16 -30 -14 -37 14 -37 28 0 32 12 11 40 -13 18 -14 18
-25 -3z"/>
<path d="M13152 6138 c4 -41 40 -52 58 -18 15 27 -2 50 -37 50 -21 0 -24 -4
-21 -32z m51 10 c6 -19 -3 -38 -18 -38 -18 0 -28 17 -21 35 7 18 33 20 39 3z"/>
<path d="M13253 6154 c-9 -24 10 -49 38 -49 20 0 24 5 24 30 0 25 -4 30 -28
33 -18 2 -29 -2 -34 -14z m55 -17 c4 -20 -25 -34 -40 -19 -15 15 -1 44 19 40
10 -2 19 -11 21 -21z"/>
<path d="M13360 6133 c0 -26 3 -34 9 -24 5 7 13 11 19 7 12 -7 26 29 17 44 -3
5 -15 10 -26 10 -15 0 -19 -7 -19 -37z m35 17 c3 -5 -1 -10 -9 -10 -9 0 -16 5
-16 10 0 6 4 10 9 10 6 0 13 -4 16 -10z"/>
<path d="M13450 6135 c0 -30 3 -35 23 -34 16 1 18 2 5 6 -10 2 -18 8 -18 13 0
5 8 11 18 13 16 4 16 5 0 6 -10 0 -18 5 -18 10 0 5 8 12 18 14 13 4 11 5 -5 6
-20 1 -23 -4 -23 -34z"/>
<path d="M13530 6155 c0 -9 7 -18 15 -21 20 -8 19 -21 -2 -27 -14 -4 -13 -5 4
-6 32 -2 39 19 13 39 -22 17 -23 18 -4 23 16 4 16 5 -3 6 -15 1 -23 -5 -23
-14z"/>
</g>
</svg>
