<?xml version="1.0" standalone="no"?>
<!DOCTYPE svg PUBLIC "-//W3C//DTD SVG 20010904//EN"
 "http://www.w3.org/TR/2001/REC-SVG-20010904/DTD/svg10.dtd">
<svg version="1.0" xmlns="http://www.w3.org/2000/svg"
 width="1600.000000pt" height="717.000000pt" viewBox="0 0 1600.000000 717.000000"
 preserveAspectRatio="xMidYMid meet">

<g transform="translate(0.000000,717.000000) scale(0.100000,-0.100000)"
fill="#000000" stroke="none">
<path d="M0 3585 l0 -3585 8000 0 8000 0 0 3585 0 3585 -810 0 -810 0 0 -980
0 -980 -6380 0 -6380 0 0 980 0 980 -810 0 -810 0 0 -3585z m5700 1039 c0 -17
-26 -19 -36 -3 -7 12 15 31 28 23 4 -3 8 -12 8 -20z m218 -72 c3 -87 2 -92
-18 -92 -19 0 -20 6 -20 88 0 49 3 92 7 96 19 19 28 -8 31 -92z m72 72 c0 -17
-26 -19 -36 -3 -7 12 15 31 28 23 4 -3 8 -12 8 -20z m410 -67 l0 -94 -45 -1
c-56 0 -75 17 -75 67 0 44 27 74 62 69 17 -2 23 2 24 17 2 32 3 35 19 35 12 0
15 -17 15 -93z m1188 -4 l3 -90 -48 -1 c-61 0 -73 10 -73 63 0 49 26 81 59 70
17 -5 21 -2 21 18 0 27 9 39 24 34 7 -2 12 -41 14 -94z m1337 2 l0 -89 -47 -3
c-39 -3 -49 1 -62 19 -36 50 -2 127 50 114 20 -5 24 -3 24 17 0 27 9 39 24 34
7 -2 11 -39 11 -92z m1822 71 c-4 -10 -19 -14 -46 -13 -56 2 -54 25 2 29 50 4
51 3 44 -16z m398 -71 l0 -89 -47 -3 c-41 -3 -50 0 -64 22 -33 51 5 126 56
110 16 -5 20 -2 20 18 0 27 9 39 24 34 7 -2 11 -39 11 -92z m983 77 c2 -7 -5
-16 -17 -19 -20 -5 -20 -6 -4 -19 17 -13 17 -15 1 -25 -13 -7 -18 -23 -18 -59
0 -43 -3 -50 -20 -50 -17 0 -20 7 -20 48 0 26 -6 54 -12 61 -10 11 -10 14 0
18 6 3 12 11 12 18 0 37 67 60 78 27z m760 -79 l3 -90 -43 0 c-64 -1 -78 10
-78 61 0 49 26 82 60 73 16 -4 20 0 20 17 0 26 9 38 24 33 7 -2 12 -42 14 -94z
m-10430 73 c10 -11 -12 -26 -39 -26 -37 0 -37 -15 0 -35 33 -16 46 -44 36 -75
-11 -36 -97 -41 -103 -7 -3 16 1 17 32 11 31 -5 36 -4 36 13 0 11 -11 23 -30
30 -41 16 -52 59 -19 86 21 17 71 18 87 3z m5549 0 c-2 -6 -24 -12 -50 -13
-35 -1 -45 2 -40 12 6 18 96 18 90 1z m390 -52 c19 -61 25 -60 43 8 8 30 19
48 31 51 25 7 24 -3 -7 -96 -23 -68 -29 -78 -48 -75 -16 2 -27 19 -48 82 -16
43 -26 82 -23 87 12 19 36 -6 52 -57z m1763 36 c0 -5 9 -10 20 -10 11 0 20 -6
20 -14 0 -7 -9 -16 -20 -19 -15 -4 -20 -14 -20 -37 0 -23 5 -33 20 -37 35 -9
24 -35 -12 -31 -31 3 -33 5 -36 48 -2 24 -8 50 -13 57 -7 8 -5 18 8 32 19 23
33 27 33 11z m1300 0 c0 -5 7 -10 15 -10 8 0 15 -7 15 -15 0 -8 -7 -15 -15
-15 -11 0 -15 -11 -15 -40 0 -29 4 -40 15 -40 8 0 15 -7 15 -15 0 -15 -26 -20
-54 -9 -11 4 -16 19 -16 48 0 23 -5 47 -11 53 -8 8 -6 17 7 32 19 22 44 28 44
11z m-8863 -38 c32 -43 0 -112 -52 -112 -34 0 -65 33 -65 69 0 60 81 90 117
43z m140 15 c7 -4 22 -3 33 3 28 15 59 4 66 -24 10 -42 0 -101 -18 -104 -14
-3 -17 6 -20 50 -2 39 -7 53 -18 53 -11 0 -16 -14 -20 -50 -4 -37 -9 -51 -22
-53 -15 -3 -18 4 -18 40 0 82 -37 92 -44 12 -2 -21 -4 -42 -5 -46 -1 -5 -8 -8
-16 -8 -12 0 -15 14 -15 63 0 35 2 66 4 68 8 7 81 4 93 -4z m241 -14 c6 -9 12
-30 12 -47 0 -64 -70 -90 -109 -40 -28 35 -26 59 5 90 19 20 31 24 52 19 15
-3 33 -13 40 -22z m121 18 c19 -12 3 -33 -20 -26 -28 9 -23 -13 6 -27 28 -13
34 -48 11 -67 -18 -15 -78 -10 -84 7 -2 8 7 12 27 12 17 0 31 5 31 10 0 6 -4
10 -10 10 -13 0 -50 37 -50 49 0 31 58 52 89 32z m171 -47 c4 -35 9 -49 20
-49 11 0 16 14 20 50 4 36 9 50 20 50 12 0 16 -15 18 -66 l3 -66 -48 -1 c-26
0 -54 4 -60 10 -14 11 -18 109 -6 122 16 15 28 -4 33 -50z m217 44 c9 -7 17
-7 28 2 21 17 61 4 69 -22 3 -13 6 -42 6 -65 0 -36 -3 -43 -20 -43 -17 0 -20
7 -20 50 0 28 -4 50 -10 50 -5 0 -13 0 -17 0 -5 0 -10 -21 -13 -47 -4 -35 -10
-49 -22 -51 -15 -3 -18 4 -18 41 0 57 -24 83 -40 42 -5 -14 -10 -40 -10 -56 0
-19 -5 -29 -15 -29 -12 0 -15 14 -15 63 0 35 2 66 4 68 10 9 81 7 93 -3z m227
-4 c11 -10 16 -34 16 -69 l0 -53 -51 2 c-38 1 -55 6 -63 19 -15 24 3 51 39 57
16 3 30 11 33 19 3 10 -2 13 -22 9 -30 -6 -46 9 -25 23 22 14 56 11 73 -7z
m234 0 c12 -8 22 -26 22 -40 0 -21 -4 -24 -41 -24 -49 0 -50 -23 0 -28 41 -4
36 -26 -8 -30 -43 -4 -71 21 -71 65 0 36 29 73 58 73 10 0 28 -7 40 -16z m150
3 c9 -7 16 -7 24 1 17 17 44 15 62 -4 11 -10 16 -34 16 -70 0 -47 -3 -54 -19
-54 -17 0 -20 8 -23 53 -2 38 -7 52 -18 52 -11 0 -16 -14 -20 -50 -4 -37 -9
-51 -22 -53 -15 -3 -18 4 -18 40 0 24 -4 48 -8 55 -14 22 -33 -3 -36 -48 -2
-32 -7 -45 -19 -47 -15 -3 -17 6 -17 65 l0 68 43 2 c23 0 48 -4 55 -10z m244
-5 c7 -7 13 -31 13 -53 0 -46 -25 -73 -62 -66 -18 3 -22 -1 -25 -27 -2 -20 -9
-31 -18 -31 -12 0 -16 17 -18 84 -2 46 -1 90 2 96 6 16 92 13 108 -3z m93 8
c8 6 19 9 25 5 17 -11 11 -30 -12 -40 -18 -8 -24 -20 -26 -53 -3 -34 -7 -43
-20 -40 -13 2 -18 16 -20 57 -4 68 3 88 23 71 12 -10 18 -10 30 0z m148 -2 c9
-7 19 -25 23 -40 6 -27 5 -28 -35 -28 -30 0 -41 -4 -41 -15 0 -11 11 -15 36
-15 47 0 40 -24 -8 -28 -69 -6 -100 75 -46 121 24 20 48 22 71 5z m121 6 c28
-11 19 -35 -9 -28 -16 4 -25 2 -25 -5 0 -6 11 -16 25 -21 14 -5 25 -11 25 -14
0 -2 3 -11 6 -19 8 -22 -24 -47 -62 -47 -24 0 -34 5 -34 15 0 9 9 15 25 15 14
0 25 4 25 8 0 5 -11 15 -25 22 -56 30 -11 97 49 74z m137 -4 c15 -9 19 -22 19
-68 l0 -57 -50 -2 c-40 -2 -52 1 -60 17 -16 30 4 60 40 60 21 0 30 5 30 16 0
11 -8 14 -27 12 -30 -3 -44 18 -16 25 31 8 44 7 64 -3z m237 -6 c12 -8 22 -26
22 -40 0 -21 -4 -24 -41 -24 -48 0 -51 -24 -3 -27 16 0 33 -2 38 -2 21 -2 -19
-31 -43 -31 -65 0 -97 74 -51 120 24 24 48 25 78 4z m131 7 c21 -13 3 -32 -25
-25 -34 9 -30 -11 6 -26 56 -23 32 -84 -31 -78 -43 4 -51 28 -10 28 39 0 39
10 1 32 -34 19 -40 51 -12 67 21 13 52 14 71 2z m92 0 c20 13 27 11 49 -11 24
-24 26 -67 4 -99 -13 -18 -23 -22 -46 -17 -27 5 -30 4 -25 -15 7 -27 -1 -49
-19 -49 -11 0 -14 21 -14 100 0 94 1 100 18 91 11 -6 24 -6 33 0z m187 -7 c12
-8 22 -26 22 -39 0 -20 -6 -24 -35 -27 -46 -4 -46 -22 0 -26 47 -4 41 -26 -8
-30 -68 -6 -102 65 -55 115 25 27 45 29 76 7z m141 7 c19 -12 4 -33 -18 -26
-25 8 -45 -19 -37 -51 5 -19 12 -25 29 -22 22 2 27 -2 27 -22 0 -18 -59 -11
-80 10 -27 27 -25 66 5 95 25 26 50 31 74 16z m69 -64 c3 -62 1 -67 -18 -67
-18 0 -20 6 -20 63 0 35 3 67 7 71 17 17 28 -6 31 -67z m133 52 c16 -16 19
-30 17 -67 l-3 -46 -40 -2 c-61 -3 -75 3 -75 36 0 24 5 31 28 36 47 10 53 14
47 24 -4 6 -18 9 -32 8 -30 -3 -43 18 -16 25 37 10 54 6 74 -14z m157 -52 c3
-62 1 -67 -18 -67 -18 0 -20 6 -20 63 0 35 3 67 7 71 17 17 28 -6 31 -67z
m127 62 c4 -5 -5 -27 -19 -48 -32 -46 -32 -51 -1 -51 16 0 25 -6 25 -15 0 -11
-12 -15 -49 -15 -28 0 -52 4 -55 9 -3 5 8 27 24 49 26 37 27 63 1 47 -12 -7
-24 12 -16 25 8 13 82 13 90 -1z m116 1 c15 -9 19 -22 19 -68 l0 -57 -50 -2
c-40 -2 -52 1 -60 17 -15 28 3 58 37 62 14 2 28 9 31 16 3 9 -4 12 -23 10 -31
-3 -46 18 -18 25 31 8 44 7 64 -3z m301 -7 c13 -12 18 -30 18 -68 l0 -53 -51
2 c-38 1 -55 6 -63 19 -15 24 3 51 40 57 35 6 33 26 -2 23 -14 -1 -24 4 -24
12 0 27 55 33 82 8z m251 -2 c12 -9 17 -29 17 -67 0 -47 -2 -54 -20 -54 -17 0
-20 7 -20 51 0 47 -2 50 -22 47 -20 -3 -23 -10 -26 -51 -3 -39 -6 -48 -20 -45
-13 2 -18 16 -20 57 -2 29 -1 59 1 65 6 16 90 14 110 -3z m141 3 c11 -10 16
-34 16 -69 l0 -53 -51 2 c-38 1 -55 6 -63 19 -15 24 3 51 39 57 16 3 30 11 33
19 4 11 -2 13 -27 8 -23 -5 -31 -3 -31 7 0 28 60 35 84 10z m252 -9 c33 -44 3
-119 -44 -113 -24 3 -27 -1 -30 -30 -3 -25 -8 -32 -20 -30 -14 3 -17 17 -18
83 -2 112 -2 112 52 110 33 -1 51 -7 60 -20z m69 15 c4 -7 12 -7 25 0 26 14
30 13 30 -10 0 -11 -7 -20 -15 -20 -20 0 -37 -35 -33 -68 2 -19 -2 -28 -14
-30 -16 -3 -18 5 -18 67 0 65 9 87 25 61z m173 -6 c28 -20 31 -90 5 -110 -47
-35 -103 -4 -103 57 0 39 26 69 60 69 9 0 26 -7 38 -16z m240 -35 c2 -24 7
-48 12 -53 16 -16 39 14 42 57 2 29 8 42 18 42 12 0 15 -14 15 -65 l0 -64 -47
-3 c-61 -4 -78 13 -78 76 0 26 3 51 7 55 15 15 28 -3 31 -45z m211 42 c16 -10
5 -34 -12 -28 -19 7 -47 -12 -47 -32 0 -24 25 -45 45 -38 20 8 31 -14 14 -27
-8 -6 -13 -19 -11 -28 4 -20 -29 -40 -47 -29 -9 6 -10 11 -2 15 16 10 14 23
-9 44 -11 10 -23 32 -26 49 -10 52 52 101 95 74z m132 -12 c16 -16 19 -30 17
-67 l-3 -46 -40 -2 c-64 -4 -77 3 -73 39 3 28 8 33 36 37 39 6 43 25 5 25 -30
0 -43 21 -16 28 37 10 54 6 74 -14z m149 1 c24 -24 26 -67 4 -98 -31 -45 -114
-15 -114 42 0 33 37 76 66 76 13 0 33 -9 44 -20z m460 0 c11 -11 20 -29 20
-40 0 -17 -7 -20 -40 -20 -29 0 -40 -4 -40 -15 0 -11 11 -15 36 -15 47 0 40
-24 -8 -28 -69 -6 -100 75 -46 121 27 22 53 22 78 -3z m155 -3 c8 -12 15 -43
15 -69 0 -41 -3 -48 -20 -48 -17 0 -20 7 -20 49 0 32 -5 51 -14 54 -22 9 -36
-14 -36 -61 0 -36 -3 -43 -17 -40 -14 2 -19 15 -21 57 -2 29 -1 59 1 65 3 6
25 12 51 13 37 1 49 -3 61 -20z m286 13 c15 -9 19 -22 19 -69 l0 -58 -50 -1
c-40 -1 -52 3 -60 19 -15 27 3 57 37 61 14 2 28 9 31 16 3 10 -4 13 -24 10
-30 -3 -45 18 -17 25 31 8 44 7 64 -3z m241 -7 c10 -9 18 -26 18 -39 0 -19 -6
-23 -35 -26 -46 -4 -46 -22 -1 -26 50 -4 37 -32 -15 -32 -28 0 -42 6 -53 22
-47 67 27 155 86 101z m239 6 c11 -6 20 -5 24 1 9 15 42 12 59 -6 11 -10 16
-34 16 -70 0 -47 -2 -54 -20 -54 -17 0 -20 7 -20 50 0 43 -3 50 -20 50 -17 0
-20 -7 -20 -50 0 -43 -3 -50 -20 -50 -17 0 -20 7 -20 48 0 53 -5 63 -26 55 -9
-3 -14 -21 -14 -54 0 -42 -3 -49 -20 -49 -18 0 -20 7 -20 63 0 35 2 66 4 68 9
8 80 7 97 -2z m220 1 c15 -9 19 -22 19 -68 l0 -58 -42 1 c-62 2 -65 3 -72 21
-10 27 12 54 44 54 20 0 30 5 30 15 0 11 -8 15 -26 13 -31 -3 -45 18 -17 25
31 8 44 7 64 -3z m84 0 c4 -6 14 -5 29 1 17 8 29 8 45 0 18 -10 21 -21 21 -71
0 -53 -2 -60 -20 -60 -17 0 -20 7 -20 49 0 28 -4 52 -8 55 -17 10 -31 -11 -34
-54 -2 -33 -8 -46 -20 -48 -16 -3 -18 5 -18 67 0 65 9 87 25 61z m165 -32 c0
-51 12 -73 33 -65 11 4 17 22 19 54 2 35 7 48 18 48 12 0 15 -14 15 -65 l0
-64 -45 -3 c-59 -4 -69 4 -76 59 -8 54 -1 78 21 78 11 0 15 -11 15 -42z m318
26 c12 -8 22 -26 22 -40 0 -21 -4 -24 -41 -24 -52 0 -48 -24 5 -28 31 -3 35
-6 25 -18 -16 -19 -68 -18 -91 3 -27 24 -24 87 4 107 12 9 29 16 38 16 9 0 26
-7 38 -16z m162 -4 c5 -8 10 -39 10 -67 0 -46 -3 -53 -20 -53 -17 0 -20 7 -20
49 0 28 -4 52 -8 55 -17 10 -31 -11 -34 -54 -2 -33 -8 -46 -20 -48 -16 -3 -18
5 -18 61 0 35 2 66 4 68 12 12 97 3 106 -11z m138 -3 c3 -13 -2 -18 -15 -17
-39 5 -44 0 -41 -32 2 -27 7 -33 27 -33 27 0 40 -22 18 -30 -8 -4 -12 -15 -10
-29 3 -16 -1 -25 -13 -30 -22 -8 -45 11 -26 23 10 6 7 15 -12 38 -34 40 -35
95 -3 118 28 20 71 16 75 -8z m124 6 c13 -12 18 -30 18 -68 l0 -53 -51 2 c-38
1 -55 6 -63 19 -15 24 3 51 40 57 33 6 34 24 1 26 -39 2 -42 4 -23 19 26 20
55 19 78 -2z m146 1 c16 -11 22 -25 22 -51 0 -44 -24 -73 -60 -73 -58 0 -86
84 -41 122 28 22 50 23 79 2z m378 8 c13 -8 34 -46 34 -61 0 -6 -18 -11 -40
-11 -29 0 -40 -4 -40 -15 0 -11 11 -15 36 -15 47 0 41 -24 -7 -28 -42 -4 -79
27 -79 64 0 46 62 89 96 66z m279 -2 c4 -7 12 -7 25 0 26 14 30 13 30 -9 0
-10 -9 -21 -19 -24 -15 -4 -20 -15 -23 -48 -2 -32 -8 -45 -20 -47 -16 -3 -18
5 -18 67 0 65 9 87 25 61z m180 -14 c10 -15 15 -40 13 -67 l-3 -44 -55 0 c-53
0 -55 1 -58 29 -4 31 10 46 46 46 13 0 22 6 22 15 0 11 -8 15 -26 13 -31 -3
-45 18 -17 25 42 11 63 6 78 -17z m153 11 c7 -5 12 -31 12 -68 0 -52 -2 -60
-17 -57 -13 2 -19 16 -23 51 -3 26 -8 47 -12 47 -5 0 -12 0 -18 0 -5 0 -10
-22 -10 -50 0 -43 -3 -50 -20 -50 -18 0 -20 7 -20 63 0 35 2 66 4 68 7 7 90 4
104 -4z m131 0 c15 -19 3 -28 -25 -21 -33 9 -30 -8 6 -28 53 -30 34 -78 -32
-78 -27 0 -38 4 -38 15 0 10 10 15 30 15 38 0 38 10 0 32 -34 19 -40 51 -12
67 24 15 58 13 71 -2z m231 -9 c28 -30 27 -82 -2 -102 -33 -23 -74 -20 -92 6
-51 72 35 159 94 96z m76 11 c4 -8 9 -8 17 0 17 17 37 13 37 -8 0 -10 -9 -21
-19 -24 -15 -4 -20 -15 -23 -48 -2 -32 -8 -45 -20 -47 -16 -3 -18 5 -18 67 0
66 9 87 26 60z m179 0 c4 -5 14 -5 27 2 34 18 66 3 73 -35 10 -51 2 -90 -17
-94 -15 -3 -18 4 -18 41 0 57 -24 83 -40 42 -6 -15 -10 -32 -9 -39 4 -29 -2
-46 -16 -46 -8 0 -16 8 -16 18 -1 16 -4 40 -7 70 -3 17 -29 15 -36 -4 -3 -9
-6 -31 -6 -51 0 -27 -4 -34 -17 -31 -14 2 -19 15 -21 57 -2 29 -1 59 1 65 5
13 94 18 102 5z m226 1 c15 -9 19 -22 19 -69 l0 -59 -51 2 c-38 1 -55 6 -63
19 -15 24 3 51 39 57 16 3 30 11 33 19 3 10 -3 12 -27 6 -24 -5 -31 -3 -31 8
0 26 46 35 81 17z m306 -16 c20 -20 24 -31 19 -57 -11 -54 -58 -73 -104 -41
-16 11 -22 25 -22 54 0 29 6 43 22 54 32 23 55 20 85 -10z m79 15 c4 -8 9 -8
17 0 17 17 37 13 37 -7 0 -9 -10 -22 -22 -27 -18 -8 -24 -20 -26 -53 -3 -34
-7 -43 -20 -40 -13 2 -18 16 -20 57 -2 29 -1 60 2 67 6 17 22 18 32 3z m174
-9 c11 -11 20 -29 20 -40 0 -17 -7 -20 -41 -20 -28 0 -39 -4 -36 -12 2 -7 18
-13 36 -13 46 0 37 -29 -10 -33 -66 -6 -101 78 -50 120 30 23 56 23 81 -2z
m114 14 c28 -11 19 -35 -9 -28 -34 8 -31 -7 5 -28 53 -30 34 -78 -32 -78 -49
0 -53 27 -5 32 l32 4 -32 19 c-63 38 -27 105 41 79z m227 -4 c15 -9 19 -22 19
-68 l0 -58 -50 -2 c-40 -2 -51 2 -60 18 -15 28 3 58 37 62 14 2 29 9 31 17 3
10 -2 12 -21 7 -29 -7 -48 11 -26 25 19 12 46 11 70 -1z m-5391 -111 c0 -17
-20 -49 -30 -49 -11 0 -14 43 -3 53 10 11 33 8 33 -4z m-4775 -169 c3 -5 -3
-15 -15 -22 -23 -15 -26 -28 -6 -28 42 0 62 -76 29 -112 -33 -36 -97 -17 -108
32 -8 35 16 80 41 80 9 0 14 6 11 13 -5 12 20 47 34 47 4 0 11 -4 14 -10z m93
-87 c-3 -74 -6 -88 -20 -91 -16 -3 -18 6 -18 87 0 85 1 91 20 91 20 0 21 -5
18 -87z m-970 24 c6 -5 12 -20 12 -33 0 -21 -5 -24 -41 -24 -49 0 -50 -23 -1
-28 47 -5 43 -32 -5 -32 -46 0 -73 24 -73 65 0 63 57 91 108 52z m274 -10 c13
-21 9 -70 -9 -89 -32 -36 -97 -17 -108 31 -8 36 8 69 38 80 24 9 67 -3 79 -22z
m206 -20 c3 -23 0 -26 -35 -29 -49 -4 -49 -22 0 -26 48 -4 44 -26 -6 -30 -63
-5 -98 54 -62 105 30 43 97 30 103 -20z m200 -23 l3 -59 -51 -2 c-44 -2 -52 1
-59 20 -13 32 5 57 39 57 21 0 30 5 30 16 0 12 -6 15 -24 10 -14 -3 -28 -2
-31 4 -9 15 35 28 65 20 23 -6 25 -12 28 -66z m-818 51 c-3 -5 -15 -9 -27 -7
-32 4 -28 -10 7 -30 53 -30 31 -82 -31 -76 -43 4 -51 28 -10 28 39 0 39 10 1
32 -28 16 -39 46 -23 62 11 11 89 2 83 -9z m270 -1 c0 -11 -6 -15 -20 -11 -24
6 -43 -15 -38 -45 2 -18 9 -23 31 -23 19 1 27 -4 27 -17 0 -24 -56 -25 -82 -1
-22 20 -24 76 -2 97 21 22 84 21 84 0z m968 4 c5 -7 13 -23 16 -35 7 -21 4
-23 -33 -23 -30 0 -41 -4 -41 -15 0 -11 11 -15 36 -15 24 0 34 -4 32 -12 -6
-19 -70 -21 -92 -5 -23 17 -27 77 -7 101 16 19 74 21 89 4z m150 0 c17 -17 15
-78 -5 -100 -31 -35 -101 -15 -104 30 -2 31 3 57 13 70 13 15 80 16 96 0z m77
-98 c0 -8 -8 -16 -17 -18 -13 -2 -18 3 -18 18 0 15 5 20 18 18 9 -2 17 -10 17
-18z m1275 -199 c0 -24 3 -28 23 -24 34 7 57 -21 57 -67 0 -49 -27 -70 -82
-63 l-38 5 0 89 c0 82 1 89 20 89 15 0 20 -7 20 -29z m1750 -61 c0 -83 -1 -90
-20 -90 -18 0 -20 7 -20 83 0 85 3 97 27 97 10 0 13 -22 13 -90z m75 60 c0
-21 5 -25 28 -22 43 5 57 -13 57 -74 0 -47 -2 -54 -20 -54 -17 0 -20 7 -20 51
0 43 -3 50 -17 47 -13 -2 -19 -16 -23 -48 -4 -32 -10 -46 -22 -48 -16 -3 -18
6 -18 88 0 82 2 91 18 88 10 -2 17 -13 17 -28z m2663 -63 c3 -82 2 -87 -18
-87 -19 0 -20 6 -20 91 0 81 2 90 18 87 14 -3 17 -17 20 -91z m122 78 c16 -20
7 -30 -16 -17 -12 7 -23 6 -35 -1 -10 -6 -21 -8 -25 -4 -11 11 17 37 41 37 12
0 28 -7 35 -15z m370 1 c0 -8 -5 -18 -11 -22 -14 -8 -33 11 -25 25 10 16 36
13 36 -3z m430 -76 c0 -83 -1 -90 -20 -90 -19 0 -20 7 -20 90 0 83 1 90 20 90
19 0 20 -7 20 -90z m842 0 l3 -90 -25 2 c-14 1 -31 -2 -38 -6 -7 -4 -24 -1
-37 8 -20 13 -25 25 -25 56 0 46 21 70 61 70 19 0 28 4 24 10 -10 16 2 40 19
40 11 0 15 -19 18 -90z m283 70 c0 -22 -29 -18 -33 3 -3 14 1 18 15 15 10 -2
18 -10 18 -18z m-9255 -5 c0 -10 -10 -15 -30 -15 -23 0 -30 -4 -30 -20 0 -16
7 -20 31 -20 38 0 35 -24 -4 -28 -41 -5 -38 -42 3 -42 20 0 30 -5 30 -15 0
-11 -12 -15 -50 -15 l-50 0 0 85 0 85 50 0 c38 0 50 -4 50 -15z m190 -10 c0
-8 6 -15 14 -15 24 0 30 -21 7 -27 -29 -8 -30 -68 -1 -76 30 -8 24 -27 -9 -27
-35 0 -43 10 -52 69 -5 33 -2 52 8 68 17 26 33 30 33 8z m1810 0 c0 -8 9 -15
20 -15 11 0 20 -7 20 -15 0 -8 -9 -15 -20 -15 -16 0 -20 -7 -20 -35 0 -28 4
-35 20 -35 11 0 20 -6 20 -14 0 -22 -30 -28 -55 -12 -29 19 -39 99 -17 134 16
25 32 29 32 7z m406 0 c4 -8 12 -15 19 -15 24 0 28 -21 6 -27 -16 -4 -21 -13
-21 -39 0 -23 5 -34 14 -34 24 0 28 -18 6 -30 -35 -19 -60 3 -60 55 0 24 -5
47 -10 50 -6 4 -3 16 7 30 21 28 31 31 39 10z m3624 0 c0 -8 9 -15 20 -15 11
0 20 -7 20 -15 0 -8 -9 -15 -20 -15 -16 0 -20 -7 -20 -34 0 -25 5 -35 20 -39
11 -3 20 -10 20 -15 0 -16 -37 -24 -59 -13 -25 14 -34 105 -13 139 16 25 32
29 32 7z m3620 1 c0 -7 9 -16 20 -19 11 -3 20 -10 20 -16 0 -6 -9 -11 -20 -11
-16 0 -20 -7 -20 -34 0 -25 5 -35 20 -39 11 -3 20 -10 20 -15 0 -16 -37 -24
-59 -13 -36 20 -30 161 7 161 6 0 12 -6 12 -14z m-9533 -33 c3 -7 -9 -13 -29
-15 l-33 -3 30 -15 c42 -21 47 -66 10 -80 -31 -12 -78 -3 -72 14 2 6 16 10 31
8 32 -3 35 19 4 33 -57 26 -43 78 20 73 20 -2 37 -8 39 -15z m227 11 c12 -5
16 -20 16 -63 l0 -58 -52 1 c-52 1 -53 2 -53 31 0 25 5 32 33 40 40 12 42 25
2 25 -29 0 -38 9 -23 23 8 9 56 9 77 1z m244 -6 c7 -6 12 -33 12 -64 0 -47 -3
-54 -19 -54 -17 0 -20 8 -23 48 -2 34 -7 47 -18 47 -11 0 -16 -13 -18 -47 -3
-39 -7 -48 -22 -48 -15 0 -19 9 -22 48 -2 34 -7 47 -18 47 -11 0 -16 -13 -18
-47 -3 -40 -6 -48 -23 -48 -17 0 -19 7 -19 63 l0 62 88 2 c48 0 93 -4 100 -9z
m147 -4 c11 -11 15 -30 13 -58 -2 -33 -8 -43 -30 -54 -23 -11 -33 -11 -55 0
-22 10 -29 21 -31 52 -2 25 2 44 14 57 21 23 67 25 89 3z m132 -1 c3 -7 -9
-13 -29 -15 l-33 -3 33 -18 c23 -12 32 -25 32 -43 0 -31 -43 -51 -78 -35 -29
14 -19 33 14 25 17 -4 24 -2 24 9 0 8 -11 18 -24 21 -29 7 -40 31 -25 57 8 16
19 19 46 17 20 -2 38 -8 40 -15z m197 1 c9 -8 16 -26 16 -40 0 -21 -4 -24 -40
-24 -22 0 -40 -4 -40 -9 0 -13 30 -22 51 -16 28 9 33 -14 5 -25 -68 -25 -122
48 -80 108 18 26 65 30 88 6z m234 3 c7 -5 12 -32 12 -63 0 -47 -3 -54 -19
-54 -17 0 -20 8 -23 48 -2 34 -7 47 -18 47 -11 0 -16 -13 -18 -47 -3 -39 -7
-48 -22 -48 -15 0 -19 9 -22 48 -2 34 -7 47 -18 47 -11 0 -16 -13 -18 -47 -3
-40 -6 -48 -23 -48 -17 0 -19 7 -19 63 l0 64 88 0 c48 0 93 -4 100 -10z m210
-4 c2 -8 -6 -13 -22 -13 -28 0 -50 -29 -40 -54 4 -10 18 -16 35 -16 34 0 38
-15 9 -30 -15 -8 -27 -8 -48 2 -22 11 -28 21 -30 58 -3 34 1 47 15 58 22 15
75 12 81 -5z m116 11 c23 -9 40 -68 26 -94 -16 -29 -56 -43 -83 -29 -29 16
-37 28 -37 63 0 51 44 79 94 60z m171 -10 c9 -10 15 -34 15 -65 0 -42 -3 -49
-19 -49 -17 0 -20 8 -23 48 -3 39 -6 47 -23 47 -17 0 -20 -8 -23 -48 -3 -39
-6 -48 -20 -45 -13 2 -18 16 -20 52 -2 27 -1 54 1 60 7 18 93 18 112 0z m132
-1 c3 -7 -9 -13 -29 -15 l-33 -3 33 -18 c23 -12 32 -25 32 -43 0 -31 -43 -51
-77 -35 -34 16 -29 34 7 26 23 -5 30 -3 30 9 0 9 -6 16 -13 16 -8 0 -22 9 -31
19 -14 16 -15 23 -6 41 9 17 19 20 47 18 20 -2 38 -8 40 -15z m231 5 c7 -7 12
-36 12 -64 0 -52 0 -53 -30 -52 -17 1 -33 -2 -36 -5 -13 -12 -44 14 -44 36 0
29 18 47 47 47 13 0 23 5 23 10 0 6 -13 10 -30 10 -29 0 -38 9 -23 23 11 12
68 8 81 -5z m160 0 c7 -6 12 -33 12 -64 0 -47 -2 -54 -20 -54 -17 0 -20 7 -20
51 0 43 -3 50 -17 47 -14 -2 -19 -15 -21 -51 -3 -39 -6 -47 -23 -47 -17 0 -19
7 -19 63 l0 64 48 1 c26 0 53 -4 60 -10z m250 0 c7 -7 12 -25 12 -40 0 -26 -3
-28 -41 -28 -36 0 -40 -2 -28 -16 8 -9 21 -13 35 -10 13 4 26 1 29 -5 10 -15
1 -21 -39 -22 -67 -2 -101 68 -56 113 22 22 69 27 88 8z m300 -41 c3 -38 7
-47 22 -47 15 0 19 9 22 47 2 36 7 49 21 51 15 3 17 -5 17 -61 l0 -65 -42 -4
c-65 -7 -78 6 -78 75 0 50 2 58 18 55 13 -2 18 -15 20 -51z m207 38 c0 -5 -13
-12 -30 -15 l-30 -6 33 -17 c38 -21 42 -50 8 -72 -27 -18 -76 -11 -76 11 0 10
8 12 30 8 19 -4 30 -2 30 4 0 7 -13 18 -30 27 -31 16 -39 42 -18 63 15 15 83
12 83 -3z m125 1 c0 -9 -12 -16 -27 -18 -23 -2 -29 -8 -31 -35 -3 -31 -1 -33
27 -33 20 0 31 -5 31 -14 0 -32 -81 -25 -94 9 -11 30 -6 68 11 87 20 22 83 25
83 4z m128 2 c7 -7 12 -36 12 -64 0 -51 -1 -53 -27 -52 -16 0 -32 -1 -38 -2
-28 -7 -45 2 -51 27 -8 30 15 53 53 53 13 0 23 5 23 10 0 6 -13 10 -30 10 -29
0 -38 9 -23 23 11 12 68 8 81 -5z m222 -3 c16 -20 17 -80 1 -99 -8 -9 -26 -16
-42 -16 -26 0 -29 -4 -29 -30 0 -23 -4 -30 -20 -30 -19 0 -20 7 -20 93 l0 94
49 1 c32 0 54 -4 61 -13z m138 3 c7 -7 12 -36 12 -64 0 -52 0 -53 -30 -52 -17
1 -33 -2 -36 -5 -15 -14 -44 15 -44 43 0 25 4 30 35 36 43 8 46 24 5 24 -29 0
-38 9 -23 23 11 12 68 8 81 -5z m132 -4 c0 -7 -9 -16 -20 -19 -16 -5 -20 -15
-20 -51 0 -37 -3 -44 -20 -44 -18 0 -20 7 -20 63 l0 62 40 1 c27 1 40 -3 40
-12z m124 -6 c9 -12 16 -42 16 -65 0 -41 -1 -43 -28 -41 -15 1 -33 -1 -40 -6
-19 -12 -52 12 -52 39 0 26 25 45 60 45 12 0 18 5 15 10 -3 6 -17 10 -30 10
-13 0 -26 4 -29 9 -19 30 67 29 88 -1z m304 10 c7 -6 12 -33 12 -64 0 -47 -2
-54 -20 -54 -17 0 -20 7 -20 51 0 43 -3 50 -17 47 -14 -2 -19 -15 -21 -51 -3
-38 -7 -47 -22 -47 -15 0 -19 9 -22 48 -2 34 -7 47 -18 47 -11 0 -16 -13 -18
-47 -3 -40 -6 -48 -23 -48 -17 0 -19 7 -19 63 l0 64 88 0 c48 1 93 -3 100 -9z
m148 -13 c23 -35 12 -55 -32 -55 -24 0 -34 -4 -31 -12 2 -8 17 -12 36 -10 21
1 31 -2 31 -12 0 -20 -47 -29 -78 -14 -22 11 -28 21 -30 54 -4 49 16 74 58 74
20 0 35 -8 46 -25z m369 9 c26 -26 16 -95 -16 -113 -22 -12 -29 -12 -55 0 -23
11 -30 21 -32 53 -2 25 2 44 14 57 21 23 67 25 89 3z m135 1 c0 -6 -11 -17
-25 -23 -21 -10 -25 -19 -25 -52 0 -33 -3 -40 -20 -40 -18 0 -20 7 -20 58 0
32 2 61 4 63 11 11 86 6 86 -6z m118 3 c7 -7 12 -36 12 -64 0 -51 -1 -53 -29
-52 -15 1 -33 -2 -38 -5 -13 -8 -53 20 -53 38 0 21 29 45 56 45 13 0 24 5 24
10 0 6 -13 10 -30 10 -29 0 -38 9 -23 23 11 12 68 8 81 -5z m132 -10 c0 -10
-4 -17 -9 -13 -17 10 -41 -26 -41 -61 0 -24 -5 -34 -15 -34 -12 0 -15 14 -15
63 l0 62 40 1 c33 1 40 -2 40 -18z m196 -3 c23 -35 12 -55 -31 -55 -19 0 -35
-4 -35 -9 0 -13 30 -22 51 -16 13 4 19 1 19 -8 0 -20 -42 -29 -74 -17 -34 12
-49 51 -35 87 13 34 26 43 61 43 18 0 33 -8 44 -25z m297 17 c4 -1 7 -29 7
-63 0 -52 -2 -60 -17 -57 -14 2 -19 15 -21 51 -3 39 -6 48 -20 45 -13 -2 -18
-16 -20 -51 -3 -39 -6 -47 -23 -47 -16 0 -19 7 -19 51 0 43 -3 50 -17 47 -14
-2 -19 -15 -21 -51 -3 -39 -6 -47 -23 -47 -17 0 -19 7 -19 64 l0 63 93 -2 c50
-1 95 -3 100 -3z m147 -11 c5 -11 10 -41 10 -67 0 -43 -2 -46 -22 -41 -12 3
-30 2 -40 -4 -26 -14 -58 6 -58 36 0 26 25 45 60 45 12 0 18 5 15 10 -3 6 -17
10 -31 10 -15 0 -24 6 -24 15 0 24 76 20 90 -4z m158 -15 c8 -28 9 -55 3 -88
0 -5 -8 -8 -15 -8 -11 0 -16 14 -18 48 -3 39 -6 47 -23 47 -17 0 -20 -8 -23
-47 -3 -40 -6 -48 -23 -48 -17 0 -19 7 -19 63 l0 63 55 2 c53 1 54 1 63 -32z
m248 9 c23 -35 12 -55 -31 -55 -19 0 -35 -4 -35 -9 0 -13 30 -22 51 -16 13 4
19 1 19 -9 0 -22 -43 -30 -77 -14 -23 11 -29 20 -31 54 -4 49 16 74 58 74 20
0 35 -8 46 -25z m124 9 c0 -8 -4 -14 -9 -14 -20 0 -41 -33 -41 -66 0 -27 -4
-34 -20 -34 -18 0 -20 7 -20 58 0 32 2 61 4 63 3 2 23 5 45 5 29 1 41 -3 41
-12z m188 4 c7 -7 12 -36 12 -64 0 -51 -1 -53 -29 -52 -15 1 -34 -2 -40 -6
-14 -9 -51 20 -51 40 0 21 30 44 56 44 13 0 24 5 24 10 0 6 -13 10 -30 10 -29
0 -38 9 -23 23 11 12 68 8 81 -5z m216 -7 c28 -31 17 -55 -27 -59 -37 -3 -49
-15 -23 -25 8 -3 24 -3 35 0 15 4 21 1 21 -10 0 -24 -56 -32 -85 -13 -20 13
-25 25 -25 56 0 22 7 45 16 54 21 22 67 20 88 -3z m80 -2 l14 -21 11 21 c7 12
21 21 31 21 25 0 25 -8 0 -40 -18 -24 -18 -25 1 -57 l21 -33 -21 0 c-11 0 -25
8 -30 18 -10 16 -12 16 -25 0 -7 -10 -23 -18 -35 -18 l-23 0 21 33 c18 30 19
36 6 53 -8 10 -15 25 -15 32 0 19 27 14 44 -9z m194 4 c2 -8 -6 -13 -22 -13
-28 0 -50 -29 -40 -54 4 -10 18 -16 35 -16 19 0 29 -5 29 -15 0 -23 -46 -30
-75 -11 -20 13 -25 25 -25 61 0 31 5 47 18 54 22 14 74 10 80 -6z m126 1 c9
-8 16 -26 16 -40 0 -21 -4 -24 -40 -24 -22 0 -40 -4 -40 -9 0 -13 30 -22 51
-16 26 8 33 -12 9 -25 -27 -15 -77 -3 -90 20 -15 28 -12 71 7 92 20 22 66 24
87 2z m208 4 c16 -13 22 -29 19 -55 -1 -8 -15 -13 -36 -13 -19 0 -35 -4 -35
-9 0 -13 25 -20 49 -14 15 4 21 1 21 -10 0 -20 -53 -32 -79 -17 -43 23 -54 77
-21 110 23 23 58 26 82 8z m151 6 c14 -4 17 -17 17 -65 0 -45 -3 -59 -14 -59
-11 0 -16 14 -18 48 -3 39 -6 47 -23 47 -17 0 -20 -8 -23 -47 -3 -40 -6 -48
-23 -48 -17 0 -19 7 -19 64 l0 63 43 1 c23 0 50 -2 60 -4z m152 -9 c0 -5 -13
-12 -30 -15 -25 -4 -30 -10 -30 -35 0 -22 5 -31 20 -33 45 -7 51 -12 31 -27
-39 -29 -96 4 -96 55 0 45 27 72 68 68 21 -2 37 -7 37 -13z m65 -50 c0 -58 -2
-65 -20 -65 -18 0 -20 7 -20 65 0 58 2 65 20 65 18 0 20 -7 20 -65z m129 56
c9 -6 14 -29 15 -62 1 -51 -1 -54 -24 -56 -14 -2 -36 -4 -49 -5 -14 -2 -28 5
-37 17 -12 18 -12 24 2 43 8 12 26 22 40 22 13 0 24 5 24 10 0 6 -13 10 -30
10 -29 0 -38 9 -23 23 9 10 66 8 82 -2z m221 -10 c5 -11 10 -40 10 -65 0 -43
-1 -45 -29 -44 -15 1 -33 -2 -39 -6 -19 -12 -52 13 -52 39 0 26 25 45 59 45
12 0 21 5 21 10 0 6 -13 10 -29 10 -30 0 -46 12 -34 24 3 3 23 6 44 6 28 0 41
-5 49 -19z m210 5 c0 -9 -12 -16 -27 -18 -23 -2 -29 -8 -31 -35 -3 -31 -1 -33
27 -33 20 0 31 -5 31 -14 0 -20 -40 -27 -70 -13 -32 16 -41 79 -14 108 21 23
84 27 84 5z m130 -5 c5 -11 10 -41 10 -66 0 -38 -3 -46 -17 -44 -10 2 -28 -1
-40 -5 -31 -10 -63 10 -63 39 0 26 25 45 59 45 12 0 21 5 21 10 0 6 -13 10
-30 10 -20 0 -30 5 -30 15 0 24 76 20 90 -4z m150 9 c17 -10 28 -120 11 -120
-6 0 -14 0 -18 0 -5 0 -10 21 -13 47 -4 40 -8 48 -25 48 -17 0 -20 -8 -23 -47
-3 -40 -6 -48 -23 -48 -17 0 -19 7 -19 63 l0 64 48 1 c26 0 54 -3 62 -8z m140
-4 c0 -9 -12 -16 -27 -18 -24 -3 -28 -8 -28 -33 0 -25 4 -30 28 -33 25 -3 40
-32 16 -32 -5 0 -9 -8 -8 -17 1 -10 1 -24 0 -30 -1 -15 -51 -18 -51 -3 0 6 5
10 10 10 17 0 11 16 -15 44 -47 51 -23 126 41 126 23 0 34 -5 34 -14z m128 2
c7 -7 12 -36 12 -64 0 -51 -1 -53 -29 -52 -15 1 -33 -2 -38 -5 -13 -8 -53 20
-53 38 0 21 29 45 56 45 13 0 24 5 24 10 0 6 -13 10 -30 10 -29 0 -38 9 -23
23 11 12 68 8 81 -5z m300 0 c7 -7 12 -36 12 -66 0 -45 -3 -53 -17 -51 -10 2
-28 -1 -40 -5 -31 -10 -63 10 -63 39 0 26 25 45 59 45 12 0 21 5 21 10 0 6
-13 10 -30 10 -20 0 -30 5 -30 15 0 19 70 21 88 3z m152 -71 c0 -51 -5 -88
-12 -95 -17 -17 -58 -15 -58 3 0 8 7 15 15 15 12 0 15 16 15 80 0 73 2 80 20
80 18 0 20 -7 20 -83z m70 38 c0 -33 5 -47 16 -52 21 -8 34 14 34 60 0 31 3
38 18 35 14 -3 18 -16 20 -66 3 -59 2 -62 -20 -62 -13 0 -33 -3 -45 -6 -34 -9
-63 27 -63 79 0 46 5 57 27 57 9 0 13 -14 13 -45z m228 33 c7 -6 12 -34 12
-65 0 -46 -3 -54 -17 -51 -14 2 -19 15 -21 51 -3 39 -6 48 -20 45 -13 -2 -18
-16 -20 -51 -3 -39 -6 -47 -23 -47 -17 0 -19 7 -19 63 l0 64 48 1 c26 0 53 -4
60 -10z m254 -5 c21 -19 24 -71 6 -96 -39 -49 -112 -18 -112 48 0 59 62 88
106 48z m216 5 c7 -7 12 -36 12 -66 0 -51 -1 -54 -22 -49 -12 3 -30 2 -40 -4
-26 -14 -58 6 -58 36 0 26 25 45 59 45 12 0 21 5 21 10 0 6 -13 10 -30 10 -20
0 -30 5 -30 15 0 19 70 21 88 3z m147 -4 c11 -11 15 -30 13 -58 -2 -33 -8 -43
-30 -54 -56 -26 -110 26 -87 85 6 15 16 31 22 35 21 13 65 9 82 -8z m132 -1
c3 -7 -9 -13 -29 -15 l-33 -3 33 -18 c27 -15 33 -23 30 -45 -5 -47 -81 -57
-96 -13 -3 10 4 11 27 6 38 -8 42 10 6 27 -30 13 -41 43 -24 64 14 18 80 15
86 -3z m211 5 c7 -6 12 -33 12 -64 0 -47 -3 -54 -19 -54 -17 0 -20 8 -23 48
-2 34 -7 47 -18 47 -11 0 -16 -13 -18 -47 -3 -40 -6 -48 -23 -48 -17 0 -19 7
-19 63 l0 64 48 1 c26 0 53 -4 60 -10z m146 -1 c28 -21 26 -85 -4 -109 -44
-35 -100 -4 -100 56 0 56 59 86 104 53z m136 -2 c0 -10 -11 -15 -32 -16 l-33
0 32 -16 c41 -20 50 -52 22 -75 -24 -21 -42 -22 -70 -7 -26 13 -13 32 17 25
17 -5 24 -2 24 9 0 8 -6 15 -14 15 -24 0 -47 40 -35 62 13 23 89 26 89 3z
m117 -2 c3 -7 -9 -13 -29 -15 l-33 -3 30 -15 c41 -21 47 -65 11 -81 -30 -14
-76 -4 -76 17 0 12 7 14 30 9 37 -8 41 11 5 27 -30 13 -41 43 -24 64 14 18 80
15 86 -3z m137 -5 c22 -31 20 -74 -4 -98 -27 -27 -56 -25 -85 5 -46 45 -22
115 40 115 24 0 39 -7 49 -22z m133 5 c3 -7 -9 -13 -29 -15 l-33 -3 33 -18
c40 -22 44 -62 8 -78 -31 -14 -76 -4 -76 17 0 12 6 15 24 10 37 -9 41 11 6 29
-53 27 -32 78 29 73 19 -2 36 -8 38 -15z m-11207 -278 c0 -8 -9 -15 -20 -15
-11 0 -20 -4 -20 -10 0 -5 7 -10 15 -10 8 0 15 -7 15 -15 0 -8 -7 -15 -15 -15
-11 0 -15 -12 -15 -50 0 -43 -3 -50 -20 -50 -17 0 -20 7 -20 50 0 28 -4 50 -9
50 -5 0 0 18 10 40 16 33 24 40 49 40 20 0 30 -5 30 -15z m947 -78 c0 -48 -2
-87 -5 -88 -4 0 -24 -2 -45 -4 -48 -5 -77 21 -77 68 0 43 29 72 65 63 23 -6
25 -4 25 25 0 24 4 30 18 27 14 -3 17 -16 19 -91z m973 3 c0 -73 -3 -90 -15
-90 -12 0 -15 17 -15 90 0 73 3 90 15 90 12 0 15 -17 15 -90z m76 79 c10 -17
-13 -36 -27 -22 -12 12 -4 33 11 33 5 0 12 -5 16 -11z m374 -24 c0 -8 9 -15
20 -15 11 0 20 -7 20 -15 0 -8 -9 -15 -21 -15 -17 0 -20 -5 -17 -37 2 -26 8
-38 18 -38 23 0 18 -30 -5 -33 -34 -4 -48 14 -55 70 -5 39 -3 59 8 76 16 25
32 29 32 7z m-2260 -35 c39 -39 12 -120 -40 -120 -12 0 -32 12 -47 26 -20 20
-24 31 -19 57 11 56 67 76 106 37z m76 9 c4 -8 9 -8 17 0 16 16 37 13 37 -5 0
-9 -9 -18 -20 -21 -16 -4 -20 -14 -20 -48 0 -28 -5 -45 -14 -48 -22 -9 -26 2
-26 70 0 59 10 78 26 52z m194 -9 c11 -17 14 -103 4 -113 -17 -16 -34 8 -34
48 0 24 -5 47 -12 51 -16 10 -38 -25 -38 -63 0 -23 -5 -33 -15 -33 -12 0 -15
14 -15 63 l0 64 50 -1 c33 -1 54 -6 60 -16z m140 0 c11 -11 20 -29 20 -40 0
-17 -7 -20 -41 -20 -28 0 -39 -4 -36 -12 2 -7 18 -12 36 -12 39 2 43 -23 4
-32 -43 -11 -77 14 -81 60 -6 67 53 101 98 56z m137 3 c3 -7 -8 -13 -24 -15
-23 -2 -29 -8 -31 -35 -3 -33 2 -37 41 -34 27 3 20 -28 -8 -35 -16 -4 -34 0
-50 10 -34 22 -36 87 -2 111 24 17 68 17 74 -2z m127 1 c9 -8 16 -26 16 -40 0
-21 -4 -24 -40 -24 -22 0 -40 -4 -40 -9 0 -13 34 -23 53 -16 24 10 30 -13 6
-25 -44 -24 -98 10 -99 63 0 54 68 88 104 51z m294 0 c33 -23 31 -88 -3 -110
-69 -45 -138 51 -79 110 20 20 53 20 82 0z m82 5 c0 -8 5 -8 15 1 8 7 22 9 31
6 13 -5 14 -9 4 -21 -7 -8 -18 -15 -26 -15 -8 0 -14 -16 -16 -47 -2 -35 -7
-48 -18 -48 -12 0 -16 15 -18 68 -2 55 0 67 13 67 8 0 15 -5 15 -11z m174 -5
c9 -8 16 -26 16 -40 0 -21 -4 -24 -40 -24 -22 0 -40 -4 -40 -9 0 -13 30 -22
51 -16 13 4 19 1 19 -9 0 -33 -82 -30 -100 4 -37 70 41 147 94 94z m133 -1 c3
-7 -9 -13 -29 -15 l-33 -3 33 -18 c61 -33 27 -100 -42 -83 -38 10 -34 37 4 30
19 -4 30 -2 30 4 0 7 -13 18 -30 27 -34 17 -40 48 -12 64 22 14 74 10 79 -6z
m187 1 c9 -8 16 -26 16 -40 0 -22 -4 -24 -41 -24 -36 0 -40 -2 -28 -16 8 -9
21 -13 35 -10 13 4 25 2 29 -3 6 -11 -26 -31 -50 -31 -25 0 -65 46 -65 75 0
52 69 85 104 49z m204 -1 c2 -8 -6 -13 -22 -13 -28 0 -50 -29 -40 -54 6 -16
16 -20 47 -17 27 3 20 -28 -8 -35 -40 -10 -75 19 -75 63 0 47 25 75 64 71 16
-2 31 -9 34 -15z m140 -47 c2 -40 -1 -62 -9 -67 -23 -14 -29 1 -29 67 0 57 2
65 18 62 13 -3 18 -15 20 -62z m138 39 c23 -35 12 -55 -32 -55 -24 0 -34 -4
-31 -12 2 -7 18 -12 36 -12 38 2 43 -23 5 -32 -72 -18 -120 68 -68 121 24 24
71 19 90 -10z m149 5 c21 -24 18 -115 -5 -115 -11 0 -16 13 -18 48 -5 80 -52
76 -52 -4 0 -34 -19 -57 -34 -42 -7 7 -8 117 -2 124 2 2 25 5 49 6 33 1 50 -4
62 -17z m251 -5 c23 -35 12 -55 -32 -55 -24 0 -34 -4 -31 -12 2 -7 18 -12 36
-12 39 2 43 -23 4 -32 -44 -12 -77 14 -81 63 -4 48 16 73 58 73 20 0 35 -8 46
-25z m122 8 c2 -8 -6 -13 -22 -13 -14 0 -26 -4 -26 -10 0 -5 6 -10 13 -10 24
0 49 -37 42 -59 -11 -36 -87 -43 -93 -8 -3 14 2 16 27 11 39 -8 41 10 4 28
-52 25 -36 82 20 76 17 -2 32 -9 35 -15z m70 -100 c-2 -10 -10 -18 -18 -18 -8
0 -16 8 -18 18 -2 12 3 17 18 17 15 0 20 -5 18 -17z"/>
<path d="M6320 4530 c0 -34 26 -52 41 -29 15 24 6 54 -18 57 -20 3 -23 -1 -23
-28z"/>
<path d="M7514 4556 c-9 -25 0 -61 16 -61 22 0 26 60 5 69 -9 3 -18 0 -21 -8z"/>
<path d="M8845 4550 c-12 -20 4 -62 23 -58 23 4 24 61 0 66 -9 2 -19 -2 -23
-8z"/>
<path d="M11065 4550 c-12 -20 4 -62 23 -58 23 4 24 61 0 66 -9 2 -19 -2 -23
-8z"/>
<path d="M12812 4528 c2 -21 8 -33 18 -33 10 0 16 12 18 33 3 27 0 32 -18 32
-18 0 -21 -5 -18 -32z"/>
<path d="M2532 4561 c-22 -13 -11 -66 13 -66 16 0 20 7 20 34 0 36 -11 46 -33
32z"/>
<path d="M2910 4555 c-17 -21 -4 -67 18 -63 22 4 29 63 8 71 -8 3 -20 -1 -26
-8z"/>
<path d="M3655 4509 c-4 -6 -4 -13 -1 -16 8 -8 36 5 36 17 0 13 -27 13 -35 -1z"/>
<path d="M3895 4560 c-3 -6 1 -13 10 -16 19 -8 30 0 20 15 -8 14 -22 14 -30 1z"/>
<path d="M4281 4556 c-17 -20 -10 -60 11 -64 24 -5 36 44 16 64 -13 13 -16 13
-27 0z"/>
<path d="M4530 4555 c0 -10 7 -15 18 -13 21 4 19 22 -2 26 -10 2 -16 -3 -16
-13z"/>
<path d="M4787 4514 c-9 -10 2 -24 19 -24 8 0 14 7 14 15 0 15 -21 21 -33 9z"/>
<path d="M5027 4564 c-9 -10 2 -24 19 -24 8 0 14 7 14 15 0 15 -21 21 -33 9z"/>
<path d="M5290 4551 c-8 -15 -8 -27 0 -42 16 -29 35 -18 35 21 0 39 -19 50
-35 21z"/>
<path d="M5437 4564 c-9 -10 2 -24 19 -24 8 0 14 7 14 15 0 15 -21 21 -33 9z"/>
<path d="M5770 4504 c0 -9 7 -14 17 -12 25 5 28 28 4 28 -12 0 -21 -6 -21 -16z"/>
<path d="M6177 4514 c-9 -10 2 -24 19 -24 8 0 14 7 14 15 0 15 -21 21 -33 9z"/>
<path d="M6475 4509 c-4 -6 -4 -13 -1 -16 8 -8 36 5 36 17 0 13 -27 13 -35 -1z"/>
<path d="M6865 4509 c-4 -6 -4 -13 -1 -16 8 -8 36 5 36 17 0 13 -27 13 -35 -1z"/>
<path d="M7110 4550 c-8 -14 -7 -26 0 -41 15 -28 34 -19 38 18 4 37 -22 52
-38 23z"/>
<path d="M7360 4530 c0 -34 26 -52 41 -29 15 24 6 54 -18 57 -20 3 -23 -1 -23
-28z"/>
<path d="M7940 4505 c0 -8 6 -15 14 -15 8 0 16 7 20 15 4 10 -1 15 -14 15 -11
0 -20 -7 -20 -15z"/>
<path d="M8084 4546 c-10 -26 1 -51 21 -51 15 0 21 8 23 33 3 27 0 32 -18 32
-11 0 -23 -6 -26 -14z"/>
<path d="M8550 4555 c0 -10 7 -15 18 -13 21 4 19 22 -2 26 -10 2 -16 -3 -16
-13z"/>
<path d="M8995 4511 c-3 -5 -1 -12 5 -16 12 -7 30 2 30 16 0 12 -27 12 -35 0z"/>
<path d="M9235 4560 c-3 -6 1 -13 10 -16 19 -8 30 0 20 15 -8 14 -22 14 -30 1z"/>
<path d="M9700 4505 c0 -8 7 -15 15 -15 8 0 15 7 15 15 0 8 -7 15 -15 15 -8 0
-15 -7 -15 -15z"/>
<path d="M10265 4560 c-3 -6 1 -13 10 -16 19 -8 30 0 20 15 -8 14 -22 14 -30
1z"/>
<path d="M10685 4509 c-4 -6 -4 -13 -1 -16 8 -8 36 5 36 17 0 13 -27 13 -35
-1z"/>
<path d="M10825 4549 c-4 -5 -4 -21 -1 -35 10 -37 40 -28 44 14 3 26 0 32 -17
32 -11 0 -23 -5 -26 -11z"/>
<path d="M11220 4555 c0 -10 7 -15 18 -13 21 4 19 22 -2 26 -10 2 -16 -3 -16
-13z"/>
<path d="M11660 4505 c0 -8 7 -15 15 -15 8 0 15 7 15 15 0 8 -7 15 -15 15 -8
0 -15 -7 -15 -15z"/>
<path d="M12174 4546 c-10 -26 0 -51 21 -51 16 0 20 7 20 30 0 33 -30 49 -41
21z"/>
<path d="M12665 4511 c-3 -5 -1 -12 5 -16 12 -7 30 2 30 16 0 12 -27 12 -35 0z"/>
<path d="M12962 4528 c4 -39 32 -51 41 -18 8 31 -2 50 -25 50 -16 0 -19 -6
-16 -32z"/>
<path d="M13225 4559 c-10 -15 1 -23 20 -15 9 3 13 10 10 16 -8 13 -22 13 -30
-1z"/>
<path d="M13570 4505 c0 -8 7 -15 15 -15 8 0 15 7 15 15 0 8 -7 15 -15 15 -8
0 -15 -7 -15 -15z"/>
<path d="M3394 4216 c-10 -26 1 -51 21 -51 15 0 21 8 23 33 3 27 0 32 -18 32
-11 0 -23 -6 -26 -14z"/>
<path d="M2517 4234 c-13 -13 -7 -24 14 -24 11 0 19 5 17 12 -5 14 -22 21 -31
12z"/>
<path d="M2774 4216 c-10 -26 1 -51 21 -51 15 0 21 8 23 33 3 27 0 32 -18 32
-11 0 -23 -6 -26 -14z"/>
<path d="M2990 4225 c0 -10 7 -15 18 -13 21 4 19 22 -2 26 -10 2 -16 -3 -16
-13z"/>
<path d="M3192 4183 c-6 -2 -10 -9 -6 -14 8 -14 31 -11 38 6 5 15 -7 18 -32 8z"/>
<path d="M3620 4225 c0 -10 7 -15 18 -13 21 4 19 22 -2 26 -10 2 -16 -3 -16
-13z"/>
<path d="M3757 4216 c-10 -24 4 -56 24 -56 15 0 19 7 19 35 0 28 -4 35 -19 35
-10 0 -21 -6 -24 -14z"/>
<path d="M5187 3894 c-4 -4 -7 -20 -7 -36 0 -22 5 -28 21 -28 17 0 20 5 17 32
-3 31 -17 45 -31 32z"/>
<path d="M11354 3886 c-9 -24 0 -51 18 -54 21 -4 34 34 18 53 -16 19 -29 19
-36 1z"/>
<path d="M2751 3846 c-9 -10 -9 -16 -1 -21 13 -8 42 14 34 26 -8 13 -20 11
-33 -5z"/>
<path d="M3130 3881 c-13 -25 -3 -51 20 -51 21 0 31 20 23 49 -7 26 -29 27
-43 2z"/>
<path d="M3465 3890 c-3 -5 3 -10 14 -10 12 0 21 5 21 10 0 6 -6 10 -14 10 -8
0 -18 -4 -21 -10z"/>
<path d="M4037 3893 c-4 -3 -7 -19 -7 -35 0 -21 5 -28 19 -28 26 0 34 15 27
46 -6 23 -25 32 -39 17z"/>
<path d="M4563 3845 c-3 -9 -3 -19 1 -22 8 -9 37 18 30 28 -8 14 -24 11 -31
-6z"/>
<path d="M4965 3890 c-3 -5 3 -10 14 -10 12 0 21 5 21 10 0 6 -6 10 -14 10 -8
0 -18 -4 -21 -10z"/>
<path d="M5731 3851 c-7 -5 -11 -14 -7 -19 9 -15 36 -4 36 14 0 16 -9 18 -29
5z"/>
<path d="M5944 3886 c-9 -23 0 -51 17 -54 20 -4 30 18 22 47 -6 24 -31 28 -39
7z"/>
<path d="M6096 3847 c-14 -10 -16 -16 -7 -22 15 -9 35 8 30 24 -3 8 -10 7 -23
-2z"/>
<path d="M6353 3853 c-15 -5 -18 -33 -4 -33 13 0 33 28 24 33 -4 2 -14 2 -20
0z"/>
<path d="M6790 3890 c0 -5 9 -10 20 -10 11 0 20 5 20 10 0 6 -9 10 -20 10 -11
0 -20 -4 -20 -10z"/>
<path d="M7167 3893 c-4 -3 -7 -19 -7 -35 0 -21 5 -28 19 -28 22 0 32 20 24
49 -5 21 -23 28 -36 14z"/>
<path d="M7426 3847 c-14 -10 -16 -16 -7 -22 15 -9 35 8 30 24 -3 8 -10 7 -23
-2z"/>
<path d="M7740 3890 c0 -5 9 -10 20 -10 11 0 20 5 20 10 0 6 -9 10 -20 10 -11
0 -20 -4 -20 -10z"/>
<path d="M8190 3850 c-11 -7 -12 -12 -4 -20 8 -8 14 -7 23 4 14 17 1 28 -19
16z"/>
<path d="M8590 3890 c0 -5 9 -10 21 -10 11 0 17 5 14 10 -3 6 -13 10 -21 10
-8 0 -14 -4 -14 -10z"/>
<path d="M8911 3846 c-8 -10 -9 -16 -1 -21 13 -8 30 3 30 21 0 18 -14 18 -29
0z"/>
<path d="M9120 3890 c0 -5 9 -10 20 -10 11 0 20 5 20 10 0 6 -9 10 -20 10 -11
0 -20 -4 -20 -10z"/>
<path d="M9520 3890 c0 -5 9 -10 20 -10 11 0 20 5 20 10 0 6 -9 10 -20 10 -11
0 -20 -4 -20 -10z"/>
<path d="M9740 3890 c0 -5 9 -10 21 -10 11 0 17 5 14 10 -3 6 -13 10 -21 10
-8 0 -14 -4 -14 -10z"/>
<path d="M10243 3853 c-15 -5 -18 -33 -4 -33 13 0 33 28 24 33 -4 2 -14 2 -20
0z"/>
<path d="M10451 3851 c-7 -5 -11 -14 -7 -19 9 -15 36 -4 36 14 0 16 -9 18 -29
5z"/>
<path d="M10780 3842 c0 -14 11 -21 26 -15 21 8 17 23 -6 23 -11 0 -20 -4 -20
-8z"/>
<path d="M11205 3841 c-3 -5 -1 -12 5 -16 12 -7 30 2 30 16 0 12 -27 12 -35 0z"/>
<path d="M11500 3835 c0 -17 2 -18 24 -9 23 9 20 24 -4 24 -11 0 -20 -7 -20
-15z"/>
<path d="M12206 3874 c-8 -31 5 -49 29 -40 11 4 15 15 13 33 -4 38 -33 42 -42
7z"/>
<path d="M12430 3850 c-10 -6 -11 -13 -5 -19 6 -6 16 -7 25 -1 10 6 11 13 5
19 -6 6 -16 7 -25 1z"/>
<path d="M12570 3881 c-13 -25 -3 -51 20 -51 21 0 31 30 18 54 -12 21 -25 20
-38 -3z"/>
<path d="M13067 3893 c-4 -3 -7 -19 -7 -35 0 -21 5 -28 19 -28 24 0 37 36 21
55 -14 16 -23 19 -33 8z"/>
<path d="M13451 3886 c-18 -22 -9 -51 17 -54 21 -3 23 0 20 29 -3 37 -19 47
-37 25z"/>
<path d="M3307 3564 c-12 -12 -8 -51 6 -62 20 -17 39 2 35 34 -3 27 -26 43
-41 28z"/>
<path d="M2487 3564 c-10 -10 -9 -62 2 -68 21 -14 42 7 39 38 -3 29 -25 46
-41 30z"/>
<path d="M2900 3560 c0 -5 9 -10 20 -10 11 0 20 5 20 10 0 6 -9 10 -20 10 -11
0 -20 -4 -20 -10z"/>
<path d="M3165 3560 c-3 -5 3 -10 14 -10 12 0 21 5 21 10 0 6 -6 10 -14 10 -8
0 -18 -4 -21 -10z"/>
<path d="M3454 3545 c-4 -18 -1 -32 10 -43 21 -21 39 -4 34 34 -4 39 -35 45
-44 9z"/>
<path d="M3715 3560 c-3 -5 3 -10 14 -10 12 0 21 5 21 10 0 6 -6 10 -14 10 -8
0 -18 -4 -21 -10z"/>
<path d="M4035 3560 c-4 -6 5 -10 20 -10 15 0 24 4 20 10 -3 6 -12 10 -20 10
-8 0 -17 -4 -20 -10z"/>
<path d="M4510 3560 c0 -5 9 -10 21 -10 11 0 17 5 14 10 -3 6 -13 10 -21 10
-8 0 -14 -4 -14 -10z"/>
<path d="M4910 3560 c0 -5 9 -10 20 -10 11 0 20 5 20 10 0 6 -9 10 -20 10 -11
0 -20 -4 -20 -10z"/>
<path d="M2584 6511 c-89 -23 -136 -95 -137 -211 -1 -107 25 -159 96 -194 28
-14 65 -26 82 -26 25 0 38 -9 69 -50 37 -48 40 -50 87 -50 27 0 49 5 49 10 0
6 -18 30 -40 54 -22 24 -40 46 -40 50 0 4 15 20 34 37 44 38 60 85 60 174 -1
94 -33 159 -96 191 -33 17 -123 26 -164 15z m117 -81 c36 -20 51 -67 47 -146
-3 -59 -8 -77 -26 -97 -46 -49 -122 -42 -159 13 -42 61 -27 199 24 229 23 14
89 14 114 1z"/>
<path d="M11707 6503 c-4 -3 -7 -60 -7 -125 0 -108 2 -119 18 -116 14 3 17 17
20 93 4 124 -6 173 -31 148z"/>
<path d="M12876 6494 c-11 -30 -6 -37 14 -19 11 10 20 22 20 27 0 15 -28 9
-34 -8z"/>
<path d="M13150 6490 c0 -15 5 -20 18 -18 9 2 17 10 17 18 0 8 -8 16 -17 18
-13 2 -18 -3 -18 -18z"/>
<path d="M11262 6484 c-15 -10 -22 -25 -22 -49 0 -28 6 -37 30 -50 16 -8 45
-15 64 -15 51 0 86 -16 86 -39 0 -31 -35 -43 -108 -39 -42 2 -67 -1 -69 -8 -8
-24 108 -33 165 -13 42 14 60 60 39 93 -16 24 -31 29 -119 41 -51 7 -69 28
-44 54 11 10 34 14 81 13 52 -2 65 1 65 13 0 22 -137 21 -168 -1z"/>
<path d="M12296 6492 c-11 -18 -76 -205 -76 -218 0 -24 28 -15 34 11 6 23 11
25 66 25 55 0 60 -2 66 -25 6 -25 34 -35 34 -12 0 6 -17 60 -37 120 -33 92
-41 107 -60 107 -12 0 -24 -4 -27 -8z m47 -79 c9 -27 17 -54 17 -60 0 -15 -66
-18 -74 -5 -6 10 25 112 34 112 3 0 14 -21 23 -47z"/>
<path d="M11500 6412 c-37 -38 -40 -80 -6 -119 21 -25 31 -28 81 -28 50 0 60
3 81 28 30 35 31 78 1 113 -18 20 -35 28 -75 32 -47 4 -54 2 -82 -26z m114
-12 c35 -13 37 -71 4 -94 -29 -20 -72 -20 -92 0 -17 16 -21 61 -8 80 15 23 57
29 96 14z"/>
<path d="M11805 6428 c-31 -18 -44 -40 -45 -76 0 -69 39 -95 135 -89 l60 3 0
84 0 83 -65 3 c-37 2 -74 -2 -85 -8z m93 -24 c19 -5 22 -13 22 -54 0 -52 -8
-60 -63 -60 -60 0 -88 59 -47 100 20 20 47 25 88 14z"/>
<path d="M11994 6431 c-2 -2 -4 -42 -4 -88 0 -75 2 -84 18 -81 14 3 18 16 20
70 l3 67 37 6 c54 9 64 14 57 25 -6 9 -121 10 -131 1z"/>
<path d="M12444 6428 c-3 -4 -4 -44 -3 -88 1 -71 4 -80 20 -80 17 0 19 8 19
70 l0 69 34 6 c19 4 43 2 55 -4 18 -10 21 -21 21 -76 0 -50 3 -65 15 -65 18 0
30 58 21 105 -6 31 -4 35 19 41 63 16 85 -9 85 -98 0 -36 4 -48 15 -48 26 0
21 120 -7 155 -20 25 -25 27 -72 21 -28 -4 -58 -6 -66 -5 -62 4 -153 3 -156
-3z"/>
<path d="M12830 6428 c-56 -30 -62 -109 -12 -148 33 -26 125 -25 130 1 2 14
-5 15 -46 11 -38 -3 -52 0 -67 14 -18 19 -17 19 56 24 l74 5 -2 34 c0 18 -8
40 -16 48 -20 20 -87 26 -117 11z m90 -33 c19 -22 3 -35 -45 -35 -50 0 -62 11
-39 34 19 20 68 21 84 1z"/>
<path d="M12994 6431 c-2 -2 -4 -42 -4 -88 0 -64 3 -83 14 -83 9 0 15 21 20
70 l7 69 37 6 c54 9 64 14 57 25 -6 9 -121 10 -131 1z"/>
<path d="M13157 6433 c-4 -3 -7 -44 -7 -90 0 -67 3 -83 15 -83 12 0 15 17 15
90 0 83 -5 101 -23 83z"/>
<path d="M13270 6433 c-83 -31 -79 -148 6 -169 39 -10 89 0 92 18 3 16 -2 17
-41 12 -37 -5 -48 -3 -66 15 -11 11 -21 30 -21 41 0 11 10 30 21 41 18 18 29
20 66 15 39 -5 44 -4 41 12 -2 12 -14 18 -43 19 -22 1 -47 -1 -55 -4z"/>
<path d="M13416 6418 c-16 -14 -29 -38 -33 -60 -5 -32 -1 -41 25 -67 29 -29
34 -31 102 -29 l71 2 -3 84 -3 84 -66 5 c-59 4 -70 1 -93 -19z m115 -18 c14
-8 19 -21 19 -50 0 -43 -18 -60 -65 -60 -47 0 -65 17 -65 61 0 32 4 41 23 49
30 12 65 12 88 0z"/>
<path d="M3412 6410 c-92 -22 -138 -149 -91 -252 27 -60 130 -92 217 -69 37
11 42 15 42 41 0 34 1 33 -59 19 -56 -12 -104 2 -120 37 -6 14 -9 30 -6 35 4
5 51 9 106 9 l99 0 0 38 c0 101 -87 166 -188 142z m92 -82 c29 -42 21 -49 -46
-46 -57 3 -63 5 -60 23 6 32 22 45 58 45 23 0 38 -7 48 -22z"/>
<path d="M3825 6412 c-11 -2 -32 -13 -46 -23 -26 -18 -27 -18 -32 2 -4 16 -12
20 -39 17 l-33 -3 0 -155 0 -155 42 -3 41 -3 4 111 c3 103 5 113 27 131 28 23
41 24 67 5 16 -13 19 -29 22 -130 l4 -116 39 0 39 0 0 83 c0 96 14 153 40 167
27 14 37 13 60 -10 18 -18 20 -33 20 -130 l0 -110 45 0 45 0 0 108 c0 185 -22
218 -141 213 -14 -1 -35 -10 -47 -21 -22 -20 -22 -21 -49 -1 -30 21 -76 31
-108 23z"/>
<path d="M4488 6410 c-64 -11 -88 -34 -88 -83 0 -51 19 -73 95 -109 35 -16 51
-30 53 -45 5 -31 -34 -39 -97 -20 l-51 15 0 -38 c0 -34 3 -38 31 -44 125 -25
210 17 209 102 -1 39 -18 57 -91 94 -75 39 -85 63 -24 62 22 0 51 -3 64 -5 20
-3 27 2 35 23 5 15 7 30 4 33 -11 11 -104 21 -140 15z"/>
<path d="M4807 6409 c-128 -21 -159 -228 -45 -302 68 -44 153 -32 208 27 21
23 25 39 28 101 4 63 1 80 -18 110 -34 55 -95 78 -173 64z m99 -101 c20 -39
14 -110 -11 -138 -22 -24 -68 -26 -89 -5 -30 30 -33 128 -5 162 6 7 29 13 50
13 33 0 41 -4 55 -32z"/>
<path d="M5226 6410 c-15 -5 -37 -17 -48 -26 -18 -17 -19 -17 -25 4 -4 17 -13
22 -39 22 l-34 0 0 -160 0 -160 44 0 44 0 4 111 c3 103 5 112 27 130 24 20 59
18 73 -5 4 -6 8 -62 8 -123 l0 -113 44 0 44 0 4 111 c3 102 5 112 27 130 28
23 41 24 67 5 16 -13 19 -29 22 -130 l4 -116 39 0 39 0 0 125 c0 172 -15 198
-113 198 -24 0 -50 -9 -68 -22 l-29 -22 -22 21 c-12 11 -27 20 -32 20 -6 0
-20 2 -31 5 -11 2 -33 0 -49 -5z"/>
<path d="M5768 6410 c-78 -14 -118 -68 -118 -162 0 -97 65 -168 153 -168 89 0
147 55 155 145 10 128 -69 205 -190 185z m87 -93 c20 -28 19 -116 -1 -145 -19
-28 -67 -29 -94 -2 -15 15 -20 33 -20 78 1 61 13 87 45 94 30 6 54 -2 70 -25z"/>
<path d="M6125 6413 c-11 -2 -30 -6 -43 -9 -58 -12 -82 -87 -43 -135 10 -12
42 -34 72 -48 44 -21 54 -31 54 -51 0 -22 -4 -25 -35 -24 -19 0 -52 4 -73 8
l-38 8 3 -33 c3 -38 21 -46 101 -48 59 -1 110 21 126 55 28 63 6 104 -78 146
-37 19 -66 40 -66 48 0 19 56 25 97 11 37 -13 36 -13 44 27 6 29 5 31 -32 37
-22 4 -46 8 -54 10 -8 1 -24 1 -35 -2z"/>
<path d="M2930 6285 c0 -142 10 -174 60 -195 38 -16 105 -8 132 17 19 17 20
17 33 0 7 -10 25 -17 44 -17 l32 0 -3 158 -3 157 -42 3 -43 3 0 -95 c0 -94
-10 -144 -33 -158 -19 -12 -64 -9 -75 5 -6 6 -12 64 -14 127 l-3 115 -42 3
-43 3 0 -126z"/>
<path d="M12228 6158 c9 -9 15 -9 24 0 9 9 7 12 -12 12 -19 0 -21 -3 -12 -12z"/>
<path d="M12301 6138 c0 -18 3 -27 6 -20 4 10 9 10 22 -2 17 -15 18 -14 19 19
1 31 -1 35 -23 35 -22 0 -25 -4 -24 -32z m39 12 c0 -5 -7 -10 -15 -10 -8 0
-15 5 -15 10 0 6 7 10 15 10 8 0 15 -4 15 -10z"/>
<path d="M12402 6145 c-16 -36 -16 -50 2 -36 7 6 21 9 30 5 9 -3 16 -4 16 -1
0 13 -24 57 -30 57 -4 0 -12 -11 -18 -25z m23 -5 c3 -5 1 -10 -4 -10 -6 0 -11
5 -11 10 0 6 2 10 4 10 3 0 8 -4 11 -10z"/>
<path d="M12491 6135 c1 -32 2 -35 8 -15 l7 24 15 -22 c19 -26 29 -19 28 17
-1 17 -3 20 -6 9 -6 -23 -11 -23 -34 5 l-18 22 0 -40z"/>
<path d="M12590 6155 c0 -9 7 -18 15 -21 20 -8 19 -21 -2 -27 -14 -4 -13 -5 3
-6 29 -1 41 29 14 36 -23 6 -26 19 -7 26 7 3 5 6 -5 6 -10 1 -18 -6 -18 -14z"/>
<path d="M12671 6133 c1 -21 3 -30 6 -21 2 9 12 19 21 21 15 4 15 5 0 6 -10 0
-18 5 -18 10 0 5 8 12 18 14 13 4 11 5 -5 6 -20 1 -23 -4 -22 -36z"/>
<path d="M12754 6156 c-9 -24 0 -51 19 -54 23 -5 47 15 47 38 0 29 -56 42 -66
16z m50 -5 c10 -16 -5 -41 -25 -41 -14 0 -19 7 -19 25 0 18 5 25 19 25 11 0
22 -4 25 -9z"/>
<path d="M12860 6160 c0 -5 7 -7 15 -4 8 4 15 1 15 -5 0 -6 -7 -11 -15 -11 -8
0 -15 -8 -15 -17 0 -14 2 -15 9 -4 7 10 10 11 16 0 6 -9 11 -6 17 10 4 13 6
27 2 32 -7 12 -44 12 -44 -1z"/>
<path d="M12941 6133 c1 -21 3 -31 6 -22 5 19 53 21 65 4 4 -5 8 5 8 23 0 35
-13 42 -30 15 -10 -17 -10 -17 -20 0 -18 28 -30 19 -29 -20z"/>
<path d="M13071 6152 c-16 -30 -14 -37 14 -37 28 0 32 12 11 40 -13 18 -14 18
-25 -3z"/>
<path d="M13152 6138 c4 -41 40 -52 58 -18 15 27 -2 50 -37 50 -21 0 -24 -4
-21 -32z m51 10 c6 -19 -3 -38 -18 -38 -18 0 -28 17 -21 35 7 18 33 20 39 3z"/>
<path d="M13253 6154 c-9 -24 10 -49 38 -49 20 0 24 5 24 30 0 25 -4 30 -28
33 -18 2 -29 -2 -34 -14z m55 -17 c4 -20 -25 -34 -40 -19 -15 15 -1 44 19 40
10 -2 19 -11 21 -21z"/>
<path d="M13360 6133 c0 -26 3 -34 9 -24 5 7 13 11 19 7 12 -7 26 29 17 44 -3
5 -15 10 -26 10 -15 0 -19 -7 -19 -37z m35 17 c3 -5 -1 -10 -9 -10 -9 0 -16 5
-16 10 0 6 4 10 9 10 6 0 13 -4 16 -10z"/>
<path d="M13450 6135 c0 -30 3 -35 23 -34 16 1 18 2 5 6 -10 2 -18 8 -18 13 0
5 8 11 18 13 16 4 16 5 0 6 -10 0 -18 5 -18 10 0 5 8 12 18 14 13 4 11 5 -5 6
-20 1 -23 -4 -23 -34z"/>
<path d="M13530 6155 c0 -9 7 -18 15 -21 20 -8 19 -21 -2 -27 -14 -4 -13 -5 4
-6 32 -2 39 19 13 39 -22 17 -23 18 -4 23 16 4 16 5 -3 6 -15 1 -23 -5 -23
-14z"/>
</g>
</svg>
